<?xml version="1.0" encoding="utf-8"?>
<!-- Generator: Adobe Illustrator 23.0.1, SVG Export Plug-In . SVG Version: 6.00 Build 0)  -->
<svg version="1.1" id="Laag_1" xmlns="http://www.w3.org/2000/svg" xmlns:xlink="http://www.w3.org/1999/xlink" x="0px" y="0px"
	 viewBox="0 0 37.2 37.2" style="enable-background:new 0 0 37.2 37.2;" xml:space="preserve">
<g id="Group_1779" transform="translate(0.25 0.25)">
	<g id="Path_886">
		<path d="M31.6,36.9H5.1c-3,0-5.4-2.4-5.4-5.4V5.1c0-3,2.4-5.4,5.4-5.4h26.5c3,0,5.4,2.4,5.4,5.4l0,26.5l0,0
			C36.9,34.5,34.5,36.9,31.6,36.9z M5.1,1.2C3,1.3,1.3,3,1.2,5.1v26.5c0,2.1,1.7,3.9,3.9,3.9h26.5c2.1,0,3.9-1.7,3.9-3.9l0-26.5
			c0-2.1-1.7-3.9-3.9-3.9H5.1z"/>
	</g>
	<g id="Ellipse_298">
		<path d="M7.1,14.3C5.4,14.3,4,13,4,11.3s1.4-3.1,3.1-3.1s3.1,1.4,3.1,3.1S8.8,14.3,7.1,14.3z M7.1,9.7c-0.9,0-1.6,0.7-1.6,1.6
			s0.7,1.6,1.6,1.6s1.6-0.7,1.6-1.6S8,9.7,7.1,9.7z"/>
	</g>
	<g id="Ellipse_299">
		<path d="M17.9,26.6c-1.7,0-3.1-1.4-3.1-3.1c0-1.7,1.4-3.1,3.1-3.1s3.1,1.4,3.1,3.1C20.9,25.3,19.6,26.6,17.9,26.6z M17.9,22
			c-0.9,0-1.6,0.7-1.6,1.6c0,0.9,0.7,1.6,1.6,1.6s1.6-0.7,1.6-1.6C19.4,22.7,18.7,22,17.9,22z"/>
	</g>
	<g id="Ellipse_300">
		<path d="M28.6,18.9c-1.7,0-3.1-1.4-3.1-3.1s1.4-3.1,3.1-3.1c1.7,0,3.1,1.4,3.1,3.1S30.3,18.9,28.6,18.9z M28.6,14.3
			c-0.9,0-1.6,0.7-1.6,1.6s0.7,1.6,1.6,1.6c0.9,0,1.6-0.7,1.6-1.6S29.5,14.3,28.6,14.3z"/>
	</g>
	<g id="Line_129">
		<path d="M6.7,32.6c-0.4,0-0.8-0.3-0.8-0.8V13.6c0-0.4,0.3-0.8,0.8-0.8s0.8,0.3,0.8,0.8v18.3C7.4,32.3,7.1,32.6,6.7,32.6z"/>
	</g>
	<g id="Line_130">
		<path d="M6.7,9.2c-0.4,0-0.8-0.3-0.8-0.8V4.8c0-0.4,0.3-0.8,0.8-0.8s0.8,0.3,0.8,0.8v3.7C7.4,8.9,7.1,9.2,6.7,9.2z"/>
	</g>
	<g id="Line_131">
		<path d="M17.7,21.6c-0.4,0-0.8-0.3-0.8-0.8v-16c0-0.4,0.3-0.8,0.8-0.8s0.8,0.3,0.8,0.8v16C18.5,21.2,18.1,21.6,17.7,21.6z"/>
	</g>
	<g id="Line_132">
		<path d="M17.7,32.6c-0.4,0-0.8-0.3-0.8-0.8v-6c0-0.4,0.3-0.8,0.8-0.8s0.8,0.3,0.8,0.8v6C18.5,32.3,18.1,32.6,17.7,32.6z"/>
	</g>
	<g id="Line_133">
		<path d="M28.8,32.6c-0.4,0-0.8-0.3-0.8-0.8V18.3c0-0.4,0.3-0.8,0.8-0.8s0.8,0.3,0.8,0.8v13.5C29.6,32.3,29.2,32.6,28.8,32.6z"/>
	</g>
	<g id="Line_134">
		<path d="M28.8,14.2c-0.4,0-0.8-0.3-0.8-0.8V4.8c0-0.4,0.3-0.8,0.8-0.8s0.8,0.3,0.8,0.8v8.6C29.6,13.8,29.2,14.2,28.8,14.2z"/>
	</g>
</g>
</svg>
