<?xml version="1.0" encoding="utf-8"?>
<!-- Generator: Adobe Illustrator 24.3.0, SVG Export Plug-In . SVG Version: 6.00 Build 0)  -->
<svg version="1.1" id="Laag_2"
	xmlns="http://www.w3.org/2000/svg"
	xmlns:xlink="http://www.w3.org/1999/xlink" x="0px" y="0px" viewBox="0 0 13.5 9.7" style="enable-background:new 0 0 13.5 9.7;" xml:space="preserve">
	<style type="text/css">
	.st0{fill:inherit;}
	</style>
	<g id="Laag_1">
		<path id="Path_986" class="st0" d="M13.3,4.5L9,0.2c-0.2-0.2-0.5-0.2-0.8,0L7.9,0.5C7.7,0.7,7.7,1,7.9,1.2c0,0,0,0,0,0l3,3H0.3
		C0.2,4.2,0,4.4,0,4.6l0,0v0.6c0,0.2,0.2,0.3,0.3,0.3c0,0,0,0,0,0h10.5l-3,3c-0.2,0.2-0.2,0.5,0,0.8l0.3,0.3c0.2,0.2,0.5,0.2,0.8,0
		l4.3-4.3C13.5,5,13.5,4.7,13.3,4.5z"/>
	</g>
</svg>
