<svg xmlns="http://www.w3.org/2000/svg" viewBox="0 0 24 11.5"><g id="Laag_2" data-name="Laag 2"><g id="icons"><path d="M23.5,9H21V8h2c0-.9-.22-3-2.28-3h-3.5a.49.49,0,0,1-.4-.2L14.27,1.4a1,1,0,0,0-.8-.4H7a1,1,0,0,0-.8.4L3.62,4.8a.48.48,0,0,1-.4.2H1V8H3V9H.5A.5.5,0,0,1,0,8.5v-4A.5.5,0,0,1,.5,4H3L5.37.8A2,2,0,0,1,7,0h6.5a2,2,0,0,1,1.6.8L17.47,4h3.25C22.74,4,24,5.53,24,8v.5A.5.5,0,0,1,23.5,9Z"/><rect x="7" y="8" width="10" height="1"/><path d="M4.72,11.5A2.5,2.5,0,1,1,7.22,9,2.5,2.5,0,0,1,4.72,11.5Zm0-4A1.5,1.5,0,1,0,6.22,9,1.5,1.5,0,0,0,4.72,7.5Z"/><path d="M18.72,11.5A2.5,2.5,0,1,1,21.22,9,2.5,2.5,0,0,1,18.72,11.5Zm0-4A1.5,1.5,0,1,0,20.22,9,1.5,1.5,0,0,0,18.72,7.5Z"/><rect x="3" y="4" width="15" height="1"/><rect x="10" y="1" width="1" height="3"/></g></g></svg>