<svg xmlns="http://www.w3.org/2000/svg" width="30.881" height="44" viewBox="0 0 30.881 44">
  <g id="Group_3892" data-name="Group 3892" transform="translate(0)">
    <path id="Path_2255" data-name="Path 2255" d="M891.286,6110.113a15.44,15.44,0,1,1,15.44-15.44A15.458,15.458,0,0,1,891.286,6110.113Zm0-29.048a13.607,13.607,0,1,0,13.607,13.607A13.623,13.623,0,0,0,891.286,6081.065Z" transform="translate(-875.846 -6079.232)"/>
    <path id="Path_2256" data-name="Path 2256" d="M896.1,6111.524a.852.852,0,0,1-.27-.04l-11.458-3.515a.913.913,0,0,1-.647-.877v-9.6a.917.917,0,1,1,1.833,0v8.926l9.451,2.9-1.929-15a.917.917,0,1,1,1.819-.233l2.11,16.406a.919.919,0,0,1-.909,1.032Z" transform="translate(-869.284 -6067.524)"/>
    <path id="Path_2257" data-name="Path 2257" d="M878.388,6111.587a.917.917,0,0,1-.909-1.032l2.13-16.548a.917.917,0,1,1,1.819.235l-1.951,15.136,9.453-2.9v-8.926a.917.917,0,1,1,1.833,0v9.6a.914.914,0,0,1-.649.877l-11.458,3.515A.841.841,0,0,1,878.388,6111.587Z" transform="translate(-874.492 -6067.586)"/>
    <path id="Path_2258" data-name="Path 2258" d="M886.583,6096.147a.916.916,0,0,1-.917-.916V6087l-2.195,1.67a.917.917,0,1,1-1.111-1.459l3.667-2.789a.929.929,0,0,1,.962-.091.914.914,0,0,1,.51.82v10.084A.916.916,0,0,1,886.583,6096.147Z" transform="translate(-870.718 -6075.064)"/>
    <path id="Path_2259" data-name="Path 2259" d="M888.917,6092.065h-5.5a.917.917,0,1,1,0-1.833h5.5a.917.917,0,1,1,0,1.833Z" transform="translate(-870.301 -6070.066)"/>
  </g>
</svg>
