<svg xmlns="http://www.w3.org/2000/svg" viewBox="0 0 46.44 47.38"><title>Blijvend</title><g id="Laag_2" data-name="Laag 2"><g id="icons"><path d="M23,46A23,23,0,1,1,46,23a23.43,23.43,0,0,1-.59,5.23,1,1,0,1,1-1.95-.45A21.3,21.3,0,0,0,44,23,21,21,0,1,0,23,44a16.49,16.49,0,0,0,4.22-.42,1,1,0,0,1,.45,2A18.48,18.48,0,0,1,23,46Z"/><path d="M23,24a1,1,0,0,1-.71-.29,1,1,0,0,1,0-1.42l12-12a1,1,0,0,1,1.42,1.42l-12,12A1,1,0,0,1,23,24Z"/><path d="M23,24a1,1,0,0,1-.71-.29l-6-6a1,1,0,0,1,1.42-1.42l6,6a1,1,0,0,1,0,1.42A1,1,0,0,1,23,24Z"/><path d="M46.44,46.38a1,1,0,0,1-1,1h-18a1,1,0,0,1-1-1v-18a1,1,0,0,1,1-1h18a1,1,0,0,1,1,1Zm-18-1h16v-16h-16Z"/><path d="M38.44,34.38a1,1,0,0,1-1,1h-6a1,1,0,0,1-1-1v-6a1,1,0,0,1,1-1h6a1,1,0,0,1,1,1Zm-6-1h4v-4h-4Z"/><path d="M42.44,46.38a1,1,0,0,1-1,1h-10a1,1,0,0,1-1-1v-6a1,1,0,0,1,1-1h10a1,1,0,0,1,1,1Zm-10-1h8v-4h-8Z"/></g></g></svg>