<?xml version="1.0" encoding="utf-8"?>
<!-- Generator: Adobe Illustrator 24.3.0, SVG Export Plug-In . SVG Version: 6.00 Build 0)  -->
<svg version="1.1" id="Component_16_17" xmlns="http://www.w3.org/2000/svg" xmlns:xlink="http://www.w3.org/1999/xlink" x="0px"
	 y="0px" viewBox="0 0 32 22.1" style="enable-background:new 0 0 32 22.1;" xml:space="preserve">
<style type="text/css">
	.st0{fill:url(#Path_2307_1_);}
</style>
<linearGradient id="Path_2307_1_" gradientUnits="userSpaceOnUse" x1="-479.1954" y1="500.1076" x2="-478.9254" y2="501.4036" gradientTransform="matrix(31.9827 0 0 -22.1473 15336.4521 11105.2109)">
	<stop  offset="0" style="stop-color:#EF9D22"/>
	<stop  offset="0.422" style="stop-color:#FDA15F"/>
	<stop  offset="1" style="stop-color:#FED736"/>
</linearGradient>
<path id="Path_2307" class="st0" d="M16.1,0C11.2,0,7.3,1.4,4.6,4.2C0,8.8,0,15.7,0,15.8c0,1.1,0.5,2.2,1.2,3.1
	c2,2.1,6.6,3.2,9.8,3.2c1.4,0.1,2.8-0.2,4.1-0.9c5.7-3.3,10.3-6.2,14.3-9c1.8-1.4,2.7-3.5,2.4-5.7c-0.3-1.9-4.5-5.2-13.1-6.4
	C17.9,0,17,0,16.1,0"/>
</svg>
