<svg xmlns="http://www.w3.org/2000/svg" viewBox="0 0 24 18.09"><g id="Laag_2" data-name="Laag 2"><g id="icons"><path d="M.5,18.09A.42.42,0,0,1,.28,18,.5.5,0,0,1,0,17.59v-16a.51.51,0,0,1,.2-.4C2.43-.48,9.7-.37,12.75,1.38a.5.5,0,0,1,.25.43V15.09a.5.5,0,0,1-1,0v-13C9.1.65,3,.7,1,1.86V16.74c2.68-1.14,7.79-.46,10.3.35h.84c2.7-.88,7.6-1.46,10.86-.26V1.88c-2-1-6.21-1.2-8.83-.28a.49.49,0,0,1-.64-.3.5.5,0,0,1,.3-.64c3-1.06,7.85-.81,9.94.51a.5.5,0,0,1,.23.42v16a.5.5,0,0,1-.24.43.48.48,0,0,1-.48,0c-2.68-1.34-7.74-1-10.9,0l-.16,0h-1l-.16,0C8.17,17.1,2.59,16.65.8,18A.47.47,0,0,1,.5,18.09Z"/></g></g></svg>