<svg xmlns="http://www.w3.org/2000/svg" viewBox="0 0 18.17 23.17"><g id="Laag_2" data-name="Laag 2"><g id="icons"><path d="M10.9,23.17a.51.51,0,0,1-.5-.5v-19a.5.5,0,0,1,.5-.5.5.5,0,0,1,.5.5v19A.5.5,0,0,1,10.9,23.17Z"/><path d="M10.62,10.52a.48.48,0,0,1-.36-.16.5.5,0,0,1,0-.71L12.7,7.42a.51.51,0,0,1,.71,0,.5.5,0,0,1,0,.71L11,10.39A.47.47,0,0,1,10.62,10.52Z"/><path d="M10.62,14a.53.53,0,0,1-.23-.06l-5.5-2.91a.5.5,0,0,1,.47-.89l5.5,2.92a.51.51,0,0,1,.21.68A.52.52,0,0,1,10.62,14Z"/><path d="M11.46,17.21a5.1,5.1,0,0,1-3.88-1.8A5,5,0,0,1,5.12,16a5.13,5.13,0,0,1,0-10.25l.44,0a4,4,0,0,1-.06-.69,5.11,5.11,0,0,1,9.87-1.88,5.08,5.08,0,0,1,1.17,8.27,3.48,3.48,0,0,1,0,.57A5.13,5.13,0,0,1,11.46,17.21Zm-3.76-3a.48.48,0,0,1,.4.21,4.12,4.12,0,0,0,7.48-2.39,3.82,3.82,0,0,0-.07-.68.51.51,0,0,1,.17-.47,4.09,4.09,0,0,0,1.49-3.14,4.16,4.16,0,0,0-2.41-3.74.51.51,0,0,1-.26-.28,4.11,4.11,0,0,0-8,1.35,4.06,4.06,0,0,0,.19,1.17.5.5,0,0,1-.6.63,3.87,3.87,0,0,0-1-.13,4.13,4.13,0,0,0,0,8.25,4.07,4.07,0,0,0,2.3-.7A.54.54,0,0,1,7.7,14.26Z"/></g></g></svg>