<svg xmlns="http://www.w3.org/2000/svg" viewBox="0 0 23.28 18.1"><g id="Laag_2" data-name="Laag 2"><g id="icons"><path d="M3.65,18.1a3.26,3.26,0,0,1-1-.16A3.45,3.45,0,0,1,.55,16.23,3.51,3.51,0,0,1,.3,13.57L2.38,6.81A3.5,3.5,0,0,1,3.5,0h11a3.5,3.5,0,0,1,0,7H10.34a1,1,0,0,0-.9.66L7,15.63A3.47,3.47,0,0,1,3.65,18.1ZM3.5,1a2.5,2.5,0,0,0-.4,5,.47.47,0,0,1,.34.23.46.46,0,0,1,.05.41L1.26,13.86a2.45,2.45,0,0,0,.18,1.91A2.48,2.48,0,0,0,2.91,17,2.53,2.53,0,0,0,6,15.33l2.45-8A1.92,1.92,0,0,1,10.34,6H14.5a2.5,2.5,0,0,0,0-5Z"/><path d="M22.78,4h-5a.5.5,0,0,1,0-1h5a.5.5,0,0,1,0,1Z"/><rect x="13.78" y="1" width="1" height="5"/><path d="M5.78,3h-1a.5.5,0,0,1,0-1h1a.5.5,0,1,1,0,1Z"/><path d="M5.78,5h-1a.5.5,0,0,1,0-1h1a.5.5,0,1,1,0,1Z"/><path d="M10,11H8.78a.5.5,0,0,1,0-1h.86L11,6.32A.5.5,0,0,1,11.68,6a.52.52,0,0,1,.29.65l-1.52,4A.5.5,0,0,1,10,11Z"/></g></g></svg>