<svg xmlns="http://www.w3.org/2000/svg" width="35.041" height="36.637" viewBox="0 0 35.041 36.637">
  <g id="Group_3887" data-name="Group 3887" transform="translate(0)">
    <path id="Path_2238" data-name="Path 2238" d="M692.465,6212.369h-6.236a.781.781,0,0,1-.619-.3c-5.421-7.048-3.59-12.485-1.653-18.239a37.653,37.653,0,0,0,2.273-9.574,9.4,9.4,0,0,0-.153-1.328,8.421,8.421,0,0,1,.19-4.32c.237-.709.957-2.872,3.079-2.872s2.841,2.163,3.078,2.872a8.4,8.4,0,0,1,.19,4.32,9.238,9.238,0,0,0-.15,1.382,37.655,37.655,0,0,0,2.271,9.52c1.938,5.754,3.768,11.191-1.654,18.239A.78.78,0,0,1,692.465,6212.369Zm-5.848-1.559h5.46c4.635-6.231,3.109-10.768,1.182-16.486a39.359,39.359,0,0,1-2.351-9.961,10.193,10.193,0,0,1,.168-1.684,6.882,6.882,0,0,0-.131-3.581c-.53-1.592-1.105-1.807-1.6-1.807s-1.07.215-1.6,1.807a6.914,6.914,0,0,0-.131,3.581,10.328,10.328,0,0,1,.172,1.628,39.3,39.3,0,0,1-2.354,10.017C683.508,6200.042,681.98,6204.579,686.617,6210.81Z" transform="translate(-682.024 -6175.732)"/>
    <path id="Path_2239" data-name="Path 2239" d="M713.9,6189.791H684.279a.78.78,0,0,1,0-1.56H713.9a.78.78,0,0,1,0,1.56Z" transform="translate(-681.198 -6168.744)"/>
    <path id="Path_2240" data-name="Path 2240" d="M716.019,6193.79h-32.74a.779.779,0,1,1,0-1.559h32.74a.779.779,0,1,1,0,1.559Z" transform="translate(-681.758 -6166.507)"/>
    <g id="Group_3886" data-name="Group 3886" transform="translate(11.385)">
      <path id="Path_2241" data-name="Path 2241" d="M698.289,6196.777a.778.778,0,0,1-.742-.541c-.2-.633-.418-1.276-.638-1.925a39.326,39.326,0,0,1-2.348-9.948,10.193,10.193,0,0,1,.168-1.684,6.88,6.88,0,0,0-.131-3.581c-.53-1.592-1.105-1.807-1.6-1.807a.779.779,0,1,1,0-1.559c2.12,0,2.841,2.163,3.078,2.872a8.406,8.406,0,0,1,.19,4.32,9.246,9.246,0,0,0-.15,1.382,37.5,37.5,0,0,0,2.268,9.507c.221.658.44,1.306.645,1.948a.782.782,0,0,1-.505.98A.79.79,0,0,1,698.289,6196.777Z" transform="translate(-687.708 -6175.732)"/>
      <path id="Path_2242" data-name="Path 2242" d="M697.737,6201.174H691.5a.781.781,0,0,1-.619-.3,22.154,22.154,0,0,1-1.445-2.116.78.78,0,1,1,1.339-.8,19.676,19.676,0,0,0,1.113,1.659h5.46a17.53,17.53,0,0,0,2.013-3.394.779.779,0,0,1,1.428.623,19.413,19.413,0,0,1-2.435,4.026A.78.78,0,0,1,697.737,6201.174Z" transform="translate(-689.326 -6164.538)"/>
      <path id="Path_2243" data-name="Path 2243" d="M690.105,6194.44a.758.758,0,0,1-.248-.041.777.777,0,0,1-.489-.986,35.864,35.864,0,0,0,2.134-9.161,9.425,9.425,0,0,0-.153-1.328,8.421,8.421,0,0,1,.19-4.32c.237-.709.957-2.872,3.079-2.872a.779.779,0,1,1,0,1.559c-.494,0-1.07.215-1.6,1.807a6.915,6.915,0,0,0-.131,3.581,10.321,10.321,0,0,1,.171,1.628,37.2,37.2,0,0,1-2.215,9.6A.779.779,0,0,1,690.105,6194.44Z" transform="translate(-689.326 -6175.732)"/>
    </g>
    <path id="Path_2244" data-name="Path 2244" d="M705.465,6212.369h-6.236a.781.781,0,0,1-.619-.3c-5.421-7.048-3.59-12.485-1.653-18.239a37.655,37.655,0,0,0,2.273-9.574,9.4,9.4,0,0,0-.153-1.328,8.421,8.421,0,0,1,.19-4.32c.237-.709.957-2.872,3.079-2.872s2.841,2.163,3.078,2.872a8.4,8.4,0,0,1,.19,4.32,9.238,9.238,0,0,0-.15,1.382,37.65,37.65,0,0,0,2.271,9.52c1.938,5.754,3.768,11.191-1.654,18.239A.78.78,0,0,1,705.465,6212.369Zm-5.848-1.559h5.46c4.635-6.231,3.109-10.768,1.182-16.486a39.359,39.359,0,0,1-2.351-9.961,10.186,10.186,0,0,1,.168-1.684,6.88,6.88,0,0,0-.131-3.581c-.53-1.592-1.105-1.807-1.6-1.807s-1.07.215-1.6,1.807a6.914,6.914,0,0,0-.131,3.581,10.328,10.328,0,0,1,.171,1.628,39.3,39.3,0,0,1-2.354,10.017C696.508,6200.042,694.98,6204.579,699.617,6210.81Z" transform="translate(-674.756 -6175.732)"/>
  </g>
</svg>
