<?xml version="1.0" encoding="utf-8"?>
<!-- Generator: Adobe Illustrator 23.0.1, SVG Export Plug-In . SVG Version: 6.00 Build 0)  -->
<svg version="1.1" id="Group_1795" xmlns="http://www.w3.org/2000/svg" xmlns:xlink="http://www.w3.org/1999/xlink" x="0px" y="0px"
	 viewBox="0 0 70.6 61.6" style="enable-background:new 0 0 70.6 61.6;" xml:space="preserve">
<g id="Group_1795-2" transform="translate(0 0.006)">
	<path id="Path_1335" d="M19.5,20.7L19.5,20.7c-0.8-0.1-1.4-0.8-1.3-1.5c0.1-3.1-0.4-8.9-4.9-11.5c-0.6-0.4-0.8-1.2-0.5-1.9
		c0.4-0.6,1.2-0.9,1.8-0.5c0,0,0,0,0,0c4.1,2.5,6.4,7.7,6.2,14C20.9,20,20.3,20.6,19.5,20.7z"/>
	<path id="Path_1336" d="M15,31.1c-1.3,0.1-2.6-0.2-3.8-0.7c-1.3-0.7-1.2-2.7-1-5.9c0.1-1.4,0.2-2.8,0.1-4.3c-1-0.1-1.9,0-2.9,0.1
		c-1.3,0.2-2.6,0.3-3.8,0.2c-0.7,0-1.3-0.7-1.3-1.4c0,0,0,0,0,0c0-0.7,0.6-1.3,1.4-1.3c0,0,0,0,0,0c1.1,0,2.3,0,3.4-0.2
		c2-0.2,3.7-0.4,4.9,0.5c1.2,0.9,1.1,2.9,0.9,6.5c-0.1,1.2-0.1,2.3-0.1,3.5c1.4,0.4,4.5,0.2,6.4-0.2c0.7-0.1,1.4,0.3,1.6,1.1
		s-0.3,1.4-1.1,1.6l0,0C18.2,30.9,16.6,31.1,15,31.1z"/>
	<path id="Path_1337" d="M20.5,15.8c-0.5,0-0.9,0-1.4-0.1c-0.7-0.1-1.3-0.7-1.2-1.5c0.1-0.7,0.7-1.3,1.5-1.2c1.7,0.1,3.4,0,5.1-0.2
		c0.7-0.1,1.4,0.4,1.5,1.1s-0.4,1.4-1.1,1.5l0,0C23.3,15.7,21.9,15.8,20.5,15.8z"/>
	<path id="Path_1338" d="M2.7,43.6c-0.7,0-1.3-0.6-1.3-1.3s0.6-1.3,1.3-1.3c6.1,0,10.8-0.7,13.5-2.1c2.8-1.4,9.3-7.7,9.5-9.2
		c0-0.7,0.6-1.3,1.3-1.3c0,0,0,0,0,0c0.7,0,1.3,0.6,1.3,1.4c0,3.2-8.5,10.3-11,11.5C14.3,42.8,9.4,43.6,2.7,43.6z"/>
	<path id="Path_1339" d="M10,56.4c-0.7,0-1.3-0.6-1.3-1.3c0-0.4,0.2-0.7,0.4-1c0.9-0.8,1.7-1.7,2.6-2.6c2.4-2.5,4.8-5.2,7.8-5.4
		c0.7,0,1.4,0.5,1.4,1.3c0,0.7-0.5,1.3-1.2,1.4c-1.9,0.1-4,2.4-6,4.5c-0.9,1-1.8,2-2.8,2.8C10.6,56.3,10.3,56.4,10,56.4z"/>
	<path id="Path_1340" d="M31,38.8c-3.1,0.1-6.1-1.3-8.1-3.6c-0.5-0.6-0.4-1.4,0.1-1.9c0.6-0.5,1.4-0.4,1.9,0.1
		c1.5,1.8,3.8,2.8,6.1,2.7c0.7,0,1.3,0.6,1.3,1.3C32.3,38.2,31.7,38.8,31,38.8z"/>
	<path id="Path_1341" d="M20,61.6c-3,0-5.8-1.1-8.1-2.9C4.2,52.8,0,43.3,0,32.1C0,17.4,7.9,5.3,20.5,0.6c2.9-1.1,6.2-0.7,8.8,1.2
		c2.4,1.7,3.7,4.5,3.7,8.3v37.8c0,5.7-2.6,10.2-7.1,12.4C24.1,61.1,22.1,61.6,20,61.6z M23.9,2.7c-0.8,0-1.6,0.2-2.4,0.5
		C9.9,7.4,2.7,18.5,2.7,32.1c0,10.4,3.8,19.1,10.8,24.5c3.2,2.6,7.5,3.1,11.2,1.2c3.5-1.7,5.6-5.4,5.6-10V10.1
		c0-2.9-0.8-4.9-2.5-6.1C26.6,3.2,25.3,2.7,23.9,2.7z"/>
	<path id="Path_1342" d="M27.9,57.7c-0.3,0-0.7-0.1-0.9-0.4c-1.8-1.7-3.8-3.9-3.8-7.3c0-0.7,0.6-1.3,1.3-1.3c0.7,0,1.3,0.6,1.3,1.3
		c0,2.1,1,3.5,2.9,5.3c0.5,0.5,0.6,1.3,0.1,1.9c0,0,0,0,0,0C28.6,57.5,28.3,57.7,27.9,57.7z"/>
	<path id="Path_1343" d="M26.9,23.1c-0.7,0-1.3-0.6-1.3-1.3c0-0.7,0.6-1.3,1.3-1.3c1.2-0.1,1.2-0.1,3.1-2.8c0.4-0.6,1.3-0.8,1.9-0.3
		c0.6,0.4,0.8,1.3,0.3,1.9C30.1,22.1,29.5,22.9,26.9,23.1C26.9,23.1,26.9,23.1,26.9,23.1z"/>
</g>
<g id="Group_1796" transform="translate(35.642)">
	<path id="Path_1344" d="M15.7,20.7c-0.7-0.1-1.3-0.7-1.3-1.4c-0.2-6.4,2-11.5,6.2-13.9c0.6-0.4,1.4-0.2,1.8,0.4
		c0.4,0.6,0.2,1.4-0.5,1.8c0,0,0,0,0,0c-4.5,2.7-5,8.5-4.9,11.6C17.1,20,16.6,20.6,15.7,20.7L15.7,20.7z"/>
	<path id="Path_1345" d="M20.2,31.1c-1.6,0-3.2-0.2-4.7-0.5c-0.7-0.1-1.2-0.8-1.1-1.6s0.8-1.2,1.6-1.1c1.9,0.4,5,0.6,6.5,0.2
		c0-1.2,0-2.3-0.1-3.5c-0.2-3.6-0.3-5.6,0.9-6.5c1.2-0.9,2.9-0.8,4.8-0.7c1,0.1,1.9,0.1,2.9,0.1c0.7,0,1.4,0.6,1.4,1.3
		c0,0.7-0.5,1.3-1.2,1.4c-1.1,0-2.1,0-3.2-0.1c-1-0.1-1.9-0.1-2.9,0.1c-0.1,1.4-0.1,2.9,0.1,4.3c0.2,3.3,0.3,5.2-1,5.9
		C22.8,30.9,21.5,31.2,20.2,31.1z"/>
	<path id="Path_1346" d="M14.8,15.8c-1.4,0-2.9-0.1-4.3-0.3c-0.7-0.1-1.2-0.8-1.1-1.5c0,0,0,0,0,0c0.1-0.7,0.8-1.2,1.5-1.2
		c1.7,0.2,3.4,0.3,5.1,0.2c0.7-0.1,1.4,0.5,1.5,1.2c0.1,0.7-0.5,1.4-1.2,1.5l0,0C15.8,15.8,15.3,15.8,14.8,15.8z"/>
	<path id="Path_1347" d="M32.2,43.6c-6.6,0-11.2-0.8-14.4-2.4c-2.5-1.3-11-8.3-11-11.5c0-0.7,0.6-1.3,1.3-1.3s1.3,0.6,1.3,1.3
		c0.2,1.5,6.7,7.7,9.5,9.1c2.8,1.4,7.1,2.1,13.2,2.1c0.7,0,1.3,0.6,1.3,1.3S32.9,43.6,32.2,43.6C32.2,43.6,32.2,43.6,32.2,43.6z"/>
	<path id="Path_1348" d="M25,56.4c-0.3,0-0.7-0.1-0.9-0.3c-1-1-2-2-2.9-3c-1.8-2.1-3.8-4.2-5.6-4.3c-0.7-0.1-1.3-0.7-1.2-1.5
		c0.1-0.7,0.7-1.2,1.4-1.2c2.9,0.2,5.2,2.8,7.4,5.2c0.8,1,1.7,1.9,2.7,2.8c0.5,0.5,0.6,1.3,0.1,1.9C25.8,56.3,25.4,56.4,25,56.4z"/>
	<path id="Path_1349" d="M1.9,38.8c-0.7,0-1.3-0.6-1.3-1.3c0-0.7,0.6-1.3,1.3-1.3c3.8,0,7.8-1.9,8.5-2.7c0.5-0.6,1.3-0.6,1.9-0.1
		c0.6,0.5,0.6,1.3,0.1,1.9l0,0C11,36.8,6,38.8,1.9,38.8z"/>
	<path id="Path_1350" d="M14.3,61.6L14.3,61.6c-2.1,0-4.2-0.5-6.1-1.4c-4.9-2.2-8-7-8.2-12.4V10.1c0.2-3.4,1.9-6.4,4.8-8.3
		C6.6,0.6,8.8,0,11,0c1.3,0,2.5,0.2,3.7,0.6C27.2,5.3,35,17.3,35,32.1c0,11.1-4.3,20.5-12.2,26.6C20.4,60.6,17.4,61.6,14.3,61.6z
		 M11,2.7C9.3,2.6,7.7,3.1,6.3,4c-2.1,1.3-3.4,3.6-3.6,6.1v37.8c0,4,2.7,8,6.7,10c3.8,1.8,8.4,1.3,11.8-1.2
		c7.2-5.6,11.1-14.3,11.1-24.5c0-13.6-7.1-24.7-18.6-29C12.8,2.8,11.9,2.7,11,2.7z"/>
	<path id="Path_1351" d="M6.7,58.3c-0.4,0-0.7-0.1-1-0.4c-0.5-0.5-0.5-1.4,0.1-1.9c0,0,0,0,0,0c1.7-1.6,3.6-3.7,3.6-6
		c0-0.7,0.6-1.3,1.3-1.3s1.3,0.6,1.3,1.3c0,3.3-2.3,5.9-4.4,7.9C7.4,58.2,7.1,58.3,6.7,58.3z"/>
	<path id="Path_1352" d="M8.4,23.1L8.4,23.1c-3.2-0.2-5.9-1.9-7.6-4.5c-0.4-0.6-0.3-1.4,0.3-1.9s1.4-0.3,1.9,0.3
		c1.2,1.9,3.2,3.1,5.5,3.3c0.7,0,1.3,0.7,1.3,1.4c0,0,0,0,0,0C9.7,22.5,9.1,23.1,8.4,23.1z"/>
</g>
</svg>
