<svg id="Laag_1" data-name="Laag 1"
  xmlns="http://www.w3.org/2000/svg"
  xmlns:xlink="http://www.w3.org/1999/xlink" viewBox="0 0 31.98 22.15">
  <defs>
    <linearGradient id="Verloop" x1="-16.6" y1="48.46" x2="24.08" y2="-0.11" gradientUnits="userSpaceOnUse">
      <stop offset="0" stop-color="#ef9d22"/>
      <stop offset="0.42" stop-color="#fda15f"/>
      <stop offset="1" stop-color="#fed736"/>
    </linearGradient>
  </defs>
  <path d="M32,6.52c-.28-1.94-4.54-5.21-13.13-6.4C17.91.05,17,0,16.1,0,11.2,0,7.32,1.41,4.56,4.21,0,8.84,0,15.73,0,15.81a5,5,0,0,0,1.2,3.12c2,2.08,6.56,3.21,9.85,3.21a8.15,8.15,0,0,0,4.11-.89c5.71-3.34,10.26-6.2,14.34-9A6.41,6.41,0,0,0,32,6.52Z" transform="translate(0 0)" style="fill:url(#Verloop)"/>
</svg> 