<?xml version="1.0" encoding="utf-8"?>
<!-- Generator: Adobe Illustrator 23.0.6, SVG Export Plug-In . SVG Version: 6.00 Build 0)  -->
<svg version="1.1" id="Laag_1" xmlns="http://www.w3.org/2000/svg" xmlns:xlink="http://www.w3.org/1999/xlink" x="0px" y="0px"
	 viewBox="0 0 36 27.2" style="enable-background:new 0 0 36 27.2;" xml:space="preserve">
<path id="Path_1520" d="M34.6,0H1.4C0.6,0,0,0.7,0,1.4c0,0.7,0.6,1.3,1.3,1.3h33.2c0.8,0,1.4-0.7,1.3-1.4C35.9,0.6,35.4,0,34.6,0z"
	/>
<path id="Path_1521" d="M34.6,12.2H1.4c-0.8,0-1.4,0.7-1.3,1.4c0,0.7,0.6,1.3,1.3,1.3h33.2c0.8,0,1.4-0.7,1.3-1.4
	C35.9,12.8,35.4,12.3,34.6,12.2z"/>
<path id="Path_1522" d="M34.6,24.5H1.4c-0.8,0-1.4,0.7-1.3,1.4c0,0.7,0.6,1.3,1.3,1.3h33.2c0.8,0,1.4-0.7,1.3-1.4
	C35.9,25.1,35.4,24.5,34.6,24.5z"/>
</svg>
