<?xml version="1.0" encoding="utf-8"?>
<!-- Generator: Adobe Illustrator 23.0.6, SVG Export Plug-In . SVG Version: 6.00 Build 0)  -->
<svg version="1.1" id="Laag_1" xmlns="http://www.w3.org/2000/svg" xmlns:xlink="http://www.w3.org/1999/xlink" x="0px" y="0px"
	 viewBox="0 0 37.4 70.3" style="enable-background:new 0 0 37.4 70.3;" xml:space="preserve">
<g id="Group_3758" transform="translate(-1206.164 -4965.699)">
	<g id="Ellipse_440">
		<path d="M1224.9,4985.5c-5.5,0-9.9-4.4-9.9-9.9s4.4-9.9,9.9-9.9c5.5,0,9.9,4.4,9.9,9.9S1230.3,4985.5,1224.9,4985.5z
			 M1224.9,4967.7c-4.4,0-7.9,3.6-7.9,7.9s3.6,7.9,7.9,7.9s7.9-3.6,7.9-7.9S1229.2,4967.7,1224.9,4967.7z"/>
	</g>
	<g id="Path_2163">
		<path d="M1231.7,5027.1h-14.3c-0.6,0-1-0.4-1-1v-27.3c0-0.6,0.4-1,1-1s1,0.4,1,1v26.3h12.3v-26.3c0-0.6,0.4-1,1-1s1,0.4,1,1v27.3
			C1232.7,5026.6,1232.3,5027.1,1231.7,5027.1z"/>
	</g>
	<g id="Line_573">
		<path d="M1224.6,5025.9c-0.6,0-1-0.4-1-1V5013c0-0.6,0.4-1,1-1s1,0.4,1,1v11.9C1225.6,5025.4,1225.2,5025.9,1224.6,5025.9z"/>
	</g>
	<g id="Path_2164">
		<path d="M1217.2,5012.2c-3,0-5.5-2.4-5.5-5.4v-11.9c0.2-3.1,2.7-5.4,5.7-5.4h14.9c0.1,0,0.2,0,0.2,0c1.4,0.1,2.7,0.7,3.6,1.7
			c0.9,1,1.4,2.4,1.3,3.7l0,11.9c0,1.5-0.5,2.9-1.5,3.9c-1,1-2.3,1.6-3.8,1.6c0,0,0,0,0,0c-0.5,0-1-0.4-1-1c0-0.6,0.4-1,1-1
			c0.9,0,1.7-0.4,2.4-1s1-1.5,1-2.4l0-12c0-0.9-0.2-1.7-0.8-2.4c-0.6-0.6-1.4-1-2.2-1.1l-0.1,0h-14.9c0,0,0,0,0,0
			c-2,0-3.6,1.5-3.6,3.5l0,11.9c0,1.9,1.6,3.5,3.5,3.5c0,0,0,0,0,0c0.6,0,1,0.4,1,1C1218.2,5011.8,1217.8,5012.2,1217.2,5012.2z"/>
	</g>
	<g id="Path_2165">
		<path d="M1224.9,5036c-10.5,0-18.7-3.8-18.7-8.6c0-4.1,4.2-7.1,11.2-8.2c0.5-0.1,1.1,0.3,1.1,0.8s-0.3,1.1-0.8,1.1
			c-5.9,0.9-9.5,3.2-9.5,6.2c0,3.1,6.9,6.6,16.7,6.6c9.8,0,16.7-3.5,16.7-6.6c0-2.8-3.9-5.3-10-6.2c-0.5-0.1-0.9-0.6-0.8-1.1
			s0.6-0.9,1.1-0.8c7.2,1.1,11.7,4.2,11.7,8.2C1243.6,5032.2,1235.4,5036,1224.9,5036z"/>
	</g>
</g>
</svg>
