<svg xmlns="http://www.w3.org/2000/svg" width="37.417" height="70.276" viewBox="0 0 37.417 70.276">
  <g id="Group_3758" data-name="Group 3758" transform="translate(-1206.165 -4965.699)">
    <circle id="Ellipse_440" data-name="Ellipse 440" cx="8.915" cy="8.915" r="8.915" transform="translate(1215.957 4966.699)" stroke-width="2" stroke="#292c30" stroke-linecap="round" stroke-linejoin="round" fill="none"/>
    <path id="Path_2163" data-name="Path 2163" d="M1225.765,4980.167v27.34H1211.5v-27.34" transform="translate(5.971 18.552)" fill="none" stroke="#292c30" stroke-linecap="round" stroke-linejoin="round" stroke-width="2"/>
    <line id="Line_573" data-name="Line 573" y1="11.887" transform="translate(1224.604 5012.983)" fill="none" stroke="#292c30" stroke-linecap="round" stroke-linejoin="round" stroke-width="2"/>
    <path id="Path_2164" data-name="Path 2164" d="M1228.952,4997.469a4.345,4.345,0,0,0,4.322-4.457v-11.934a4.188,4.188,0,0,0-4.141-4.412h-14.952a4.646,4.646,0,0,0-4.681,4.412v11.934a4.516,4.516,0,0,0,4.524,4.457" transform="translate(3.216 13.731)" fill="none" stroke="#292c30" stroke-linecap="round" stroke-linejoin="round" stroke-width="2"/>
    <path id="Path_2165" data-name="Path 2165" d="M1231.736,4989.177c6.854,1.052,10.846,3.878,10.846,7.2,0,4.22-7.929,7.639-17.71,7.639s-17.707-3.419-17.707-7.639c0-3.319,3.452-6.145,10.306-7.2" transform="translate(0 30.962)" fill="none" stroke="#292c30" stroke-linecap="round" stroke-linejoin="round" stroke-width="2"/>
  </g>
</svg>
