<svg id="Group_3884" data-name="Group 3884" xmlns="http://www.w3.org/2000/svg" width="39.832" height="39.003" viewBox="0 0 39.832 39.003">
  <path id="Path_2223" data-name="Path 2223" d="M165.513,4294.787H132.319a3.323,3.323,0,0,1-3.319-3.32v-19.916a3.324,3.324,0,0,1,3.319-3.32h33.193a3.324,3.324,0,0,1,3.319,3.32v19.916A3.323,3.323,0,0,1,165.513,4294.787Zm-33.193-24.9a1.663,1.663,0,0,0-1.66,1.66v19.916a1.661,1.661,0,0,0,1.66,1.66h33.193a1.661,1.661,0,0,0,1.66-1.66v-19.916a1.663,1.663,0,0,0-1.66-1.66Z" transform="translate(-129 -4255.784)"/>
  <path id="Path_2224" data-name="Path 2224" d="M160.25,4276.068a111.107,111.107,0,0,1-11.5-.741c-6.559-.667-12.223-1.242-18.462.595a.829.829,0,1,1-.468-1.591c6.547-1.931,12.645-1.313,19.1-.656a81.278,81.278,0,0,0,17.563.42.83.83,0,0,1,.173,1.65A61.454,61.454,0,0,1,160.25,4276.068Z" transform="translate(-128.854 -4252.617)"/>
  <path id="Path_2225" data-name="Path 2225" d="M160.25,4280.068a110.964,110.964,0,0,1-11.5-.742c-6.559-.667-12.223-1.242-18.462.6a.83.83,0,0,1-.468-1.592c6.547-1.932,12.645-1.313,19.1-.655a81.311,81.311,0,0,0,17.563.419.829.829,0,0,1,.173,1.65A61.454,61.454,0,0,1,160.25,4280.068Z" transform="translate(-128.854 -4249.979)"/>
  <path id="Path_2226" data-name="Path 2226" d="M135.83,4272.03a.829.829,0,0,1-.83-.83v-6.639a.83.83,0,0,1,1.66,0v6.639A.829.829,0,0,1,135.83,4272.03Z" transform="translate(-125.042 -4258.753)"/>
  <path id="Path_2227" data-name="Path 2227" d="M139.83,4272.03a.829.829,0,0,1-.83-.83v-6.639a.83.83,0,0,1,1.66,0v6.639A.829.829,0,0,1,139.83,4272.03Z" transform="translate(-122.403 -4258.753)"/>
  <path id="Path_2228" data-name="Path 2228" d="M143.83,4272.03a.829.829,0,0,1-.83-.83v-6.639a.83.83,0,0,1,1.66,0v6.639A.829.829,0,0,1,143.83,4272.03Z" transform="translate(-119.765 -4258.753)"/>
  <path id="Path_2229" data-name="Path 2229" d="M147.83,4272.03a.829.829,0,0,1-.83-.83v-6.639a.83.83,0,0,1,1.66,0v6.639A.829.829,0,0,1,147.83,4272.03Z" transform="translate(-117.126 -4258.753)"/>
  <path id="Path_2230" data-name="Path 2230" d="M135.83,4264.052a.83.83,0,0,1-.83-.83v-1.66a.83.83,0,0,1,1.66,0v1.66A.83.83,0,0,1,135.83,4264.052Z" transform="translate(-125.042 -4260.732)"/>
  <path id="Path_2231" data-name="Path 2231" d="M139.83,4264.052a.83.83,0,0,1-.83-.83v-1.66a.83.83,0,0,1,1.66,0v1.66A.83.83,0,0,1,139.83,4264.052Z" transform="translate(-122.403 -4260.732)"/>
  <path id="Path_2232" data-name="Path 2232" d="M143.83,4264.052a.83.83,0,0,1-.83-.83v-1.66a.83.83,0,0,1,1.66,0v1.66A.83.83,0,0,1,143.83,4264.052Z" transform="translate(-119.765 -4260.732)"/>
  <path id="Path_2233" data-name="Path 2233" d="M147.83,4264.052a.83.83,0,0,1-.83-.83v-1.66a.83.83,0,0,1,1.66,0v1.66A.83.83,0,0,1,147.83,4264.052Z" transform="translate(-117.126 -4260.732)"/>
</svg>
