<svg xmlns="http://www.w3.org/2000/svg" width="16" height="17.991" viewBox="0 0 16 17.991">
  <path id="today_FILL1_wght300_GRAD0_opsz24" d="M145.177-851.745a2.1,2.1,0,0,1-1.539-.633,2.1,2.1,0,0,1-.633-1.539,2.1,2.1,0,0,1,.633-1.539,2.1,2.1,0,0,1,1.539-.633,2.1,2.1,0,0,1,1.539.633,2.1,2.1,0,0,1,.633,1.539,2.1,2.1,0,0,1-.633,1.539A2.1,2.1,0,0,1,145.177-851.745Zm-3.475,5.122a1.642,1.642,0,0,1-1.207-.494,1.642,1.642,0,0,1-.494-1.207v-12.6a1.642,1.642,0,0,1,.494-1.207,1.642,1.642,0,0,1,1.207-.494h1.3v-1.267a.7.7,0,0,1,.207-.517.7.7,0,0,1,.517-.207.7.7,0,0,1,.517.207.7.7,0,0,1,.207.517v1.267h7.131v-1.285a.683.683,0,0,1,.2-.5.683.683,0,0,1,.5-.2.683.683,0,0,1,.5.2.683.683,0,0,1,.2.5v1.285h1.3a1.642,1.642,0,0,1,1.207.494,1.642,1.642,0,0,1,.494,1.207v12.6a1.642,1.642,0,0,1-.494,1.207,1.642,1.642,0,0,1-1.207.494Zm0-1.412h12.6a.277.277,0,0,0,.2-.09.277.277,0,0,0,.09-.2v-8.833H141.413v8.833a.277.277,0,0,0,.09.2A.277.277,0,0,0,141.7-848.035Z" transform="translate(-140.001 864.614)" fill="#c1c9d3"/>
</svg>
