<?xml version="1.0" encoding="utf-8"?>
<!-- Generator: Adobe Illustrator 23.0.1, SVG Export Plug-In . SVG Version: 6.00 Build 0)  -->
<svg version="1.1" id="Laag_1" xmlns="http://www.w3.org/2000/svg" xmlns:xlink="http://www.w3.org/1999/xlink" x="0px" y="0px"
	 viewBox="0 0 37.5 38.8" style="enable-background:new 0 0 37.5 38.8;" xml:space="preserve">
<g id="Group_1780" transform="translate(0.25 0.25)">
	<g id="Line_46">
		<path d="M33.1,38.6H3.8c-0.4,0-0.8-0.3-0.8-0.8s0.3-0.8,0.8-0.8h29.3c0.4,0,0.8,0.3,0.8,0.8S33.6,38.6,33.1,38.6z"/>
	</g>
	<g id="Line_47">
		<path d="M30.5,35.9h-24c-0.4,0-0.8-0.3-0.8-0.8s0.3-0.8,0.8-0.8h24c0.4,0,0.8,0.3,0.8,0.8S30.9,35.9,30.5,35.9z"/>
	</g>
	<g id="Line_48">
		<path d="M29.1,33.2H7.8c-0.4,0-0.8-0.3-0.8-0.8s0.3-0.8,0.8-0.8h21.3c0.4,0,0.8,0.3,0.8,0.8S29.6,33.2,29.1,33.2z"/>
	</g>
	<g id="Path_848">
		<path d="M33.8,13.2H3.2c-0.4,0-0.8-0.3-0.8-0.8V7.9H0.5c-0.4,0-0.8-0.3-0.8-0.8V0.5c0-0.4,0.3-0.8,0.8-0.8h8
			c0.4,0,0.8,0.3,0.8,0.8v5.9h3.8V0.5c0-0.4,0.3-0.8,0.8-0.8h9.3c0.4,0,0.8,0.3,0.8,0.8v5.9h3.8V0.5c0-0.4,0.3-0.8,0.8-0.8h8
			c0.4,0,0.8,0.3,0.8,0.8v6.7c0,0.4-0.3,0.8-0.8,0.8h-1.9v4.6C34.6,12.9,34.2,13.2,33.8,13.2z M3.9,11.7h29.1V7.2
			c0-0.4,0.3-0.8,0.8-0.8h1.9V1.2h-6.5v5.9c0,0.4-0.3,0.8-0.8,0.8h-5.3c-0.4,0-0.8-0.3-0.8-0.8V1.2h-7.8v5.9c0,0.4-0.3,0.8-0.8,0.8
			H8.5c-0.4,0-0.8-0.3-0.8-0.8V1.2H1.2v5.2h1.9c0.4,0,0.8,0.3,0.8,0.8V11.7z"/>
	</g>
	<g id="Rectangle_576">
		<path d="M29.8,15.9H7.2c-0.4,0-0.8-0.3-0.8-0.8v-2.7c0-0.4,0.3-0.8,0.8-0.8h22.7c0.4,0,0.8,0.3,0.8,0.8v2.7
			C30.6,15.6,30.2,15.9,29.8,15.9z M7.9,14.4h21.2v-1.2H7.9V14.4z"/>
	</g>
	<g id="Rectangle_577">
		<path d="M28.5,33.2h-20c-0.4,0-0.8-0.3-0.8-0.8V15.2c0-0.4,0.3-0.8,0.8-0.8h20c0.4,0,0.8,0.3,0.8,0.8v17.3
			C29.2,32.9,28.9,33.2,28.5,33.2z M9.2,31.7h18.5V15.9H9.2V31.7z"/>
	</g>
</g>
</svg>
