<svg xmlns="http://www.w3.org/2000/svg" width="25.195" height="25.331" viewBox="0 0 25.195 25.331">
  <g id="Group_3893" data-name="Group 3893" transform="translate(0.756 0.753)">
    <path id="Path_2165" data-name="Path 2165" d="M418.635,7374.713a2,2,0,0,0,2.561-1.2c.09-.25.193-.494.306-.732a2,2,0,1,0-3.605-1.73,11.7,11.7,0,0,0-.464,1.1A2,2,0,0,0,418.635,7374.713Z" transform="translate(-417.032 -7364.378)" fill="none" stroke="#000" stroke-miterlimit="10" stroke-width="1.5"/>
    <path id="Path_2166" data-name="Path 2166" d="M421.206,7378.983c-.09-.248-.169-.5-.235-.758a2,2,0,0,0-3.877.988,11.95,11.95,0,0,0,.356,1.145,2,2,0,0,0,3.756-1.375Z" transform="translate(-417.032 -7364.378)" fill="none" stroke="#000" stroke-miterlimit="10" stroke-width="1.5"/>
    <path id="Path_2167" data-name="Path 2167" stroke="#000" d="M435.317,7371.7a2,2,0,0,0,3.3-2.268c-.227-.328-.469-.646-.726-.949a2,2,0,1,0-3.053,2.582C435,7371.273,435.167,7371.485,435.317,7371.7Z" fill="none" transform="translate(-417.032 -7364.378)" stroke-linecap="round" stroke-linejoin="round" stroke-width="1.5" stroke-dasharray="1 2"/>
    <path id="Path_2168" data-name="Path 2168" d="M424.732,7383.168a7.859,7.859,0,0,1-.671-.431,2,2,0,1,0-2.332,3.25,11.657,11.657,0,0,0,1,.646,2,2,0,1,0,2-3.465Z" transform="translate(-417.032 -7364.378)" fill="none" stroke="#000" stroke-miterlimit="10" stroke-width="1.5"/>
    <path id="Path_2169" data-name="Path 2169" stroke="#000" d="M431.936,7364.668q-.574-.157-1.17-.261a2,2,0,0,0-.677,3.942,7.67,7.67,0,0,1,.775.174,1.979,1.979,0,0,0,.537.073,2,2,0,0,0,.535-3.928Z" fill="none" transform="translate(-417.032 -7364.378)" stroke-linecap="round" stroke-linejoin="round" stroke-width="1.5" stroke-dasharray="1 2"/>
    <path id="Path_2170" data-name="Path 2170" stroke="#000" d="M438.721,7374.213a2.017,2.017,0,0,0-2,2.02c0,.269-.013.536-.039.8a2,2,0,0,0,1.794,2.187q.1.009.2.009a2,2,0,0,0,1.989-1.8c.039-.39.058-.789.058-1.191v-.04A1.982,1.982,0,0,0,438.721,7374.213Z" fill="none" transform="translate(-417.032 -7364.378)" stroke-linecap="round" stroke-linejoin="round" stroke-width="1.5" stroke-dasharray="1 2"/>
    <path id="Path_2171" data-name="Path 2171" d="M434.852,7381.372a7.839,7.839,0,0,1-.541.584,2,2,0,0,0,2.793,2.863,11.563,11.563,0,0,0,.813-.876,2,2,0,0,0-3.065-2.571Z" transform="translate(-417.032 -7364.378)" fill="none" stroke="#000" stroke-miterlimit="10" stroke-width="1.5"/>
    <path id="Path_2172" data-name="Path 2172" d="M423.755,7365.306a11.822,11.822,0,0,0-1.063.55,2,2,0,1,0,2.012,3.457,7.521,7.521,0,0,1,.708-.365,2,2,0,0,0-1.657-3.642Z" transform="translate(-417.032 -7364.378)" fill="none" stroke="#000" stroke-miterlimit="10" stroke-width="1.5"/>
    <path id="Path_2173" data-name="Path 2173" d="M430.12,7384.112c-.259.045-.523.078-.79.1a2,2,0,0,0,.146,4c.05,0,.1,0,.151,0,.4-.032.8-.08,1.187-.149a2,2,0,0,0-.694-3.939Z" transform="translate(-417.032 -7364.378)" fill="none" stroke="#000" stroke-miterlimit="10" stroke-width="1.5"/>
  </g>
</svg>
