<svg id="Layer_1" data-name="Layer 1"
  xmlns="http://www.w3.org/2000/svg" viewBox="0 0 17.42 17.65">
  <defs>
    <style>.cls-1{fill:inherit;}</style>
  </defs>
  <g id="Group_3542" data-name="Group 3542">
    <path id="Path_2222" data-name="Path 2222" class="cls-1" d="M14.26,0H3.15A3.16,3.16,0,0,0,0,3.16V16.74a.91.91,0,0,0,.91.91.86.86,0,0,0,.51-.16L5.05,15h9.21a3.15,3.15,0,0,0,3.15-3.15V3.16A3.16,3.16,0,0,0,14.26,0Zm1.33,11.86a1.32,1.32,0,0,1-1.33,1.32H4.77a.94.94,0,0,0-.51.17L1.82,15V3.15A1.33,1.33,0,0,1,3.15,1.83H14.26a1.32,1.32,0,0,1,1.33,1.32Z" transform="translate(0 0)"/>
    <path id="Path_2223" data-name="Path 2223" class="cls-1" d="M12.51,4.57H4.9A.93.93,0,0,0,4,5.48a.92.92,0,0,0,.91.92h7.62a.93.93,0,0,0,.92-.91.92.92,0,0,0-.91-.92Z" transform="translate(0 0)"/>
    <path id="Path_2224" data-name="Path 2224" class="cls-1" d="M8.71,7.75H4.91a.91.91,0,0,0,0,1.82h3.8a.91.91,0,0,0,0-1.82Z" transform="translate(0 0)"/>
  </g>
</svg>