<?xml version="1.0" encoding="utf-8"?>
<!-- Generator: Adobe Illustrator 23.0.6, SVG Export Plug-In . SVG Version: 6.00 Build 0)  -->
<svg version="1.1" id="Laag_1" xmlns="http://www.w3.org/2000/svg" xmlns:xlink="http://www.w3.org/1999/xlink" x="0px" y="0px"
	 viewBox="0 0 19.5 19.5" style="enable-background:new 0 0 19.5 19.5;" xml:space="preserve">
<g id="Group_3438" transform="translate(-2178.564 -8569.751)">
	<g id="Path_2058">
		<path d="M2196.2,8589.2c-0.2,0-0.4-0.1-0.5-0.2l-3.4-3.4l-1.4,1.6c-0.2,0.2-0.4,0.3-0.7,0.2c-0.3,0-0.5-0.2-0.6-0.4l-4-9.3
			c-0.1-0.3-0.1-0.6,0.2-0.8c0.2-0.2,0.5-0.3,0.8-0.2l9.3,4c0.2,0.1,0.4,0.3,0.4,0.6c0,0.3-0.1,0.5-0.2,0.7l-1.6,1.4l3.5,3.5
			c0.1,0.1,0.2,0.3,0.2,0.5c0,0.2-0.1,0.4-0.2,0.5l-1.2,1.2C2196.5,8589.2,2196.4,8589.2,2196.2,8589.2z M2192.2,8583.7
			c0.2,0,0.4,0.1,0.5,0.2l3.5,3.5l0.1-0.1l-3.5-3.5c-0.1-0.1-0.2-0.3-0.2-0.6c0-0.2,0.1-0.4,0.3-0.5l1.4-1.2l-6.4-2.8l2.8,6.5
			l1.2-1.3C2191.7,8583.8,2191.9,8583.7,2192.2,8583.7C2192.1,8583.7,2192.2,8583.7,2192.2,8583.7z"/>
	</g>
	<g id="Path_2059">
		<path d="M2183.9,8579.5c-0.1,0-0.1,0-0.2,0c-1-0.2-1.8-0.8-2.4-1.7c-0.5-0.9-0.7-1.9-0.5-2.9c0.5-2.1,2.5-3.3,4.6-2.8
			c1.4,0.3,2.6,1.5,2.9,2.9c0.1,0.4-0.2,0.8-0.6,0.9c-0.4,0.1-0.8-0.2-0.9-0.6c-0.2-0.9-0.9-1.6-1.7-1.8c-1.2-0.3-2.5,0.5-2.8,1.7
			c-0.1,0.6,0,1.2,0.3,1.8c0.3,0.5,0.8,0.9,1.4,1c0.4,0.1,0.7,0.5,0.6,0.9C2184.5,8579.3,2184.2,8579.5,2183.9,8579.5z"/>
	</g>
	<g id="Path_2060">
		<path d="M2184.6,8581.8c-3.3,0-6-2.7-6-6c0-3.3,2.7-6,6-6s6,2.7,6,6c0,0.4-0.3,0.8-0.8,0.8s-0.8-0.3-0.8-0.8c0-2.5-2-4.5-4.5-4.5
			s-4.5,2-4.5,4.5c0,2.5,2,4.5,4.5,4.5c0.4,0,0.8,0.3,0.8,0.8S2185,8581.8,2184.6,8581.8z"/>
	</g>
</g>
</svg>
