<svg xmlns="http://www.w3.org/2000/svg" width="16" height="16" viewBox="0 0 16 16">
  <path id="schedule_FILL1_wght300_GRAD0_opsz24" d="M108.633-852.255v-3.323a.611.611,0,0,0-.182-.45.611.611,0,0,0-.45-.182.61.61,0,0,0-.45.182.611.611,0,0,0-.181.45v3.517a.778.778,0,0,0,.055.288.759.759,0,0,0,.173.258l2.884,2.884a.611.611,0,0,0,.44.179.6.6,0,0,0,.448-.179.6.6,0,0,0,.183-.444.6.6,0,0,0-.183-.444ZM108-844a7.791,7.791,0,0,1-3.12-.63,8.08,8.08,0,0,1-2.541-1.71,8.08,8.08,0,0,1-1.71-2.54A7.785,7.785,0,0,1,100-852a7.793,7.793,0,0,1,.63-3.12,8.08,8.08,0,0,1,1.71-2.541,8.076,8.076,0,0,1,2.54-1.71A7.786,7.786,0,0,1,108-860a7.791,7.791,0,0,1,3.12.63,8.079,8.079,0,0,1,2.541,1.71,8.078,8.078,0,0,1,1.71,2.54A7.785,7.785,0,0,1,116-852a7.793,7.793,0,0,1-.63,3.12,8.081,8.081,0,0,1-1.71,2.541,8.076,8.076,0,0,1-2.54,1.71A7.785,7.785,0,0,1,108-844Z" transform="translate(-100.001 859.999)" fill="#c1c9d3"/>
</svg>
