<?xml version="1.0" encoding="utf-8"?>
<!-- Generator: Adobe Illustrator 23.0.6, SVG Export Plug-In . SVG Version: 6.00 Build 0)  -->
<svg version="1.1" id="Laag_1" xmlns="http://www.w3.org/2000/svg" xmlns:xlink="http://www.w3.org/1999/xlink" x="0px" y="0px"
	 viewBox="0 0 23.8 23.8" style="enable-background:new 0 0 23.8 23.8;" xml:space="preserve">
<path id="Path_2109" d="M20.3,3.5c-4.6-4.6-12.2-4.7-16.8,0s-4.7,12.2,0,16.8s12.2,4.7,16.8,0c0,0,0,0,0,0
	C24.9,15.7,24.9,8.1,20.3,3.5z M16.6,16.6c-0.4,0.4-0.9,0.4-1.3,0l-3.4-3.4l-3.6,3.6c-0.4,0.4-0.9,0.4-1.3,0c-0.4-0.4-0.4-0.9,0-1.3
	l3.6-3.6L7.2,8.5c-0.3-0.4-0.3-1,0.1-1.3c0.3-0.3,0.9-0.3,1.2,0l3.4,3.4l3.2-3.2c0.4-0.3,1-0.3,1.3,0.1c0.3,0.3,0.3,0.9,0,1.2
	l-3.2,3.2l3.4,3.4C16.9,15.6,16.9,16.2,16.6,16.6L16.6,16.6z"/>
</svg>
