<svg xmlns="http://www.w3.org/2000/svg" viewBox="0 0 15.33 24"><g id="Laag_2" data-name="Laag 2"><g id="icons"><path d="M11.32,24h-7a.5.5,0,0,1,0-1h7a.5.5,0,0,1,0,1Z"/><path d="M7.82,23.5a.5.5,0,0,1-.5-.5V13a.5.5,0,0,1,.5-.5.5.5,0,0,1,.5.5V23A.5.5,0,0,1,7.82,23.5Z"/><path d="M7.54,13.5h0a.52.52,0,0,1-.4-.2L.1,3.8a.51.51,0,0,1,0-.52A.51.51,0,0,1,.5,3H14.83a.5.5,0,0,1,.45.28.49.49,0,0,1,0,.53l-7.29,9.5A.5.5,0,0,1,7.54,13.5ZM1.49,4l6.06,8.17L13.82,4Z"/><path d="M7.12,10.31a.49.49,0,0,1-.41-.21L.09.79A.51.51,0,0,1,.21.09a.51.51,0,0,1,.7.12L7.53,9.52a.51.51,0,0,1-.12.7A.52.52,0,0,1,7.12,10.31Z"/></g></g></svg>