<svg xmlns="http://www.w3.org/2000/svg" viewBox="0 0 23.14 14"><g id="Laag_2" data-name="Laag 2"><g id="icons"><path d="M6.64,13.64a.52.52,0,0,1-.35-.14L.15,7.35a.48.48,0,0,1,0-.7L6.29.5A.51.51,0,0,1,7,.5a.51.51,0,0,1,0,.71L1.21,7,7,12.79a.51.51,0,0,1,0,.71A.54.54,0,0,1,6.64,13.64Z"/><path d="M16.5,13.64a.5.5,0,0,1-.35-.85L21.94,7,16.15,1.21a.5.5,0,0,1,0-.71.5.5,0,0,1,.7,0L23,6.65a.5.5,0,0,1,0,.7L16.85,13.5A.5.5,0,0,1,16.5,13.64Z"/><path d="M9.14,14,9,14a.51.51,0,0,1-.28-.65l5-13A.49.49,0,0,1,14.32,0a.5.5,0,0,1,.29.65l-5,13A.51.51,0,0,1,9.14,14Z"/></g></g></svg>