<svg width="18" height="18" viewBox="0 0 18 18" fill="none" xmlns="http://www.w3.org/2000/svg">
<path d="M7.74347 3.23798C8.06327 1.92067 9.93673 1.92067 10.2565 3.23798C10.4631 4.08895 11.4381 4.49278 12.1859 4.03714C13.3435 3.33179 14.6682 4.65653 13.9629 5.81414C13.5072 6.56194 13.9111 7.53688 14.762 7.74347C16.0793 8.06327 16.0793 9.93673 14.762 10.2565C13.9111 10.4631 13.5072 11.4381 13.9629 12.1859C14.6682 13.3435 13.3435 14.6682 12.1859 13.9629C11.4381 13.5072 10.4631 13.9111 10.2565 14.762C9.93673 16.0793 8.06327 16.0793 7.74347 14.762C7.53688 13.9111 6.56194 13.5072 5.81414 13.9629C4.65653 14.6682 3.33179 13.3435 4.03714 12.1859C4.49278 11.4381 4.08895 10.4631 3.23798 10.2565C1.92067 9.93673 1.92067 8.06327 3.23798 7.74347C4.08895 7.53688 4.49278 6.56194 4.03714 5.81414C3.33179 4.65653 4.65653 3.33179 5.81414 4.03714C6.56194 4.49278 7.53688 4.08895 7.74347 3.23798Z" stroke="#212121" stroke-width="1.2" stroke-linecap="round" stroke-linejoin="round"/>
<path d="M11.25 9C11.25 10.2426 10.2426 11.25 9 11.25C7.75736 11.25 6.75 10.2426 6.75 9C6.75 7.75736 7.75736 6.75 9 6.75C10.2426 6.75 11.25 7.75736 11.25 9Z" stroke="#212121" stroke-width="1.2" stroke-linecap="round" stroke-linejoin="round"/>
</svg>
