<?xml version="1.0" encoding="utf-8"?>
<!-- Generator: Adobe Illustrator 23.0.1, SVG Export Plug-In . SVG Version: 6.00 Build 0)  -->
<svg version="1.1" id="Laag_1" xmlns="http://www.w3.org/2000/svg" xmlns:xlink="http://www.w3.org/1999/xlink" x="0px" y="0px"
	 viewBox="0 0 39.2 41.2" style="enable-background:new 0 0 39.2 41.2;" xml:space="preserve">
<g id="Group_1782" transform="translate(0.322 0.24)">
	<g id="Path_881">
		<path d="M25.9,25.7c-1.7,0-3.1-1.3-3.2-2.9c-0.6-0.2-1.1-0.4-1.7-0.7c-1.3,1.1-3.2,1-4.3-0.2c-1.2-1.2-1.2-3.1-0.2-4.3
			c-0.3-0.5-0.5-1.1-0.7-1.6c-1.7-0.1-2.9-1.5-2.9-3.2c0-1.7,1.3-3.1,2.9-3.2c0.2-0.6,0.4-1.1,0.7-1.7c-1.1-1.3-1-3.2,0.2-4.3
			c1.2-1.2,3.1-1.2,4.3-0.2c0.5-0.3,1.1-0.5,1.6-0.7c0.1-1.7,1.5-2.9,3.2-2.9c1.7,0,3.1,1.3,3.2,2.9c0.6,0.2,1.1,0.4,1.6,0.7
			c1.3-1.1,3.2-1,4.3,0.2c1.2,1.2,1.2,3.1,0.2,4.3c0.3,0.5,0.5,1.1,0.7,1.7c1.6,0.1,2.9,1.5,2.9,3.2c0,1.7-1.3,3-2.9,3.2
			c-0.2,0.6-0.4,1.1-0.7,1.7c1.1,1.3,1,3.2-0.2,4.3c-1.2,1.2-3.1,1.2-4.3,0.2c-0.5,0.3-1.1,0.5-1.6,0.7
			C28.9,24.4,27.6,25.7,25.9,25.7z M20.9,20.3c0.1,0,0.3,0,0.4,0.1c0.7,0.5,1.5,0.8,2.4,1c0.4,0.1,0.6,0.5,0.6,0.8
			c0,0.1,0,0.1,0,0.2c0,0.9,0.8,1.7,1.7,1.7s1.7-0.8,1.7-1.7c0,0,0-0.1,0-0.2c-0.1-0.4,0.2-0.7,0.6-0.8c0.8-0.2,1.7-0.6,2.4-1
			c0.2-0.1,0.4-0.1,0.6-0.1c0.2,0.1,0.4,0.2,0.5,0.4c0,0.1,0.1,0.1,0.1,0.2c0.6,0.6,1.7,0.6,2.3-0.1c0.6-0.6,0.7-1.7,0-2.3
			c-0.1-0.1-0.2-0.1-0.3-0.2c-0.3-0.2-0.4-0.6-0.2-1c0.5-0.7,0.8-1.5,1-2.4c0.1-0.4,0.5-0.6,0.9-0.6c1,0.2,1.9-0.7,1.9-1.7
			c0-0.9-0.8-1.7-1.7-1.7c0,0-0.1,0-0.2,0c-0.4,0.1-0.8-0.2-0.8-0.6c-0.2-0.8-0.5-1.6-1-2.4c-0.1-0.2-0.1-0.4-0.1-0.6
			c0.1-0.2,0.2-0.4,0.4-0.5c0,0,0.1,0,0.1-0.1c0.3-0.3,0.4-0.7,0.4-1.1S34.3,4.9,34,4.6c-0.6-0.6-1.7-0.6-2.3,0c0,0-0.1,0.1-0.1,0.1
			c-0.1,0.2-0.3,0.3-0.5,0.4c-0.2,0.1-0.4,0-0.6-0.1c-0.7-0.4-1.6-0.8-2.4-1c-0.4-0.1-0.6-0.5-0.6-0.8c0-0.1,0-0.1,0-0.2
			c0-0.9-0.8-1.7-1.7-1.7S24.2,2,24.2,2.9c0,0,0,0.1,0,0.2C24.3,3.5,24,3.9,23.7,4c-0.8,0.2-1.7,0.6-2.4,1c-0.2,0.1-0.4,0.1-0.6,0.1
			c-0.2-0.1-0.4-0.2-0.5-0.4c0-0.1-0.1-0.1-0.1-0.1c-0.6-0.6-1.7-0.6-2.3,0.1c-0.6,0.6-0.7,1.7,0,2.3C17.8,7,17.9,7.1,18,7.1
			c0.3,0.2,0.4,0.6,0.2,1c-0.5,0.7-0.8,1.5-1,2.4c-0.1,0.4-0.5,0.6-0.8,0.6c-0.1,0-0.1,0-0.2,0c-0.9,0-1.7,0.8-1.7,1.7
			c0,0.9,0.8,1.7,1.7,1.7c0.1,0,0.1,0,0.2,0c0.4-0.1,0.7,0.2,0.8,0.6c0.2,0.8,0.5,1.7,1,2.4c0.1,0.2,0.1,0.4,0.1,0.6
			c-0.1,0.2-0.2,0.4-0.4,0.5c-0.4,0.3-0.5,0.8-0.5,1.2s0.2,0.9,0.5,1.2c0.6,0.6,1.7,0.7,2.3,0c0.1-0.1,0.1-0.2,0.2-0.3
			C20.4,20.4,20.7,20.3,20.9,20.3z"/>
	</g>
	<g id="Ellipse_297">
		<path d="M25.9,16.5c-2.1,0-3.8-1.7-3.8-3.8c0-2.1,1.7-3.8,3.8-3.8s3.8,1.7,3.8,3.8C29.7,14.8,28,16.5,25.9,16.5z M25.9,10.4
			c-1.3,0-2.3,1-2.3,2.3c0,1.3,1,2.3,2.3,2.3s2.3-1,2.3-2.3C28.2,11.4,27.2,10.4,25.9,10.4z"/>
	</g>
	<g id="Path_882">
		<path d="M7.6,40.9c-0.2,0-0.4,0-0.6-0.1c-0.7-0.2-1.3-0.6-1.6-1.2C5,39.1,4.8,38.4,5,37.8C4.6,37.6,4.3,37.3,4,37
			c-1.3,0.4-2.7-0.1-3.3-1.3c-0.6-1.1-0.3-2.5,0.7-3.3c-0.1-0.4-0.1-0.8-0.1-1.2c-1.2-0.5-1.9-1.8-1.6-3.1c0.3-1.4,1.7-2.2,3.1-1.9
			c0.2-0.3,0.5-0.6,0.7-0.9c-0.2-0.5-0.3-1.1-0.2-1.7C3.5,22.9,4,22.4,4.6,22c0.6-0.4,1.3-0.5,2-0.3c0.6,0.2,1.2,0.5,1.6,1.1
			c0.4-0.1,0.8-0.1,1.2-0.1c0.6-1.2,2-1.8,3.2-1.4c1.2,0.4,1.9,1.6,1.8,2.8c0.3,0.2,0.6,0.5,0.9,0.7c0.5-0.2,1.1-0.3,1.7-0.2
			c0.7,0.2,1.3,0.6,1.6,1.2c0.7,1.2,0.4,2.8-0.8,3.6c0.1,0.4,0.1,0.8,0.1,1.2c1.2,0.6,1.8,2,1.4,3.2c-0.4,1.2-1.6,1.9-2.8,1.8
			c-0.2,0.3-0.5,0.6-0.7,0.9c0.5,1.2,0.1,2.6-1,3.3c-1.2,0.8-2.8,0.4-3.6-0.8c-0.4,0.1-0.8,0.1-1.2,0.1c-0.2,0.5-0.6,1-1.1,1.3
			C8.5,40.8,8.1,40.9,7.6,40.9z M4.2,35.4c0.2,0,0.4,0.1,0.5,0.2c0.4,0.5,1,0.9,1.5,1.2c0.2,0.1,0.3,0.3,0.4,0.5s0,0.4-0.1,0.6
			C6.5,38,6.4,38,6.4,38c-0.1,0.3,0,0.6,0.1,0.9c0.2,0.3,0.4,0.4,0.7,0.5c0.3,0.1,0.6,0,0.9-0.1c0.3-0.2,0.4-0.4,0.5-0.7l0-0.1
			c0.1-0.4,0.4-0.7,0.8-0.7c0.7,0,1.3,0,1.9-0.2c0.2-0.1,0.4,0,0.6,0.1c0.2,0.1,0.3,0.3,0.3,0.5l0.1,0.1c0.3,0.5,1,0.7,1.6,0.4
			c0.5-0.3,0.7-1,0.4-1.6h0c0,0-0.1-0.1-0.2-0.2c-0.2-0.3-0.1-0.7,0.1-0.9c0.5-0.5,0.9-1,1.2-1.5c0.1-0.2,0.3-0.3,0.5-0.3
			c0.2-0.1,0.4,0,0.6,0.1c0.6,0.2,1.2-0.2,1.4-0.7c0.2-0.6-0.1-1.3-0.7-1.5c0,0,0,0-0.1,0c-0.4,0-0.7-0.4-0.7-0.8
			c0-0.7,0-1.3-0.2-1.9c-0.1-0.2,0-0.4,0.1-0.6c0.1-0.2,0.3-0.3,0.5-0.3l0.1-0.1c0.5-0.3,0.7-1,0.4-1.6c-0.2-0.3-0.4-0.4-0.7-0.5
			c-0.3-0.1-0.6,0-0.9,0.1c0,0,0,0-0.1,0.1c-0.1,0.1-0.3,0.2-0.5,0.2c-0.2,0-0.4-0.1-0.5-0.2c-0.4-0.5-1-0.9-1.5-1.2
			c-0.2-0.1-0.3-0.3-0.3-0.5s0-0.4,0.1-0.6c0.1-0.6-0.2-1.2-0.7-1.4c-0.6-0.2-1.3,0.1-1.5,0.7c0,0.4-0.4,0.8-0.8,0.7
			c-0.7,0-1.3,0-1.9,0.2c-0.2,0.1-0.4,0-0.6-0.1C7.2,24.2,7,24,7,23.8c0,0,0-0.1,0-0.1c-0.2-0.3-0.4-0.5-0.7-0.6
			c-0.3-0.1-0.6,0-0.9,0.1c-0.3,0.2-0.4,0.4-0.5,0.7s0,0.6,0.1,0.9l0,0c0,0,0.1,0.1,0.2,0.2C5.3,25.3,5.3,25.7,5,26
			c-0.5,0.4-0.9,1-1.2,1.5c-0.1,0.2-0.3,0.3-0.5,0.4c-0.2,0-0.4,0-0.6-0.1L2.9,27l-0.2,0.7l-0.1,0c-0.6-0.2-1.2,0.2-1.4,0.8
			c-0.2,0.6,0.2,1.2,0.8,1.4c0,0,0.1,0,0.1,0c0.4,0,0.7,0.4,0.7,0.8c0,0.7,0,1.3,0.2,1.9c0.1,0.2,0,0.4-0.1,0.6
			c-0.1,0.2-0.3,0.3-0.5,0.3c0,0,0,0,0,0c-0.5,0.3-0.6,0.9-0.4,1.5c0.3,0.5,0.9,0.8,1.5,0.6c0.1,0,0.1-0.1,0.2-0.2
			C3.9,35.4,4,35.4,4.2,35.4z"/>
	</g>
	<g id="Path_883">
		<path d="M9.7,34.1c-0.3,0-0.6,0-0.9-0.1c-0.8-0.2-1.5-0.8-1.9-1.5c-0.4-0.7-0.5-1.6-0.3-2.4v0c0.5-1.7,2.2-2.6,3.9-2.2
			c1.7,0.5,2.6,2.2,2.2,3.9c-0.2,0.8-0.8,1.5-1.5,1.9C10.8,33.9,10.2,34.1,9.7,34.1z M8.1,30.5C8,30.9,8,31.3,8.3,31.7
			c0.2,0.4,0.6,0.7,1,0.8c0.4,0.1,0.9,0.1,1.2-0.1c0.4-0.2,0.7-0.6,0.8-1c0.2-0.9-0.3-1.8-1.1-2C9.3,29.1,8.4,29.6,8.1,30.5
			L8.1,30.5z"/>
	</g>
</g>
</svg>
