<?xml version="1.0" encoding="utf-8"?>
<!-- Generator: Adobe Illustrator 23.0.6, SVG Export Plug-In . SVG Version: 6.00 Build 0)  -->
<svg version="1.1" id="Laag_1" xmlns="http://www.w3.org/2000/svg" xmlns:xlink="http://www.w3.org/1999/xlink" x="0px" y="0px"
	 viewBox="0 0 59 52.9" style="enable-background:new 0 0 59 52.9;" xml:space="preserve">
<g id="Group_3439" transform="translate(-328.5 -2841.19)">
	<g id="Path_2061">
		<path d="M371.2,2850.8c-5.6,0-16.3-1-16.3-4.8c0-3.8,10.6-4.8,16.3-4.8s16.3,1,16.3,4.8C387.5,2849.8,376.9,2850.8,371.2,2850.8z
			 M371.2,2843.2c-9.6,0-14.2,2-14.3,2.8c0.1,0.8,4.7,2.8,14.3,2.8c9.6,0,14.1-2,14.3-2.8C385.4,2845.2,380.8,2843.2,371.2,2843.2z"
			/>
	</g>
	<g id="Path_2062">
		<path d="M353.1,2883.9v-2c9.6,0,14.1-2,14.3-2.8c0-0.1-0.4-0.6-2-1.2l0.7-1.9c2.2,0.8,3.3,1.8,3.3,3.1
			C369.4,2882.9,358.7,2883.9,353.1,2883.9z"/>
	</g>
	<g id="Path_2063">
		<path d="M352.9,2889c-6,0-16.3-1-16.3-4.8v-3.4h2v3.4c0.1,0.8,4.7,2.8,14.3,2.8c9.6,0,14.2-2.1,14.3-2.8v-5.4h2v5.4
			C369.2,2888,358.5,2889,352.9,2889z"/>
	</g>
	<g id="Path_2064">
		<path d="M350.6,2878.8c-5.6,0-16.3-1-16.3-4.8h2c0.1,0.8,4.7,2.8,14.3,2.8s14.1-2,14.3-2.8c0-0.1-0.2-0.3-0.8-0.7l1-1.7
			c1.2,0.7,1.8,1.5,1.8,2.4C366.8,2877.8,356.2,2878.8,350.6,2878.8z"/>
	</g>
	<g id="Path_2065">
		<path d="M350.9,2883.9c-6,0-16.3-1-16.3-4.8v-4.4c0-0.6,0.4-1,1-1s1,0.4,1,1v4.4c0.1,0.8,4.7,2.8,14.3,2.8
			c9.6,0,14.2-2.1,14.3-2.8v-4.3c0-0.6,0.4-1,1-1s1,0.4,1,1v4.4C367.1,2882.9,356.5,2883.9,350.9,2883.9z"/>
	</g>
	<g id="Path_2066">
		<path d="M344.8,2871.2c-5.6,0-16.3-1-16.3-4.8s10.6-4.8,16.3-4.8s16.3,1,16.3,4.8S350.4,2871.2,344.8,2871.2z M344.8,2863.5
			c-9.6,0-14.1,2-14.3,2.8c0.1,0.8,4.7,2.8,14.3,2.8c9.6,0,14.1-2,14.3-2.8C358.9,2865.6,354.3,2863.5,344.8,2863.5z"/>
	</g>
	<g id="Path_2067">
		<path d="M344.8,2876.3c-6,0-16.3-1-16.3-4.8v-4.9h2v4.9c0.1,0.8,4.7,2.8,14.3,2.8c9.6,0,14.2-2.1,14.3-2.8v-4.9h2v4.9
			C361,2875.2,350.4,2876.3,344.8,2876.3z"/>
	</g>
	<g id="Path_2068">
		<path d="M350.2,2888.9c-6.9,0-14.8-1.1-16.9-3.3c-0.6-0.6-0.7-1.1-0.7-1.5c0-2.4,3.8-3.1,5.1-3.3l0.3,2c-2.8,0.5-3.4,1.1-3.4,1.3
			c0.4,1,6.8,2.8,16,2.8l0,2C350.5,2888.9,350.3,2888.9,350.2,2888.9z"/>
	</g>
	<g id="Path_2069">
		<path d="M348.8,2894.1c-6,0-16.3-1-16.3-4.8v-4.4c0-0.6,0.4-1,1-1s1,0.4,1,1v4.4c0.1,0.8,4.7,2.8,14.3,2.8
			c9.6,0,14.2-2.1,14.3-2.8v-2.3c0-0.6,0.4-1,1-1s1,0.4,1,1v2.3C365.1,2893.1,354.5,2894.1,348.8,2894.1z"/>
	</g>
	<g id="Path_2070">
		<path d="M371.2,2858.5c-5.6,0-16.3-1-16.3-4.8c0-0.6,0.4-1,1-1s1,0.4,1,1c0.1,0.8,4.7,2.8,14.3,2.8c9.6,0,14.1-2,14.3-2.8
			c0-0.6,0.4-1,1-1c0.6,0,1,0.4,1,1C387.5,2857.5,376.9,2858.5,371.2,2858.5z"/>
	</g>
	<g id="Path_2071">
		<path d="M371.2,2866.1c-5.6,0-16.3-1-16.3-4.8c0-0.6,0.4-1,1-1s1,0.4,1,1c0.1,0.8,4.7,2.8,14.3,2.8c9.6,0,14.1-2,14.3-2.8
			c0-0.6,0.4-1,1-1c0.6,0,1,0.4,1,1C387.5,2865.1,376.9,2866.1,371.2,2866.1z"/>
	</g>
	<g id="Path_2072">
		<path d="M371.2,2873.7c-3.5,0-7.1-0.3-10.5-0.7c-0.5-0.1-0.9-0.6-0.9-1.1c0.1-0.5,0.5-0.9,1.1-0.9c3.4,0.4,6.9,0.6,10.3,0.7
			c9.6,0,14.1-2,14.3-2.8c0-0.6,0.4-1,1-1c0.6,0,1,0.4,1,1C387.5,2872.7,376.9,2873.7,371.2,2873.7z"/>
	</g>
	<g id="Path_2073">
		<path d="M371.2,2881.4c-0.9,0-1.7,0-2.6-0.1c-0.6,0-1-0.5-1-1c0-0.6,0.5-1,1-1c0.8,0,1.7,0.1,2.5,0.1c9.6,0,14.2-2,14.3-2.8
			c0-0.6,0.4-1,1-1c0.6,0,1,0.4,1,1C387.5,2880.4,376.9,2881.4,371.2,2881.4z"/>
	</g>
	<g id="Line_546">
		<rect x="355" y="2846.2" width="2" height="18.3"/>
	</g>
	<g id="Path_2074">
		<path d="M371.1,2888.5c-0.7,0-4-0.3-5.6-1.7c-0.4-0.4-0.5-1-0.1-1.4s1-0.5,1.4-0.1c0.9,0.8,3.5,1.2,4.3,1.2c9,0,14.2-1.9,14.4-2.8
			l0-37.4c0-0.6,0.4-1,1-1s1,0.4,1,1v37.5C387.5,2887.5,376.8,2888.5,371.1,2888.5z"/>
	</g>
</g>
</svg>
