<?xml version="1.0" encoding="utf-8"?>
<!-- Generator: Adobe Illustrator 23.0.6, SVG Export Plug-In . SVG Version: 6.00 Build 0)  -->
<svg version="1.1" id="Group_2294" xmlns="http://www.w3.org/2000/svg" xmlns:xlink="http://www.w3.org/1999/xlink" x="0px" y="0px"
	 viewBox="0 0 40 52.8" style="enable-background:new 0 0 40 52.8;" xml:space="preserve">
<g id="Group_2291" transform="translate(7.907 37.946)">
	<g id="Path_1703">
		<path d="M24.6,1H0c-0.6,0-1-0.4-1-1s0.4-1,1-1h24.6c0.6,0,1,0.4,1,1S25.2,1,24.6,1z"/>
	</g>
</g>
<g id="Group_2292" transform="translate(7.907 41.926)">
	<g id="Path_1704">
		<path d="M24.6,1H0c-0.6,0-1-0.4-1-1s0.4-1,1-1h24.6c0.6,0,1,0.4,1,1S25.2,1,24.6,1z"/>
	</g>
</g>
<g id="Group_2293" transform="translate(7.907 43.19)">
	<g id="Path_1705">
		<path d="M24.6,1H0c-0.6,0-1-0.4-1-1s0.4-1,1-1h24.6c0.6,0,1,0.4,1,1S25.2,1,24.6,1z"/>
	</g>
</g>
<g id="Group_2290" transform="translate(0 0)">
	<g id="Group_2289" transform="translate(0.647 0.647)">
		<g id="Path_1701">
			<path d="M38.7,52.5H0c-0.6,0-1-0.4-1-1V0c0-0.6,0.4-1,1-1h38.7c0.6,0,1,0.4,1,1v51.5C39.7,52,39.3,52.5,38.7,52.5z M1,50.5h36.7
				V1H1V50.5z M33.9,31.6h-29c-0.6,0-1-0.4-1-1V4.8c0-0.6,0.4-1,1-1h29c0.3,0,0.5,0.1,0.7,0.3c0.2,0.2,0.3,0.4,0.3,0.7l0,25.8
				C34.9,31.2,34.4,31.6,33.9,31.6z M5.8,29.6h27l0-23.8h-27V29.6z M29.4,25.2H8.4c-0.3,0-0.7-0.2-0.9-0.5c-0.2-0.3-0.2-0.7,0-1
				l4.7-9.2c0.1-0.3,0.4-0.4,0.6-0.5c0.3-0.1,0.6,0,0.8,0.1l4.5,3.1l4.5-7.8c0.2-0.3,0.5-0.5,0.9-0.5c0.4,0,0.7,0.3,0.9,0.6
				l5.9,14.2c0.1,0.3,0.1,0.7-0.1,0.9C30.1,25,29.8,25.2,29.4,25.2z M10,23.2h17.9l-4.6-11l-4,7c-0.1,0.2-0.4,0.4-0.6,0.5
				c-0.3,0.1-0.6,0-0.8-0.2l-4.4-3.1L10,23.2z M11.7,12.1c-1.7,0-3-1.4-3-3c0-1.7,1.4-3,3-3c0,0,0,0,0,0c0.8,0,1.6,0.3,2.1,0.9
				c0.6,0.6,0.9,1.3,0.9,2.1v0C14.7,10.7,13.4,12.1,11.7,12.1C11.7,12.1,11.7,12.1,11.7,12.1z M11.7,8C11.7,8,11.7,8,11.7,8
				c-0.6,0-1,0.5-1,1c0,0.3,0.1,0.5,0.3,0.7c0.2,0.2,0.4,0.3,0.7,0.3h0c0.6,0,1-0.5,1-1c0-0.3-0.1-0.5-0.3-0.7C12.2,8.1,12,8,11.7,8
				z"/>
		</g>
	</g>
</g>
</svg>
