<?xml version="1.0" encoding="utf-8"?>
<!-- Generator: Adobe Illustrator 23.0.6, SVG Export Plug-In . SVG Version: 6.00 Build 0)  -->
<svg version="1.1" id="Laag_1" xmlns="http://www.w3.org/2000/svg" xmlns:xlink="http://www.w3.org/1999/xlink" x="0px" y="0px"
	 viewBox="0 0 35.3 36.8" style="enable-background:new 0 0 35.3 36.8;" xml:space="preserve">
<g id="Group_2418" transform="translate(1 1)">
	<g id="Rectangle_1522">
		<path d="M23,35.8H7.3c-4.6,0-8.3-3.7-8.3-8.3V10.4C-1,5.8,2.7,2,7.3,2H23c4.6,0,8.3,3.7,8.3,8.3v17.1C31.3,32.1,27.6,35.8,23,35.8
			z M7.3,4C3.8,4,1,6.9,1,10.4v17.1c0,3.5,2.8,6.3,6.3,6.3H23c3.5,0,6.3-2.8,6.3-6.3V10.4C29.3,6.9,26.5,4,23,4H7.3z"/>
	</g>
	<g id="Path_1740">
		<path d="M30.2,31.8L29.5,30c1.8-0.7,2.9-2.5,2.9-4.4l0-20.4c0-0.2,0-0.3,0-0.4c0-1.1-0.5-2-1.3-2.7S29.3,1,28.2,1L9.7,1
			C7.9,1,6.4,1.8,5.6,3.3L3.8,2.4C5,0.2,7.2-1.1,9.7-1l18.5,0c3.2-0.1,6,2.4,6.2,5.7c0,0.2,0,0.4,0,0.6l0,20.3
			C34.4,28.3,32.8,30.8,30.2,31.8z"/>
	</g>
	<g id="Line_472">
		<rect x="0.8" y="27.8" width="29.5" height="2"/>
	</g>
	<g id="Path_1741">
		<path d="M27.2,23.7H3.2c-0.4,0-0.7-0.2-0.9-0.5c-0.2-0.3-0.1-0.7,0.1-1l7.4-10.5c0.3-0.4,0.8-0.5,1.2-0.3l3,1.2L19,5.9
			c0.2-0.3,0.6-0.4,0.9-0.4c0.3,0,0.6,0.3,0.8,0.6l7.4,16.2c0.1,0.3,0.1,0.7-0.1,1C27.9,23.5,27.6,23.7,27.2,23.7z M5.1,21.7h20.6
			L19.6,8.5l-4.5,5.9c-0.3,0.4-0.8,0.5-1.2,0.3l-3-1.2L5.1,21.7z"/>
	</g>
	<g id="Path_1742">
		<path d="M6.9,10.8c-0.8,0-1.5-0.3-2-0.8S4,8.7,4,8c0-1.6,1.3-2.8,2.8-2.9c1.6,0,2.9,1.3,2.9,2.9v0C9.7,9.5,8.4,10.8,6.9,10.8z
			 M6.9,7.1C6.4,7.1,6,7.5,6,8c0,0.2,0.1,0.4,0.2,0.6c0.2,0.2,0.4,0.2,0.6,0.2c0.5,0,0.9-0.4,0.9-0.9C7.7,7.5,7.3,7.1,6.9,7.1z"/>
	</g>
</g>
</svg>
