<?xml version="1.0" encoding="utf-8"?>
<!-- Generator: Adobe Illustrator 23.0.6, SVG Export Plug-In . SVG Version: 6.00 Build 0)  -->
<svg version="1.1" id="Laag_1" xmlns="http://www.w3.org/2000/svg" xmlns:xlink="http://www.w3.org/1999/xlink" x="0px" y="0px"
	 viewBox="0 0 55.1 55.1" style="enable-background:new 0 0 55.1 55.1;" xml:space="preserve">
<g id="Group_3761" transform="translate(-209.5 -4935.667)">
	<g id="Group_3759" transform="translate(236.362 4963.178)">
		<g id="Path_2166">
			<path d="M25.2,26.2c-0.2,0-0.3,0-0.5-0.1l-7.3-3.8c-0.1,0-0.2-0.1-0.2-0.2L2.5,7.5c-0.4-0.4-0.4-1,0-1.4l3.5-3.5
				c0.2-0.2,0.4-0.3,0.7-0.3l0,0c0.3,0,0.5,0.1,0.7,0.3l14.6,14.6c0.1,0.1,0.1,0.2,0.2,0.2l3.8,7.3c0.2,0.4,0.1,0.9-0.2,1.2
				C25.7,26.1,25.5,26.2,25.2,26.2z M18.5,20.6l4.4,2.3l-2.3-4.4L6.8,4.7L4.7,6.8L18.5,20.6z"/>
		</g>
		<g id="Path_2167">
			<path d="M2.5,7.5L0.4,5.3c-1.6-1.6-1.8-4.1-0.5-5.4C0.5-0.7,1.3-1,2.2-1c0,0,0,0,0,0c1.1,0,2.3,0.5,3.1,1.4l2.2,2.2L6.1,4
				L3.9,1.8C3.4,1.3,2.8,1,2.2,1c0,0,0,0,0,0C1.9,1,1.6,1.1,1.3,1.3C0.7,1.9,1,3.1,1.8,3.9L4,6.1L2.5,7.5z"/>
		</g>
		<g id="Line_574">
			<rect x="15.7" y="17.2" transform="matrix(0.7071 -0.7071 0.7071 0.7071 -7.5374 18.1938)" width="5" height="2"/>
		</g>
		<g id="Line_575">
			<rect x="5.2" y="6.6" transform="matrix(0.7071 -0.7071 0.7071 0.7071 -3.166 7.6397)" width="5" height="2"/>
		</g>
	</g>
	<g id="Group_3760" transform="translate(210.5 4936.667)">
		<g id="Path_2168">
			<path d="M53.1,22.1c-0.6,0-1-0.4-1-1v-6.2c0.1-3.6-2.8-6.5-6.4-6.6c-0.1,0-0.3,0-0.4,0l-19.2,0c-0.6,0-1-0.4-1-1
				c0-1.4-2.9-6.3-6-6.3H7.7C4.4,1,1,4.4,1,7.6v13.5c0,0.6-0.4,1-1,1s-1-0.4-1-1V7.6C-1,3.3,3.3-1,7.7-1h11.4C23-1,26.3,3.6,27,6.3
				h18.3c0.1,0,0.3,0,0.5,0c4.7,0.1,8.4,3.9,8.3,8.6v6.2C54.1,21.6,53.7,22.1,53.1,22.1z"/>
		</g>
		<g id="Path_2169">
			<path d="M7.5,54.1c-4.4,0-8.5-4-8.5-8.3V21.1c0-0.6,0.4-1,1-1s1,0.4,1,1v24.8c0,3.2,3.2,6.3,6.5,6.3h0.1c3.3-0.2,6-2.9,6.1-6.3
				V20.6c0-4.2,3.1-7,7.6-7h25.2c4.6,0,7.7,2.8,7.7,7v16.9c0,0.6-0.4,1-1,1s-1-0.4-1-1V20.6c0-3-2.2-5-5.7-5H21.3
				c-3.4,0-5.6,1.9-5.6,5v25.2c-0.1,4.4-3.6,8.1-8,8.3L7.5,54.1z"/>
		</g>
		<g id="Line_576">
			<path d="M37.5,54.1H8.2c-0.6,0-1-0.4-1-1s0.4-1,1-1h29.3c0.6,0,1,0.4,1,1S38.1,54.1,37.5,54.1z"/>
		</g>
	</g>
</g>
</svg>
