<?xml version="1.0" encoding="utf-8"?>
<!-- Generator: Adobe Illustrator 23.0.6, SVG Export Plug-In . SVG Version: 6.00 Build 0)  -->
<svg version="1.1" id="Laag_1" xmlns="http://www.w3.org/2000/svg" xmlns:xlink="http://www.w3.org/1999/xlink" x="0px" y="0px"
	 viewBox="0 0 35.2 35" style="enable-background:new 0 0 35.2 35;" xml:space="preserve">
<g id="Group_4259" transform="translate(-907 -4710.083)">
	<g id="Line_590">
		<rect x="907" y="4740.1" width="35" height="2"/>
	</g>
	<g id="Line_591">
		<rect x="910" y="4710.1" width="2" height="35"/>
	</g>
	<g id="Path_2896">
		<path d="M914.5,4738.5c-0.3,0-0.7-0.2-0.9-0.5c-0.3-0.5-0.1-1.1,0.3-1.4l7.3-4.4c0.3-0.2,0.6-0.2,0.8-0.1l8.2,2.7l9.8-9.8
			c0.4-0.4,1-0.4,1.4,0s0.4,1,0,1.4l-10.2,10.2c-0.3,0.3-0.7,0.4-1,0.2l-8.3-2.8l-6.9,4.1C914.8,4738.5,914.7,4738.5,914.5,4738.5z"
			/>
	</g>
	<g id="Path_2897">
		<path d="M918.9,4730.7h-4.6c-0.6,0-1-0.4-1-1s0.4-1,1-1h4.4l4.2-1.4c0.1,0,0.2-0.1,0.3-0.1h7l9.9-6.4c0.5-0.3,1.1-0.2,1.4,0.3
			c0.3,0.5,0.2,1.1-0.3,1.4l-10.1,6.6c-0.2,0.1-0.4,0.2-0.5,0.2h-7.1l-4.2,1.4C919.1,4730.7,919,4730.7,918.9,4730.7z"/>
	</g>
	<g id="Path_2898">
		<path d="M920.3,4725.6c-0.1,0-0.1,0-0.2,0l-5.9-1.2c-0.5-0.1-0.9-0.6-0.8-1.2c0.1-0.5,0.6-0.9,1.2-0.8l5.4,1.1l5.5-5.6
			c0.4-0.4,0.9-0.4,1.3-0.1l3.6,2.8l3.8-4.7c0.2-0.2,0.5-0.4,0.8-0.4h5.7c0.6,0,1,0.4,1,1s-0.4,1-1,1h-5.2l-4.1,5
			c-0.3,0.4-1,0.5-1.4,0.2l-3.7-2.8l-5.3,5.3C920.8,4725.5,920.6,4725.6,920.3,4725.6z"/>
	</g>
</g>
</svg>
