<?xml version="1.0" encoding="utf-8"?>
<!-- Generator: Adobe Illustrator 23.0.1, SVG Export Plug-In . SVG Version: 6.00 Build 0)  -->
<svg version="1.1" xmlns="http://www.w3.org/2000/svg" xmlns:xlink="http://www.w3.org/1999/xlink" x="0px" y="0px"
	 viewBox="0 0 51.5 57.1" style="enable-background:new 0 0 51.5 57.1;" xml:space="preserve">
	<path d="M25.4,57.1c-1.7,0-3.3-0.6-4.6-1.8c-1.4-1.3-2.2-3-2.3-4.8c0-0.2,0-0.4,0-0.5c0,0,0,0,0,0V34.4c-1.7-0.8-3.2-1.9-4.4-3.3
		c-6.6-6.9-6.6-17.7,0.2-24.6c0.1-0.1,0.3-0.3,0.4-0.4c6.6-6.4,17.3-6.2,23.7,0.4c0,0,0,0,0,0c6.5,6.7,6.3,17.7-0.4,24.6
		c-1.4,1.4-3.1,2.6-4.9,3.3v10.2c0,0,0,0,0,0V50c0.2,3.8-2.7,7-6.5,7.2c-0.2,0-0.5,0-0.7,0C25.7,57.1,25.6,57.1,25.4,57.1z M20,50.7
		c0.2,1.4,0.8,2.6,1.8,3.5c1.1,1,2.5,1.5,4,1.4c0.3,0,0.5,0,0.6,0c2.7-0.1,4.8-2.3,5-4.9H20z M31.3,49.2h0.2v-4.1l-11.1-5.5H20v3.7
		l11,5.5C31.1,48.9,31.3,49,31.3,49.2z M20,49.2h8.6L20,45V49.2z M23.8,39.6l7.7,3.9v-3.9H23.8z M20.8,38.1h10.7v-4.2
		c0-0.3,0.2-0.6,0.5-0.7c1.8-0.6,3.5-1.7,4.8-3.1c6.2-6.3,6.4-16.4,0.4-22.5c0,0,0,0,0,0c-5.9-6-15.5-6.2-21.5-0.3
		c-0.1,0.1-0.2,0.2-0.4,0.4c-6.2,6.3-6.2,16.2-0.1,22.6c1.2,1.4,2.7,2.5,4.3,3.1c0.3,0.1,0.5,0.4,0.5,0.7v3.8L20.8,38.1z M42.6,37.7
		c-0.2,0-0.4-0.1-0.5-0.2l-2.7-2.8c-0.3-0.3-0.3-0.8,0-1.1c0.3-0.3,0.8-0.3,1.1,0l2.7,2.8c0.3,0.3,0.3,0.8,0,1.1
		C42.9,37.6,42.7,37.7,42.6,37.7z M10,37.7c-0.2,0-0.4-0.1-0.5-0.2c-0.3-0.3-0.3-0.8,0-1.1l2.7-2.8c0.3-0.3,0.8-0.3,1.1,0
		c0.3,0.3,0.3,0.8,0,1.1l-2.7,2.8C10.4,37.6,10.2,37.7,10,37.7z M18.6,27.5c-0.2,0-0.4-0.1-0.5-0.2c-2.2-2.3-3.4-5.2-3.4-8.4
		c0-3.1,1.2-6.1,3.4-8.4c0.3-0.3,0.8-0.3,1.1,0c0.3,0.3,0.3,0.8,0,1.1c-1.9,2-3,4.6-3,7.3c0,2.8,1,5.4,3,7.3c0.3,0.3,0.3,0.8,0,1.1
		C19,27.4,18.8,27.5,18.6,27.5z M50.7,19.6h-2.2c-0.4,0-0.8-0.3-0.8-0.8s0.3-0.8,0.8-0.8h2.2c0.4,0,0.8,0.3,0.8,0.8
		S51.1,19.6,50.7,19.6z M5.1,19.6H0.8c-0.4,0-0.8-0.3-0.8-0.8s0.3-0.8,0.8-0.8h4.3c0.4,0,0.8,0.3,0.8,0.8S5.5,19.6,5.1,19.6z
		 M39.8,4.3c-0.2,0-0.4-0.1-0.5-0.2C39,3.8,39,3.3,39.3,3L42,0.2c0.3-0.3,0.8-0.3,1.1,0c0.3,0.3,0.3,0.8,0,1.1l-2.7,2.8
		C40.2,4.2,40,4.3,39.8,4.3z M12.7,4.3c-0.2,0-0.4-0.1-0.5-0.2L9.4,1.3C9.1,1,9.2,0.5,9.4,0.2s0.8-0.3,1.1,0L13.2,3
		c0.3,0.3,0.3,0.8,0,1.1C13.1,4.2,12.9,4.3,12.7,4.3z"/>
</svg>
