<?xml version="1.0" encoding="utf-8"?>
<!-- Generator: Adobe Illustrator 23.0.6, SVG Export Plug-In . SVG Version: 6.00 Build 0)  -->
<svg version="1.1" id="Group_1628" xmlns="http://www.w3.org/2000/svg" xmlns:xlink="http://www.w3.org/1999/xlink" x="0px" y="0px"
	 viewBox="0 0 59.4 65.8" style="enable-background:new 0 0 59.4 65.8;" xml:space="preserve">
<path id="Path_1292" d="M29.8,62.2c-16.4,0-29.7-13.3-29.7-29.7c0-16.4,13.3-29.7,29.7-29.7s29.7,13.3,29.7,29.7c0,0,0,0,0,0
	C59.4,48.9,46.1,62.2,29.8,62.2z M29.8,5.7c-14.8,0-26.8,12-26.8,26.8s12,26.8,26.8,26.8s26.8-12,26.8-26.8l0,0
	C56.5,17.8,44.5,5.8,29.8,5.7L29.8,5.7z"/>
<path id="Path_1293" d="M29.8,51.3C19.4,51.3,11,42.9,11,32.6c0-10.4,8.4-18.8,18.8-18.8c10.4,0,18.8,8.4,18.8,18.8
	C48.5,42.9,40.1,51.3,29.8,51.3z M29.8,16.7c-8.8,0-15.9,7.1-15.9,15.9S21,48.4,29.7,48.4s15.9-7.1,15.9-15.9c0,0,0,0,0,0
	C45.6,23.8,38.5,16.7,29.8,16.7z"/>
<path id="Path_1294" d="M29.7,41.1c-4.7,0-8.5-3.8-8.5-8.5c0-4.7,3.8-8.5,8.5-8.5s8.5,3.8,8.5,8.5C38.3,37.2,34.4,41.1,29.7,41.1z
	 M29.7,26.9c-3.1,0-5.6,2.5-5.6,5.6s2.5,5.6,5.6,5.6c3.1,0,5.6-2.5,5.6-5.6C35.4,29.4,32.9,26.9,29.7,26.9
	C29.8,26.9,29.8,26.9,29.7,26.9z"/>
<path id="Path_1295" d="M29.8,34c-0.4,0-0.8-0.2-1.1-0.5L3.7,5.3c-0.5-0.6-0.4-1.5,0.2-2c0.6-0.5,1.5-0.4,2,0.1l24.9,28.2
	c0.5,0.6,0.5,1.5-0.1,2c0,0,0,0,0,0C30.5,33.9,30.1,34,29.8,34z"/>
<path id="Path_1296" d="M4.3,5.8H1.4C0.6,5.8,0,5.1,0,4.3s0.6-1.4,1.4-1.4h1.4V1.4C2.9,0.6,3.5,0,4.3,0s1.4,0.6,1.4,1.4v2.9
	C5.8,5.1,5.1,5.8,4.3,5.8z"/>
<path id="Path_1297" d="M5,65.8c-0.4,0-0.8-0.2-1-0.4c-0.6-0.6-0.6-1.5,0-2c0,0,0,0,0,0l7.1-7.1c0.6-0.6,1.5-0.6,2,0s0.6,1.5,0,2
	L6,65.4C5.8,65.6,5.4,65.8,5,65.8z"/>
<path id="Path_1298" d="M54.5,65.8c-0.4,0-0.8-0.2-1-0.4l-7.1-7.1c-0.6-0.6-0.5-1.5,0-2c0.6-0.5,1.4-0.5,2,0l7.1,7.1
	c0.6,0.6,0.6,1.5,0,2c0,0,0,0,0,0C55.2,65.6,54.9,65.8,54.5,65.8z"/>
</svg>
