<?xml version="1.0" encoding="utf-8"?>
<!-- Generator: Adobe Illustrator 23.0.6, SVG Export Plug-In . SVG Version: 6.00 Build 0)  -->
<svg version="1.1" id="Laag_1" xmlns="http://www.w3.org/2000/svg" xmlns:xlink="http://www.w3.org/1999/xlink" x="0px" y="0px"
	 viewBox="0 0 54.4 49.1" style="enable-background:new 0 0 54.4 49.1;" xml:space="preserve">
<path d="M27.5,49.1c-9.6,0-17.9-5.5-22-13.6c-3.5,4.7-4,7.5-3.2,8.6c0.5,0.7,1.8,1,3.7,0.8c0.5-0.1,1,0.3,1.1,0.9
	c0.1,0.5-0.3,1-0.9,1.1c-2.7,0.3-4.5-0.2-5.5-1.6c-1.7-2.3-0.4-6.4,3.8-11.8c0,0,0,0,0-0.1C3.5,30.7,3,27.7,3,24.6
	C3,19.1,4.7,13.9,8,9.6c0.1-0.2,0.2-0.3,0.3-0.4c0.6-0.7,1.2-1.4,1.8-2C14.8,2.6,20.9,0,27.5,0c0,0,0,0,0,0c5.8,0,11.2,2,15.6,5.6
	c5-1.7,8.9-1.8,10.6,0.4c0.9,1.3,1,3,0.1,5.2c-0.2,0.5-0.8,0.8-1.3,0.6C52,11.6,51.8,11,52,10.5c0.6-1.5,0.6-2.6,0.1-3.3
	C51.2,6,48.6,6,44.8,7.1c0,0,0,0,0,0c4.6,4.6,7.2,10.8,7.2,17.4c0,0,0,0.1,0,0.1C52,38.2,41,49.1,27.5,49.1
	C27.5,49.1,27.5,49.1,27.5,49.1z M10.4,39.2c3.5,4.1,8.5,6.9,14.1,7.7c-2.4-2.1-4.5-4.8-6.1-7.7H10.4z M36.7,39.2
	c-1.6,2.9-3.6,5.6-6.1,7.7c5.6-0.8,10.5-3.6,14.1-7.7H36.7z M20.7,39.2c1.8,3,4.1,5.6,6.9,7.6c2.8-2,5.1-4.6,6.8-7.6H20.7z
	 M6.9,33.7c0.5,1.2,1.2,2.4,1.9,3.5c0,0,0.1,0,0.1,0h8.5c-1.5-3.5-2.4-7.3-2.6-11.2h-0.3C11.5,28.6,9,31.3,6.9,33.7z M37.6,37.2h8.5
	C48.4,34,49.8,30.1,50,26h-9.8C40.1,29.9,39.2,33.8,37.6,37.2z M19.6,37.2h15.8c1.6-3.4,2.6-7.2,2.8-11.2H16.8
	C17,30,18,33.8,19.6,37.2z M5,26c0.1,2,0.5,3.8,1.1,5.6c1.6-1.8,3.4-3.7,5.4-5.6H5.2C5.1,26,5.1,26,5,26z M9.5,11
	C6.7,14.7,5.1,19.3,5,24c0.1,0,0.1,0,0.2,0h8.5c0.4-0.3,0.7-0.6,1.1-1c0.2-4.3,1.3-8.4,3-12H9.5z M40.3,24h9.8
	c-0.1-4.9-1.8-9.4-4.7-13.2C45.2,10.9,45,11,44.7,11h-7.5C39.1,14.9,40.2,19.4,40.3,24z M16.8,24h21.5c-0.1-4.5-1.2-8.9-3.1-12.7
	c-3.8,2.1-8.1,4.7-12.6,8C20.6,20.9,18.6,22.4,16.8,24C16.8,24,16.8,24,16.8,24z M20.1,11c-1.6,3.1-2.7,6.6-3.1,10.2
	c1.4-1.2,2.9-2.3,4.5-3.5c3.3-2.5,6.8-4.8,10.3-6.8H20.1z M39.9,9h4c-0.1-0.1-0.3-0.3-0.4-0.4c-0.3-0.3-0.5-0.5-0.8-0.7
	C41.8,8.2,40.9,8.6,39.9,9z M21.2,9h12.6c-1.7-2.6-3.8-4.9-6.3-6.6C25,4.1,22.9,6.4,21.2,9z M11.2,9h7.7c1.5-2.6,3.4-4.9,5.6-6.8
	c-4.9,0.6-9.4,2.9-12.9,6.4C11.4,8.7,11.3,8.9,11.2,9z M30.5,2.2c2.1,1.8,3.9,4,5.4,6.5c1.7-0.9,3.4-1.6,5-2.3
	C37.9,4.1,34.3,2.7,30.5,2.2z"/>
</svg>
