<?xml version="1.0" encoding="utf-8"?>
<!-- Generator: Adobe Illustrator 23.0.6, SVG Export Plug-In . SVG Version: 6.00 Build 0)  -->
<svg version="1.1" id="Laag_1" xmlns="http://www.w3.org/2000/svg" xmlns:xlink="http://www.w3.org/1999/xlink" x="0px" y="0px"
	 viewBox="0 0 29.7 36.3" style="enable-background:new 0 0 29.7 36.3;" xml:space="preserve">
<g id="Group_4272" transform="translate(-1829.004 -10057.705)">
	<g id="Path_2923">
		<path d="M1839.1,10094h-7.6c-0.6,0-1-0.4-1-1v-9.7l-1.2-1.2c-0.2-0.2-0.3-0.4-0.3-0.7v-9.9c0-2.2,2.3-3.8,4.4-3.8h4.6
			c1.9-0.1,3.5,1.4,3.5,3.3c0,0.2,0,0.4,0,0.5v9.8c0,0.3-0.1,0.5-0.3,0.7l-1.2,1.2v9.7C1840.1,10093.6,1839.6,10094,1839.1,10094z
			 M1832.5,10092h5.6v-9.1c0-0.3,0.1-0.5,0.3-0.7l1.2-1.2v-9.5c0,0,0-0.1,0-0.1c0-0.1,0-0.2,0-0.2c0-0.8-0.7-1.4-1.5-1.4l-4.7,0
			c-1.1,0-2.4,0.8-2.4,1.8v9.5l1.2,1.2c0.2,0.2,0.3,0.4,0.3,0.7V10092z"/>
	</g>
	<g id="Path_2924">
		<path d="M1835.8,10067.3c-2.6,0-4.8-2.1-4.8-4.8c0-2.6,2.1-4.8,4.8-4.8c0,0,0,0,0,0c1.3,0,2.5,0.5,3.4,1.4
			c0.9,0.9,1.4,2.1,1.4,3.4v0C1840.5,10065.1,1838.4,10067.3,1835.8,10067.3z M1835.8,10059.7
			C1835.8,10059.7,1835.8,10059.7,1835.8,10059.7c-1.5,0-2.8,1.2-2.8,2.8s1.2,2.8,2.8,2.8c1.5,0,2.8-1.2,2.8-2.8
			c0-0.7-0.3-1.4-0.8-2C1837.2,10060,1836.5,10059.7,1835.8,10059.7z"/>
	</g>
	<g id="Path_2925">
		<path d="M1854.2,10094h-7.6c-0.6,0-1-0.4-1-1v-5.1h-1.6c-0.3,0-0.6-0.1-0.8-0.3s-0.3-0.5-0.2-0.8l1.1-8.5v-6.8
			c0-2.2,2.3-3.8,4.4-3.8h4.6c0.2,0,0.4,0,0.5,0c1.9,0.2,3.2,1.9,3,3.8v6.7l1.9,8.4c0.1,0.3,0,0.6-0.2,0.8s-0.5,0.4-0.8,0.4h-2.5
			v5.1C1855.2,10093.6,1854.8,10094,1854.2,10094z M1847.7,10092h5.6v-5.1c0-0.6,0.4-1,1-1h2.2l-1.7-7.3c0-0.1,0-0.1,0-0.2v-6.9
			c0,0,0-0.1,0-0.1c0.1-0.8-0.5-1.5-1.2-1.6c-0.1,0-0.2,0-0.3,0l-4.7,0c-1.1,0-2.4,0.8-2.4,1.8v6.9c0,0,0,0.1,0,0.1l-1,7.4h1.5
			c0.6,0,1,0.4,1,1V10092z"/>
	</g>
	<g id="Ellipse_490">
		<path d="M1850.9,10067.3c-2.6,0-4.8-2.1-4.8-4.8c0-2.6,2.1-4.8,4.8-4.8s4.8,2.1,4.8,4.8
			C1855.7,10065.1,1853.5,10067.3,1850.9,10067.3z M1850.9,10059.7c-1.5,0-2.8,1.2-2.8,2.8s1.2,2.8,2.8,2.8s2.8-1.2,2.8-2.8
			S1852.4,10059.7,1850.9,10059.7z"/>
	</g>
</g>
</svg>
