<svg xmlns="http://www.w3.org/2000/svg" width="25.201" height="21.743" viewBox="0 0 25.201 21.743">
  <g id="Group_3721" data-name="Group 3721" transform="translate(-1526.302 -904.044)">
    <path id="Path_1685" data-name="Path 1685" d="M223.4,563.873a.8.8,0,0,0-.8.8v4.954a.442.442,0,0,1-.441.441H202.042a.442.442,0,0,1-.441-.441v-4.954a.8.8,0,1,0-1.6,0v4.954a2.044,2.044,0,0,0,2.042,2.042h20.117a2.044,2.044,0,0,0,2.042-2.042v-4.954A.8.8,0,0,0,223.4,563.873Z" transform="translate(1326.802 353.619)" fill="#fff" stroke="#fff" stroke-width="1"/>
    <path id="Path_1686" data-name="Path 1686" d="M350.327,258.435l0,0c.017.017.035.033.054.049l.011.008.046.034.022.015.039.023.024.013.059.027h0q.035.014.071.025h0c.022.007.045.012.067.017l.009,0,.056.008.021,0,.039,0,.038,0h.011c.022,0,.044,0,.066,0l.01,0a.8.8,0,0,0,.478-.229l5.467-5.467a.8.8,0,0,0-1.131-1.131l-4.1,4.1V243.657a.8.8,0,0,0-1.6,0v12.281l-4.1-4.1a.8.8,0,0,0-1.131,1.131Z" transform="translate(1188.009 661.687)" fill="#fff" stroke="#fff" stroke-width="1"/>
  </g>
</svg>
