<?xml version="1.0" encoding="utf-8"?>
<!-- Generator: Adobe Illustrator 23.0.1, SVG Export Plug-In . SVG Version: 6.00 Build 0)  -->
<svg version="1.1" id="Group_1801" xmlns="http://www.w3.org/2000/svg" xmlns:xlink="http://www.w3.org/1999/xlink" x="0px" y="0px"
	 viewBox="0 0 98.2 55.7" style="enable-background:new 0 0 98.2 55.7;" xml:space="preserve">
<g id="Group_1799" transform="translate(0 0.696)">
	<path id="Path_1362" d="M34.4,55H11.2c-0.6,0-1.2-0.5-1.2-1.2V12.1c0-0.6,0.5-1.2,1.2-1.2h23.2c0.6,0,1.2,0.5,1.2,1.2v41.8
		C35.5,54.5,35,55,34.4,55C34.4,55,34.4,55,34.4,55z M12.3,52.7h20.9V13.2H12.3V52.7z"/>
	<path id="Path_1363" d="M28.1,28.5c-2.5,0-4.9-0.3-7.4-0.8c-3.1-0.5-5.6-0.9-7.4,0c-0.6,0.3-1.3,0-1.5-0.5c-0.3-0.6,0-1.2,0.5-1.5
		c2.5-1.3,5.5-0.8,8.8-0.2c3.6,0.6,7.6,1.3,12.3,0.1c0.6-0.1,1.2,0.3,1.4,0.9c0.1,0.6-0.2,1.2-0.8,1.4C32,28.3,30.1,28.5,28.1,28.5z
		"/>
	<path id="Path_1364" d="M19.7,48.7c-0.1,0-0.2,0-0.3,0c-0.6-0.2-1-0.8-0.8-1.4L30.2,5.5c0.1-0.4,0.4-0.7,0.8-0.8l9.3-2.3
		c0.6-0.1,1.2,0.3,1.4,0.9c0.1,0.6-0.2,1.2-0.8,1.4l-8.6,2.2L20.8,47.9C20.7,48.4,20.2,48.7,19.7,48.7z"/>
	<path id="Path_1365" d="M7,22.1c-0.2,0-0.4,0-0.5-0.1C2.5,20,0,16,0,11.6C0,5.2,5.2,0,11.6,0C16,0,20,2.5,22,6.4
		C22.3,7,22,7.7,21.5,8c-0.6,0.3-1.3,0.1-1.6-0.5c0,0,0,0,0,0C17.6,2.9,12.1,1,7.5,3.3S1,11.1,3.3,15.7c0.9,1.8,2.4,3.3,4.2,4.2
		c0.6,0.3,0.8,1,0.5,1.5C7.8,21.8,7.4,22.1,7,22.1z"/>
	<path id="Path_1366" d="M5.8,16.2c-0.3,0-0.6-0.1-0.8-0.3c-0.5-0.5-0.5-1.2,0-1.6c0,0,0,0,0,0L7.3,12c0.4-0.5,1.2-0.5,1.6,0
		c0.5,0.4,0.5,1.2,0,1.6c0,0,0,0,0,0l-2.3,2.3C6.4,16.1,6.1,16.2,5.8,16.2z"/>
	<path id="Path_1367" d="M12.8,9.3c-0.3,0-0.6-0.1-0.8-0.3c-0.5-0.5-0.5-1.2,0-1.6c0,0,0,0,0,0L14.3,5c0.4-0.5,1.2-0.5,1.6,0
		c0.5,0.4,0.5,1.2,0,1.6c0,0,0,0,0,0l-2.3,2.3C13.4,9.2,13.1,9.3,12.8,9.3z"/>
	<path id="Path_1368" d="M9.3,10.5c-0.3,0-0.6-0.1-0.8-0.3L6.1,7.8c-0.4-0.5-0.4-1.2,0-1.6c0.5-0.4,1.2-0.4,1.6,0l0,0l2.3,2.4
		c0.4,0.5,0.4,1.2,0,1.6C9.9,10.4,9.6,10.5,9.3,10.5z"/>
</g>
<g id="Group_1800" transform="translate(51.792)">
	<path id="Path_1369" d="M32.5,55.7H4.6c-2.6,0-4.6-2.1-4.6-4.6c0,0,0,0,0,0V4.6C0,2.1,2.1,0,4.6,0c0,0,0,0,0,0h27.9
		c2.6,0,4.6,2.1,4.6,4.6c0,0,0,0,0,0v46.4C37.1,53.6,35.1,55.7,32.5,55.7z M4.6,2.3c-1.3,0-2.3,1-2.3,2.3v46.4c0,1.3,1,2.3,2.3,2.3
		h27.9c1.3,0,2.3-1,2.3-2.3V4.6c0-1.3-1-2.3-2.3-2.3H4.6z"/>
	<path id="Path_1370" d="M40.2,41.8H36c-0.6,0-1.2-0.5-1.2-1.2V12.8c0-0.6,0.5-1.2,1.2-1.2h4.2c5.4,0,6.2,3.2,6.2,5.1v17.8
		C46.4,38,43.9,41.8,40.2,41.8z M37.1,39.5h3.1c2.2,0,3.9-2.6,3.9-5V16.7c0-1.4-0.5-2.8-3.9-2.8h-3.1L37.1,39.5z"/>
	<path id="Path_1371" d="M8.1,47.6c-0.6,0-1.2-0.5-1.2-1.2V13.9c0-0.6,0.5-1.2,1.2-1.2s1.2,0.5,1.2,1.2v32.5
		C9.3,47.1,8.8,47.6,8.1,47.6C8.1,47.6,8.1,47.6,8.1,47.6z"/>
	<path id="Path_1372" d="M34.8,13.9H2.3c-0.6,0-1.2-0.5-1.2-1.2c0-0.6,0.5-1.2,1.2-1.2h32.5c0.6,0,1.2,0.5,1.2,1.2
		C36,13.4,35.5,13.9,34.8,13.9z"/>
	<path id="Path_1373" d="M15.1,47.6c-0.6,0-1.2-0.5-1.2-1.2V13.9c0-0.6,0.5-1.2,1.2-1.2s1.2,0.5,1.2,1.2v32.5
		C16.2,47.1,15.7,47.6,15.1,47.6C15.1,47.6,15.1,47.6,15.1,47.6z"/>
	<path id="Path_1374" d="M22,47.6c-0.6,0-1.2-0.5-1.2-1.2V13.9c0-0.6,0.5-1.2,1.2-1.2c0.6,0,1.2,0.5,1.2,1.2l0,0v32.5
		C23.2,47.1,22.7,47.6,22,47.6C22.1,47.6,22.1,47.6,22,47.6z"/>
	<path id="Path_1375" d="M29,47.6c-0.6,0-1.2-0.5-1.2-1.2V13.9c0-0.6,0.5-1.2,1.2-1.2s1.2,0.5,1.2,1.2v32.5
		C30.2,47.1,29.7,47.6,29,47.6C29,47.6,29,47.6,29,47.6z"/>
</g>
</svg>
