<svg xmlns="http://www.w3.org/2000/svg" viewBox="0 0 20 24"><g id="Laag_2" data-name="Laag 2"><g id="icons"><path d="M10,24H9.9c-4-.81-9.9-4.55-9.9-10V3.5a.48.48,0,0,1,.16-.36A.47.47,0,0,1,.53,3c4.85.28,7-.81,9.13-2.86a.48.48,0,0,1,.68,0C12.5,2.19,14.61,3.28,19.47,3a.51.51,0,0,1,.53.5V14c0,5.44-5.91,9.18-9.9,10ZM1,4V14c0,4.84,5.33,8.2,9,9,3.67-.79,9-4.15,9-9V4c-4.61.18-6.88-.94-9-2.85C7.88,3.09,5.61,4.21,1,4Z"/><path d="M13.5,17.82a.47.47,0,0,1-.3-.1L9.72,15.13,6.24,17.64a.51.51,0,0,1-.59,0,.49.49,0,0,1-.18-.56l1.32-3.85-3.46-2.3a.51.51,0,0,1-.2-.56A.5.5,0,0,1,3.61,10h4.3L9.25,5.9a.52.52,0,0,1,.95,0L11.53,10h4.3a.49.49,0,0,1,.48.36.5.5,0,0,1-.2.56l-3.46,2.29L14,17.16a.5.5,0,0,1-.18.57A.52.52,0,0,1,13.5,17.82ZM9.72,14a.53.53,0,0,1,.3.09L12.52,16l-.94-2.81a.51.51,0,0,1,.2-.58L14.17,11h-3a.5.5,0,0,1-.47-.35l-1-3-1,3a.49.49,0,0,1-.47.35h-3l2.4,1.6a.51.51,0,0,1,.2.58l-.94,2.73,2.51-1.8A.52.52,0,0,1,9.72,14Z"/></g></g></svg>