<svg id="Layer_1" data-name="Layer 1" xmlns="http://www.w3.org/2000/svg" viewBox="0 0 17.24 20.69"><defs><style>.cls-1{fill:#212121;}</style></defs><path id="Path_3981" data-name="Path 3981" class="cls-1" d="M16.86,16.81l-4-4.45a.91.91,0,0,0-1.08-.21l-2,1a17.39,17.39,0,0,1-3.1-4.49L8.27,7.07A.92.92,0,0,0,8.42,6C7.59,4.51,6.16,2,5.5.76A1.45,1.45,0,0,0,4.4,0,1.47,1.47,0,0,0,3.14.45C2.54,1.06-.41,4.25.05,7A19.29,19.29,0,0,0,9.43,20.26a3.94,3.94,0,0,0,1.88.44,12.5,12.5,0,0,0,4.91-1.48l.17-.08a1.48,1.48,0,0,0,.71-2,1.41,1.41,0,0,0-.24-.36Zm-6.57,1.84a17.37,17.37,0,0,1-8.44-12C1.63,5.37,3,3.32,4.13,2.06L6.48,6.27,4.94,7.81a.9.9,0,0,0-.16,1.06,20.23,20.23,0,0,0,4.17,6A.92.92,0,0,0,10,15l2-.95,3.22,3.6s-3.64,1.65-4.9,1Z" transform="translate(0 0)"/></svg>