<svg id="Icon_-_Filter" data-name="Icon - Filter" xmlns="http://www.w3.org/2000/svg" width="24.803" height="18" viewBox="0 0 24.803 18">
  <line id="Line_398" data-name="Line 398" x1="24.803" transform="translate(0 3.5)" fill="none" stroke="inherit" stroke-width="1.5"/>
  <line id="Line_399" data-name="Line 399" x1="24.803" transform="translate(0 14.5)" fill="none" stroke="inherit" stroke-width="1.5"/>
  <g id="Path_3126" data-name="Path 3126" transform="translate(4.303)" fill="#f3f2ff">
    <path d="M 4 7.25 C 2.207940101623535 7.25 0.75 5.792059898376465 0.75 4 C 0.75 2.207940101623535 2.207940101623535 0.75 4 0.75 C 5.792059898376465 0.75 7.25 2.207940101623535 7.25 4 C 7.25 5.792059898376465 5.792059898376465 7.25 4 7.25 Z" stroke="none"/>
    <path d="M 4 1.5 C 2.621500015258789 1.5 1.5 2.621500015258789 1.5 4 C 1.5 5.378499984741211 2.621500015258789 6.5 4 6.5 C 5.378499984741211 6.5 6.5 5.378499984741211 6.5 4 C 6.5 2.621500015258789 5.378499984741211 1.5 4 1.5 M 4 0 C 6.209139823913574 0 8 1.790860176086426 8 4 C 8 6.209139823913574 6.209139823913574 8 4 8 C 1.790860176086426 8 0 6.209139823913574 0 4 C 0 1.790860176086426 1.790860176086426 0 4 0 Z" stroke="none" fill="inherit"/>
  </g>
  <g id="Ellipse_366" data-name="Ellipse 366" transform="translate(12.303 10)" fill="#f3f2ff" stroke="inherit" stroke-width="1.5">
    <circle cx="4" cy="4" r="4" stroke="none"/>
    <circle cx="4" cy="4" r="3.25" fill="none"/>
  </g>
</svg>
