<svg xmlns="http://www.w3.org/2000/svg" width="32.863" height="41.546" viewBox="0 0 32.863 41.546">
  <g id="Group_3894" data-name="Group 3894" transform="translate(0)">
    <path id="Path_2266" data-name="Path 2266" d="M192.246,4961.627a8.577,8.577,0,0,1-8.484-8.648,17.8,17.8,0,0,1,5.044-11.636.88.88,0,0,1,.944-.192.87.87,0,0,1,.536.8,16.771,16.771,0,0,1-.368,3.286c-.254,1.363-.367,2.107.045,2.813a2.1,2.1,0,0,0,1.823,1.021,2,2,0,0,0,1.7-.915c1.152-1.725.912-4.249-.718-7.5a.864.864,0,0,1,1.133-1.172c6.967,3.2,7.246,10.544,7.041,13.554A8.981,8.981,0,0,1,192.246,4961.627Zm-3.994-16.892a15.607,15.607,0,0,0-2.761,8.244,6.845,6.845,0,0,0,6.754,6.918,7.248,7.248,0,0,0,6.971-6.975c.19-2.819-.138-7.56-3.855-10.532.886,2.708.74,4.964-.438,6.727a3.715,3.715,0,0,1-3.138,1.683,3.836,3.836,0,0,1-3.317-1.879c-.754-1.293-.509-2.609-.251-4C188.23,4944.86,188.242,4944.8,188.252,4944.735Z" transform="translate(-176.772 -4920.081)"/>
    <path id="Path_2267" data-name="Path 2267" d="M195.288,4969.743c-9.311,0-15.567-6.256-15.567-15.567,0-5.953,3.4-9.667,7.007-13.6,3-3.276,6.109-6.666,7.737-11.741a.869.869,0,0,1,.445-.513.857.857,0,0,1,.68-.034c6.711,2.49,17,14.3,17,24.16A17.316,17.316,0,0,1,195.288,4969.743Zm.517-39.489c-1.813,4.954-4.985,8.417-7.8,11.49-3.515,3.838-6.552,7.152-6.552,12.432,0,8.279,5.561,13.837,13.837,13.837a15.584,15.584,0,0,0,15.567-15.567C210.855,4943.807,201.937,4933.151,195.805,4930.254Z" transform="translate(-179.721 -4928.232)"/>
  </g>
</svg>
