<?xml version="1.0" encoding="utf-8"?>
<!-- Generator: Adobe Illustrator 23.0.1, SVG Export Plug-In . SVG Version: 6.00 Build 0)  -->
<svg version="1.1" id="Laag_1" xmlns="http://www.w3.org/2000/svg" xmlns:xlink="http://www.w3.org/1999/xlink" x="0px" y="0px"
	 viewBox="0 0 68 53.2" style="enable-background:new 0 0 68 53.2;" xml:space="preserve">
<g id="Group_1797" transform="translate(67.977) rotate(90)">
	<path id="Path_1353" d="M53.2,66.5c0,0.8-0.7,1.5-1.5,1.5H1.5C0.7,68,0,67.3,0,66.5v-65C0,0.7,0.7,0,1.5,0h50.2
		c0.8,0,1.5,0.7,1.5,1.5V66.5z M3,65h47.3V3H3V65z"/>
	<path id="Path_1354" d="M38.4,10.3c0,0.8-0.7,1.5-1.5,1.5H16.3c-0.8,0-1.5-0.7-1.5-1.5V1.5c0-0.8,0.7-1.5,1.5-1.5h20.7
		c0.8,0,1.5,0.7,1.5,1.5V10.3z M17.7,8.9h17.7V3H17.7V8.9z"/>
	<path id="Path_1355" d="M38.4,66.5c0,0.8-0.7,1.5-1.5,1.5H16.3c-0.8,0-1.5-0.7-1.5-1.5v-8.9c0-0.8,0.7-1.5,1.5-1.5h20.7
		c0.8,0,1.5,0.7,1.5,1.5V66.5z M17.7,65h17.7v-5.9H17.7V65z"/>
	
		<rect id="Rectangle_1006" x="25.9" y="9.6" transform="matrix(2.535182e-06 1 -1 2.535182e-06 61.3279 6.6499)" width="3" height="48.8"/>
	<path id="Path_1356" d="M27.4,44.8c-6.4,0-11.5-5.2-11.5-11.5S21,21.8,27.4,21.8c6.4,0,11.5,5.2,11.5,11.5
		C39,39.7,33.8,44.8,27.4,44.8z M27.4,24.7c-4.7,0-8.6,3.8-8.6,8.6s3.8,8.6,8.6,8.6s8.6-3.8,8.6-8.6l0,0
		C36,28.6,32.2,24.7,27.4,24.7z"/>
</g>
</svg>
