<svg xmlns="http://www.w3.org/2000/svg" viewBox="0 0 23.87 23.86"><g id="Laag_2" data-name="Laag 2"><g id="icons"><path d="M21.64,23.86h0a.51.51,0,0,1-.35-.15l-5.61-5.62-2.55,2.85a.5.5,0,0,1-.45.16.51.51,0,0,1-.38-.3L6.38,6.9a.51.51,0,0,1,.1-.55A.51.51,0,0,1,7,6.24l13.86,5.93a.49.49,0,0,1,.3.38A.51.51,0,0,1,21,13l-3,2.61,5.66,5.67a.48.48,0,0,1,0,.7L22,23.71A.53.53,0,0,1,21.64,23.86Zm-6-7A.54.54,0,0,1,16,17l5.62,5.64,1-1L17,15.94a.51.51,0,0,1-.15-.37.49.49,0,0,1,.17-.36l2.77-2.44-12-5.12,5.12,12L15.29,17a.48.48,0,0,1,.36-.16Z"/><path d="M7.34,13.37H7.23a5.1,5.1,0,1,1,6.15-6,.49.49,0,0,1-.38.59.5.5,0,0,1-.6-.38,4.09,4.09,0,1,0-4.94,4.83.5.5,0,0,1-.12,1Z"/><path d="M8.39,16.79a8.4,8.4,0,1,1,8.4-8.39.5.5,0,0,1-1,0,7.4,7.4,0,1,0-7.4,7.39.5.5,0,0,1,0,1Z"/></g></g></svg>