<?xml version="1.0" encoding="utf-8"?>
<!-- Generator: Adobe Illustrator 23.0.6, SVG Export Plug-In . SVG Version: 6.00 Build 0)  -->
<svg version="1.1" id="Laag_1" xmlns="http://www.w3.org/2000/svg" xmlns:xlink="http://www.w3.org/1999/xlink" x="0px" y="0px"
	 viewBox="0 0 14.7 20.5" style="enable-background:new 0 0 14.7 20.5;" xml:space="preserve">
<g id="Group_3432" transform="translate(-2187.5 -4020.868)">
	<g id="Rectangle_2287">
		<path d="M2192.9,4034.2h-4.7c-0.4,0-0.8-0.3-0.8-0.8v-4.7c0-0.4,0.3-0.8,0.8-0.8h4.7c0.4,0,0.8,0.3,0.8,0.8v4.7
			C2193.7,4033.9,2193.3,4034.2,2192.9,4034.2z M2189,4032.7h3.2v-3.2h-3.2V4032.7z"/>
	</g>
	<g id="Rectangle_2288">
		<path d="M2201.4,4025.7h-3.1c-0.4,0-0.8-0.3-0.8-0.8v-3.1c0-0.4,0.3-0.8,0.8-0.8h3.1c0.4,0,0.8,0.3,0.8,0.8v3.1
			C2202.2,4025.3,2201.9,4025.7,2201.4,4025.7z M2199.1,4024.2h1.6v-1.6h-1.6V4024.2z"/>
	</g>
	<g id="Rectangle_2289">
		<path d="M2201.4,4041.2h-3.1c-0.4,0-0.8-0.3-0.8-0.8v-3.1c0-0.4,0.3-0.8,0.8-0.8h3.1c0.4,0,0.8,0.3,0.8,0.8v3.1
			C2202.2,4040.9,2201.9,4041.2,2201.4,4041.2z M2199.1,4039.7h1.6v-1.6h-1.6V4039.7z"/>
	</g>
	<g id="Line_542">
		<rect x="2189.8" y="4033.9" width="1.5" height="4.7"/>
	</g>
	<g id="Line_543">
		<rect x="2189.8" y="4023.8" width="1.5" height="4.7"/>
	</g>
	<g id="Ellipse_421">
		<path d="M2190.6,4024.3c-0.9,0-1.7-0.8-1.7-1.7c0-0.9,0.8-1.7,1.7-1.7c0.9,0,1.7,0.8,1.7,1.7
			C2192.3,4023.5,2191.5,4024.3,2190.6,4024.3z M2190.6,4022.4c-0.1,0-0.2,0.1-0.2,0.2c0,0.2,0.4,0.2,0.4,0
			C2190.8,4022.5,2190.7,4022.4,2190.6,4022.4z"/>
	</g>
	<g id="Ellipse_422">
		<path d="M2190.6,4041.4c-0.9,0-1.7-0.8-1.7-1.7s0.8-1.7,1.7-1.7c0.9,0,1.7,0.8,1.7,1.7S2191.5,4041.4,2190.6,4041.4z
			 M2190.6,4039.5c-0.1,0-0.2,0.1-0.2,0.2c0,0.2,0.4,0.2,0.4,0C2190.8,4039.6,2190.7,4039.5,2190.6,4039.5z"/>
	</g>
	<g id="Path_2051">
		<path d="M2191.6,4029l-1.4-0.4c1-3.6,4.4-6,8.1-5.8l-0.1,1.5C2195.1,4024.2,2192.4,4026.1,2191.6,4029z"/>
	</g>
	<g id="Path_2052">
		<path d="M2197.9,4039.5c-3.6,0-6.7-2.3-7.7-5.8l1.4-0.4c0.8,2.9,3.6,4.8,6.6,4.7l0.1,1.5C2198.1,4039.5,2198,4039.5,2197.9,4039.5
			z"/>
	</g>
</g>
</svg>
