<svg xmlns="http://www.w3.org/2000/svg" viewBox="0 0 48 46"><title>Gestroomlijnd</title><g id="Laag_2" data-name="Laag 2"><g id="icons"><path d="M32.19,12a1,1,0,0,1-.62-.22,1,1,0,0,1-.16-1.4L34.91,6l-3.5-4.37A1,1,0,0,1,31.57.22,1,1,0,0,1,33,.38l4,5a1,1,0,0,1,0,1.25l-4,5A1,1,0,0,1,32.19,12Z"/><path d="M16,46a1,1,0,0,1-.78-.37l-4-5a1,1,0,0,1,0-1.25l4-5a1,1,0,1,1,1.56,1.25L13.28,40l3.5,4.38a1,1,0,0,1-.16,1.4A1,1,0,0,1,16,46Z"/><path d="M47,41H12a1,1,0,0,1,0-2H46V7H40a1,1,0,0,1,0-2h7a1,1,0,0,1,1,1V40A1,1,0,0,1,47,41Z"/><path d="M8,41H1a1,1,0,0,1-1-1V6A1,1,0,0,1,1,5H36a1,1,0,0,1,0,2H2V39H8a1,1,0,0,1,0,2Z"/></g></g></svg>