<svg xmlns="http://www.w3.org/2000/svg" viewBox="0 0 24 23.04"><g id="Laag_2" data-name="Laag 2"><g id="icons"><path d="M3.32,13.15h0a1.46,1.46,0,0,1-1.4-.65c-.37-.64-.16-1.61.68-3C3.83,7.34,5.22,6.27,6.74,6.27c2.54,0,4.35,3.06,4.43,3.19a.46.46,0,0,1,.05.38.47.47,0,0,1-.23.3C10.77,10.27,5.71,13.15,3.32,13.15ZM6.74,7.27c-1.13,0-2.24.9-3.28,2.69-.88,1.52-.72,2-.68,2s.25.15.54.15c1.59,0,5-1.7,6.7-2.61C9.48,8.78,8.22,7.27,6.74,7.27Z"/><path d="M12.3,17.41h0c-2.16,0-3.68-2.83-3.75-2.95a.5.5,0,0,1,.1-.59c.64-.64,2.76-.71,3.64-.71,1.37,0,3.09.14,3.51.8a.52.52,0,0,1,0,.5C14.78,16.42,13.6,17.41,12.3,17.41Zm-2.6-3c.52.8,1.53,2,2.6,2h0c.82,0,1.63-.68,2.41-2a10.18,10.18,0,0,0-2.42-.23A10.54,10.54,0,0,0,9.7,14.42Z"/><path d="M12.3,19.22h0a5.45,5.45,0,0,1-3.69-1.86.51.51,0,0,1,.06-.71.51.51,0,0,1,.71.06,4.43,4.43,0,0,0,2.92,1.51h0A3.57,3.57,0,0,0,15,16.71a.5.5,0,0,1,.77.65A4.53,4.53,0,0,1,12.3,19.22Z"/><path d="M12.62,19a.5.5,0,0,1-.5-.5v-1a.5.5,0,0,1,1,0v1A.5.5,0,0,1,12.62,19Z"/><path d="M12.21,23A11.63,11.63,0,0,1,.44,11.58,11.14,11.14,0,0,1,2,5.85,3,3,0,0,1,.17,4,3,3,0,0,1,.32,1.63,2.92,2.92,0,0,1,2,.14,3.21,3.21,0,0,1,3,0,3.09,3.09,0,0,1,5.82,2a12,12,0,0,1,12.42-.24A2.94,2.94,0,0,1,20,.14,3.21,3.21,0,0,1,20.92,0a3.08,3.08,0,0,1,2.77,4.43,3,3,0,0,1-1.34,1.32A11.21,11.21,0,0,1,24,11.58,11.63,11.63,0,0,1,12.21,23ZM3,1a1.77,1.77,0,0,0-.61.1,2,2,0,0,0-1.14,1,2,2,0,0,0-.1,1.56A2.13,2.13,0,0,0,2.87,5a.47.47,0,0,1,.4.28.5.5,0,0,1,0,.49,10.21,10.21,0,0,0-1.79,5.77A10.63,10.63,0,0,0,12.21,22,10.63,10.63,0,0,0,23,11.58a10.23,10.23,0,0,0-1.82-5.82.45.45,0,0,1-.05-.46A.5.5,0,0,1,21.47,5l.29.37,0,0L21.66,5a1.9,1.9,0,0,0,1.13-1,2,2,0,0,0,.1-1.56A2.1,2.1,0,0,0,20.31,1.1,1.93,1.93,0,0,0,19,2.59a.52.52,0,0,1-.29.37.49.49,0,0,1-.47,0,11,11,0,0,0-12.44.28.53.53,0,0,1-.5.05A.49.49,0,0,1,5,2.84a2.23,2.23,0,0,0-.1-.43A2.09,2.09,0,0,0,3,1Z"/><path d="M6.67,11a1.5,1.5,0,1,1,1.5-1.5A1.5,1.5,0,0,1,6.67,11Zm0-2a.51.51,0,0,0-.5.5.5.5,0,0,0,.5.5.5.5,0,0,0,.5-.5A.5.5,0,0,0,6.67,9Z"/><path d="M21,13.15c-2.39,0-7.45-2.88-7.67-3a.47.47,0,0,1-.23-.3.46.46,0,0,1,.05-.38c.07-.13,1.88-3.19,4.43-3.19,1.51,0,2.91,1.07,4.14,3.19.83,1.43,1.05,2.4.68,3A1.46,1.46,0,0,1,21,13.15ZM14.27,9.54c1.68.91,5.12,2.61,6.71,2.61.28,0,.48-.05.53-.15s.21-.52-.67-2c-1-1.79-2.15-2.69-3.28-2.69C16.07,7.27,14.81,8.78,14.27,9.54Z"/><path d="M17.63,11a1.5,1.5,0,1,1,1.5-1.5A1.5,1.5,0,0,1,17.63,11Zm0-2a.5.5,0,0,0-.5.5.5.5,0,0,0,.5.5.5.5,0,0,0,.5-.5A.51.51,0,0,0,17.63,9Z"/></g></g></svg>