<svg xmlns="http://www.w3.org/2000/svg" viewBox="0 0 24.01 24"><g id="Laag_2" data-name="Laag 2"><g id="icons"><path d="M6.83,24h0c-2.31,0-4.58-2.31-4.68-2.41C.44,19.84-1,16.24.88,14.31A6.29,6.29,0,0,1,3.25,13a5.52,5.52,0,0,0,2.18-1.18,4.2,4.2,0,0,0,.64-1.42,6.56,6.56,0,0,1,.78-1.79A3.16,3.16,0,0,1,9.27,7.07,2,2,0,0,1,10.94,8,2,2,0,0,1,11,10.1a2.59,2.59,0,0,0,0,2.38c.4.86.79,1,1.12,1a2.9,2.9,0,0,0,.63-.09,3.1,3.1,0,0,1,.67-.1,1.13,1.13,0,0,1,1.05.64c.62,1.2-.69,2.07-1.74,2.76a6.46,6.46,0,0,0-1.41,1.1A3,3,0,0,0,10.94,19a7.13,7.13,0,0,1-1.89,4A3,3,0,0,1,6.83,24ZM9.27,8.07A2.3,2.3,0,0,0,7.66,9.21,6.1,6.1,0,0,0,7,10.73a4.63,4.63,0,0,1-.87,1.81A6.51,6.51,0,0,1,3.6,14a5.34,5.34,0,0,0-2,1c-1.36,1.4-.16,4.42,1.27,5.88.71.73,2.45,2.11,4,2.11h0a2,2,0,0,0,1.5-.64A6.24,6.24,0,0,0,10,18.86a3.65,3.65,0,0,1,.62-1.75,7.67,7.67,0,0,1,1.63-1.29c.94-.62,1.59-1.09,1.4-1.46,0-.09-.06-.1-.16-.1a2.34,2.34,0,0,0-.46.08,4.27,4.27,0,0,1-.84.11,2.22,2.22,0,0,1-2-1.54,3.58,3.58,0,0,1-.06-3.17c.22-.56.29-.8,0-1.15A1,1,0,0,0,9.27,8.07Z"/><rect x="9.69" y="9.34" width="10.07" height="1" transform="translate(-2.6 13.53) rotate(-45.79)"/><rect x="9.07" y="7.34" width="8.95" height="1" transform="translate(-1.52 12.08) rotate(-45.79)"/><path d="M18.1,6.85a1.79,1.79,0,0,1-1.31-.59,2.33,2.33,0,0,1-.85-1.9c.11-.92,1-1.64,2.32-2.44.32-.19.62-.39.91-.57A6.39,6.39,0,0,1,22.2,0a1.91,1.91,0,0,1,1.16.39,1.61,1.61,0,0,1,.56,1.84A2.41,2.41,0,0,1,21.7,3.77C21,5,19.6,6.85,18.1,6.85ZM22.2,1a6.09,6.09,0,0,0-2.5,1.19c-.29.19-.59.39-.92.58C18,3.28,17,3.93,16.93,4.49c0,.29.15.64.58,1.08a.79.79,0,0,0,.59.28c.9,0,2.15-1.42,2.85-2.8a.47.47,0,0,1,.46-.27h0A1.51,1.51,0,0,0,23,1.91a.62.62,0,0,0-.21-.71A.88.88,0,0,0,22.2,1Z"/><path d="M6.52,19.55a.47.47,0,0,1-.35-.15L4.6,17.8a.5.5,0,0,1,.72-.7l1.56,1.6a.5.5,0,0,1,0,.71A.46.46,0,0,1,6.52,19.55Z"/><path d="M8.09,18a.51.51,0,0,1-.36-.15L6.17,16.2a.5.5,0,1,1,.71-.7l1.56,1.6a.5.5,0,0,1-.35.85Z"/><path d="M7.3,20.65a.58.58,0,0,1,0,.81.54.54,0,0,1-.78,0,.6.6,0,0,1,0-.81A.54.54,0,0,1,7.3,20.65Z"/></g></g></svg>