<svg xmlns="http://www.w3.org/2000/svg" width="30.619" height="37.417" viewBox="0 0 30.619 37.417">
  <g id="Group_3890" data-name="Group 3890" transform="translate(0)">
    <path id="Path_2252" data-name="Path 2252" d="M947.187,6068.648h-1.559v-29.319l-.215.376-12.3-7.017a.78.78,0,0,1,.387-1.457h12.907a.78.78,0,0,1,.78.779Zm-10.748-35.857,9.189,5.242v-5.242Z" transform="translate(-916.569 -6031.232)"/>
    <path id="Path_2253" data-name="Path 2253" d="M939.727,6068.369h-7.451a.776.776,0,0,1-.755-.583l-9.136-35.078a.779.779,0,0,1,1.508-.394l8.24,31.635a.776.776,0,0,1,.578-.258h7.016c1.085,0,1.777.34,2.053,1.009.527,1.27-1.016,2.954-1.5,3.44A.77.77,0,0,1,939.727,6068.369Zm-6.849-1.558h6.512a3.833,3.833,0,0,0,.945-1.508c-.039.016-.209-.05-.608-.051h-7.016a.733.733,0,0,1-.249-.041Z" transform="translate(-922.36 -6030.953)"/>
    <path id="Path_2254" data-name="Path 2254" d="M938.339,6054.968a3.118,3.118,0,1,1,3.118-3.118A3.122,3.122,0,0,1,938.339,6054.968Zm0-4.677a1.559,1.559,0,1,0,1.559,1.559A1.561,1.561,0,0,0,938.339,6050.291Z" transform="translate(-915.171 -6021.449)"/>
    <rect id="Rectangle_2460" data-name="Rectangle 2460" width="1.559" height="4.677" transform="translate(22.823 32.74)"/>
  </g>
</svg>
