<svg id="Laag_1" data-name="Laag 1" xmlns="http://www.w3.org/2000/svg" xmlns:xlink="http://www.w3.org/1999/xlink" viewBox="0 0 40 34.97"><defs><linearGradient id="Naamloos_verloop_4" x1="8.47" y1="39.53" x2="33.81" y2="12.22" gradientUnits="userSpaceOnUse"><stop offset="0" stop-color="#ef9d22"/><stop offset="0.42" stop-color="#fda15f"/><stop offset="1" stop-color="#fed736"/></linearGradient><linearGradient id="Naamloos_verloop_4-2" x1="3.9" y1="35.28" x2="29.24" y2="7.97" xlink:href="#Naamloos_verloop_4"/><linearGradient id="Naamloos_verloop_4-3" x1="-0.75" y1="30.98" x2="24.59" y2="3.66" xlink:href="#Naamloos_verloop_4"/></defs><path d="M38.33,22.87H2a.67.67,0,0,0-.67.68v6.72a.67.67,0,0,0,.67.67h.81a6,6,0,0,0,5.08,4H32.08a6.64,6.64,0,0,0,5.43-4h.82a.69.69,0,0,0,.68-.67V23.55A.69.69,0,0,0,38.33,22.87ZM32.08,33.63H7.92a4.73,4.73,0,0,1-3.65-2.69H36.06A5.39,5.39,0,0,1,32.08,33.63Zm5.58-4H2.71V24.22H37.66Z" transform="translate(0 0)" style="fill:url(#Naamloos_verloop_4)"/><path d="M36.91,14.84a3.09,3.09,0,0,0-3.09,3.09,1.74,1.74,0,0,1-3.48,0,3.09,3.09,0,0,0-6.18,0h0a1.75,1.75,0,0,1-3.49,0,3.09,3.09,0,1,0-6.17,0h0a1.75,1.75,0,0,1-3.49,0,3.09,3.09,0,0,0-6.18,0,1.75,1.75,0,0,1-3.49,0,.67.67,0,1,0-1.34,0V18a3.09,3.09,0,0,0,6.17-.11h0a1.75,1.75,0,1,1,3.49,0,3.09,3.09,0,0,0,6.18,0h0a1.75,1.75,0,1,1,3.49,0V18a3.09,3.09,0,0,0,6.17-.11,1.75,1.75,0,1,1,3.49,0A3.08,3.08,0,0,0,32.08,21h0a3.09,3.09,0,0,0,3.09-3.08h0a1.75,1.75,0,0,1,3.49,0,.67.67,0,0,0,1.34,0A3.09,3.09,0,0,0,36.91,14.84Z" transform="translate(0 0)" style="fill:url(#Naamloos_verloop_4-2)"/><path d="M2,12.11l36.3,0h0a.67.67,0,0,0,.67-.67V10C39,.73,33.2,0,25,0H21.21L15,0C7,0,1.36.7,1.36,9.93v1.5h0A.68.68,0,0,0,2,12.11ZM2.7,9.93c0-7.75,4-8.59,12.34-8.58H25c8.62,0,12.67.85,12.67,8.6v.83l-35,0Z" transform="translate(0 0)" style="fill:url(#Naamloos_verloop_4-3)"/></svg>