<svg id="Bright_-_Borrel" data-name="Bright - Borrel" xmlns="http://www.w3.org/2000/svg" xmlns:xlink="http://www.w3.org/1999/xlink" viewBox="0 0 34.67 40"><defs><linearGradient id="Naamloos_verloop_7" x1="-1.77" y1="43.66" x2="22.63" y2="7.05" gradientUnits="userSpaceOnUse"><stop offset="0" stop-color="#ef9d22"/><stop offset="0.42" stop-color="#fda15f"/><stop offset="1" stop-color="#fed736"/></linearGradient></defs><path d="M29.54,8H28V3.17A3.17,3.17,0,0,0,24.83,0H3.17A3.17,3.17,0,0,0,0,3.17V36.83A3.17,3.17,0,0,0,3.17,40H24.83A3.17,3.17,0,0,0,28,36.83v-7.5h1.54c2.43,0,5.13-1.8,5.13-4.39V12.17C34.67,9.67,32,8,29.54,8ZM3.17,1.33H24.83a1.86,1.86,0,0,1,1.84,1.84V8H1.33V3.17A1.84,1.84,0,0,1,3.17,1.33ZM24.83,38.67H3.17a1.85,1.85,0,0,1-1.84-1.84V9.33h4v24A.67.67,0,0,0,6,34H6a.67.67,0,0,0,.67-.67v-24h4v24a.67.67,0,0,0,.66.67h0a.67.67,0,0,0,.67-.67v-24h4v24a.67.67,0,0,0,.67.67h0a.67.67,0,0,0,.66-.67v-24h4v24A.67.67,0,0,0,22,34h0a.67.67,0,0,0,.67-.67v-24h4v27.5A1.86,1.86,0,0,1,24.83,38.67Zm8.5-13.73c0,1.73-2,3.06-3.79,3.06H28V9.33h1.54c1.79,0,3.79,1.17,3.79,2.84Z" style="fill:url(#Naamloos_verloop_7)"/></svg>