<svg id="Laag_1" data-name="Laag 1" xmlns="http://www.w3.org/2000/svg" xmlns:xlink="http://www.w3.org/1999/xlink" viewBox="0 0 39.47 37.27"><defs><linearGradient id="Naamloos_verloop_9" x1="3.76" y1="42.36" x2="29.66" y2="6.89" gradientUnits="userSpaceOnUse"><stop offset="0" stop-color="#ef9d22"/><stop offset="0.42" stop-color="#fda15f"/><stop offset="1" stop-color="#fed736"/></linearGradient></defs><path d="M39.47,15C39.47,7.82,36,3.22,29.2,1.2a.61.61,0,0,0-.35-.11A34.07,34.07,0,0,0,19.73,0C8.11,0,0,5.5,0,13.37c0,4.85,3.63,5,7.82,5.25,3.47.18,7.78.4,11.53,3.21a18.47,18.47,0,0,0,8,3.38,26.12,26.12,0,0,1,3.23,12.06l1.27-.05a28.76,28.76,0,0,0-2.92-11.81l1,.06h0c.25,0,.49,0,.73,0a26.12,26.12,0,0,1,3.1,11.83L35,37.22a28.75,28.75,0,0,0-3-11.92C36.8,24.48,39.47,20.81,39.47,15Zm-4.29,7.65a5.91,5.91,0,0,0-5.9-5.11c-1.48,0-6,0-7.39-2.83a.63.63,0,0,0-1.13.57c1.76,3.54,6.85,3.54,8.52,3.54h.42A4.62,4.62,0,0,1,34,23.36a9.41,9.41,0,0,1-4,.84,17.36,17.36,0,0,1-9.81-3.38,15.07,15.07,0,0,0-4.57-2.35l3.05-3.06a.62.62,0,0,0,0-.86.63.63,0,0,0-.9,0l-3.18,3.18a.6.6,0,0,0-.18.44,33.47,33.47,0,0,0-6.44-.78,14.58,14.58,0,0,1-4.95-.76,9.16,9.16,0,0,1,6-3.82,4.5,4.5,0,0,1,4,1.05.64.64,0,0,0,.9-.9,5.62,5.62,0,0,0-5.1-1.4,10.48,10.48,0,0,0-6.79,4.3,3.83,3.83,0,0,1-.66-2.45A9.86,9.86,0,0,1,4.91,5.82a5,5,0,0,0,3.6,2.81,4.14,4.14,0,0,0,.7.06,4.28,4.28,0,0,0,3-1.24c.31-.32.63-.7,1-1.09,1.54-1.83,2.7-2.95,4.67-2a.63.63,0,0,0,.85-.29.63.63,0,0,0-.28-.85c-3-1.51-4.86.69-6.21,2.29-.31.37-.6.72-.89,1a3,3,0,0,1-2.62.82A3.83,3.83,0,0,1,6,5.13.39.39,0,0,0,5.9,5C9.18,2.67,14,1.27,19.73,1.27a37.1,37.1,0,0,1,6.85.58L22.71,3.22a.63.63,0,0,0-.43.6.64.64,0,0,0,.64.64h0a.52.52,0,0,0,.21,0l5.72-2a13.17,13.17,0,0,1,6.82,4.24c-.17,2.83-3.68,6.09-4.8,6.09-2.18,0-2.72-1.5-3.35-3.24C27,8,26.39,6.37,24.51,6.37h-.05a.63.63,0,0,0-.61.66.64.64,0,0,0,.66.61c.89,0,1.23.69,1.81,2.28S27.8,14,30.87,14h0c1.68,0,4.8-2.91,5.78-5.86A14.07,14.07,0,0,1,38.19,15C38.19,19,36.88,21.31,35.18,22.61Z" transform="translate(0 0)" style="fill:url(#Naamloos_verloop_9)"/></svg>