<svg xmlns="http://www.w3.org/2000/svg" xmlns:xlink="http://www.w3.org/1999/xlink" width="46.763" height="59.233" viewBox="0 0 46.763 59.233">
  <defs>
    <linearGradient id="linear-gradient" x1="-3.63" y1="1" x2="-3.635" y2="-0.136" gradientUnits="objectBoundingBox">
      <stop offset="0" stop-color="#ef9d22"/>
      <stop offset="0.422" stop-color="#fda15f"/>
      <stop offset="1" stop-color="#fed736"/>
    </linearGradient>
    <clipPath id="clip-path">
      <rect id="Rectangle_2119" data-name="Rectangle 2119" width="46.763" height="59.233" fill="url(#linear-gradient)"/>
    </clipPath>
  </defs>
  <g id="Group_6555" data-name="Group 6555" clip-path="url(#clip-path)">
    <path id="Path_3965" data-name="Path 3965" d="M45.827,7.482H39.281V.935A.936.936,0,0,0,38.345,0H8.417a.936.936,0,0,0-.935.935V7.482H.935A.936.936,0,0,0,0,8.417V58.3a.936.936,0,0,0,.935.935H45.827a.936.936,0,0,0,.935-.935V8.417a.936.936,0,0,0-.935-.935M9.353,1.871H37.41V7.482H9.353Zm35.54,55.492H1.871V9.353H44.892Z" fill="url(#linear-gradient)"/>
    <path id="Path_3966" data-name="Path 3966" d="M19.405,10H6.935A.936.936,0,0,0,6,10.935v9.976a.936.936,0,0,0,.935.935h12.47a.936.936,0,0,0,.935-.935V10.935A.936.936,0,0,0,19.405,10m-.935,9.976H7.871V11.871h10.6Z" transform="translate(1.482 2.47)" fill="url(#linear-gradient)"/>
    <path id="Path_3967" data-name="Path 3967" d="M20.935,10a.936.936,0,0,0-.935.935v9.976a.936.936,0,0,0,.935.935h12.47a.936.936,0,0,0,.935-.935V10.935A.936.936,0,0,0,33.405,10ZM32.47,19.976h-10.6V11.871h10.6Z" transform="translate(4.94 2.47)" fill="url(#linear-gradient)"/>
    <path id="Path_3968" data-name="Path 3968" d="M19.405,22H6.935A.936.936,0,0,0,6,22.935v9.976a.936.936,0,0,0,.935.935h12.47a.936.936,0,0,0,.935-.935V22.935A.936.936,0,0,0,19.405,22m-.935,9.976H7.871V23.871h10.6Z" transform="translate(1.482 5.434)" fill="url(#linear-gradient)"/>
    <path id="Path_3969" data-name="Path 3969" d="M33.405,22H20.935a.936.936,0,0,0-.935.935v9.976a.936.936,0,0,0,.935.935h12.47a.936.936,0,0,0,.935-.935V22.935A.936.936,0,0,0,33.405,22m-.935,9.976h-10.6V23.871h10.6Z" transform="translate(4.94 5.434)" fill="url(#linear-gradient)"/>
    <path id="Path_3970" data-name="Path 3970" d="M19.405,34H6.935A.936.936,0,0,0,6,34.935v9.976a.936.936,0,0,0,.935.935h12.47a.936.936,0,0,0,.935-.935V34.935A.936.936,0,0,0,19.405,34m-.935,9.976H7.871V35.871h10.6Z" transform="translate(1.482 8.398)" fill="url(#linear-gradient)"/>
    <path id="Path_3971" data-name="Path 3971" d="M33.405,34H20.935a.936.936,0,0,0-.935.935v9.976a.936.936,0,0,0,.935.935h12.47a.936.936,0,0,0,.935-.935V34.935A.936.936,0,0,0,33.405,34m-.935,9.976h-10.6V35.871h10.6Z" transform="translate(4.94 8.398)" fill="url(#linear-gradient)"/>
  </g>
</svg>
