<svg id="Laag_1" data-name="Laag 1" xmlns="http://www.w3.org/2000/svg" xmlns:xlink="http://www.w3.org/1999/xlink" viewBox="0 0 39.98 33.3"><defs><linearGradient id="Naamloos_verloop_5" x1="31.78" y1="46.44" x2="38.57" y2="33.43" gradientUnits="userSpaceOnUse"><stop offset="0" stop-color="#ef9d22"/><stop offset="0.42" stop-color="#fda15f"/><stop offset="1" stop-color="#fed736"/></linearGradient><linearGradient id="Naamloos_verloop_5-2" x1="19.9" y1="40.24" x2="35.24" y2="10.82" xlink:href="#Naamloos_verloop_5"/><linearGradient id="Naamloos_verloop_5-3" x1="9.83" y1="34.99" x2="25.17" y2="5.57" xlink:href="#Naamloos_verloop_5"/></defs><polygon points="39.43 31.78 39.43 31.78 39.42 31.78 39.43 31.78" style="fill:url(#Naamloos_verloop_5)"/><path d="M40,31.23c0-4.11-5.79-7.24-9.8-7.44l-1.13-3.36c5.42-1,7.54-4.36,8.11-5.51a.53.53,0,0,0,0-.53A32.37,32.37,0,0,1,34.45,9C33.15,3.51,29.93.33,25.64.35h-.1a.55.55,0,0,0-.5.59.56.56,0,0,0,.6.51c5.31,0,7.18,5.49,7.74,7.85A31.12,31.12,0,0,0,36,14.7c-.82,1.45-3.5,4.95-10.4,4.95h-.1a.55.55,0,0,0-.5.59.56.56,0,0,0,.6.51h0A18.5,18.5,0,0,0,28,20.6l1.3,3.91a.56.56,0,0,0,.53.37c3.51,0,9.1,2.91,9.1,6.35a.55.55,0,0,0,.55.55A.55.55,0,0,0,40,31.23Z" transform="translate(0 0)" style="fill:url(#Naamloos_verloop_5-2)"/><path d="M22.3,25H20.54L18.7,22.08a10.15,10.15,0,0,0,4.51-6.93,1.64,1.64,0,0,0,1.06-1.85V10.54a2.31,2.31,0,0,0-1.1-1.68V6.59a3.59,3.59,0,0,0,.52-3.84C22.89,1.08,20.83,0,18.42,0a8.59,8.59,0,0,0-5.09,1.71c-4.77,0-6.71,1.4-6.71,4.69V8.86a2.25,2.25,0,0,0-1.1,1.68v2.88c0,.59,0,1.3.76,1.65a10,10,0,0,0,4.48,7.12L8.8,25H7c-4.4,0-7,2.32-7,6.21v1.51a.56.56,0,0,0,.55.56h0a.55.55,0,0,0,.55-.55V31.22c0-3.24,2.16-5.1,5.92-5.1H9.09a.54.54,0,0,0,.45-.24l2.17-3.13a6.41,6.41,0,0,0,2.89.75h0a6.9,6.9,0,0,0,3.16-.87l2,3.23a.56.56,0,0,0,.47.26h2.07c3.08,0,6.38,1.34,6.38,5.1v1.51a.55.55,0,0,0,.55.55h0a.55.55,0,0,0,.56-.55V31.22C29.79,27.45,26.85,25,22.3,25ZM14.6,22.4c-3.38,0-7.23-4.11-7.23-7.72a.56.56,0,0,0-.43-.54c-.32-.07-.32-.07-.32-.71V10.54c0-.28.48-.7.82-.9a.56.56,0,0,0,.28-.48V6.4c0-1.89.44-3.59,5.79-3.59a.55.55,0,0,0,.33-.11,7.63,7.63,0,0,1,4.58-1.6c1.95,0,3.67.86,4.28,2.13a2.56,2.56,0,0,1-.52,2.83.5.5,0,0,0-.11.34V9.16a.54.54,0,0,0,.28.48c.34.2.82.62.82.9V13.3c0,.78-.08.81-.52.83a.54.54,0,0,0-.52.55C22.13,18.22,18.05,22.4,14.6,22.4Z" transform="translate(0 0)" style="fill:url(#Naamloos_verloop_5-3)"/></svg>