<svg id="Bright_-_Tafelvoetbal" data-name="Bright - Tafelvoetbal" xmlns="http://www.w3.org/2000/svg" xmlns:xlink="http://www.w3.org/1999/xlink" viewBox="0 0 30.35 40"><defs><linearGradient id="Naamloos_verloop_5" x1="3.74" y1="42.59" x2="21.9" y2="6.69" gradientUnits="userSpaceOnUse"><stop offset="0" stop-color="#ef9d22"/><stop offset="0.42" stop-color="#fda15f"/><stop offset="1" stop-color="#fed736"/></linearGradient></defs><path d="M29.66,0H.69A.69.69,0,0,0,0,.69V39.31A.69.69,0,0,0,.69,40h29a.69.69,0,0,0,.69-.69V.69A.69.69,0,0,0,29.66,0Zm-9,1.38V5.52h-11V1.38Zm-12.41,0V6.21h0A.69.69,0,0,0,9,6.9H21.38a.69.69,0,0,0,.69-.69V1.38H29V19H22A6.56,6.56,0,0,0,9,19H1.38V1.38ZM10.42,19a5.17,5.17,0,0,1,10.16,0Zm10.16,2a5.18,5.18,0,0,1-10.16,0ZM9.66,38.62V34.48h11v4.14Zm12.41,0V33.79a.69.69,0,0,0-.69-.69H9a.69.69,0,0,0-.69.69v4.83H1.38V21H9a6.56,6.56,0,0,0,6.48,5.56h0A6.58,6.58,0,0,0,22,21h7V38.62Z" style="fill:url(#Naamloos_verloop_5)"/></svg>