<svg id="Laag_1" data-name="Laag 1" xmlns="http://www.w3.org/2000/svg" xmlns:xlink="http://www.w3.org/1999/xlink" viewBox="0 0 35.4 40"><defs><linearGradient id="Naamloos_verloop_13" x1="5.52" y1="40.61" x2="22.97" y2="9.78" gradientUnits="userSpaceOnUse"><stop offset="0" stop-color="#ef9d22"/><stop offset="0.42" stop-color="#fda15f"/><stop offset="1" stop-color="#fed736"/></linearGradient><linearGradient id="Naamloos_verloop_13-2" x1="-7.45" y1="33.27" x2="10.01" y2="2.44" xlink:href="#Naamloos_verloop_13"/><linearGradient id="Naamloos_verloop_13-3" x1="15.75" y1="46.41" x2="33.21" y2="15.58" xlink:href="#Naamloos_verloop_13"/><linearGradient id="Naamloos_verloop_13-4" x1="-6.43" y1="33.85" x2="11.03" y2="3.02" xlink:href="#Naamloos_verloop_13"/><linearGradient id="Naamloos_verloop_13-5" x1="2.59" y1="38.96" x2="20.05" y2="8.13" xlink:href="#Naamloos_verloop_13"/><linearGradient id="Naamloos_verloop_13-6" x1="-9.68" y1="32.01" x2="7.78" y2="1.18" xlink:href="#Naamloos_verloop_13"/><linearGradient id="Naamloos_verloop_13-7" x1="10.95" y1="43.69" x2="28.41" y2="12.86" xlink:href="#Naamloos_verloop_13"/><linearGradient id="Naamloos_verloop_13-8" x1="2.83" y1="39.09" x2="20.28" y2="8.26" xlink:href="#Naamloos_verloop_13"/><linearGradient id="Naamloos_verloop_13-9" x1="6.11" y1="40.95" x2="23.57" y2="10.12" xlink:href="#Naamloos_verloop_13"/><linearGradient id="Naamloos_verloop_13-10" x1="16.34" y1="23.56" x2="18.35" y2="20" xlink:href="#Naamloos_verloop_13"/></defs><path d="M17.31,5.11A11.15,11.15,0,0,0,6.19,16a10.33,10.33,0,0,0,4,8.64v2.81a0,0,0,0,1,0,0c0,.05,0,.1,0,.15v3.23s0,0,0,0,0,.1,0,.15v3.18a.68.68,0,0,0,.68.68h.77c.5,1.91,2.79,5.11,5.68,5.11s5.19-3.2,5.69-5.11h.12a.69.69,0,0,0,.68-.69V24.64A10.53,10.53,0,0,0,28.16,16,10.88,10.88,0,0,0,17.31,5.11Zm0,33.53c-2,0-3.74-2.36-4.26-3.74h8.53C21.09,36.28,19.34,38.64,17.34,38.64Zm-5.77-5.11V31.77l10.78,1.59h.12v.17H11.57ZM22.47,32l-10.9-1.6v-2L22.35,30h.12Zm0-3.4L11.57,27v-.27h10.9Zm.3-4.87a.68.68,0,0,0-.3.56v1.08H11.57V24.28a.68.68,0,0,0-.3-.56A9,9,0,0,1,7.54,16a9.78,9.78,0,0,1,9.77-9.53A9.52,9.52,0,0,1,26.8,16,9.19,9.19,0,0,1,22.77,23.72Z" transform="translate(0 0)" style="fill:url(#Naamloos_verloop_13)"/><path d="M3.4,15.83H.68a.68.68,0,0,0,0,1.36H3.4a.68.68,0,1,0,0-1.36Z" transform="translate(0 0)" style="fill:url(#Naamloos_verloop_13-2)"/><path d="M34.72,15.83H30.64a.68.68,0,0,0,0,1.36h4.08a.68.68,0,0,0,0-1.36Z" transform="translate(0 0)" style="fill:url(#Naamloos_verloop_13-3)"/><path d="M11.63,4.39a.69.69,0,0,0,.61.38h0a.63.63,0,0,0,.3-.07.68.68,0,0,0,.31-.91L11.15.38a.69.69,0,0,0-.92-.31.69.69,0,0,0-.3.92Z" transform="translate(0 0)" style="fill:url(#Naamloos_verloop_13-4)"/><path d="M22.45,4.77a.69.69,0,0,0,.61-.38L24.76,1a.68.68,0,0,0-.3-.91.69.69,0,0,0-.92.3l-1.7,3.4a.82.82,0,0,0-.07.3A.68.68,0,0,0,22.45,4.77Z" transform="translate(0 0)" style="fill:url(#Naamloos_verloop_13-5)"/><path d="M5.74,8.59l-3.4-1.7,0,0a.69.69,0,0,0-.9.34.68.68,0,0,0,.34.9l3.4,1.7a.63.63,0,0,0,.3.07h0a.7.7,0,0,0,.62-.37A.68.68,0,0,0,5.74,8.59Z" transform="translate(0 0)" style="fill:url(#Naamloos_verloop_13-6)"/><path d="M33,8.08a.69.69,0,0,0,.27-.93.66.66,0,0,0-.92-.26L29,8.59a.66.66,0,0,0-.38.61.67.67,0,0,0,.68.67h0a.66.66,0,0,0,.3-.07L33,8.1Z" transform="translate(0 0)" style="fill:url(#Naamloos_verloop_13-7)"/><path d="M17.34,18.38A.68.68,0,0,0,18,17.7V9.19a.69.69,0,0,0-1.37,0V17.7A.68.68,0,0,0,17.34,18.38Z" transform="translate(0 0)" style="fill:url(#Naamloos_verloop_13-8)"/><path d="M16.87,20.61a.7.7,0,0,0-.2.49.64.64,0,0,0,.2.49.69.69,0,0,0,.95,0h0a.68.68,0,0,0,0-1A.73.73,0,0,0,16.87,20.61Z" transform="translate(0 0)" style="fill:url(#Naamloos_verloop_13-9)"/><polygon points="17.35 21.78 17.35 21.78 17.35 21.78 17.35 21.78" style="fill:url(#Naamloos_verloop_13-10)"/></svg>