<svg id="Laag_1" data-name="Laag 1" xmlns="http://www.w3.org/2000/svg" xmlns:xlink="http://www.w3.org/1999/xlink" viewBox="0 0 31.57 40"><defs><linearGradient id="Naamloos_verloop_2" x1="4.91" y1="40.98" x2="23.22" y2="13.39" gradientUnits="userSpaceOnUse"><stop offset="0" stop-color="#ef9d22"/><stop offset="0.42" stop-color="#fda15f"/><stop offset="1" stop-color="#fed736"/></linearGradient></defs><path d="M15.18,0a.7.7,0,0,0-.53,0,.65.65,0,0,0-.34.4c-1.6,5-4.62,8.26-7.55,11.46C3.28,15.72,0,19.31,0,25c0,8.58,5.54,14.45,13.89,14.9.32,0,.64.07,1,.08s.55,0,.83-.07A16.63,16.63,0,0,0,31.57,23.34C31.57,13.84,21.65,2.44,15.18,0Zm.4,38.55-.63,0c-.33,0-.65,0-1,0a6.81,6.81,0,0,1-5.86-6.81,15.43,15.43,0,0,1,3.14-8.7h0c0,.32-.11.62-.16.91-.26,1.38-.47,2.57.23,3.77a3.55,3.55,0,0,0,3.07,1.74,3.45,3.45,0,0,0,2.9-1.56c1.19-1.78,1.27-4.09.23-6.9,4.08,2.89,4.45,7.82,4.25,10.7A7.19,7.19,0,0,1,15.58,38.59Zm5-1.07a8.5,8.5,0,0,0,2.52-5.7c.2-2.89-.07-9.93-6.74-13a.66.66,0,0,0-.58,0,.69.69,0,0,0-.3.91c1.61,3.21,1.84,5.72.69,7.44a2.14,2.14,0,0,1-1.79,1,2.21,2.21,0,0,1-1.91-1.08c-.46-.77-.3-1.59-.07-2.84a16,16,0,0,0,.35-3.16.67.67,0,0,0-.41-.62.68.68,0,0,0-.73.15A17.06,17.06,0,0,0,6.79,31.77,8.09,8.09,0,0,0,9.08,37.5C4.3,35.51,1.35,31,1.35,25c0-5.19,3-8.43,6.4-12.18,2.76-3,5.86-6.4,7.6-11.27,6,2.72,14.88,13.25,14.88,21.77A15.31,15.31,0,0,1,20.61,37.52Z" transform="translate(0 0)" style="fill:url(#Naamloos_verloop_2)"/></svg>