<svg id="Bright_-_kantoor" data-name="Bright - kantoor" xmlns="http://www.w3.org/2000/svg" xmlns:xlink="http://www.w3.org/1999/xlink" viewBox="0 0 29.33 40"><defs><linearGradient id="Naamloos_verloop_8" x1="2.16" y1="43.26" x2="23.37" y2="8.34" gradientUnits="userSpaceOnUse"><stop offset="0" stop-color="#ef9d22"/><stop offset="0.42" stop-color="#fda15f"/><stop offset="1" stop-color="#fed736"/></linearGradient><linearGradient id="Naamloos_verloop_8-2" x1="-6.37" y1="38.08" x2="14.84" y2="3.17" xlink:href="#Naamloos_verloop_8"/><linearGradient id="Naamloos_verloop_8-3" x1="2.4" y1="43.4" x2="23.61" y2="8.49" xlink:href="#Naamloos_verloop_8"/><linearGradient id="Naamloos_verloop_8-4" x1="-2.23" y1="40.6" x2="18.99" y2="5.68" xlink:href="#Naamloos_verloop_8"/><linearGradient id="Naamloos_verloop_8-5" x1="6.54" y1="45.92" x2="27.75" y2="11.01" xlink:href="#Naamloos_verloop_8"/><linearGradient id="Naamloos_verloop_8-6" x1="1.92" y1="43.11" x2="23.13" y2="8.2" xlink:href="#Naamloos_verloop_8"/><linearGradient id="Naamloos_verloop_8-7" x1="10.68" y1="48.44" x2="31.89" y2="13.52" xlink:href="#Naamloos_verloop_8"/></defs><path d="M28.67,5.33H25.33V.67A.66.66,0,0,0,24.67,0h-20A.67.67,0,0,0,4,.67V5.33H.67A.67.67,0,0,0,0,6V39.33A.67.67,0,0,0,.67,40h28a.66.66,0,0,0,.66-.67V6A.66.66,0,0,0,28.67,5.33Zm-23.34-4H24v4H5.33ZM28,38.67H1.33v-32H28Z" style="fill:url(#Naamloos_verloop_8)"/><path d="M12.67,9.33h-8A.67.67,0,0,0,4,10v6.67a.67.67,0,0,0,.67.66h8a.65.65,0,0,0,.66-.66V10A.66.66,0,0,0,12.67,9.33ZM12,16H5.33V10.67H12Z" style="fill:url(#Naamloos_verloop_8-2)"/><path d="M24.67,9.33h-8A.67.67,0,0,0,16,10v6.67a.67.67,0,0,0,.67.66h8a.65.65,0,0,0,.66-.66V10A.66.66,0,0,0,24.67,9.33ZM24,16H17.33V10.67H24Z" style="fill:url(#Naamloos_verloop_8-3)"/><path d="M12.67,18.67h-8a.67.67,0,0,0-.67.66V26a.67.67,0,0,0,.67.67h8a.66.66,0,0,0,.66-.67V19.33A.66.66,0,0,0,12.67,18.67ZM12,25.33H5.33V20H12Z" style="fill:url(#Naamloos_verloop_8-4)"/><path d="M24.67,18.67h-8a.67.67,0,0,0-.67.66V26a.67.67,0,0,0,.67.67h8a.66.66,0,0,0,.66-.67V19.33A.66.66,0,0,0,24.67,18.67ZM24,25.34H17.33V20H24Z" style="fill:url(#Naamloos_verloop_8-5)"/><path d="M12.67,28h-8a.67.67,0,0,0-.67.67v6.66a.67.67,0,0,0,.67.67h8a.66.66,0,0,0,.66-.67V28.67A.66.66,0,0,0,12.67,28ZM12,34.67H5.33V29.33H12Z" style="fill:url(#Naamloos_verloop_8-6)"/><path d="M24.67,28h-8a.67.67,0,0,0-.67.67v6.66a.67.67,0,0,0,.67.67h8a.66.66,0,0,0,.66-.67V28.67A.66.66,0,0,0,24.67,28ZM24,34.67H17.33V29.33H24Z" style="fill:url(#Naamloos_verloop_8-7)"/></svg>