<svg id="Laag_1" data-name="Laag 1" xmlns="http://www.w3.org/2000/svg" xmlns:xlink="http://www.w3.org/1999/xlink" viewBox="0 0 36.56 39.99"><defs><linearGradient id="Naamloos_verloop_13" x1="1.65" y1="37.31" x2="23.61" y2="8.22" gradientUnits="userSpaceOnUse"><stop offset="0" stop-color="#ef9d22"/><stop offset="0.42" stop-color="#fda15f"/><stop offset="1" stop-color="#fed736"/></linearGradient></defs><path d="M36.2,17.2l-5.12-2.68a.66.66,0,0,0-.87.23c-3.06-.61-5.89-2.74-6.73-5.1h0a.71.71,0,0,0-.32-.36,2.63,2.63,0,0,0-.48-2.06.79.79,0,0,0,0-.13c.35-3.94-1.06-6.37-2.52-7a2.15,2.15,0,0,0-2.05.4C16.8,1.47,16,3.38,16,5.67A4,4,0,0,0,14,7.4a40.57,40.57,0,0,1-4.63-3c-.68-.5-1.25-.91-1.61-1.13a2,2,0,0,0-2.07-.14A2.28,2.28,0,0,0,4.58,4.7a2,2,0,0,0-2,.84A3.54,3.54,0,0,0,2.61,9a3,3,0,0,0-.75,1.82,4.33,4.33,0,0,0,1.29,3c-1,2.38.25,4.66,3.81,6.79a32.17,32.17,0,0,0-.56,5.27.65.65,0,0,0-.44.21L.18,32.23l-.09.11a.68.68,0,0,0,.24.93L11.45,39.9a.67.67,0,0,0,.34.1h0L12,40a.76.76,0,0,0,.41-.34l3.71-7.08a.67.67,0,0,0-.24-.88l0,0a.75.75,0,0,0,.26-.24A11.36,11.36,0,0,1,18.92,29a20.27,20.27,0,0,0,2.57-2.05c.21-.27.4-.55.58-.83l1.76.63a.68.68,0,0,0,.26.39L29,30.54a.71.71,0,0,0,.38.12h0l.16,0A.69.69,0,0,0,30,30.3l6.46-12.19h0A.67.67,0,0,0,36.2,17.2ZM18.92,1.61a1,1,0,0,1,.76-.25c.59.24,1.6,1.53,1.72,4.06a2.56,2.56,0,0,0-1-.82,2.24,2.24,0,0,0-1.74-.14,2.64,2.64,0,0,0-1.27,1.06A4.83,4.83,0,0,1,18.92,1.61ZM4.23,14.86l1,.8.37.29a.67.67,0,0,0,.42.16H6a.7.7,0,0,0,.51-.25.67.67,0,0,0-.08-.94l-.39-.32c-.49-.38-1.22-1-1.65-1.38h0A3.62,3.62,0,0,1,3.2,10.89a1.85,1.85,0,0,1,.35-.9c.6.46,1.44,1.07,2.15,1.59.53.38,1,.71,1.15.85a.71.71,0,0,0,.42.14h0a.7.7,0,0,0,.53-.26.68.68,0,0,0-.12-.94c-.18-.15-.64-.48-1.19-.88C5.59,9.84,4.49,9,4,8.6a2.22,2.22,0,0,1-.29-2.32c.08-.11.31-.45,1.14-.13.53.4,3.38,2.61,4.54,3.37a.7.7,0,0,0,.37.11.67.67,0,0,0,.37-1.23c-1-.66-3.41-2.51-4.24-3.15a1.29,1.29,0,0,1,.45-1A.77.77,0,0,1,7,4.38c.35.21.88.59,1.52,1.07A44.24,44.24,0,0,0,13,8.4C10.76,10,8.51,15.15,7.83,17c-.22.73-.42,1.46-.59,2.19C4.9,17.71,3.92,16.3,4.23,14.86Zm7.3,23.53-9.8-5.85L6.56,27.4l8.06,5.09Zm6.6-10.54a12,12,0,0,0-3.2,2.85.6.6,0,0,0-.09.34L7.7,26.53a.29.29,0,0,0,0-.09,31.1,31.1,0,0,1,1.38-9A29.88,29.88,0,0,1,12.43,11a25,25,0,0,0-1,5.51.67.67,0,0,0,.67.67.68.68,0,0,0,.68-.67A24.18,24.18,0,0,1,14.57,9l.18-.28c.71-1.1,1.17-1.72,2-1.76-.79,2.18-2.35,6.81-2.67,8h0a.67.67,0,0,0,.47.82l.18,0h0a.67.67,0,0,0,.65-.5c.37-1.4,2.41-7.42,2.95-8.73a1.56,1.56,0,0,1,.76-.82.86.86,0,0,1,.68.07,1.26,1.26,0,0,1,.71.76.8.8,0,0,0-.13.19A49.09,49.09,0,0,0,17.1,16a.67.67,0,0,0,.52.8h.14a.67.67,0,0,0,.65-.54A46.49,46.49,0,0,1,21.3,8a.34.34,0,0,0,.14,0,.45.45,0,0,1,.2.16,1.75,1.75,0,0,1,.12,1.45c-.48,2.16-1.74,9.31-1.8,9.61a.68.68,0,0,0,1.27.42c.3-.6,1.41-2.39,2.52-2.7a1.1,1.1,0,0,1,.95.14c.11.07.12.11.12.15.12.47-.66,1.62-1.07,2.24-.16.24-.32.47-.43.66a12.66,12.66,0,0,0-.8,1.91,12.47,12.47,0,0,1-2,4A17.42,17.42,0,0,1,18.13,27.85Zm5.65-5.44a12.76,12.76,0,0,1,.69-1.67c.11-.18.25-.39.4-.61.67-1,1.51-2.25,1.27-3.29a1.55,1.55,0,0,0-.74-1,2.5,2.5,0,0,0-2-.29,4,4,0,0,0-1.59,1c.3-1.68.68-3.75,1-5.25A11.13,11.13,0,0,0,29.53,16l-5.21,9.48-1.54-.55A13.69,13.69,0,0,0,23.78,22.41ZM29.18,29l-3.82-2.67L31,16,35,18.07Z" transform="translate(0 -0.01)" style="fill:url(#Naamloos_verloop_13)"/></svg>