<?xml version="1.0" encoding="utf-8"?>
<!-- Generator: Adobe Illustrator 23.0.6, SVG Export Plug-In . SVG Version: 6.00 Build 0)  -->
<svg version="1.1" id="Laag_1" xmlns="http://www.w3.org/2000/svg" xmlns:xlink="http://www.w3.org/1999/xlink" x="0px" y="0px"
	 viewBox="0 0 53.7 54.6" style="enable-background:new 0 0 53.7 54.6;" xml:space="preserve">
<g id="Group_993" transform="translate(0 -46.358)">
	<g id="Group_987" transform="translate(26.319 20.167)">
		<g id="Path_947">
			<path class="st0" d="M4,55.4c-1.2,0-2.5-0.5-3.5-1.4c-2-1.9-2-5.1-0.1-7.1c1.9-2,5.1-2.1,7.1-0.1l0,0c2,1.9,2,5.1,0.1,7.1
				C6.6,54.9,5.3,55.4,4,55.4z M4,47.4c-0.8,0-1.6,0.3-2.2,0.9c-1.1,1.2-1.1,3.1,0.1,4.3c1.2,1.1,3.1,1.1,4.3-0.1
				c1.1-1.2,1.1-3.1-0.1-4.3C5.5,47.6,4.8,47.4,4,47.4z"/>
		</g>
	</g>
	<g id="Group_988" transform="translate(1.811 22.824)">
		<g id="Path_948">
			<path class="st0" d="M8.4,56.7l-1-0.9c-0.2-0.2-0.5-0.4-0.8-0.7c-1.9-1.4-4.2-2.3-6.6-2.5l-2.3-0.2l1.7-1.6
				c0.2-0.2,4.7-4.2,9.3-5.2c1.2-0.3,2.5-0.3,3.7-0.2l1.6,0.1l-0.8,1.4c-1.6,2.7-3,5.6-4.2,8.5L8.4,56.7z M2.4,51
				c1.9,0.4,3.7,1.3,5.3,2.4c0.9-2,1.9-4,3-6c-0.5,0-1,0.1-1.6,0.2C6.5,48.1,4,49.8,2.4,51z"/>
		</g>
	</g>
	<g id="Group_989" transform="translate(23.566 40.336)">
		<g id="Path_949">
			<path class="st0" d="M3,61.2l-0.3-2.3c-0.3-2.4-1.2-4.7-2.7-6.5c-0.2-0.3-0.5-0.5-0.7-0.8l-1-1l1.3-0.6c2.9-1.4,5.7-2.9,8.3-4.5
				l1.3-0.8l0.2,1.6c0.1,1.2,0.1,2.5-0.1,3.7l0,0c-0.8,4.7-4.7,9.3-4.9,9.5L3,61.2z M1.6,51.3c1.2,1.5,2.1,3.3,2.6,5.2
				c1.1-1.7,2.7-4.3,3.1-6.8c0.1-0.5,0.1-1,0.2-1.6C5.6,49.2,3.6,50.3,1.6,51.3z"/>
		</g>
	</g>
	<g id="Group_990" transform="translate(3.3 40.317)">
		<g id="Path_950">
			<path class="st0" d="M-1.4,59.7L-1,58c0.2-0.9,2.1-9,4-11c1.1-1.2,2.7-1.8,4.3-1.7l2,0.1L8.1,47c-0.7,0.8-0.6,2,0.2,2.7
				c0.7,0.7,1.9,0.7,2.7,0l1.5-1.3l0.2,2c0.2,1.6-0.4,3.2-1.5,4.4c-1.9,2-9.9,4.2-10.8,4.5L-1.4,59.7z M5.7,47.6
				c-0.4,0.2-0.9,0.5-1.2,0.8c-1,1-2.3,5.2-3.1,8.4c3.2-1,7.3-2.4,8.3-3.4c0.3-0.4,0.6-0.8,0.8-1.2c-1.2,0.3-2.6-0.1-3.6-1
				C5.9,50.2,5.5,48.9,5.7,47.6z"/>
		</g>
	</g>
	<g id="Group_991" transform="translate(38.903 0.727)">
		<g id="Path_951">
			<path class="st0" d="M13.1,62.2l-15-14.4l1.5-0.5c4.6-1.6,9.3-2.1,14.2-1.7l0.8,0.1l0.1,0.8c0.7,4.8,0.3,9.6-1.1,14.2L13.1,62.2z
				 M1.9,48.6l10.2,9.8c0.9-3.6,1.1-7.3,0.7-11C9.1,47.2,5.5,47.6,1.9,48.6z"/>
		</g>
	</g>
	<g id="Group_992" transform="translate(10.914 3.581)">
		<g id="Path_952">
			<path class="st0" d="M7.3,88.2l-0.8-0.7l-7.9-7.6l0.5-0.6C2.5,69.6,10.1,56.1,19.1,49c1.8-1.4,3.7-2.6,5.8-3.5l0.6-0.3l15.4,14.8
				l-0.3,0.6c-0.9,2.1-2,4.1-3.3,5.9c-6.7,9.3-19.9,17.4-29.5,21.1L7.3,88.2z M1.2,79.6l6.3,6c9.5-3.8,22.1-11.8,28.2-20.3
				c1.1-1.5,2.1-3.2,2.8-4.9L25.1,47.6c-1.7,0.8-3.3,1.8-4.8,3C12.1,57,4.6,69.9,1.2,79.6z M19.4,75.1c-2.1,0-4.1-0.8-5.7-2.3l0,0
				c-1.6-1.5-2.5-3.6-2.5-5.8c0-2.2,0.8-4.3,2.3-5.9c3.2-3.3,8.4-3.4,11.7-0.2c3.3,3.2,3.4,8.4,0.2,11.7
				C23.8,74.3,21.6,75.1,19.4,75.1z M15.1,71.4c2.5,2.4,6.5,2.3,8.8-0.2c2.4-2.5,2.3-6.5-0.2-8.9c-2.5-2.4-6.5-2.3-8.8,0.2
				c-1.2,1.2-1.8,2.8-1.7,4.5C13.2,68.7,13.9,70.2,15.1,71.4L15.1,71.4z"/>
		</g>
	</g>
</g>
</svg>
