<?xml version="1.0" encoding="utf-8"?>
<!-- Generator: Adobe Illustrator 23.0.1, SVG Export Plug-In . SVG Version: 6.00 Build 0)  -->
<svg version="1.1" id="Group_1794" xmlns="http://www.w3.org/2000/svg" xmlns:xlink="http://www.w3.org/1999/xlink" x="0px" y="0px"
	 viewBox="0 0 65.4 57.2" style="enable-background:new 0 0 65.4 57.2;" xml:space="preserve">
<path id="Path_1331" d="M52.3,57.2H13.1c-3.1,0-7.4-2.4-8.9-5.5H3.6v-1.7l-0.3-1h57.8l-0.2,1v1.7h-0.5C58.8,54.9,55.8,57,52.3,57.2z
	 M7.5,51.8c1.5,1.5,3.5,2.5,5.6,2.7h39.2c1.9-0.2,3.7-1.1,4.9-2.7H7.5z"/>
<path id="Path_1332" d="M62.2,51.8H2.2c-0.8,0-1.4-0.6-1.4-1.4V39.5c0-0.8,0.6-1.4,1.4-1.4h59.9c0.8,0,1.4,0.6,1.4,1.4v10.9
	C63.5,51.2,62.9,51.8,62.2,51.8C62.2,51.8,62.2,51.8,62.2,51.8z M3.6,49h57.2v-8.2H3.6V49z"/>
<path id="Path_1333" d="M52.3,35.1c-2.9,0-5.3-2.4-5.3-5.3c0-1.4-1.1-2.6-2.6-2.6s-2.6,1.1-2.6,2.6c0,2.9-2.3,5.3-5.2,5.3
	c-2.9,0-5.3-2.3-5.3-5.2c0,0,0-0.1,0-0.1c0-1.4-1.1-2.6-2.6-2.6c-1.4,0-2.6,1.1-2.6,2.6c0,2.9-2.4,5.3-5.3,5.3s-5.3-2.4-5.3-5.3
	c0-1.4-1.1-2.6-2.6-2.6s-2.6,1.1-2.6,2.6l0,0c0,2.9-2.4,5.3-5.3,5.3c-2.9,0-5.2-2.4-5.2-5.3c0-0.8,0.6-1.4,1.4-1.4s1.4,0.6,1.4,1.4
	c0,1.4,1.1,2.6,2.6,2.6s2.6-1.1,2.6-2.6c0-2.9,2.4-5.3,5.3-5.3s5.3,2.4,5.3,5.3c0,1.4,1.1,2.6,2.6,2.6c1.4,0,2.6-1.1,2.6-2.6
	c0-2.9,2.4-5.3,5.3-5.3c2.9,0,5.3,2.4,5.3,5.3c0,0,0,0,0,0c0,1.4,1.1,2.6,2.6,2.6s2.6-1.1,2.6-2.6c0-2.9,2.4-5.3,5.3-5.3
	s5.3,2.4,5.3,5.3c0,1.4,1.1,2.6,2.6,2.6s2.6-1.1,2.6-2.6c0-2.9,2.4-5.3,5.3-5.3c2.9,0,5.3,2.4,5.3,5.3c0,0,0,0,0,0
	c0,0.8-0.6,1.4-1.4,1.4c-0.8,0-1.4-0.6-1.4-1.4l0,0c0-1.4-1.1-2.6-2.6-2.6s-2.6,1.1-2.6,2.6C57.6,32.7,55.2,35.1,52.3,35.1
	C52.3,35.1,52.3,35.1,52.3,35.1z"/>
<path id="Path_1334" d="M62.2,21.8H2.2c-0.8,0-1.4-0.6-1.4-1.4v-3.6C0.9,0,14.1,0,26.9,0h11.6c12.9,0,25.1,0,25.1,16.9v3.6
	C63.5,21.2,62.9,21.8,62.2,21.8C62.2,21.8,62.2,21.8,62.2,21.8z M3.6,19.1h57.2v-2.2c0-13.5-8.1-14.2-22.3-14.2H26.9
	C12.5,2.7,3.6,3.4,3.6,16.9L3.6,19.1z"/>
</svg>
