<svg xmlns="http://www.w3.org/2000/svg" viewBox="0 0 23.97 13.93"><g id="Laag_2" data-name="Laag 2"><g id="icons"><path d="M11.83,13.93a2.74,2.74,0,0,1-1.42-.43c-.44-.29-3.29-2.65-4.91-4L4.14,8.35a.51.51,0,0,1-.06-.71.51.51,0,0,1,.71,0L6.15,8.73c2.08,1.74,4.48,3.72,4.81,3.94a1.76,1.76,0,0,0,1,.25.42.42,0,0,0,.42-.3.5.5,0,0,1,.35-.31.5.5,0,0,1,.46.11,1.1,1.1,0,0,0,1.06.18.5.5,0,0,0,.36-.42.5.5,0,0,1,.84-.32.73.73,0,0,0,.76,0,.57.57,0,0,0,.37-.56.51.51,0,0,1,.24-.48.5.5,0,0,1,.54,0,.4.4,0,0,0,.46-.08A.7.7,0,0,0,18,9.9c-.57-1.18-3.61-4.07-5.48-5.38h0a3,3,0,0,1-1,.25c-.49.72-1.48,2-3,1.46a1.3,1.3,0,0,1-.9-1A4.15,4.15,0,0,1,8.86,2,4.82,4.82,0,0,1,14.15.87a27.2,27.2,0,0,0,3.18,1.24.5.5,0,0,1-.28,1,28.17,28.17,0,0,1-3.3-1.28,3.83,3.83,0,0,0-4.19.91A3.33,3.33,0,0,0,8.59,5a.32.32,0,0,0,.24.26c.75.25,1.3-.3,1.95-1.26a.45.45,0,0,1,.36-.22l.18,0a2,2,0,0,0,.79-.2l.26-.09a.48.48,0,0,1,.45,0c1.81,1.21,5.3,4.4,6,5.92a1.66,1.66,0,0,1-.39,2,1.41,1.41,0,0,1-1,.36,1.65,1.65,0,0,1-.83.88,1.9,1.9,0,0,1-1.27.16,1.58,1.58,0,0,1-.78.62,2.06,2.06,0,0,1-1.6,0,1.5,1.5,0,0,1-.93.43Z"/><path d="M10.23,2.08h-.06C9.15,2,6.7,1.9,5.91,1.92a.49.49,0,0,1-.51-.48A.5.5,0,0,1,5.89.92c.83,0,3.31,0,4.39.17a.5.5,0,0,1,0,1Z"/><path d="M18.54,10a.51.51,0,0,1-.4-.2.5.5,0,0,1,.1-.7l1-.74a.5.5,0,0,1,.61.8l-1,.74A.49.49,0,0,1,18.54,10Z"/><path d="M17.08,11.74a.51.51,0,0,1-.31-.11c-.52-.41-3.27-3-3.39-3.09a.5.5,0,1,1,.69-.73c.78.74,2.91,2.71,3.32,3a.49.49,0,0,1,.08.7A.51.51,0,0,1,17.08,11.74Z"/><path d="M15.11,12.73a.51.51,0,0,1-.31-.11c-.63-.5-2.56-2.23-2.87-2.57a.5.5,0,1,1,.73-.68c.23.25,2.1,1.94,2.77,2.47a.49.49,0,0,1,.07.7A.51.51,0,0,1,15.11,12.73Z"/><path d="M12.85,13.29a.51.51,0,0,1-.32-.12,28.3,28.3,0,0,1-2.14-2.08.5.5,0,1,1,.73-.68,27.6,27.6,0,0,0,2.06,2,.5.5,0,0,1,.06.7A.5.5,0,0,1,12.85,13.29Z"/><path d="M1.78,10.08A6.23,6.23,0,0,1,.38,10,.51.51,0,0,1,0,9.48,66,66,0,0,1,1,.41.5.5,0,0,1,1.58,0,37.57,37.57,0,0,1,6.06,1a.51.51,0,0,1,.34.52A52.85,52.85,0,0,1,4.32,9.64a.51.51,0,0,1-.43.34S2.79,10.08,1.78,10.08ZM1,9.05A20.36,20.36,0,0,0,3.47,9,52.89,52.89,0,0,0,5.36,1.78c-1-.28-2.64-.57-3.45-.71A67.65,67.65,0,0,0,1,9.05Z"/><path d="M21.86,9.82a6.45,6.45,0,0,1-2.2-.25.5.5,0,0,1-.29-.33A43.09,43.09,0,0,0,17,2.91a.49.49,0,0,1-.06-.41.54.54,0,0,1,.28-.31A10,10,0,0,1,20.8,1.4a5.63,5.63,0,0,1,1.1.1.52.52,0,0,1,.3.2C23.41,3.38,23.92,8.63,24,9.22a.53.53,0,0,1-.11.37.54.54,0,0,1-.35.18S22.73,9.82,21.86,9.82Zm-1.6-1.11a8.44,8.44,0,0,0,1.6.11l1.06,0c-.19-1.74-.68-5.08-1.42-6.35a4,4,0,0,0-.7-.05,8.51,8.51,0,0,0-2.7.51A51.87,51.87,0,0,1,20.26,8.71Z"/></g></g></svg>