<svg xmlns="http://www.w3.org/2000/svg" viewBox="0 0 21.96 24"><g id="Laag_2" data-name="Laag 2"><g id="icons"><path d="M9.32,19.08A.54.54,0,0,1,9.06,19a.5.5,0,0,1-.16-.69,7.15,7.15,0,0,1,1.94-1.73,11,11,0,0,0,1.4-1.11,7.38,7.38,0,0,0,1.17-2.35A7.3,7.3,0,0,1,13.89,12l.26-.39c.18-.26.7-1.05.62-1.26a.55.55,0,0,0-.51-.1c-.63.18-1.27,1.21-1.44,1.55a.49.49,0,0,1-.6.25.49.49,0,0,1-.34-.56c0-.18.79-4.43,1.08-5.72a1,1,0,0,0,0-.76.17.17,0,0,0-.06-.06.51.51,0,0,1-.67-.62c0-.12.09-.43-.36-.66a.41.41,0,0,0-.33,0,.89.89,0,0,0-.42.48.51.51,0,0,1-.59.28c-.75-.2-1,.15-1.53.95l-.13.2a.45.45,0,0,1-.24.19c-.91.34-2.34,3.07-3,4.82a18.09,18.09,0,0,0-.81,5.31.52.52,0,0,1-.51.49.49.49,0,0,1-.49-.5,19.45,19.45,0,0,1,.87-5.64S6.34,5.71,8.08,4.84l0-.07c.46-.72,1-1.59,2.24-1.45a1.63,1.63,0,0,1,.8-.66,1.36,1.36,0,0,1,1.11.09A1.56,1.56,0,0,1,13.2,4a.91.91,0,0,1,.17.09c.2.12.85.62.56,1.9-.16.71-.47,2.37-.71,3.71A2.29,2.29,0,0,1,14,9.26a1.54,1.54,0,0,1,1.27.18,1,1,0,0,1,.49.65,3,3,0,0,1-.77,2c-.09.13-.17.26-.23.36a7.3,7.3,0,0,0-.4,1A7.87,7.87,0,0,1,13,16.17a10.51,10.51,0,0,1-1.54,1.23,7,7,0,0,0-1.67,1.44A.51.51,0,0,1,9.32,19.08Z"/><path d="M7.29,10.41a.5.5,0,0,1-.5-.5A15,15,0,0,1,8,5a.5.5,0,1,1,.93.39A14.09,14.09,0,0,0,7.79,9.91.5.5,0,0,1,7.29,10.41Z"/><path d="M8.87,9.59l-.13,0A.48.48,0,0,1,8.39,9c.24-.89,1.51-4.65,1.82-5.37a.5.5,0,1,1,.91.4C10.86,4.6,9.6,8.3,9.35,9.22A.5.5,0,0,1,8.87,9.59Z"/><path d="M10.67,10.17h-.11a.49.49,0,0,1-.38-.59,28.82,28.82,0,0,1,2-5.5.5.5,0,0,1,.9.43,28.31,28.31,0,0,0-1.88,5.27A.48.48,0,0,1,10.67,10.17Z"/><path d="M7.12,24a.48.48,0,0,1-.26-.07L.24,20A.53.53,0,0,1,0,19.62a.49.49,0,0,1,.14-.41l3.43-3.66a.5.5,0,0,1,.64-.08l5.38,3.4a.5.5,0,0,1,.18.65L7.56,23.73a.44.44,0,0,1-.31.25A.3.3,0,0,1,7.12,24ZM1.29,19.44,6.92,22.8l1.75-3.33L4,16.53Z"/><path d="M4.67,12.65a.54.54,0,0,1-.25-.06q-3.48-2-2.57-4.25A2.75,2.75,0,0,1,1.1,6.55a1.87,1.87,0,0,1,.43-1.09,2.16,2.16,0,0,1,0-2.12,1.24,1.24,0,0,1,1.2-.55,1.41,1.41,0,0,1,.68-.94,1.31,1.31,0,0,1,1.33.08c.22.14.56.38,1,.68A23.59,23.59,0,0,0,8.65,4.53a.5.5,0,0,1,.21.67.51.51,0,0,1-.67.22,25,25,0,0,1-3.06-2c-.38-.28-.69-.51-.9-.63S4,2.67,3.9,2.73s-.23.27-.24.69a.48.48,0,0,1-.23.4A.5.5,0,0,1,3,3.87c-.46-.19-.57,0-.6,0a1.21,1.21,0,0,0,.16,1.26.5.5,0,0,1,.14.37.48.48,0,0,1-.16.35,1.08,1.08,0,0,0-.41.72,2.1,2.1,0,0,0,.71,1.32.5.5,0,0,1,.08.58c-.37.68-.56,1.75,2,3.23a.5.5,0,0,1-.25.93Z"/><path d="M18.06,9.78H18a6.27,6.27,0,0,1-4.74-3.63.49.49,0,0,1,.3-.63.49.49,0,0,1,.64.3,5.36,5.36,0,0,0,4,3,.5.5,0,0,1,.4.59A.49.49,0,0,1,18.06,9.78Z"/><path d="M13.22,4.78h-.05a.49.49,0,0,1-.45-.54c.18-2.06-.57-3.09-1-3.24,0,0-.18,0-.4.18a2.91,2.91,0,0,0-.83,2.58.5.5,0,0,1-1,.06A3.93,3.93,0,0,1,10.84.33,1.36,1.36,0,0,1,12.15.08c.9.37,1.78,1.85,1.56,4.25A.49.49,0,0,1,13.22,4.78Z"/><path d="M17.61,18.44a.52.52,0,0,1-.29-.09L14.38,16.3a.49.49,0,0,1-.15-.65L18,8.85a.49.49,0,0,1,.67-.2l3.05,1.6a.44.44,0,0,1,.24.29.5.5,0,0,1,0,.38l-3.85,7.26a.57.57,0,0,1-.32.25Zm-2.29-2.7,2.11,1.47,3.35-6.31L18.61,9.76Z"/><path d="M5.88,5.93a.56.56,0,0,1-.27-.08c-.75-.5-2.68-2-2.76-2a.5.5,0,0,1-.08-.7A.5.5,0,0,1,3.47,3s2,1.53,2.69,2a.49.49,0,0,1,.14.69A.48.48,0,0,1,5.88,5.93Z"/><path d="M4.42,7.68a.5.5,0,0,1-.3-.11l-.67-.49c-.56-.4-1.27-.92-1.6-1.19a.49.49,0,0,1-.06-.7.49.49,0,0,1,.7-.07c.31.26,1,.76,1.55,1.15l.69.52a.5.5,0,0,1,.09.7A.53.53,0,0,1,4.42,7.68Z"/><path d="M3.68,9.78a.48.48,0,0,1-.32-.11l-.22-.18c-.3-.24-.76-.6-1-.88a.5.5,0,1,1,.7-.71c.24.24.68.58,1,.81L4,8.9a.5.5,0,0,1-.32.88Z"/><path d="M14.75,16.23a.45.45,0,0,1-.16,0l-1.67-.6a.49.49,0,0,1-.3-.63.51.51,0,0,1,.64-.31l1.66.6a.51.51,0,0,1,.31.64A.52.52,0,0,1,14.75,16.23Z"/></g></g></svg>