<svg xmlns="http://www.w3.org/2000/svg" viewBox="0 0 24 24.07"><g id="Laag_2" data-name="Laag 2"><g id="icons"><path d="M15.61,24.07a11.87,11.87,0,0,1-1.91-.17h-.06a1.94,1.94,0,0,1-1.44-.74,5.78,5.78,0,0,1-.85.48l-.2.1a.46.46,0,0,1-.29.17,12,12,0,0,1-1.92.17c-4.73,0-5.78-3.35-5.82-3.49A.5.5,0,0,1,3.7,20a4.65,4.65,0,0,0,.85.07A4.75,4.75,0,0,0,8,18.68a.31.31,0,0,1,.11-.09,3.12,3.12,0,0,1,3.93.15,3.11,3.11,0,0,1,3.93-.15.31.31,0,0,1,.11.09A5,5,0,0,0,19.65,20a5.73,5.73,0,0,0,.94-.07.47.47,0,0,1,.45.14.49.49,0,0,1,.13.46S20.32,24.07,15.61,24.07ZM14,22.93a10.94,10.94,0,0,0,1.66.14c2.66,0,3.82-1.24,4.29-2.05a6.15,6.15,0,0,1-4.49-1.57l-.05,0a2.09,2.09,0,0,0-3,.36.53.53,0,0,1-.8,0,2.09,2.09,0,0,0-3-.36l-.05,0A5.68,5.68,0,0,1,4.44,21a5,5,0,0,0,4.5,2.05,11.61,11.61,0,0,0,1.61-.13,2.9,2.9,0,0,1,.36-.2,3.53,3.53,0,0,0,1-.63.52.52,0,0,1,.8,0l.16.22a1.05,1.05,0,0,0,1,.57Z"/><path d="M12,16.94c-6.73,0-12-2.64-12-6,0-1.81,1.57-3.5,4.29-4.63a.5.5,0,0,1,.39.93C2.34,8.2,1,9.55,1,10.94c0,2.71,5,5,11,5s11-2.29,11-5c0-1.39-1.34-2.74-3.68-3.7a.52.52,0,0,1-.27-.66.51.51,0,0,1,.65-.27C22.43,7.44,24,9.12,24,10.94,24,14.3,18.73,16.94,12,16.94Z"/><path d="M12,13.94c-4.47,0-9-1-9-3C3.36,9,5.25,0,8.5,0a3.14,3.14,0,0,1,2.14,1.16c.47.45.88.84,1.36.84s.89-.39,1.36-.84A3.14,3.14,0,0,1,15.5,0C18.75,0,20.64,9,21,10.84,21,12.91,16.47,13.94,12,13.94ZM8.5,1C6.72,1,4.79,6.87,4,11c0,.61,2.76,1.91,8,1.91s8-1.3,8-2C19.21,6.87,17.28,1,15.5,1c-.53,0-.95.41-1.45.88A3.07,3.07,0,0,1,12,3,3.07,3.07,0,0,1,10,1.88C9.45,1.41,9,1,8.5,1Z"/></g></g></svg>