<svg xmlns="http://www.w3.org/2000/svg" viewBox="0 0 48 48"><title>Holistisch</title><g id="Laag_2" data-name="Laag 2"><g id="icons"><path d="M38,36.4a1,1,0,0,1-.89-.53l-12-22.74a1,1,0,1,1,1.76-.93l12,22.73A1,1,0,0,1,38,36.4Z"/><path d="M9.64,36.4a1.07,1.07,0,0,1-.43-.09A1,1,0,0,1,8.73,35l10.7-22.73a1,1,0,0,1,1.33-.48,1,1,0,0,1,.48,1.33L10.54,35.83A1,1,0,0,1,9.64,36.4Z"/><path d="M34.48,42.44h-20a1,1,0,0,1,0-2h20a1,1,0,0,1,0,2Z"/><path d="M7,36a5,5,0,1,1-5,5,5,5,0,0,1,5-5m0-2a7,7,0,1,0,7,7,7,7,0,0,0-7-7Z"/><path d="M41,36a5,5,0,1,1-5,5,5,5,0,0,1,5-5m0-2a7,7,0,1,0,7,7,7,7,0,0,0-7-7Z"/><path d="M23,2a5,5,0,1,1-5,5,5,5,0,0,1,5-5m0-2a7,7,0,1,0,7,7,7,7,0,0,0-7-7Z"/></g></g></svg>