<?xml version="1.0" encoding="utf-8"?>
<!-- Generator: Adobe Illustrator 23.0.6, SVG Export Plug-In . SVG Version: 6.00 Build 0)  -->
<svg version="1.1" id="Laag_1" xmlns="http://www.w3.org/2000/svg" xmlns:xlink="http://www.w3.org/1999/xlink" x="0px" y="0px"
	 viewBox="0 0 48 40" style="enable-background:new 0 0 48 40;" xml:space="preserve">
<g id="Group_4327" transform="translate(-1626 -14907.002)">
	<g id="Rectangle_2655">
		<path d="M1673,14947h-46c-0.6,0-1-0.4-1-1v-38c0-0.6,0.4-1,1-1h46c0.6,0,1,0.4,1,1v38C1674,14946.6,1673.6,14947,1673,14947z
			 M1628,14945h44v-36h-44V14945z"/>
	</g>
	<g id="Line_663">
		<path d="M1672,14917h-44c-0.6,0-1-0.4-1-1c0-0.6,0.4-1,1-1h44c0.6,0,1,0.4,1,1C1673,14916.6,1672.6,14917,1672,14917z"/>
	</g>
	<g id="Group_4325">
		<g id="Path_2992">
			<path d="M1632.6,14911.5c0,0.6-0.4,1-1,1s-1-0.4-1-1s0.4-1,1-1S1632.6,14911,1632.6,14911.5z"/>
		</g>
		<g id="Path_2993">
			<path d="M1636.6,14911.5c0,0.6-0.4,1-1,1s-1-0.4-1-1s0.4-1,1-1S1636.6,14911,1636.6,14911.5z"/>
		</g>
		<g id="Path_2994">
			<path d="M1640.6,14911.5c0,0.6-0.4,1-1,1s-1-0.4-1-1s0.4-1,1-1S1640.6,14911,1640.6,14911.5z"/>
		</g>
	</g>
	<g id="Group_4326">
		<g id="Path_2995">
			<path d="M1634,14928.5h1.8v3.4h0c0.2-0.3,0.4-0.5,0.7-0.6c0.3-0.2,0.6-0.2,0.9-0.2c1.2,0,2.1,0.8,2.1,2.6v3.4h-1.8v-3.2
				c0-0.8-0.3-1.3-0.9-1.3c-0.4,0-0.8,0.3-0.9,0.6c0,0.1-0.1,0.3-0.1,0.4v3.5h-1.8V14928.5z"/>
		</g>
		<g id="Path_2996">
			<path d="M1643,14929.6v1.6h1.3v1.3h-1.3v2.1c0,0.7,0.2,1,0.7,1c0.2,0,0.4,0,0.5,0l0,1.4c-0.4,0.1-0.8,0.2-1.2,0.2
				c-0.5,0-1-0.2-1.4-0.5c-0.4-0.5-0.6-1.1-0.5-1.7v-2.4h-0.8v-1.3h0.8v-1.1L1643,14929.6z"/>
		</g>
		<g id="Path_2997">
			<path d="M1647.4,14929.6v1.6h1.3v1.3h-1.3v2.1c0,0.7,0.2,1,0.7,1c0.2,0,0.4,0,0.5,0l0,1.4c-0.4,0.1-0.8,0.2-1.2,0.2
				c-0.5,0-1-0.2-1.4-0.5c-0.4-0.5-0.6-1.1-0.5-1.7v-2.4h-0.8v-1.3h0.8v-1.1L1647.4,14929.6z"/>
		</g>
		<g id="Path_2998">
			<path d="M1649.8,14933.1c0-0.8,0-1.4,0-2h1.6l0.1,0.8h0c0.4-0.6,1.2-1,2-0.9c1.3,0,2.4,1.1,2.4,3c0,2.1-1.4,3.1-2.7,3.1
				c-0.6,0-1.2-0.2-1.5-0.7h0v2.9h-1.8V14933.1z M1651.6,14934.5c0,0.1,0,0.3,0,0.4c0.1,0.5,0.6,0.9,1.1,0.9c0.8,0,1.3-0.7,1.3-1.7
				c0-0.9-0.4-1.6-1.2-1.6c-0.5,0-1,0.4-1.1,0.9c0,0.1,0,0.2,0,0.3L1651.6,14934.5z"/>
		</g>
		<g id="Path_2999">
			<path d="M1656.8,14932.2c0-0.6,0.5-1.1,1.1-1c0.6,0,1.1,0.5,1,1.1c0,0.6-0.5,1-1.1,1
				C1657.3,14933.3,1656.9,14932.8,1656.8,14932.2C1656.8,14932.2,1656.8,14932.2,1656.8,14932.2z M1656.8,14936
				c0-0.6,0.5-1.1,1.1-1c0.6,0,1.1,0.5,1,1.1c0,0.6-0.5,1-1.1,1C1657.3,14937.1,1656.9,14936.7,1656.8,14936
				C1656.8,14936.1,1656.8,14936.1,1656.8,14936z"/>
		</g>
		<g id="Path_3000">
			<path d="M1659.5,14937.5l2.6-8.7h1.2l-2.6,8.7H1659.5z"/>
		</g>
		<g id="Path_3001">
			<path d="M1663.5,14937.5l2.6-8.7h1.2l-2.6,8.7H1663.5z"/>
		</g>
	</g>
</g>
</svg>
