<?xml version="1.0" encoding="utf-8"?>
<!-- Generator: Adobe Illustrator 23.0.6, SVG Export Plug-In . SVG Version: 6.00 Build 0)  -->
<svg version="1.1" id="Laag_1" xmlns="http://www.w3.org/2000/svg" xmlns:xlink="http://www.w3.org/1999/xlink" x="0px" y="0px"
	 viewBox="0 0 127.7 36.7" style="enable-background:new 0 0 127.7 36.7;" xml:space="preserve">
<style type="text/css">
	.st0{fill-rule:evenodd;clip-rule:evenodd;}
</style>
<g id="_--Marketing_Logos_HubSpot-Primary" transform="translate(0 -2.735)">
	<g id="Marketing_Logos_HubSpot-Primary" transform="translate(0 2.735)">
		<path id="Fill-1" class="st0" d="M13.8,6.1v10.4H4.5V6.1H0v24.7h4.5v-10h9.4v10h4.5V6.1H13.8z"/>
		<path id="Fill-2" class="st0" d="M32.5,22.8c0,2-1.6,3.7-3.7,3.7s-3.7-1.6-3.7-3.7c0,0,0,0,0,0V12.2H21v10.6
			c0,4.4,3.5,7.9,7.9,7.9s7.9-3.5,7.9-7.9V12.2h-4.2V22.8z"/>
		<path id="Fill-4" class="st0" d="M63.8,13.3c0-2.2,1.4-2.9,3-2.9c1.5,0.2,3,1,4,2.1l2.8-3.3c-1.6-2-4-3.1-6.5-3.2
			c-4.6,0-7.9,2.7-7.9,7.2c0,8.4,10.1,5.7,10.1,10.4c-0.1,1.6-1.4,2.7-3,2.7c-2.5,0-3.3-1.2-4.5-2.5l-3.1,3.2
			c1.7,2.3,4.4,3.7,7.3,3.7c4.4,0,7.9-2.8,7.9-7.1C73.9,14.5,63.8,17.4,63.8,13.3"/>
		<path id="Fill-6" class="st0" d="M126.3,26.9c-2.5,0-3.2-1.1-3.2-2.8v-7.4h3.9v-3.8h-3.9v-5l-4.3,2V25c0,3.9,2.6,5.8,6.2,5.8
			c0.6,0,1.1,0,1.7-0.1l1-3.9C127.3,26.8,126.7,26.9,126.3,26.9"/>
		<path id="Fill-8" class="st0" d="M48.6,26.5c-2.7,0-4.9-2.1-4.9-4.8c0-2.7,2.1-4.9,4.8-4.9c2.7,0,4.9,2.1,4.9,4.8c0,0,0,0,0,0.1
			C53.4,24.3,51.3,26.5,48.6,26.5C48.6,26.5,48.6,26.5,48.6,26.5 M48.6,12.4c-1.9-0.1-3.7,0.7-5,2V6.2h-4.2v15.1
			c0,5.6,4,9.5,8.5,9.5c5.2,0.1,9.4-4.1,9.4-9.2c0,0,0,0,0,0C57.5,16.6,53.6,12.5,48.6,12.4"/>
		<g id="Group-12" transform="translate(76.575 12.131)">
			<path id="Fill-10" class="st0" d="M9.2,14.1c-2.7,0-4.9-2.1-4.9-4.8c0-2.7,2.1-4.9,4.8-4.9c2.7,0,4.9,2.1,4.9,4.8c0,0,0,0,0,0.1
				C14,11.9,11.8,14,9.2,14.1C9.2,14.1,9.2,14.1,9.2,14.1 M18,9.2c0-5.2-4.3-9.3-9.4-9.2c0,0,0,0,0,0C4,0,0,3.9,0,9.5v15.1h4.2v-8.1
				c1.3,1.4,3.1,2.1,5,2C14.2,18.4,18.1,14.2,18,9.2"/>
		</g>
		<g id="Group-15" transform="translate(82.048 0)">
			<path id="Fill-13" class="st0" d="M24.7,26.1c-2.7,0-4.9-2.1-4.9-4.8c0-2.7,2.1-4.9,4.8-4.9c2.7,0,4.9,2.1,4.9,4.8c0,0,0,0,0,0.1
				C29.5,23.9,27.4,26.1,24.7,26.1 M26.2,11.9V7.6c1.2-0.6,1.9-1.7,1.9-3V4.5c0-1.8-1.5-3.3-3.3-3.3h-0.1c-1.8,0-3.3,1.5-3.3,3.3
				v0.1c0,1.3,0.7,2.4,1.9,3v4.3c-1.6,0.3-3.1,0.9-4.4,2L7.2,4.7c0.1-0.3,0.1-0.6,0.1-0.9C7.4,1.7,5.7,0,3.7,0C1.6,0,0,1.7,0,3.7
				c0,2,1.6,3.7,3.7,3.7c0.6,0,1.3-0.2,1.8-0.5L17,16c-2.1,3.2-2.1,7.4,0.1,10.6l-3.5,3.5c-0.3-0.1-0.6-0.1-0.9-0.1
				c-1.7-0.1-3.2,1.3-3.2,3c-0.1,1.7,1.3,3.2,3,3.2c1.7,0.1,3.2-1.3,3.2-3c0-0.3,0-0.7-0.1-1l3.5-3.5c1.6,1.3,3.6,1.9,5.6,1.9
				c5.2-0.1,9.4-4.4,9.3-9.6C34,16.5,30.7,12.7,26.2,11.9"/>
		</g>
	</g>
</g>
</svg>
