<?xml version="1.0" encoding="utf-8"?>
<!-- Generator: Adobe Illustrator 23.0.6, SVG Export Plug-In . SVG Version: 6.00 Build 0)  -->
<svg version="1.1" id="Group_2297" xmlns="http://www.w3.org/2000/svg" xmlns:xlink="http://www.w3.org/1999/xlink" x="0px" y="0px"
	 viewBox="0 0 50 55.4" style="enable-background:new 0 0 50 55.4;" xml:space="preserve">
<g>
	<g id="Group_2296" transform="translate(0 0)">
		<g id="Group_2295" transform="translate(0.677 0.677)">
			<g id="Path_1706">
				<path d="M17.2,55.1c-1.4,0-2.7-0.6-3.7-1.5c-1-1-1.5-2.3-1.5-3.7c0-1.4,0.6-2.7,1.5-3.7c1.3-1.3,3.1-1.8,4.9-1.4l4.2-4.2
					c-0.7-1-1.2-2-1.7-3.1c-0.6-1.6-0.9-3.4-0.9-5.1v-0.5c0-2.6,0.8-5,2.2-7.2c0.4-0.7,1-1.3,1.5-2L8.2,11.4C7.4,11.8,6.5,12,5.5,12
					C1.9,12-1,9.1-1,5.5C-1,1.9,1.9-1,5.5-1c0,0,0,0,0,0C9.1-1,12,1.9,12,5.5c0,0.4,0,0.7-0.1,1.1l16.6,12.6c1-0.5,2.1-0.8,3.3-1.1
					v-5.1c-1.8-1-3-3-2.9-5.2c0-3.3,2.7-6,6-6c0,0,0,0,0,0c3.3,0,6,2.7,6,6c0,2.2-1.1,4.1-3,5.1v5.1c1.6,0.3,3.1,0.9,4.6,1.7
					c2.2,1.3,4.1,3.1,5.3,5.3c0,0,0,0,0,0c1.3,2.2,1.9,4.7,1.9,7.2v0.1c0,2.6-0.7,5.1-2.1,7.3c-1.3,2.1-3.2,3.9-5.4,5.1
					c-2.1,1.2-4.5,1.8-6.9,1.7h-0.4c-2.1,0-4.1-0.4-6-1.3c-0.6-0.3-1.3-0.6-1.9-1l-4.5,4.5c0.1,0.3,0.1,0.6,0.1,1
					c0,1.4-0.6,2.7-1.5,3.7C20,54.5,18.6,55.1,17.2,55.1C17.3,55.1,17.2,55.1,17.2,55.1z M17.2,53.1C17.2,53.1,17.3,53.1,17.2,53.1
					c0.9,0,1.7-0.3,2.3-1c0.6-0.6,1-1.4,1-2.3c0-0.3-0.1-0.7-0.2-1c-0.1-0.4,0-0.7,0.2-1l5.4-5.4c0.3-0.3,0.9-0.4,1.3-0.1
					c0.7,0.5,1.5,0.9,2.2,1.2c1.7,0.7,3.4,1.1,5.3,1.1h0.4c2.1,0,4.1-0.5,6-1.5c1.9-1,3.5-2.6,4.7-4.4c1.2-1.9,1.8-4,1.8-6.2v-0.1
					c0-2.2-0.5-4.3-1.6-6.2c-1.1-1.9-2.7-3.5-4.6-4.6c-1.4-0.9-3-1.4-4.7-1.6c-0.5-0.1-0.9-0.5-0.9-1v-6.5c0-0.4,0.2-0.8,0.6-0.9
					c1.5-0.6,2.4-2,2.4-3.6c0-2.2-1.8-4-3.9-4c0,0,0,0,0,0c-2.2,0-4,1.8-4,4c0,1.6,0.9,3,2.3,3.6c0.4,0.2,0.6,0.5,0.6,0.9V19
					c0,0.5-0.4,0.9-0.9,1c-1.4,0.2-2.8,0.6-4.1,1.3c-0.3,0.2-0.8,0.1-1.1-0.1L10.2,7.8C9.9,7.5,9.7,7.1,9.8,6.7
					C10,6.3,10,5.9,10,5.5C10,3,8,1,5.5,1h0C3,1,1,3,1,5.5C1,8,3,10,5.5,10c0.8,0,1.6-0.2,2.3-0.7c0.4-0.2,0.8-0.2,1.1,0.1l1.2,0.9
					l15.8,11.4c0.2,0.2,0.4,0.5,0.4,0.8c0,0.3-0.1,0.6-0.3,0.8c-0.8,0.7-1.5,1.5-2.1,2.4c-1.2,1.8-1.8,3.9-1.9,6.1v0.5
					c0,1.5,0.3,3,0.8,4.4c0.4,1.2,1.1,2.3,1.9,3.3c0.3,0.4,0.3,1-0.1,1.3l-5.3,5.3c-0.3,0.3-0.7,0.4-1.1,0.2
					c-1.2-0.4-2.5-0.1-3.4,0.7c-0.6,0.6-1,1.4-1,2.3c0,0.9,0.3,1.7,1,2.3C15.5,52.7,16.4,53.1,17.2,53.1
					C17.2,53.1,17.2,53.1,17.2,53.1z M34.9,40.7c-1.3,0-2.6-0.4-3.7-1c-1.3-0.7-2.4-1.7-3.2-2.9c-0.8-1.1-1.3-2.5-1.3-4v-0.4
					c0-1.4,0.3-2.7,0.9-3.9c0.7-1.3,1.7-2.4,3-3.2c1.2-0.8,2.7-1.2,4.2-1.3h0.1c1.4,0,2.7,0.3,3.9,0.9c1.2,0.7,2.3,1.6,3.1,2.8
					c0.8,1.2,1.2,2.5,1.4,3.9c0,0.3,0,0.6,0,0.9c0,2-0.8,3.8-2.1,5.3c0,0,0,0,0,0c-1.4,1.8-3.5,2.9-5.8,3L34.9,40.7z M34.7,26
					c-1.1,0-2.1,0.3-3,0.9c-1,0.6-1.8,1.5-2.3,2.5c-0.5,0.9-0.7,2-0.7,3v0.4c0,1,0.3,2,1,2.9c0.6,1,1.5,1.8,2.5,2.3
					c0.9,0.5,1.8,0.7,2.8,0.7h0.3c1.6-0.1,3.2-0.9,4.2-2.2c0-0.1,0.1-0.1,0.1-0.2c1-1.1,1.6-2.5,1.6-4c0-0.2,0-0.5,0-0.7
					c-0.1-1-0.5-2.1-1-3c-0.6-0.9-1.4-1.6-2.3-2.1c-0.9-0.5-1.9-0.7-2.9-0.7H34.7C34.7,26,34.7,26,34.7,26z"/>
			</g>
		</g>
	</g>
</g>
</svg>
