<svg xmlns="http://www.w3.org/2000/svg"
  xmlns:xlink="http://www.w3.org/1999/xlink" viewBox="0 0 50.65 56.09">
  <defs>
    <style>.a,.c{fill:none;}.b{clip-path:url(#a);}.c{stroke:inherit;stroke-linecap:round;stroke-linejoin:round;stroke-width:2px;}</style>
    <clipPath id="a" transform="translate(0.32 0.33)">
      <rect class="a" width="50" height="55.44"/>
    </clipPath>
  </defs>
  <title>hubspot-logo</title>
  <g class="b">
    <path class="c" d="M47.59,26.37a13.79,13.79,0,0,0-5-5,13.57,13.57,0,0,0-5.05-1.75V13.11a4.81,4.81,0,0,0,3-4.52,5,5,0,0,0-4.93-5h0a5,5,0,0,0-5,5,4.75,4.75,0,0,0,2.91,4.52v6.56A14.38,14.38,0,0,0,29.11,21L11.47,7.64a5.49,5.49,0,0,0,.23-1.45A5.52,5.52,0,0,0,6.19.67h0A5.51,5.51,0,0,0,.68,6.18h0A5.51,5.51,0,0,0,6.19,11.7h0A5.43,5.43,0,0,0,9,10.9l1.15.87L26,23.18a13.06,13.06,0,0,0-2.24,2.63,12.2,12.2,0,0,0-2,6.6v.5a13.6,13.6,0,0,0,.87,4.76,12.53,12.53,0,0,0,2,3.57l-5.25,5.27a4.26,4.26,0,1,0-1.46,8.25,4.16,4.16,0,0,0,3-1.25,4.24,4.24,0,0,0,1.25-3,4.33,4.33,0,0,0-.2-1.28l5.43-5.43a13.83,13.83,0,0,0,2.42,1.32,14.23,14.23,0,0,0,5.64,1.19h.38a13.52,13.52,0,0,0,11.5-6.39,12.51,12.51,0,0,0,2-6.72v-.12A13.21,13.21,0,0,0,47.59,26.37ZM41,37.77a6.91,6.91,0,0,1-5.08,2.64h-.32a6.78,6.78,0,0,1-3.21-.85A7.47,7.47,0,0,1,29.52,37a6.09,6.09,0,0,1-1.17-3.49v-.38a7.15,7.15,0,0,1,.83-3.48,7.58,7.58,0,0,1,2.62-2.86,6.41,6.41,0,0,1,3.63-1.1h.12a7.49,7.49,0,0,1,3.41.79,7.15,7.15,0,0,1,2.68,2.44,7.63,7.63,0,0,1,1.2,3.42c0,.26,0,.52,0,.77A6.78,6.78,0,0,1,41,37.76Z" transform="translate(0.32 0.33)"/>
  </g>
</svg>