<svg xmlns="http://www.w3.org/2000/svg" viewBox="0 0 36.06 38.33"><g id="Laag_2" data-name="Laag 2"><g id="Laag_1-2" data-name="Laag 1"><path d="M28.17,12.11V9.18a4.31,4.31,0,0,0,1.89-3.56v-.1A4.31,4.31,0,0,0,25.79,1.2h-.11a4.29,4.29,0,0,0-4.25,4.32v.1a4.36,4.36,0,0,0,1.88,3.57V12.1a10.38,10.38,0,0,0-3.39,1.53L9.34,5.27a4.41,4.41,0,0,0,0-.52A4.72,4.72,0,0,0,4.68,0a4.74,4.74,0,0,0,0,9.48,4.65,4.65,0,0,0,1.69-.32l10.3,8.13a10.48,10.48,0,0,0,.18,10.25L14.3,30.12a4.38,4.38,0,0,0-.51,0,4.1,4.1,0,0,0-2.95,1.12A4.12,4.12,0,0,0,10.66,37a4.11,4.11,0,0,0,2.87,1.3h.14a4.07,4.07,0,0,0,2.82-1.12,4.13,4.13,0,0,0,1.3-2.88,4.6,4.6,0,0,0-.05-.74l2.48-2.51a10.36,10.36,0,0,0,15.84-9A10.46,10.46,0,0,0,28.17,12.11Zm3.5,16a8.38,8.38,0,0,1-5.93,2.57,8.21,8.21,0,0,1-5-1.73L20,28.43,15.52,33l.17.57a2.26,2.26,0,0,1,.1.69,2.11,2.11,0,0,1-.67,1.48,2.18,2.18,0,0,1-1.52.58,2.15,2.15,0,0,1-1.49-.67,2.08,2.08,0,0,1-.57-1.52,2,2,0,0,1,.67-1.48,2.07,2.07,0,0,1,1.46-.58h.07a1.9,1.9,0,0,1,.58.09l.58.2,4.51-4.58-.47-.68a8.51,8.51,0,0,1-.13-9.52l.5-.77L6.58,6.77,6,7.12a2.55,2.55,0,0,1-1.3.36A2.74,2.74,0,0,1,4.68,2,2.69,2.69,0,0,1,7.27,5.42l-.17.63L19.92,16.17l.62-.5a8.22,8.22,0,0,1,3.93-1.76l.84-.13V8l-.56-.27a2.34,2.34,0,0,1-1.32-2.09V5.51A2.29,2.29,0,0,1,25.69,3.2h.09a2.3,2.3,0,0,1,2.28,2.32v.1a2.34,2.34,0,0,1-1.32,2.09L26.17,8v4.94l0,.88.8.1a8.47,8.47,0,0,1,7.05,8.22A8.36,8.36,0,0,1,31.67,28.14Z"/><path d="M25.59,16.41a5.85,5.85,0,0,0,.08,11.7h.09a5.88,5.88,0,0,0,5.76-5.93,5.8,5.8,0,0,0-1.77-4.11A5.69,5.69,0,0,0,25.59,16.41Zm.14,9.69a3.82,3.82,0,0,1-3.9-3.79,3.84,3.84,0,0,1,3.79-3.9h.06a3.84,3.84,0,0,1,3.84,3.85A3.86,3.86,0,0,1,25.73,26.1Z"/></g></g></svg>