<?xml version="1.0" standalone="no"?>
<!DOCTYPE svg PUBLIC "-//W3C//DTD SVG 20010904//EN"
 "http://www.w3.org/TR/2001/REC-SVG-20010904/DTD/svg10.dtd">
<svg version="1.0" xmlns="http://www.w3.org/2000/svg"
 width="559.000000pt" height="554.000000pt" viewBox="0 0 559.000000 554.000000"
 preserveAspectRatio="xMidYMid meet">

<g transform="translate(0.000000,554.000000) scale(0.100000,-0.100000)"
fill="#000000" stroke="none">
<path d="M2743 5329 c-17 -5 -155 -80 -305 -167 -150 -87 -397 -230 -548 -317
-151 -87 -428 -247 -615 -355 -187 -108 -414 -239 -504 -291 -140 -80 -168
-100 -193 -138 l-28 -45 0 -243 0 -243 185 0 185 0 2 161 3 161 355 205 c1629
941 1512 876 1540 860 223 -128 1690 -975 1758 -1014 l92 -54 0 -160 0 -159
185 0 185 0 0 243 0 243 -28 45 c-27 41 -90 79 -1077 649 -576 333 -1062 610
-1079 617 -37 14 -70 14 -113 2z"/>
<path d="M1837 4124 c-4 -4 -7 -88 -7 -186 l0 -178 30 0 30 0 0 75 0 76 73 -3
72 -3 0 -73 0 -72 33 0 32 0 0 186 c0 166 -2 185 -16 180 -9 -3 -22 -6 -29 -6
-11 0 -15 -19 -17 -72 l-3 -73 -72 -3 -72 -3 -3 78 c-3 70 -5 78 -23 81 -12 2
-24 0 -28 -4z"/>
<path d="M2806 4119 c-51 -14 -76 -47 -76 -99 0 -55 14 -71 93 -110 56 -27 68
-48 42 -74 -22 -22 -58 -20 -80 4 l-18 20 -24 -22 c-30 -28 -29 -35 10 -58 50
-31 119 -27 159 9 29 26 33 35 32 75 -1 56 -29 91 -86 108 -52 15 -73 40 -58
67 12 24 50 28 80 9 15 -10 23 -9 39 6 27 24 26 32 -1 47 -36 19 -81 26 -112
18z"/>
<path d="M2430 3978 c5 -153 11 -173 61 -202 73 -43 192 10 199 89 6 59 -1 87
-33 121 -26 28 -42 37 -78 41 -26 3 -55 0 -68 -6 -20 -11 -21 -10 -21 44 l0
55 -32 0 -33 0 5 -142z m164 -19 c33 -15 50 -57 37 -92 -19 -49 -71 -61 -115
-26 -34 27 -35 71 -1 104 27 28 42 30 79 14z"/>
<path d="M3653 4080 c-22 -9 -23 -14 -23 -140 0 -126 1 -132 25 -155 29 -29
89 -35 99 -9 9 25 7 46 -4 39 -6 -4 -22 1 -35 9 -22 15 -25 23 -25 81 l0 65
30 0 c25 0 30 4 30 24 0 19 -6 25 -27 28 -23 2 -29 8 -31 36 -4 34 -5 35 -39
22z"/>
<path d="M2140 3950 c0 -133 38 -190 129 -190 31 0 49 7 73 29 33 29 33 30 36
135 l4 106 -31 0 -31 0 0 -88 c0 -95 -13 -122 -56 -122 -46 1 -64 41 -64 141
l0 69 -30 0 -30 0 0 -80z"/>
<path d="M3046 4009 c-48 -38 -56 -67 -56 -209 l0 -130 30 0 c30 0 30 0 30 56
0 50 2 55 18 48 118 -51 235 73 177 187 -35 66 -143 92 -199 48z m134 -59 c43
-43 12 -123 -49 -123 -66 0 -101 84 -52 125 30 24 76 23 101 -2z"/>
<path d="M550 1792 l0 -268 28 -45 c27 -41 75 -70 708 -436 373 -215 848 -489
1054 -608 206 -119 394 -221 417 -228 60 -16 97 -2 291 111 92 54 565 327
1051 607 830 479 886 513 912 554 l29 45 0 268 0 268 -185 0 -185 0 -2 -186
-3 -186 -385 -222 c-212 -122 -632 -365 -935 -540 l-549 -317 -36 20 c-19 11
-440 254 -935 539 l-900 520 -3 186 -2 186 -185 0 -185 0 0 -268z"/>
<path d="M1475 1874 c-25 -26 -14 -57 28 -79 47 -25 45 -50 -3 -51 -51 -1 -57
-3 -40 -14 23 -15 77 -12 94 6 28 28 16 59 -30 79 -52 21 -39 62 15 48 24 -6
29 12 5 21 -27 10 -52 7 -69 -10z"/>
<path d="M1653 1880 c-48 -20 -59 -101 -20 -138 33 -31 96 -30 125 1 27 29 29
86 5 116 -20 24 -77 35 -110 21z m85 -32 c17 -17 15 -68 -5 -90 -35 -38 -93
-9 -93 47 0 39 16 55 55 55 17 0 36 -5 43 -12z"/>
<path d="M2182 1882 c-36 -2 -60 -7 -57 -12 4 -6 17 -10 31 -10 23 0 24 -2 24
-70 0 -40 4 -70 10 -70 6 0 10 30 10 70 0 68 1 70 24 70 24 0 44 15 29 22 -5
2 -36 2 -71 0z"/>
<path d="M2402 1874 c-33 -23 -45 -60 -31 -101 13 -40 34 -53 88 -53 31 0 44
6 60 26 36 46 27 105 -20 129 -36 19 -69 19 -97 -1z m98 -33 c24 -45 -1 -101
-44 -101 -55 1 -79 61 -43 108 15 20 75 15 87 -7z"/>
<path d="M2603 1883 c-16 -6 -18 -163 -3 -163 6 0 10 27 10 60 0 33 3 60 8 60
4 0 23 -27 41 -60 23 -38 41 -60 53 -60 16 0 18 10 18 80 0 62 -3 80 -14 80
-11 0 -13 -13 -12 -55 1 -30 0 -55 -3 -55 -4 0 -21 25 -39 55 -36 59 -41 64
-59 58z"/>
<path d="M2796 1871 c-25 -28 -17 -53 24 -73 50 -25 48 -54 -3 -51 -51 3 -45
-21 7 -25 75 -6 92 58 24 91 -21 9 -38 23 -38 31 0 16 27 29 41 20 6 -3 17 -3
27 1 14 5 14 7 2 15 -25 16 -66 11 -84 -9z"/>
<path d="M3660 1881 c-12 -7 -14 -26 -12 -85 4 -90 22 -103 22 -15 0 35 4 58
9 54 6 -3 24 -30 41 -60 21 -37 38 -55 51 -55 17 0 19 8 19 80 0 63 -3 80 -15
80 -10 0 -15 -15 -17 -57 l-3 -57 -38 62 c-21 34 -39 62 -40 62 -1 0 -9 -5
-17 -9z"/>
<path d="M1830 1800 l0 -80 50 0 c28 0 50 5 50 10 0 6 -16 10 -35 10 l-35 0 0
70 c0 56 -3 70 -15 70 -12 0 -15 -16 -15 -80z"/>
<path d="M1960 1816 c0 -75 14 -96 64 -96 49 0 66 25 66 98 0 48 -3 62 -15 62
-10 0 -15 -16 -17 -61 -3 -65 -19 -88 -52 -76 -12 5 -16 20 -16 72 0 51 -3 65
-15 65 -12 0 -15 -14 -15 -64z"/>
<path d="M2290 1800 c0 -64 3 -80 15 -80 12 0 15 16 15 80 0 64 -3 80 -15 80
-12 0 -15 -16 -15 -80z"/>
<path d="M3010 1800 c0 -64 3 -80 15 -80 10 0 15 10 15 34 0 32 3 35 31 38 39
4 61 34 48 66 -7 19 -16 22 -59 22 l-50 0 0 -80z m85 50 c9 -15 -14 -40 -36
-40 -14 0 -19 7 -19 25 0 20 5 25 24 25 14 0 28 -5 31 -10z"/>
<path d="M3172 1808 c-18 -40 -32 -76 -32 -80 0 -17 29 -7 35 12 5 15 15 20
40 20 24 0 38 -6 45 -20 10 -18 46 -30 38 -12 -1 4 -16 40 -33 79 -19 47 -36
73 -46 73 -10 0 -27 -27 -47 -72z m68 -15 c0 -7 -11 -13 -25 -13 -29 0 -29 0
-13 35 11 25 13 26 25 9 7 -10 13 -24 13 -31z"/>
<path d="M3340 1800 c0 -47 4 -80 10 -80 6 0 10 16 10 35 0 23 5 35 13 35 8 0
22 -16 33 -35 10 -19 26 -35 36 -35 16 0 15 3 -4 36 -20 33 -20 37 -5 46 22
12 22 64 1 72 -9 3 -33 6 -55 6 l-39 0 0 -80z m80 41 c0 -20 -32 -37 -50 -26
-5 3 -10 15 -10 26 0 14 7 19 30 19 23 0 30 -5 30 -19z"/>
<path d="M3480 1870 c0 -5 11 -10 25 -10 24 0 25 -2 25 -70 0 -56 3 -70 15
-70 12 0 15 14 15 70 0 68 1 70 25 70 14 0 25 5 25 10 0 6 -28 10 -65 10 -37
0 -65 -4 -65 -10z"/>
<path d="M3840 1800 l0 -80 60 0 c33 0 60 4 60 10 0 6 -20 10 -45 10 -41 0
-45 2 -45 24 0 21 5 25 38 28 20 2 37 8 37 13 0 6 -17 11 -37 13 -30 3 -38 7
-38 23 0 16 7 19 40 19 22 0 40 5 40 10 0 6 -25 10 -55 10 l-55 0 0 -80z"/>
<path d="M4000 1800 c0 -64 3 -80 15 -80 10 0 15 11 15 35 0 22 5 35 13 35 7
0 21 -16 30 -35 9 -19 24 -35 33 -35 8 0 14 3 12 8 -2 4 -10 19 -17 34 -12 23
-11 29 3 43 39 39 12 75 -56 75 l-48 0 0 -80z m87 44 c7 -18 -12 -34 -39 -34
-13 0 -18 8 -18 25 0 20 5 25 25 25 14 0 28 -7 32 -16z"/>
<path d="M2160 1444 c0 -64 3 -85 13 -82 6 3 13 18 15 35 3 25 9 31 40 39 31
8 38 14 40 39 5 37 -19 55 -70 55 l-38 0 0 -86z m75 53 c23 -17 12 -37 -21
-37 -19 0 -24 5 -24 25 0 28 17 32 45 12z"/>
<path d="M2320 1445 c0 -85 16 -119 22 -47 4 47 17 47 47 -1 13 -20 30 -37 38
-37 18 0 17 7 -7 41 l-21 28 21 21 c25 25 25 35 0 60 -13 13 -33 20 -60 20
l-40 0 0 -85z m80 50 c17 -20 4 -35 -31 -35 -21 0 -29 5 -29 18 0 10 3 22 7
25 11 12 40 8 53 -8z"/>
<path d="M2499 1511 c-35 -28 -33 -95 4 -127 85 -73 201 43 122 121 -30 31
-92 34 -126 6z m105 -23 c29 -42 15 -89 -31 -103 -34 -10 -77 37 -68 73 12 53
71 70 99 30z"/>
<path d="M2715 1505 c-29 -28 -33 -79 -10 -112 17 -25 71 -39 110 -29 22 6 25
12 25 51 0 43 -1 45 -30 45 -16 0 -30 -4 -30 -10 0 -5 7 -10 15 -10 20 0 20
-46 0 -54 -21 -8 -61 9 -69 29 -20 54 17 104 69 91 31 -8 54 2 34 15 -29 18
-89 10 -114 -16z"/>
<path d="M2892 1448 c2 -54 7 -83 16 -86 8 -2 12 8 12 32 0 50 16 53 45 6 14
-22 30 -40 35 -40 13 0 13 6 -6 41 -14 28 -14 32 0 48 22 24 20 58 -3 71 -11
5 -38 10 -61 10 l-41 0 3 -82z m77 53 c21 -13 5 -41 -24 -41 -20 0 -25 5 -25
25 0 26 22 33 49 16z"/>
<path d="M3081 1465 c-16 -35 -32 -73 -36 -85 -8 -26 11 -26 27 0 18 28 74 27
98 -2 10 -13 21 -20 25 -16 11 10 -58 168 -72 168 -7 0 -26 -29 -42 -65z m58
-22 c1 -7 -8 -13 -19 -13 -23 0 -25 12 -8 43 11 21 11 21 19 2 4 -11 8 -26 8
-32z"/>
<path d="M3240 1446 c0 -51 4 -86 10 -86 6 0 10 29 10 67 0 75 6 75 35 -2 11
-30 25 -55 30 -56 6 -1 21 27 35 62 l25 63 3 -68 c2 -47 7 -66 15 -63 8 2 13
33 15 85 3 81 2 82 -21 82 -20 0 -28 -9 -42 -47 -10 -27 -21 -52 -25 -56 -4
-4 -16 16 -26 45 -15 40 -25 54 -42 56 -21 3 -22 1 -22 -82z"/>
</g>
</svg>
