<svg xmlns="http://www.w3.org/2000/svg" viewBox="0 0 22.75 24"><g id="Laag_2" data-name="Laag 2"><g id="icons"><path d="M6.25,24a.5.5,0,0,1-.5-.5A3.5,3.5,0,0,1,9.25,20a.5.5,0,0,1,0,1,2.5,2.5,0,0,0-2.5,2.5A.5.5,0,0,1,6.25,24Z"/><path d="M22.25,24a.5.5,0,0,1-.5-.5,2.5,2.5,0,0,0-2.5-2.5.5.5,0,0,1,0-1,3.5,3.5,0,0,1,3.5,3.5A.5.5,0,0,1,22.25,24Z"/><path d="M14.25,23c-2.31,0-3.95-2.63-4.1-5.13a1.54,1.54,0,0,1-.62-1.37v-1a1.28,1.28,0,0,1,1-1.45V12.63c0-.74,0-1.32.39-1.72a1.84,1.84,0,0,1,1.33-.41h4c1.55,0,2.28.76,2.28,2.4v1.15a1.28,1.28,0,0,1,1,1.45v1a1.65,1.65,0,0,1-.91,1.38C18.45,20.33,16.6,23,14.25,23Zm-2-11.5c-.47,0-.6.08-.62.11a2.17,2.17,0,0,0-.1,1V14.5a.5.5,0,0,1-.5.5c-.5,0-.5.06-.5.5v1a.82.82,0,0,0,.13.51.47.47,0,0,1,.48.49c0,1.88,1.18,4.5,3.11,4.5s3.39-2.47,3.39-4.5a.5.5,0,0,1,.5-.5.63.63,0,0,0,.39-.5v-1c0-.44,0-.5-.5-.5a.5.5,0,0,1-.5-.5V12.9c0-1.1-.28-1.4-1.28-1.4Z"/><path d="M6.25,10a3.5,3.5,0,1,1,3.5-3.5A3.5,3.5,0,0,1,6.25,10Zm0-6a2.5,2.5,0,1,0,2.5,2.5A2.5,2.5,0,0,0,6.25,4Z"/><path d="M8,12.5H5a.5.5,0,0,1-.5-.5V9.5a.5.5,0,0,1,1,0v2h2v-2a.5.5,0,0,1,1,0V12A.5.5,0,0,1,8,12.5Z"/><path d="M6.25,2a.5.5,0,0,1-.5-.5V.5a.5.5,0,0,1,1,0v1A.5.5,0,0,1,6.25,2Z"/><path d="M1.5,6.75H.5a.5.5,0,0,1,0-1h1a.5.5,0,0,1,0,1Z"/><path d="M12,6.75H11a.5.5,0,0,1,0-1h1a.5.5,0,0,1,0,1Z"/><path d="M2.89,3.39a.47.47,0,0,1-.35-.15l-.71-.7a.5.5,0,0,1,.71-.71l.7.71a.48.48,0,0,1,0,.7A.47.47,0,0,1,2.89,3.39Z"/><path d="M10.32,10.82a.51.51,0,0,1-.36-.15L9.26,10a.5.5,0,0,1,0-.71.5.5,0,0,1,.7,0l.71.71a.5.5,0,0,1,0,.71A.5.5,0,0,1,10.32,10.82Z"/><path d="M2.18,10.82a.5.5,0,0,1-.35-.15.5.5,0,0,1,0-.71l.71-.71a.5.5,0,0,1,.7,0,.5.5,0,0,1,0,.71l-.7.71A.51.51,0,0,1,2.18,10.82Z"/><path d="M9.61,3.39a.47.47,0,0,1-.35-.15.48.48,0,0,1,0-.7l.7-.71a.5.5,0,1,1,.71.71l-.71.7A.47.47,0,0,1,9.61,3.39Z"/></g></g></svg>