<svg xmlns="http://www.w3.org/2000/svg" viewBox="0 0 41.47 30.17"><g id="Laag_2" data-name="Laag 2"><g id="Laag_1-2" data-name="Laag 1"><path d="M29.9,0H15.21A14.86,14.86,0,0,0,4.51,4.33a15.09,15.09,0,0,0-.18,21.34A15,15,0,0,0,15,30.17H29.9a1,1,0,0,0,1-1v-7a1,1,0,0,0-1-1H15.31a6.11,6.11,0,0,1-6.1-6,6,6,0,0,1,6-6H29.9a1,1,0,0,0,1-1V1A1,1,0,0,0,29.9,0Zm-1,28.17H25.62v-5H28.9ZM15.17,7.05a8,8,0,0,0-8,8,8.11,8.11,0,0,0,8.09,8h8.32v5H15A13.09,13.09,0,0,1,2,15,13.09,13.09,0,0,1,15.09,2h8.53V7.05Zm13.73,0H25.62V2H28.9Z"/><path d="M35.19,3.52H33.43a1,1,0,0,0,0,2h1.76a1,1,0,1,0,0-2Z"/><path d="M38.71,5.52h1.76a1,1,0,1,0,0-2H38.71a1,1,0,0,0,0,2Z"/><path d="M35.19,24.65H33.43a1,1,0,0,0,0,2h1.76a1,1,0,0,0,0-2Z"/><path d="M40.47,24.65H38.71a1,1,0,0,0,0,2h1.76a1,1,0,0,0,0-2Z"/></g></g></svg>