<?xml version="1.0" encoding="utf-8"?>
<!-- Generator: Adobe Illustrator 23.0.6, SVG Export Plug-In . SVG Version: 6.00 Build 0)  -->
<svg version="1.1" id="Laag_1" xmlns="http://www.w3.org/2000/svg" xmlns:xlink="http://www.w3.org/1999/xlink" x="0px" y="0px"
	 viewBox="0 0 47.8 57.4" style="enable-background:new 0 0 47.8 57.4;" xml:space="preserve">
<g id="Group_1575" transform="translate(0.004)">
	<path id="Path_1165" d="M41.7,20.6h-2.6c-1.4,0-2.5,1.1-2.5,2.5v17.3c0,4.9-5.3,9.2-12.9,9.2c-6.9,0-12.6-4.1-12.6-9.2V23.2
		c0-1.4-1.1-2.5-2.5-2.5H6.1c-1.4,0-2.5,1.1-2.5,2.5v17.6c0,8.4,7.8,16.6,20.1,16.6c11,0,20.6-7.7,20.6-16.6V23.2
		C44.2,21.8,43.1,20.6,41.7,20.6z M5.7,23.2c0-0.2,0.2-0.4,0.4-0.4c0,0,0,0,0,0h2.6C8.8,22.8,9,23,9,23.2V28H5.7V23.2z M42.1,40.8
		c0,7.7-8.6,14.4-18.4,14.4c-10.9,0-17.9-7.3-17.9-14.4V30.2H9v10.3c0,6.3,6.6,11.4,14.8,11.4c8.7,0,15-5.3,15-11.4V30.2h3.3
		L42.1,40.8z M42.1,28h-3.3v-4.8c0-0.2,0.2-0.4,0.4-0.4c0,0,0,0,0,0h2.6c0.2,0,0.4,0.2,0.4,0.4V28z"/>
	<g id="Group_1578" transform="translate(-0.003)">
		<path id="Path_1166" d="M33.2,31.2c-0.6,0-1.1-0.5-1.1-1.1v-4.8c-0.2-0.5-2.2-1.8-5.7-3c-1.5-0.6-3.2-0.7-4.7-0.2
			c-3.7,1.1-5.8,2.2-6.1,2.7v5.3c0,0.6-0.5,1.1-1.1,1.1c-0.6,0-1.1-0.5-1.1-1.1c0,0,0,0,0,0v-5.3c0-0.6,0-2.5,7.7-4.7
			c2-0.7,4.1-0.6,6,0.2c3.3,1.1,7.2,2.9,7.1,5v4.8C34.3,30.7,33.8,31.2,33.2,31.2C33.2,31.2,33.2,31.2,33.2,31.2z"/>
		<g id="Group_1575-2" transform="translate(17.47 4.936)">
			<path id="Path_1167" d="M6.5,0C2.8-0.2-0.3,2.6-0.6,6.3C-0.8,10,2,13.2,5.7,13.4c3.7,0.2,6.9-2.6,7.1-6.3c0-0.1,0-0.2,0-0.3
				C13,3.2,10.2,0.2,6.5,0z M6.3,11.2c-2.5,0.1-4.6-1.8-4.7-4.3C1.5,4.4,3.4,2.3,5.9,2.2c2.5-0.1,4.6,1.8,4.7,4.3c0,0.1,0,0.2,0,0.3
				C10.7,9.2,8.7,11.2,6.3,11.2z"/>
		</g>
		<g id="Group_1576" transform="translate(0 14.243)">
			<path id="Path_1168" d="M1.1,11.7c-0.6,0-1.1-0.5-1.1-1.1V5.2c0-0.6,0-2.5,7.7-4.7c2-0.7,4.1-0.6,6,0.2c0.5,0.2,1,0.4,1.5,0.5
				c0.6,0.2,0.8,0.9,0.6,1.4c-0.2,0.5-0.8,0.8-1.4,0.6C13.9,3,13.4,2.9,13,2.7C11.5,2.1,9.8,2,8.3,2.5C4.5,3.6,2.5,4.7,2.2,5.2v5.4
				C2.2,11.2,1.7,11.7,1.1,11.7z"/>
			<path id="Path_1169" d="M46.7,11.7c-0.6,0-1.1-0.5-1.1-1.1V5.2c-0.3-0.5-2.3-1.6-6.1-2.7C38,2,36.3,2.1,34.8,2.7
				c-0.5,0.2-0.9,0.3-1.4,0.5c-0.6,0.2-1.2,0-1.4-0.6s0-1.2,0.6-1.4c0,0,0,0,0,0c0.5-0.2,1-0.4,1.5-0.5c1.9-0.8,4-0.9,6-0.2
				c7.7,2.2,7.7,4.1,7.7,4.7v5.4C47.8,11.2,47.3,11.7,46.7,11.7C46.7,11.7,46.7,11.7,46.7,11.7z"/>
		</g>
		<g id="Group_1577" transform="translate(3.678)">
			<path id="Path_1170" d="M6.4,0C2.9,0.1,0,3,0,6.6c-0.1,3.6,2.7,6.7,6.3,6.8c0,0,0.1,0,0.1,0c3.6-0.1,6.4-3,6.4-6.6
				C13,3.2,10.2,0.2,6.5,0C6.5,0,6.5,0,6.4,0z M6.4,11.2C4,11.1,2.1,9.1,2.2,6.7c0,0,0,0,0-0.1c0-2.4,1.9-4.3,4.2-4.4
				c2.4,0.1,4.3,2.1,4.2,4.6c0,0,0,0,0,0.1C10.7,9.2,8.8,11.1,6.4,11.2L6.4,11.2z"/>
			<path id="Path_1171" d="M33.9,0c-3.6,0.2-6.4,3.2-6.3,6.8c-0.1,3.5,2.7,6.5,6.3,6.6c3.5,0.1,6.5-2.7,6.6-6.3c0-0.2,0-0.4,0-0.6
				C40.4,3,37.5,0,33.9,0z M29.8,6.8c-0.2-2.3,1.5-4.4,3.9-4.6S38,3.7,38.2,6c0,0.2,0,0.4,0,0.6c0.2,2.3-1.5,4.4-3.9,4.6
				C32,11.4,30,9.7,29.8,7.4C29.8,7.2,29.8,7,29.8,6.8z"/>
		</g>
	</g>
</g>
</svg>
