<svg xmlns="http://www.w3.org/2000/svg" viewBox="0 0 26.28 23.5"><g id="Laag_2" data-name="Laag 2"><g id="icons"><path d="M13.78,20h-11a.5.5,0,0,1-.5-.5V15a.5.5,0,0,1,1,0v4h10V10A5,5,0,0,0,8.21,5a5.1,5.1,0,0,0-5,4.23.51.51,0,0,1-.58.41.5.5,0,0,1-.41-.58A6.11,6.11,0,0,1,8.21,4a6,6,0,0,1,6.07,6v9.5A.5.5,0,0,1,13.78,20Z"/><path d="M25.78,20H13.28a.5.5,0,0,1,0-1h12V10c0-2.62-2.64-5-5.53-5H8.28a.5.5,0,0,1,0-1H19.75c3.48,0,6.53,2.8,6.53,6v9.5A.5.5,0,0,1,25.78,20Z"/><path d="M19.78,3h-4a.5.5,0,0,1-.5-.5V.5a.5.5,0,0,1,.5-.5h4a.5.5,0,0,1,.5.5v2A.5.5,0,0,1,19.78,3Zm-3.5-1h3V1h-3Z"/><path d="M15.78,10.5a.5.5,0,0,1-.5-.5V2a.5.5,0,0,1,1,0v8A.5.5,0,0,1,15.78,10.5Z"/><path d="M16.78,23.5a.5.5,0,0,1-.5-.5V20h-4v3a.5.5,0,0,1-1,0V19.5a.5.5,0,0,1,.5-.5h5a.5.5,0,0,1,.5.5V23A.5.5,0,0,1,16.78,23.5Z"/><path d="M13.78,18H11.5a.51.51,0,0,1-.47-.32l-3-8a.5.5,0,0,1,.06-.46A.49.49,0,0,1,8.5,9h5.28a.5.5,0,0,1,.5.5v8A.5.5,0,0,1,13.78,18Zm-1.93-1h1.43V10H9.22Z"/><path d="M12.28,18H7.5A.51.51,0,0,1,7,17.68l-3-8a.5.5,0,0,1,.06-.46A.49.49,0,0,1,4.5,9h7.78a.5.5,0,1,1,0,1H5.22l2.63,7h4.43a.5.5,0,1,1,0,1Z"/><path d="M8.28,18H3.5A.51.51,0,0,1,3,17.68l-3-8a.5.5,0,0,1,.06-.46A.49.49,0,0,1,.5,9H8.28a.5.5,0,1,1,0,1H1.22l2.63,7H8.28a.5.5,0,1,1,0,1Z"/></g></g></svg>