<?xml version="1.0" encoding="utf-8"?>
<!-- Generator: Adobe Illustrator 23.0.6, SVG Export Plug-In . SVG Version: 6.00 Build 0)  -->
<svg version="1.1" id="Laag_1" xmlns="http://www.w3.org/2000/svg" xmlns:xlink="http://www.w3.org/1999/xlink" x="0px" y="0px"
	 viewBox="0 0 59.2 59.2" style="enable-background:new 0 0 59.2 59.2;" xml:space="preserve">
<g id="Group_1627" transform="translate(0.003)">
	<path id="Path_1289" d="M52.2,59.2c-7.6,0-20.7-7.9-32.5-19.7C12.5,32.2,6.6,24.4,3.1,17.5C-0.5,10.2-1,4.7,1.8,1.8
		c1.4-1.3,3.2-2,5.1-1.8c7.6,0,20.7,7.9,32.5,19.7C46.7,27,52.6,34.8,56,41.7c3.7,7.3,4.1,12.9,1.3,15.7
		C55.9,58.6,54.1,59.3,52.2,59.2z M6.9,2.6C5.7,2.5,4.6,2.9,3.7,3.7c-1.9,1.9-1.2,6.6,1.8,12.7c3.3,6.6,9,14.2,16.1,21.3
		c11.2,11.2,23.8,19,30.7,19c1.2,0.1,2.4-0.3,3.3-1.1c1.9-1.9,1.2-6.6-1.8-12.7c-3.3-6.6-9-14.2-16.1-21.3
		C26.4,10.4,13.8,2.6,6.9,2.6z"/>
	<path id="Path_1290" d="M6.9,59.2L6.9,59.2c-1.9,0.1-3.7-0.6-5.1-1.8C-1,54.5-0.5,49,3.1,41.7c3.4-6.9,9.3-14.7,16.6-21.9
		C31.5,7.9,44.6,0,52.2,0c1.9-0.1,3.7,0.6,5.1,1.8c2.8,2.8,2.4,8.4-1.3,15.7c-3.4,6.9-9.3,14.7-16.6,21.9
		C27.6,51.3,14.6,59.2,6.9,59.2z M52.2,2.6c-6.9,0-19.5,7.8-30.7,19C14.5,28.6,8.8,36.2,5.4,42.8c-3,6-3.7,10.8-1.8,12.7
		c0.9,0.8,2.1,1.2,3.3,1.1c6.9,0,19.5-7.8,30.7-19c7.1-7.1,12.8-14.6,16.1-21.3c3-6,3.7-10.8,1.8-12.7C54.6,2.9,53.4,2.5,52.2,2.6z"
		/>
	<path id="Path_1291" d="M29.6,34.1c-2.5,0-4.5-2-4.5-4.5c0-2.5,2-4.5,4.5-4.5c2.5,0,4.5,2,4.5,4.5C34,32.1,32,34.1,29.6,34.1z
		 M29.6,27.7c-1,0-1.9,0.8-1.9,1.9s0.8,1.9,1.9,1.9s1.9-0.8,1.9-1.9v0C31.4,28.6,30.6,27.7,29.6,27.7C29.6,27.7,29.6,27.7,29.6,27.7
		z"/>
</g>
</svg>
