<svg id="Group_45" data-name="Group 45" xmlns="http://www.w3.org/2000/svg" width="20.596" height="20.596" viewBox="0 0 20.596 20.596">
  <path id="Path_72" data-name="Path 72" d="M445.583,138.956c2.75,0,3.075.011,4.162.06a5.706,5.706,0,0,1,1.912.355,3.4,3.4,0,0,1,1.954,1.954,5.706,5.706,0,0,1,.355,1.912c.049,1.087.06,1.412.06,4.162s-.011,3.075-.06,4.161a5.708,5.708,0,0,1-.355,1.913,3.4,3.4,0,0,1-1.954,1.954,5.686,5.686,0,0,1-1.912.354c-1.087.049-1.411.06-4.162.06s-3.075-.011-4.161-.06a5.694,5.694,0,0,1-1.913-.354,3.411,3.411,0,0,1-1.954-1.954,5.687,5.687,0,0,1-.354-1.913c-.049-1.086-.06-1.411-.06-4.161s.011-3.075.06-4.162a5.686,5.686,0,0,1,.354-1.912,3.411,3.411,0,0,1,1.954-1.954,5.714,5.714,0,0,1,1.913-.355c1.086-.049,1.411-.06,4.161-.06m0-1.855c-2.8,0-3.147.013-4.246.062a7.565,7.565,0,0,0-2.5.479,5.266,5.266,0,0,0-3.011,3.012,7.539,7.539,0,0,0-.479,2.5c-.05,1.1-.062,1.449-.062,4.246s.012,3.147.062,4.246a7.539,7.539,0,0,0,.479,2.5,5.266,5.266,0,0,0,3.011,3.012,7.592,7.592,0,0,0,2.5.479c1.1.049,1.449.061,4.246.061s3.147-.012,4.246-.061a7.592,7.592,0,0,0,2.5-.479,5.271,5.271,0,0,0,3.012-3.012,7.565,7.565,0,0,0,.479-2.5c.05-1.1.062-1.449.062-4.246s-.012-3.147-.062-4.246a7.565,7.565,0,0,0-.479-2.5,5.271,5.271,0,0,0-3.012-3.012,7.565,7.565,0,0,0-2.5-.479c-1.1-.049-1.449-.062-4.246-.062" transform="translate(-435.286 -137.101)" fill="inherit"/>
  <path id="Path_73" data-name="Path 73" d="M445.65,142.178a5.288,5.288,0,1,0,5.288,5.288,5.288,5.288,0,0,0-5.288-5.288m0,8.72a3.432,3.432,0,1,1,3.432-3.432,3.432,3.432,0,0,1-3.432,3.432" transform="translate(-435.353 -137.168)" fill="inherit"/>
  <path id="Path_74" data-name="Path 74" d="M452.509,141.95a1.236,1.236,0,1,1-1.236-1.236,1.236,1.236,0,0,1,1.236,1.236" transform="translate(-435.479 -137.148)" fill="inherit"/>
</svg>
