<?xml version="1.0" encoding="utf-8"?>
<!-- Generator: Adobe Illustrator 23.1.1, SVG Export Plug-In . SVG Version: 6.00 Build 0)  -->
<svg version="1.1" id="Layer_1" xmlns="http://www.w3.org/2000/svg" xmlns:xlink="http://www.w3.org/1999/xlink" x="0px" y="0px"
	 viewBox="0 0 20.2 20.2" style="enable-background:new 0 0 20.2 20.2;" xml:space="preserve">
<path id="Path_2232" d="M5.9,0C2.6,0,0,2.6,0,5.9v8.4c0,3.3,2.6,5.9,5.9,5.9h8.4c3.3,0,5.9-2.6,5.9-5.9V5.9c0-3.3-2.6-5.9-5.9-5.9
	H5.9z M16,3.4c0.5,0,0.8,0.4,0.8,0.8S16.5,5.1,16,5.1s-0.8-0.4-0.8-0.8C15.1,3.7,15.5,3.4,16,3.4C16,3.4,16,3.4,16,3.4z M10.1,5
	c2.8,0,5,2.3,5,5.1c0,2.8-2.3,5-5.1,5c-2.8,0-5-2.3-5-5C5.1,7.3,7.3,5.1,10.1,5z M10.1,6.7c-1.9,0-3.4,1.5-3.4,3.4
	c0,1.9,1.5,3.4,3.4,3.4c1.9,0,3.4-1.5,3.4-3.4C13.5,8.2,12,6.7,10.1,6.7C10.1,6.7,10.1,6.7,10.1,6.7z"/>
</svg>
