<svg xmlns="http://www.w3.org/2000/svg" viewBox="0 0 48 38"><title>Inzichtelijk</title><g id="Laag_2" data-name="Laag 2"><g id="icons"><path d="M48,27a1,1,0,0,1-1,1H1a1,1,0,0,1-1-1V1A1,1,0,0,1,1,0H47a1,1,0,0,1,1,1ZM2,26H46V2H2Z"/><path d="M36.5,38h-24a1,1,0,0,1,0-2h2.21C16.85,36,18,33.86,18,31.85V28a1,1,0,0,1,2,0v3.85A6.88,6.88,0,0,1,18.64,36H30.27A5.66,5.66,0,0,1,28,31.85V28a1,1,0,0,1,2,0v3.85c0,2,3.11,4.15,5.29,4.15H36.5a1,1,0,0,1,0,2Z"/><path d="M9,23a1,1,0,0,1-1-1V18a1,1,0,0,1,2,0v4A1,1,0,0,1,9,23Z"/><path d="M13,23a1,1,0,0,1-1-1V8a1,1,0,0,1,2,0V22A1,1,0,0,1,13,23Z"/><path d="M17,23a1,1,0,0,1-1-1V14a1,1,0,0,1,2,0v8A1,1,0,0,1,17,23Z"/><path d="M21,23a1,1,0,0,1-1-1V12a1,1,0,0,1,2,0V22A1,1,0,0,1,21,23Z"/><path d="M25,23a1,1,0,0,1-1-1V6a1,1,0,0,1,2,0V22A1,1,0,0,1,25,23Z"/><path d="M36,10.14a1,1,0,0,1-1-1V7.64a1,1,0,0,1,2,0v1.5A1,1,0,0,1,36,10.14Z"/><path d="M36,21a1,1,0,0,1-1-1v-1.5a1,1,0,0,1,2,0V20A1,1,0,0,1,36,21Z"/><path d="M31.83,15h-1.5a1,1,0,0,1,0-2h1.5a1,1,0,0,1,0,2Z"/><path d="M42.66,15h-1.5a1,1,0,0,1,0-2h1.5a1,1,0,0,1,0,2Z"/><path d="M33.2,11.5a1,1,0,0,1-.71-.29l-1.06-1.06a1,1,0,0,1,1.42-1.42l1.06,1.06a1,1,0,0,1,0,1.42A1,1,0,0,1,33.2,11.5Z"/><path d="M40.86,19.16a1,1,0,0,1-.71-.29l-1.06-1.06a1,1,0,0,1,0-1.42,1,1,0,0,1,1.41,0l1.06,1.06a1,1,0,0,1-.7,1.71Z"/><path d="M32.14,19.16a1,1,0,0,1-.71-.29,1,1,0,0,1,0-1.42l1.06-1.06a1,1,0,1,1,1.42,1.42l-1.06,1.06A1,1,0,0,1,32.14,19.16Z"/><path d="M39.8,11.5a1,1,0,0,1-.71-1.71l1.06-1.06a1,1,0,0,1,1.41,0,1,1,0,0,1,0,1.42L40.5,11.21A1,1,0,0,1,39.8,11.5Z"/><path d="M36.5,19.14a5.5,5.5,0,1,1,5.5-5.5A5.51,5.51,0,0,1,36.5,19.14Zm0-9a3.5,3.5,0,1,0,3.5,3.5A3.5,3.5,0,0,0,36.5,10.14Z"/></g></g></svg>