<svg xmlns="http://www.w3.org/2000/svg" viewBox="0 0 24 15"><g id="Laag_2" data-name="Laag 2"><g id="icons"><path d="M23.5,15h-.12l-8-2A.51.51,0,0,1,15,12.5V.5a.49.49,0,0,1,.19-.39A.48.48,0,0,1,15.62,0l8,2A.49.49,0,0,1,24,2.5v12a.53.53,0,0,1-.19.4A.57.57,0,0,1,23.5,15ZM16,12.11l7,1.75v-11L16,1.14Z"/><path d="M7.5,15a.57.57,0,0,1-.31-.1A.53.53,0,0,1,7,14.5V2.5A.49.49,0,0,1,7.38,2l8-2a.48.48,0,0,1,.43.09A.49.49,0,0,1,16,.5v12a.51.51,0,0,1-.38.49l-8,2ZM8,2.89v11l7-1.75v-11Z"/><path d="M7.5,15l-.14,0-7-2A.5.5,0,0,1,0,12.5V.5A.49.49,0,0,1,.2.1.53.53,0,0,1,.64,0l7,2A.5.5,0,0,1,8,2.5v12a.48.48,0,0,1-.2.4A.47.47,0,0,1,7.5,15ZM1,12.12l6,1.72v-11L1,1.16Z"/></g></g></svg>