<svg xmlns="http://www.w3.org/2000/svg" viewBox="0 0 23.89 23.71"><g id="Laag_2" data-name="Laag 2"><g id="icons"><path d="M12,23.71h-.15C4.86,23.71,0,20.15,0,15.06,0,10.45.49,5.07,4.13.2A.5.5,0,0,1,4.82.09c.31.23.64.45,1,.68,2,1.37,4,2.77,4.36,4.61a16.55,16.55,0,0,1,4.1,0C14.58,3.47,16.62,2,18.6.65l.73-.51a.51.51,0,0,1,.7.11c3.86,5.18,3.86,11,3.86,14.81C23.89,20.15,19,23.71,12,23.71ZM4.64,1.19C1.44,5.73,1,10.74,1,15.06c0,4.5,4.45,7.65,10.82,7.65H12c6.43,0,10.92-3.15,10.92-7.65,0-3.6,0-9-3.38-13.82l-.33.23c-2,1.37-4,2.79-4,4.45a.54.54,0,0,1-.17.39.56.56,0,0,1-.39.13,17.42,17.42,0,0,0-4.89,0,.51.51,0,0,1-.39-.12.53.53,0,0,1-.16-.38c0-1.58-2-3-4-4.32Z"/><path d="M7.58,13.29a1.53,1.53,0,1,1,1.54-1.52A1.53,1.53,0,0,1,7.58,13.29Zm0-2a.54.54,0,0,0-.55.53.55.55,0,0,0,1.09,0A.54.54,0,0,0,7.58,11.24Z"/><path d="M16.13,13.29a1.53,1.53,0,1,1,1.55-1.52A1.53,1.53,0,0,1,16.13,13.29Zm0-2a.54.54,0,0,0-.55.53.53.53,0,0,0,.55.52.54.54,0,0,0,.55-.52A.54.54,0,0,0,16.13,11.24Z"/><path d="M11.47,17.34a.48.48,0,0,1-.37-.17L8.77,14.54A.51.51,0,0,1,8.69,14a.5.5,0,0,1,.46-.29h4.52a.5.5,0,0,1,.38.82l-2.19,2.63a.51.51,0,0,1-.38.18Zm-1.21-2.63,1.2,1.36,1.14-1.36Z"/><path d="M11.7,20.21a.5.5,0,0,1-.5-.5v-3a.5.5,0,0,1,.5-.5.5.5,0,0,1,.5.5v3A.51.51,0,0,1,11.7,20.21Z"/><path d="M14,16.31a.49.49,0,0,1-.49-.41.51.51,0,0,1,.4-.59l5.27-1a.5.5,0,1,1,.19,1l-5.28,1Z"/><path d="M14,18.36a.5.5,0,0,1-.09-1l5.27-1a.5.5,0,0,1,.59.4.51.51,0,0,1-.4.59l-5.28,1Z"/><path d="M8.82,16.31H8.73l-5.28-1a.5.5,0,0,1,.18-1l5.28,1a.5.5,0,0,1-.09,1Z"/><path d="M8.82,18.36H8.73l-5.28-1a.51.51,0,0,1-.4-.59.5.5,0,0,1,.58-.4l5.28,1a.5.5,0,0,1,.4.58A.51.51,0,0,1,8.82,18.36Z"/></g></g></svg>