<svg xmlns="http://www.w3.org/2000/svg" viewBox="0 0 22 24"><g id="Laag_2" data-name="Laag 2"><g id="icons"><path d="M2.5,14a.48.48,0,0,1-.39-.19l-2-2.48A.51.51,0,0,1,0,11V4.17A4.4,4.4,0,0,1,4.5,0,4.51,4.51,0,0,1,9,4.28V6A.5.5,0,0,1,8,6V4.28A3.53,3.53,0,0,0,4.5,1,3.44,3.44,0,0,0,1,4.17v6.67l1.89,2.35a.5.5,0,0,1-.08.7A.51.51,0,0,1,2.5,14Z"/><path d="M7.67,13.83a.5.5,0,0,1-.32-.89L10,10.78V6.6A1.29,1.29,0,0,0,8.7,5.44a.5.5,0,0,1-.5-.5.5.5,0,0,1,.5-.5A2.3,2.3,0,0,1,11,6.6V11a.49.49,0,0,1-.18.38L8,13.71A.47.47,0,0,1,7.67,13.83Z"/><path d="M8.5,17h-7a.5.5,0,0,1-.5-.5v-3a.5.5,0,0,1,.5-.5h7a.5.5,0,0,1,.5.5v3A.5.5,0,0,1,8.5,17ZM2,16H8V14H2Z"/><path d="M19.5,21a.51.51,0,0,1-.31-.11.5.5,0,0,1-.08-.7L21,17.84V11.17A3.44,3.44,0,0,0,17.5,8,3.53,3.53,0,0,0,14,11.28V13a.5.5,0,0,1-1,0V11.28A4.51,4.51,0,0,1,17.5,7,4.4,4.4,0,0,1,22,11.17V18a.51.51,0,0,1-.11.31l-2,2.48A.48.48,0,0,1,19.5,21Z"/><path d="M14.19,20.83a.49.49,0,0,1-.32-.12l-2.7-2.31A.52.52,0,0,1,11,18V13.6a2,2,0,0,1,2-2.16.5.5,0,0,1,.5.5.5.5,0,0,1-.5.5,1.06,1.06,0,0,0-1,1.16v4.19L14.52,20a.5.5,0,0,1-.33.88Z"/><path d="M20.5,24h-7a.5.5,0,0,1-.5-.5v-3a.5.5,0,0,1,.5-.5h7a.5.5,0,0,1,.5.5v3A.5.5,0,0,1,20.5,24ZM14,23h6V21H14Z"/></g></g></svg>