<?xml version="1.0" encoding="utf-8"?>
<!-- Generator: Adobe Illustrator 23.0.6, SVG Export Plug-In . SVG Version: 6.00 Build 0)  -->
<svg version="1.1" id="Group_1689" xmlns="http://www.w3.org/2000/svg" xmlns:xlink="http://www.w3.org/1999/xlink" x="0px" y="0px"
	 viewBox="0 0 47.9 45.5" style="enable-background:new 0 0 47.9 45.5;" xml:space="preserve">
<g id="Path_1299">
	<g>
		<path d="M23,35.5h-0.3c-3.9,0-7.5-3.5-7.9-7.6c-1.9-0.9-3.2-2.8-3.3-4.9v-2c0.1-1.2,0.9-2.3,2-2.8v-2.6c0-3.5,1.9-5.8,4.8-5.9
			c0.5-0.2,1.1-0.4,1.7-0.6c2-0.9,4.1-1.4,6.2-1.6c3.5,0,5.2,2.5,5.2,7.5v3.4c1.1,0.4,1.9,1.4,2,2.6v2c0,1.7-1.2,4.2-3.1,4.9
			C30,31.7,27.1,35.5,23,35.5z M26.2,9.4c-1.9,0.2-3.8,0.7-5.6,1.5c-0.6,0.2-1.3,0.5-1.9,0.7c-0.1,0-0.2,0.1-0.3,0.1
			c-2.2,0-3,2-3,3.9V19c0,0.6-0.4,1-1,1c-0.5,0-1,0.5-1,1v2c0,1.3,1.3,3.1,2.3,3.1c0.6,0,1,0.4,1,1c0,3.3,2.9,6.5,6,6.5H23
			c3.2,0,5.4-3.4,5.4-6.5c0-0.6,0.4-1,1-1c1,0,2-1.8,2-3.1v-2c0-0.2-0.8-0.8-1.4-1.1c-0.4-0.2-0.6-0.5-0.6-0.9v-4
			C29.4,9.4,27.2,9.4,26.2,9.4z"/>
	</g>
</g>
<g id="Path_1300">
	<g>
		<path d="M40,45.5H6c-0.6,0-1-0.4-1-1c-0.1-6,4.6-11,10.6-11.1c0.2,0,0.3,0,0.5,0c0.6,0,1,0.4,1,1s-0.4,1-1,1
			c-4.7-0.1-8.6,3.5-9,8.1h32c-0.4-4.7-4.3-8.3-9-8.3c-0.6,0-1-0.4-1-1s0.4-1,1-1c6.1,0,11.1,4.9,11.1,11c0,0.1,0,0.2,0,0.2
			C41,45,40.6,45.5,40,45.5C40.1,45.5,40.1,45.5,40,45.5z"/>
	</g>
</g>
<g id="Path_1301">
	<g>
		<path d="M1,20c-0.6,0-1-0.4-1-1c0-3.3,2.7-6,6-6c0.6,0,1,0.4,1,1s-0.4,1-1,1c-2.2,0-4,1.8-4,4C2,19.5,1.6,20,1,20z"/>
	</g>
</g>
<g id="Path_1302">
	<g>
		<path d="M0,22"/>
	</g>
</g>
<g id="Path_1303">
	<g>
		<path d="M46.9,20c-0.6,0-1-0.4-1-1c0-2.2-1.8-4-4-4c-0.6,0-1-0.4-1-1s0.4-1,1-1c3.3,0,6,2.7,6,6C47.9,19.5,47.5,20,46.9,20z"/>
	</g>
</g>
<g id="Path_1304">
	<g>
		<path d="M47.9,20"/>
	</g>
</g>
<g id="Path_1305">
	<g>
		<path d="M23,35.5h-0.3c-3.9,0-7.5-3.5-7.9-7.6c-1.9-0.9-3.2-2.8-3.3-4.9v-2c0.1-1.2,0.9-2.3,2-2.8v-2.6c0-3.5,1.9-5.8,4.8-5.9
			c0.5-0.2,1.1-0.4,1.7-0.6c2-0.9,4.1-1.4,6.2-1.6c3.5,0,5.2,2.5,5.2,7.5v3.4c1.1,0.4,1.9,1.4,2,2.6v2c0,1.7-1.2,4.2-3.1,4.9
			C30,31.7,27.1,35.5,23,35.5z M26.2,9.4c-1.9,0.2-3.8,0.7-5.6,1.5c-0.6,0.2-1.3,0.5-1.9,0.7c-0.1,0-0.2,0.1-0.3,0.1
			c-2.2,0-3,2-3,3.9V19c0,0.6-0.4,1-1,1c-0.5,0-1,0.5-1,1v2c0,1.3,1.3,3.1,2.3,3.1c0.6,0,1,0.4,1,1c0,3.3,2.9,6.5,6,6.5H23
			c3.2,0,5.4-3.4,5.4-6.5c0-0.6,0.4-1,1-1c1,0,2-1.8,2-3.1v-2c0-0.2-0.8-0.8-1.4-1.1c-0.4-0.2-0.6-0.5-0.6-0.9v-4
			C29.4,9.4,27.2,9.4,26.2,9.4z"/>
	</g>
</g>
<g id="Path_1306">
	<g>
		<path d="M40,45.5H6c-0.6,0-1-0.4-1-1c-0.1-6,4.6-11,10.6-11.1c0.2,0,0.3,0,0.5,0c0.6,0,1,0.4,1,1s-0.4,1-1,1
			c-4.7-0.1-8.6,3.5-9,8.1h32c-0.4-4.7-4.3-8.3-9-8.3c-0.6,0-1-0.4-1-1s0.4-1,1-1c6.1,0,11.1,4.9,11.1,11c0,0.1,0,0.2,0,0.2
			C41,45,40.6,45.5,40,45.5C40.1,45.5,40.1,45.5,40,45.5z"/>
	</g>
</g>
<g id="Path_1307">
	<g>
		<path d="M1,20c-0.6,0-1-0.4-1-1c0-3.3,2.7-6,6-6c0.6,0,1,0.4,1,1s-0.4,1-1,1c-2.2,0-4,1.8-4,4C2,19.5,1.6,20,1,20z"/>
	</g>
</g>
<g id="Path_1308">
	<g>
		<path d="M0,22"/>
	</g>
</g>
<g id="Path_1309">
	<g>
		<path d="M46.9,20c-0.6,0-1-0.4-1-1c0-2.2-1.8-4-4-4c-0.6,0-1-0.4-1-1s0.4-1,1-1c3.3,0,6,2.7,6,6C47.9,19.5,47.5,20,46.9,20z"/>
	</g>
</g>
<g id="Path_1310">
	<g>
		<path d="M47.9,20"/>
	</g>
</g>
<g id="Path_1311">
	<g>
		<path d="M10,14c-3.2,0-5-6.8-5-9c0-2.8,2.2-5,5-5s5,2.2,5,5C15,7.2,13.2,14,10,14z M10,2C8.3,2,7,3.3,7,5c0,2.3,1.8,7,3,7
			s3-4.6,3-7C13,3.3,11.6,2,10,2z"/>
	</g>
</g>
<g id="Path_1312">
	<g>
		<path d="M38,14c-3.2,0-5-6.8-5-9c0-2.8,2.2-5,5-5s5,2.2,5,5C42.9,7.2,41.2,14,38,14z M38,2c-1.7,0-3,1.3-3,3c0,2.3,1.8,7,3,7
			s3-4.6,3-7C41,3.3,39.6,2,38,2z"/>
	</g>
</g>
</svg>
