<svg xmlns="http://www.w3.org/2000/svg" viewBox="0 0 24 16"><g id="Laag_2" data-name="Laag 2"><g id="icons"><path d="M23.5,16H.5a.5.5,0,0,1-.5-.5V2.5A.5.5,0,0,1,.5,2h23a.5.5,0,0,1,.5.5v13A.5.5,0,0,1,23.5,16ZM1,15H23V3H1Z"/><path d="M14.5,3h-5A.5.5,0,0,1,9,2.5V.5A.5.5,0,0,1,9.5,0h5a.5.5,0,0,1,.5.5v2A.5.5,0,0,1,14.5,3ZM10,2h4V1H10Z"/><path d="M3.5,15.5A.5.5,0,0,1,3,15V3A.5.5,0,0,1,4,3V15A.5.5,0,0,1,3.5,15.5Z"/><path d="M6.5,15.5A.5.5,0,0,1,6,15V3A.5.5,0,0,1,7,3V15A.5.5,0,0,1,6.5,15.5Z"/><path d="M17.5,15.5A.5.5,0,0,1,17,15V3a.5.5,0,0,1,1,0V15A.5.5,0,0,1,17.5,15.5Z"/><path d="M20.5,15.5A.5.5,0,0,1,20,15V3a.5.5,0,0,1,1,0V15A.5.5,0,0,1,20.5,15.5Z"/><path d="M6,2H4A.5.5,0,0,1,4,1H6A.5.5,0,0,1,6,2Z"/><path d="M20,2H18a.5.5,0,0,1,0-1h2a.5.5,0,0,1,0,1Z"/></g></g></svg>