<svg xmlns="http://www.w3.org/2000/svg" viewBox="0 0 23.27 22.7"><g id="Laag_2" data-name="Laag 2"><g id="icons"><path d="M17.47,22.7h-11a.5.5,0,0,1-.5-.5V13.7c-3.46,0-6-2.3-6-5.46S2.53,2.77,6,2.77a4,4,0,0,1,.5,0,6,6,0,0,1,10.14,0,5.09,5.09,0,0,1,.54,0,6.05,6.05,0,0,1,6.09,6,5.86,5.86,0,0,1-5.3,6V22.2A.5.5,0,0,1,17.47,22.7ZM7,21.7H17V14.27a.51.51,0,0,1,.5-.5,4.85,4.85,0,0,0,4.8-5,5,5,0,0,0-5.09-5,5.65,5.65,0,0,0-.73.07.5.5,0,0,1-.51-.25,5,5,0,0,0-8.74,0,.5.5,0,0,1-.51.25A4.87,4.87,0,0,0,6,3.77c-2.94,0-5,1.84-5,4.47S3.06,12.7,6,12.7h.47a.5.5,0,0,1,.5.5Z"/><path d="M20.34,9.27a.5.5,0,0,1-.5-.5A2.82,2.82,0,0,0,17,5.9a.51.51,0,0,1-.5-.5.5.5,0,0,1,.5-.5,3.81,3.81,0,0,1,3.82,3.87A.5.5,0,0,1,20.34,9.27Z"/><path d="M17,19.7H7a.5.5,0,1,1,0-1H17a.5.5,0,0,1,0,1Z"/><path d="M15.47,18.2a.5.5,0,0,1-.5-.5v-2a.5.5,0,0,1,.5-.5.5.5,0,0,1,.5.5v2A.5.5,0,0,1,15.47,18.2Z"/></g></g></svg>