<?xml version="1.0" encoding="utf-8"?>
<!-- Generator: Adobe Illustrator 23.0.6, SVG Export Plug-In . SVG Version: 6.00 Build 0)  -->
<svg version="1.1" id="Laag_1" xmlns="http://www.w3.org/2000/svg" xmlns:xlink="http://www.w3.org/1999/xlink" x="0px" y="0px"
	 viewBox="0 0 43.5 36.5" style="enable-background:new 0 0 43.5 36.5;" xml:space="preserve">
<g id="Group_4344" transform="translate(-1003 -4808)">
	<g id="Rectangle_2669">
		<path d="M1013,4842h-9c-0.6,0-1-0.4-1-1v-16c0-0.6,0.4-1,1-1h9c0.6,0,1,0.4,1,1v16C1014,4841.6,1013.6,4842,1013,4842z M1005,4840
			h7v-14h-7V4840z"/>
	</g>
	<g id="Path_3011">
		<path d="M1028.1,4844.5c-3.1,0-6.9-1.8-10-3.3c-1.8-0.9-3.7-1.7-4.4-1.7c-0.6,0-1-0.4-1-1s0.4-1,1-1c1.2,0,3,0.8,5.3,1.9
			c2.9,1.4,6.5,3.1,9.1,3.1c5.2,0,16.4-6.6,16.4-8.4c0-1.5-0.6-2.1-2-2.1c-0.4,0-1.7,1-2.5,1.7c-2,1.6-4.2,3.5-6.4,2.8
			c-0.5-0.1-0.8-0.6-0.7-1.1c0.1-0.7-0.1-1-0.2-1.2c-0.9-1.1-4.1-0.9-5.6-0.9c-0.4,0-0.7,0-1,0c-1,0-1.9-0.5-2.8-1.2
			c-1.8-1.1-4.2-2.7-9.2-2.7c-0.6,0-1-0.5-1-1c0-0.6,0.5-1,1-1c5.6,0.1,8.4,1.9,10.2,3.1c0.8,0.5,1.4,0.9,1.8,0.9c0.2,0,0.5,0,0.9,0
			c2.2-0.1,5.6-0.2,7.2,1.6c0.3,0.4,0.7,0.9,0.7,1.7c1.1-0.3,2.6-1.5,3.8-2.5c1.5-1.2,2.7-2.2,3.8-2.2c2.5,0,4,1.5,4,4.1
			c0,2.4-4.6,5.2-7.3,6.7C1035.8,4842.6,1031.2,4844.5,1028.1,4844.5z"/>
	</g>
	<g id="Line_677">
		<path d="M1034,4837h-13c-0.6,0-1-0.4-1-1s0.4-1,1-1h13c0.6,0,1,0.4,1,1S1034.6,4837,1034,4837z"/>
	</g>
	<g id="Path_3012">
		<path d="M1036.3,4813.6h-5.4c-1.5,0-2.8-1.3-2.8-2.8c0-1.5,1.3-2.8,2.8-2.8h5.4c1.5,0,2.8,1.3,2.8,2.8
			S1037.8,4813.6,1036.3,4813.6z M1030.9,4810c-0.4,0-0.8,0.4-0.8,0.8c0,0.4,0.4,0.8,0.8,0.8h5.4c0.4,0,0.8-0.4,0.8-0.8
			s-0.4-0.8-0.8-0.8H1030.9z"/>
	</g>
	<g id="Path_3013">
		<path d="M1027.3,4820.8h-5.4c-1.5,0-2.8-1.3-2.8-2.8c0-1.5,1.3-2.8,2.8-2.8h5.4c1.5,0,2.8,1.3,2.8,2.8
			S1028.8,4820.8,1027.3,4820.8z M1021.9,4817.2c-0.4,0-0.8,0.4-0.8,0.8c0,0.4,0.4,0.8,0.8,0.8h5.4c0.4,0,0.8-0.4,0.8-0.8
			s-0.4-0.8-0.8-0.8H1021.9z"/>
	</g>
	<g id="Path_3014">
		<path d="M1036.3,4827.9h-5.4c-1.5,0-2.8-1.3-2.8-2.8c0-1.5,1.3-2.8,2.8-2.8h5.4c1.5,0,2.8,1.3,2.8,2.8
			S1037.8,4827.9,1036.3,4827.9z M1030.9,4824.3c-0.4,0-0.8,0.4-0.8,0.8c0,0.4,0.4,0.8,0.8,0.8h5.4c0.4,0,0.8-0.4,0.8-0.8
			s-0.4-0.8-0.8-0.8H1030.9z"/>
	</g>
</g>
</svg>
