<svg xmlns="http://www.w3.org/2000/svg" viewBox="0 0 24 19.12"><g id="Laag_2" data-name="Laag 2"><g id="icons"><path d="M22.72,17H1.5a.5.5,0,0,1-.5-.5V4A.5.5,0,0,1,2,4V16H22.21c-.05-1.47-.44-3-2.64-3.52-1.07-.26-2-.46-2.86-.64A25.67,25.67,0,0,1,9.44,9.45l-.13-.1C8.11,8.15,7.86,4.82,7.86,4a.5.5,0,0,1,1,0c0,1.22.37,3.76,1.11,4.59a24.86,24.86,0,0,0,7,2.27c.87.19,1.81.38,2.89.66,3.41.85,3.41,3.74,3.41,5A.5.5,0,0,1,22.72,17Z"/><path d="M8.72,10.5a.47.47,0,0,1-.35-.15.48.48,0,0,1,0-.7l.87-.88a.5.5,0,0,1,.71.71l-.88.87A.47.47,0,0,1,8.72,10.5Z"/><path d="M10.72,11.5a.47.47,0,0,1-.35-.15.48.48,0,0,1,0-.7l1-1a.49.49,0,0,1,.7.7l-1,1A.47.47,0,0,1,10.72,11.5Z"/><path d="M12.72,12.5a.47.47,0,0,1-.35-.15.48.48,0,0,1,0-.7l1-1a.49.49,0,0,1,.7.7l-1,1A.47.47,0,0,1,12.72,12.5Z"/><path d="M9.5,4H.5A.5.5,0,0,1,0,3.5V.5A.5.5,0,0,1,.5,0h9a.5.5,0,0,1,.5.5v3A.5.5,0,0,1,9.5,4ZM1,3H9V1H1Z"/><path d="M9,8H8A.5.5,0,0,1,8,7H9A.5.5,0,0,1,9,8Z"/><path d="M23.5,19.12c-7.09,0-9.38-.57-11.22-1A16.42,16.42,0,0,0,8,17.5v1a.5.5,0,0,1-.5.5H.5a.5.5,0,0,1-.5-.5v-2A.5.5,0,0,1,.5,16H2a.5.5,0,0,1,0,1H1v1H7V17a.5.5,0,0,1,.5-.5,17.43,17.43,0,0,1,5,.62c1.75.44,3.9,1,10.48,1V17H22a.5.5,0,0,1,0-1h1.5a.5.5,0,0,1,.5.5v2.12A.5.5,0,0,1,23.5,19.12Z"/><path d="M8,6H7A.5.5,0,0,1,7,5H8A.5.5,0,0,1,8,6Z"/></g></g></svg>