<?xml version="1.0" encoding="utf-8"?>
<!-- Generator: Adobe Illustrator 23.0.6, SVG Export Plug-In . SVG Version: 6.00 Build 0)  -->
<svg version="1.1" id="Laag_1" xmlns="http://www.w3.org/2000/svg" xmlns:xlink="http://www.w3.org/1999/xlink" x="0px" y="0px"
	 viewBox="0 0 36 36" style="enable-background:new 0 0 36 36;" xml:space="preserve">
<g id="Group_2396" transform="translate(1 1)">
	<g id="Path_1736">
		<path d="M17,35C7.1,35-1,26.9-1,17C-1,7.1,7.1-1,17-1c9.9,0,18,8.1,18,18C35,26.9,26.9,35,17,35z M17,1C8.2,1,1,8.2,1,17
			s7.2,16,16,16s16-7.2,16-16S25.8,1,17,1z"/>
	</g>
	<g id="Group_2393" transform="translate(16.558 1.085)">
		<g id="Line_411">
			<path d="M0,4.1c-0.6,0-1-0.4-1-1V0c0-0.6,0.4-1,1-1s1,0.4,1,1v3.1C1,3.6,0.6,4.1,0,4.1z"/>
		</g>
		<g id="Line_412">
			<path d="M0,33.5c-0.6,0-1-0.4-1-1v-3.1c0-0.6,0.4-1,1-1s1,0.4,1,1v3.1C1,33,0.6,33.5,0,33.5z"/>
		</g>
	</g>
	<g id="Group_2394" transform="translate(1.103 17.313)">
		<g id="Line_413">
			<path d="M3.1,1H0c-0.6,0-1-0.4-1-1s0.4-1,1-1h3.1c0.6,0,1,0.4,1,1S3.6,1,3.1,1z"/>
		</g>
		<g id="Line_414">
			<path d="M32.5,1h-3.1c-0.6,0-1-0.4-1-1s0.4-1,1-1h3.1c0.6,0,1,0.4,1,1S33,1,32.5,1z"/>
		</g>
	</g>
	<g id="Group_2395" transform="translate(8.83 7.18)">
		<g id="Path_1737">
			<path d="M8.1,16.1c-4.1,0-7-6.5-7-10.1c0-3.9,3.1-7,7-7s7,3.1,7,7h0C15.1,9.5,12.2,16.1,8.1,16.1z M8.1,1c-2.8,0-5,2.2-5,5
				c0,3,2.5,8.1,5,8.1c2.5,0,5-5.1,5-8.1C13.1,3.2,10.9,1,8.1,1z"/>
		</g>
		<g id="Path_1738">
			<path d="M0,21.2c-0.6,0-1-0.4-1-1V18c0-2.5,2.7-4.3,5.1-4.3h2c0.6,0,1,0.4,1,1s-0.4,1-1,1h-2c-1.5,0-3.1,1-3.1,2.3v2.1
				C1,20.7,0.6,21.2,0,21.2z"/>
		</g>
		<g id="Path_1739">
			<path d="M15.5,21.2c-0.6,0-1-0.4-1-1V18c0-2.1-0.7-2.3-1.6-2.3h-2.1c-0.6,0-1-0.4-1-1s0.4-1,1-1h2.1c1.6,0,3.6,0.7,3.6,4.3v2.1
				C16.5,20.7,16,21.2,15.5,21.2z"/>
		</g>
	</g>
</g>
</svg>
