<svg xmlns="http://www.w3.org/2000/svg" viewBox="0 0 22.3 19.5"><g id="Laag_2" data-name="Laag 2"><g id="icons"><path d="M.5,19.5a.52.52,0,0,1-.21,0,.5.5,0,0,1-.24-.67L8.48.29A.5.5,0,0,1,9.43.4l3.89,18.5a.49.49,0,0,1-.38.59.51.51,0,0,1-.6-.39l-3.58-17L1,19.21A.52.52,0,0,1,.5,19.5Z"/><path d="M11.68,14.25h-8a.5.5,0,1,1,0-1h8a.5.5,0,0,1,0,1Z"/><path d="M20.85,18.27h-.07a.5.5,0,0,1-.43-.57l.91-6.16a3.06,3.06,0,0,0-.58-2.44A2.17,2.17,0,0,0,19,8.4a2.54,2.54,0,0,0-1.78.75.5.5,0,0,1-.62-.79,3.56,3.56,0,0,1,2.4-1,3.2,3.2,0,0,1,2.46,1,4.06,4.06,0,0,1,.82,3.23l-.91,6.18A.5.5,0,0,1,20.85,18.27Z"/><path d="M17.9,19.26a2.93,2.93,0,0,1-2.31-.71,2.59,2.59,0,0,1-.45-2.11,6.62,6.62,0,0,1,6.62-5.16.53.53,0,0,1,.38.18.49.49,0,0,1,.11.39l-1,7a.51.51,0,0,1-.5.43Zm3.28-7a5.51,5.51,0,0,0-5,4.25,1.74,1.74,0,0,0,.2,1.33,2.18,2.18,0,0,0,1.56.37h2.44Z"/></g></g></svg>