<svg width="18" height="20" viewBox="0 0 18 20" fill="none" xmlns="http://www.w3.org/2000/svg">
<g clip-path="url(#clip0_142_590)">
<path d="M11.3684 13.0619V17.3476H6.63159V13.0619" stroke="black" stroke-width="1.2" stroke-linecap="round" stroke-linejoin="round"/>
<path d="M11.3684 17.1429C11.3684 18.4571 10.3074 19.5238 9.00001 19.5238C7.69264 19.5238 6.63159 18.4571 6.63159 17.1429" stroke="black" stroke-width="1.2" stroke-linecap="round" stroke-linejoin="round"/>
<path d="M3.48157 0.476196L4.42894 1.42858" stroke="black" stroke-width="1.2" stroke-linecap="round" stroke-linejoin="round"/>
<path d="M13.9026 1.42858L14.85 0.476196" stroke="black" stroke-width="1.2" stroke-linecap="round" stroke-linejoin="round"/>
<path d="M3.48157 12.8571L4.42894 11.9048" stroke="black" stroke-width="1.2" stroke-linecap="round" stroke-linejoin="round"/>
<path d="M13.9026 11.9048L14.85 12.8571" stroke="black" stroke-width="1.2" stroke-linecap="round" stroke-linejoin="round"/>
<path d="M0.473694 6.87143H1.42106" stroke="black" stroke-width="1.2" stroke-linecap="round" stroke-linejoin="round"/>
<path d="M16.5789 6.87143H17.5263" stroke="black" stroke-width="1.2" stroke-linecap="round" stroke-linejoin="round"/>
<path d="M13.1874 2.62858C10.9658 0.395249 7.36579 0.395249 5.14894 2.62858C2.92736 4.85715 2.8421 8.4762 5.06368 10.7095C5.55631 11.2 6.15789 11.5667 6.63157 11.8429V13.5381H11.3684V11.8429C11.8421 11.5667 12.6095 11.2 13.1021 10.7095C15.3237 8.4762 15.4042 4.86192 13.1874 2.62858Z" stroke="black" stroke-width="1.2" stroke-linecap="round" stroke-linejoin="round"/>
<path d="M6.48946 9.36191C5.7742 8.64286 5.38104 7.68572 5.38104 6.66667C5.38104 5.64763 5.7742 4.69048 6.48946 3.97144" stroke="black" stroke-width="1.2" stroke-linecap="round" stroke-linejoin="round"/>
<path d="M6.79736 13.3333L11.3684 15.6572" stroke="black" stroke-width="1.2" stroke-linecap="round" stroke-linejoin="round"/>
<path d="M6.79736 15.2381L10.6863 17.1429" stroke="black" stroke-width="1.2" stroke-linecap="round" stroke-linejoin="round"/>
</g>
<defs>
<clipPath id="clip0_142_590">
<rect width="18" height="20" fill="white"/>
</clipPath>
</defs>
</svg>
