<svg id="Group_1671" data-name="Group 1671" xmlns="http://www.w3.org/2000/svg" xmlns:xlink="http://www.w3.org/1999/xlink" width="20.367" height="20.376" viewBox="0 0 20.367 20.376">
  <g id="Group_39" data-name="Group 39">
    <rect id="Rectangle_161" data-name="Rectangle 161" width="4.205" height="13.584" transform="translate(0.404 6.792)" fill="inherit"/>
    <path id="Path_66" data-name="Path 66" d="M328.361,195.869a2.506,2.506,0,1,0-2.487-2.507A2.5,2.5,0,0,0,328.361,195.869Z" transform="translate(-325.874 -190.857)" fill="inherit"/>
  </g>
  <path id="Path_67" data-name="Path 67" d="M336.743,203.7c0-1.909.879-3.047,2.561-3.047,1.547,0,2.29,1.092,2.29,3.047v7.131h4.185v-8.6c0-3.638-2.063-5.4-4.943-5.4a4.735,4.735,0,0,0-4.093,2.244v-1.829h-4.034v13.583h4.034Z" transform="translate(-325.412 -190.453)" fill="inherit"/>
</svg>
