<?xml version="1.0" encoding="utf-8"?>
<!-- Generator: Adobe Illustrator 23.0.6, SVG Export Plug-In . SVG Version: 6.00 Build 0)  -->
<svg version="1.1" id="Laag_1" xmlns="http://www.w3.org/2000/svg" xmlns:xlink="http://www.w3.org/1999/xlink" x="0px" y="0px"
	 viewBox="0 0 80.2 65" style="enable-background:new 0 0 80.2 65;" xml:space="preserve">
<g id="Group_1626" transform="translate(0.003)">
	<path id="Path_1285" d="M13.8,25.8c-0.2,0-0.5-0.1-0.7-0.2C2.1,19.3-0.1,13.4,0,9.4C0.1,6,1.9,2.8,4.8,1C6,0.4,7.3,0,8.6,0
		c2.1,0,4,1.1,5.1,2.8c1.1-1.8,3-2.8,5.1-2.8c1.3,0,2.6,0.4,3.8,1c2.9,1.8,4.7,5,4.8,8.4c0.1,3.9-2.1,9.9-13.1,16.2
		C14.2,25.7,14,25.8,13.8,25.8z M8.6,2.8C7.7,2.8,6.9,3,6.1,3.5c-2,1.4-3.2,3.6-3.3,6c-0.1,4.4,3.7,9,11,13.3
		c7.3-4.3,11.1-8.9,11-13.3c-0.1-2.4-1.3-4.7-3.3-6c-0.8-0.4-1.7-0.7-2.6-0.7c-2.6,0-3.7,2.7-3.7,4.7c0,0.8-0.6,1.4-1.3,1.4
		c-0.8,0-1.4-0.6-1.4-1.3c0,0,0,0,0-0.1C12.4,5.5,11.2,2.8,8.6,2.8z"/>
	<path id="Path_1286" d="M46.9,53.5c-7.9,0-12.3-8.5-12.7-16.8c-2-0.5-4.5-1.9-4.5-4v-5.5c0.1-1.6,1.2-3.1,2.8-3.6v-4.7
		c0-5.2,2.8-8.2,7.9-8.3c4.2-2.9,8.3-4.4,11.8-4.4c3.1-0.2,6.1,1.3,7.9,4c1.6,2.5,1.5,5.9,0.2,9v4c2.8,0.5,2.8,2.8,2.8,4v5.5
		c0,2-2,3.5-3.8,4C58.8,45,54.9,53.5,46.9,53.5z M52.2,9c-2.1,0-5.7,0.7-10.6,4.1c-0.2,0.2-0.5,0.3-0.8,0.2c-3.8,0-5.5,1.7-5.5,5.5
		v5.5c0,0.5-0.3,1-0.8,1.3c-1,0.4-2,1.2-2,1.5v5.5c0,0.4,1.8,1.4,3,1.4c0.8,0,1.4,0.6,1.4,1.4c0,7.4,3.5,15.3,10,15.3
		c6.5,0,9.5-7.9,9.5-15.3c0-0.8,0.6-1.4,1.4-1.4c1.1,0,2.4-0.9,2.4-1.4v-5.5c0-1.4,0-1.4-1.4-1.4c-0.8,0-1.4-0.6-1.4-1.4v-5.5
		c0-0.2,0.1-0.4,0.2-0.6c1.2-2,1.3-4.6,0.1-6.7C56.5,9.8,54.4,8.8,52.2,9z"/>
	<path id="Path_1287" d="M15.1,65c-0.8,0-1.4-0.6-1.4-1.4c0-8,6.3-13.5,15.3-13.5h3.4l3.7-5.7c0.4-0.7,1.2-0.9,1.9-0.5
		c0.7,0.4,0.9,1.2,0.5,1.9c0,0,0,0.1-0.1,0.1l-4.1,6.3c-0.3,0.4-0.7,0.6-1.2,0.6H29c-6.2,0-12.5,3.3-12.5,10.7
		C16.5,64.3,15.9,65,15.1,65C15.2,65,15.2,65,15.1,65z"/>
	<path id="Path_1288" d="M78.9,65c-0.8,0-1.4-0.6-1.4-1.4c0-7.4-6.3-10.7-12.5-10.7h-4.2c-0.5,0-0.9-0.2-1.2-0.6l-4.1-6.3
		c-0.4-0.7-0.2-1.5,0.5-1.9c0.6-0.4,1.4-0.2,1.8,0.4l3.7,5.7H65c9,0,15.3,5.6,15.3,13.5C80.3,64.4,79.7,65,78.9,65
		C78.9,65,78.9,65,78.9,65z"/>
</g>
</svg>
