<?xml version="1.0" encoding="utf-8"?>
<!-- Generator: Adobe Illustrator 23.0.6, SVG Export Plug-In . SVG Version: 6.00 Build 0)  -->
<svg version="1.1" id="Laag_1" xmlns="http://www.w3.org/2000/svg" xmlns:xlink="http://www.w3.org/1999/xlink" x="0px" y="0px"
	 viewBox="0 0 41.4 30.2" style="enable-background:new 0 0 41.4 30.2;" xml:space="preserve">
<g id="Path_1743">
	<path d="M29.8,30.2H14.8c-8.3-0.1-15-6.9-15-15.2C0,6.7,6.7,0,15,0c0,0,0.1,0,0.1,0h14.7c0.6,0,1,0.4,1,1v7c0,0.6-0.4,1-1,1H15.1
		c-1.6,0-3.1,0.6-4.3,1.8c-1.1,1.1-1.7,2.7-1.7,4.3c0,3.3,2.8,6,6.1,6c0,0,0,0,0,0h14.6c0.6,0,1,0.4,1,1v7
		C30.8,29.7,30.3,30.2,29.8,30.2z M15,2c-3.5,0-6.7,1.3-9.2,3.8C3.3,8.2,1.9,11.5,1.9,15c0,3.5,1.3,6.8,3.8,9.3s5.7,3.9,9.2,3.9
		h13.9v-5H15.2c0,0,0,0,0,0c-4.4,0-8.1-3.6-8.1-8c0-2.1,0.8-4.2,2.3-5.7S12.9,7.1,15,7h13.7V2H15.1C15,2,15,2,15,2z"/>
</g>
<g id="Line_473">
	<rect x="23.5" y="1.9" width="2" height="5.3"/>
</g>
<g id="Line_474">
	<rect x="23.5" y="23" width="2" height="5.3"/>
</g>
<g id="Line_475">
	<path d="M35.1,5.5h-1.8c-0.6,0-1-0.4-1-1s0.4-1,1-1h1.8c0.6,0,1,0.4,1,1S35.6,5.5,35.1,5.5z"/>
</g>
<g id="Line_476">
	<path d="M40.4,5.5h-1.8c-0.6,0-1-0.4-1-1s0.4-1,1-1h1.8c0.6,0,1,0.4,1,1S40.9,5.5,40.4,5.5z"/>
</g>
<g id="Line_477">
	<path d="M35.1,26.7h-1.8c-0.6,0-1-0.4-1-1s0.4-1,1-1h1.8c0.6,0,1,0.4,1,1S35.6,26.7,35.1,26.7z"/>
</g>
<g id="Line_478">
	<path d="M40.4,26.7h-1.8c-0.6,0-1-0.4-1-1s0.4-1,1-1h1.8c0.6,0,1,0.4,1,1S40.9,26.7,40.4,26.7z"/>
</g>
</svg>
