<svg xmlns="http://www.w3.org/2000/svg" viewBox="0 0 26.85 15"><g id="Laag_2" data-name="Laag 2"><g id="icons"><path d="M6.5,5H.5a.5.5,0,0,1,0-1h6a.5.5,0,0,1,0,1Z"/><path d="M5.5,8H.5a.5.5,0,0,1,0-1h5a.5.5,0,0,1,0,1Z"/><path d="M4.5,11H.5a.5.5,0,0,1,0-1h4a.5.5,0,0,1,0,1Z"/><path d="M21.72,15h-13a2,2,0,0,1-2.07-2.56L8.81,2.35A3.11,3.11,0,0,1,11.72,0h13A2.14,2.14,0,0,1,26.4.76a2.07,2.07,0,0,1,.39,1.8L24.63,12.65A3.1,3.1,0,0,1,21.72,15Zm-10-14A2.09,2.09,0,0,0,9.79,2.56L7.63,12.65A1.05,1.05,0,0,0,8.72,14h13a2.08,2.08,0,0,0,1.93-1.56L25.81,2.35a1.12,1.12,0,0,0-.19-1,1.12,1.12,0,0,0-.9-.39Z"/><path d="M17,10.07h-.19a2.24,2.24,0,0,1-1.65-1L11.38,3.75a.51.51,0,0,1,.13-.7.5.5,0,0,1,.69.12l3.73,5.32a1.24,1.24,0,0,0,.92.57,1.26,1.26,0,0,0,1-.4l5.52-5.51a.49.49,0,0,1,.7.7L18.56,9.37A2.28,2.28,0,0,1,17,10.07Z"/><path d="M21.06,12a.48.48,0,0,1-.38-.17L18.21,9a.51.51,0,0,1,.05-.71.49.49,0,0,1,.7.05l2.47,2.82a.51.51,0,0,1-.05.71A.49.49,0,0,1,21.06,12Z"/><path d="M10.41,12.05a.5.5,0,0,1-.39-.18.51.51,0,0,1,.07-.71l4.52-3.61a.5.5,0,0,1,.7.08.49.49,0,0,1-.08.7l-4.51,3.61A.45.45,0,0,1,10.41,12.05Z"/></g></g></svg>