<svg id="Layer_1" data-name="Layer 1"
  xmlns="http://www.w3.org/2000/svg" viewBox="0 0 20.09 15.21">
  <defs>
    <style>.cls-1{fill:inherit;}</style>
  </defs>
  <path id="Path_2230" data-name="Path 2230" class="cls-1" d="M18.86,1.34l-.11-.11a4.34,4.34,0,0,0-3-1.23H4.37A4.37,4.37,0,0,0,1.26,1.3a.27.27,0,0,0-.07.08A4.33,4.33,0,0,0,0,4.37v6.47a4.37,4.37,0,0,0,4.37,4.37H15.72a4.37,4.37,0,0,0,4.37-4.37V4.37A4.34,4.34,0,0,0,18.86,1.34Zm-3.14.49a2.44,2.44,0,0,1,.8.13L10,6.5,3.51,2a2.51,2.51,0,0,1,.86-.15Zm2.54,9a2.54,2.54,0,0,1-2.54,2.54H4.37a2.54,2.54,0,0,1-2.54-2.54V4.37A2.49,2.49,0,0,1,2.1,3.23L9.52,8.36a.92.92,0,0,0,1.05,0L18,3.18a2.62,2.62,0,0,1,.3,1.19Z" transform="translate(0 0)"/>
</svg>