<svg id="black-back-closed-envelope-shape" xmlns="http://www.w3.org/2000/svg" xmlns:xlink="http://www.w3.org/1999/xlink" width="22.906" height="18.084" viewBox="0 0 22.906 18.084">
  <path id="Shape" d="M20.092,15.109a1.786,1.786,0,0,0,1.278-.523L15.183,7.877l-.428.334q-.695.555-1.127.865a6.761,6.761,0,0,1-1.152.634,3.281,3.281,0,0,1-1.341.324H11.11A3.28,3.28,0,0,1,9.77,9.71a6.74,6.74,0,0,1-1.152-.634q-.433-.31-1.127-.865c-.129-.1-.272-.215-.427-.336L.875,14.586a1.787,1.787,0,0,0,1.278.523Z" transform="translate(0.331 2.975)" fill="inherit"/>
  <path id="Shape-2" data-name="Shape" d="M1.361,5.461A7.021,7.021,0,0,1,0,4.375V14.02L6.028,8.433Q4.219,7.262,1.361,5.461Z" transform="translate(0 1.653)" fill="inherit"/>
  <path id="Shape-3" data-name="Shape" d="M16.93,5.461q-2.753,1.727-4.68,2.973l6.028,5.585V4.375A7.3,7.3,0,0,1,16.93,5.461Z" transform="translate(4.628 1.653)" fill="inherit"/>
  <path id="Shape-4" data-name="Shape" d="M20.861,0H2.045A1.87,1.87,0,0,0,.53.63,2.359,2.359,0,0,0,0,2.2,2.747,2.747,0,0,0,.7,3.857a6.2,6.2,0,0,0,1.5,1.4q.434.291,2.621,1.726c.787.516,1.471.967,2.059,1.355.5.331.933.617,1.29.855l.191.129.353.241q.415.285.69.46t.665.394a3.981,3.981,0,0,0,.735.327,2.136,2.136,0,0,0,.639.109h.025a2.136,2.136,0,0,0,.639-.109,3.972,3.972,0,0,0,.735-.327q.39-.218.665-.394t.69-.46l.352-.24.191-.129,1.294-.852,4.689-3.084A5.926,5.926,0,0,0,22.28,3.766a3.09,3.09,0,0,0,.626-1.828A1.811,1.811,0,0,0,22.3.569,2.033,2.033,0,0,0,20.861,0Z" transform="translate(0 0)" fill="inherit"/>
</svg>
