<?xml version="1.0" encoding="utf-8"?>
<!-- Generator: Adobe Illustrator 23.0.1, SVG Export Plug-In . SVG Version: 6.00 Build 0)  -->
<svg version="1.1" id="Laag_1" xmlns="http://www.w3.org/2000/svg" xmlns:xlink="http://www.w3.org/1999/xlink" x="0px" y="0px"
	 viewBox="0 0 74.4 65" style="enable-background:new 0 0 74.4 65;" xml:space="preserve">
<g id="Group_1838" transform="translate(0 -0.01)">
	<path id="Path_1485" d="M72.9,65c-0.1,0-0.3,0-0.4,0l-24.1-6.1l-24.6,6.1c-0.3,0.1-0.5,0.1-0.8,0L1.1,58.7C0.5,58.5,0,57.9,0,57.2
		V20c0-0.9,0.7-1.6,1.6-1.6c0.1,0,0.3,0,0.4,0.1l21.6,6.1l8-2c0.8-0.2,1.7,0.3,1.9,1.2c0.2,0.8-0.3,1.6-1.1,1.8l-8.4,2.1
		c-0.3,0.1-0.5,0.1-0.8,0L3.1,22.1v34l20.3,5.8L48,55.7c0.2-0.1,0.5-0.1,0.8,0l22.5,5.7v-34L56,23.6c-0.8-0.2-1.4-1-1.2-1.9
		s1-1.4,1.9-1.2c0,0,0,0,0.1,0l16.4,4.2c0.7,0.2,1.2,0.8,1.2,1.5v37.2c0,0.5-0.2,0.9-0.6,1.2C73.5,64.9,73.2,65,72.9,65z"/>
	<path id="Path_1486" d="M44.1,39.5c-0.3,0-0.6-0.1-0.9-0.3c-0.6-0.4-14.6-10.7-14.6-23.8C28.6,7,35.3,0.1,43.8,0c0.1,0,0.2,0,0.3,0
		c8.4-0.1,15.4,6.6,15.5,15.1c0,0.1,0,0.2,0,0.3c0,13.1-14,23.3-14.6,23.8C44.8,39.4,44.4,39.5,44.1,39.5z M44.1,3.1
		C37.4,3,31.8,8.4,31.7,15.2c0,0.1,0,0.2,0,0.3c0,9.7,9.4,18.1,12.4,20.6c3-2.4,12.4-10.9,12.4-20.6c0.1-6.7-5.4-12.3-12.1-12.3
		C44.3,3.1,44.2,3.1,44.1,3.1z"/>
	<path id="Path_1487" d="M44.1,21.6c-3.4,0-6.2-2.8-6.2-6.2s2.8-6.2,6.2-6.2c3.4,0,6.2,2.8,6.2,6.2S47.5,21.6,44.1,21.6L44.1,21.6z
		 M44.1,12.3c-1.7,0-3.1,1.4-3.1,3.1s1.4,3.1,3.1,3.1c1.7,0,3.1-1.4,3.1-3.1c0,0,0,0,0,0C47.2,13.7,45.8,12.3,44.1,12.3L44.1,12.3z"
		/>
	<path id="Path_1488" d="M23.3,64.1c-0.9,0-1.5-0.7-1.5-1.6V28.5c0-0.9,0.7-1.5,1.5-1.5c0.9,0,1.6,0.7,1.6,1.5v34.1
		C24.8,63.4,24.1,64.1,23.3,64.1C23.3,64.1,23.3,64.1,23.3,64.1z"/>
	<path id="Path_1489" d="M48.1,57.9c-0.9,0-1.5-0.7-1.6-1.5V34.7c0-0.9,0.7-1.5,1.6-1.5c0.9,0,1.5,0.7,1.5,1.5v21.7
		C49.6,57.2,48.9,57.9,48.1,57.9C48.1,57.9,48.1,57.9,48.1,57.9z"/>
</g>
</svg>
