<?xml version="1.0" encoding="utf-8"?>
<!-- Generator: Adobe Illustrator 23.0.1, SVG Export Plug-In . SVG Version: 6.00 Build 0)  -->
<svg version="1.1" id="Laag_1" xmlns="http://www.w3.org/2000/svg" xmlns:xlink="http://www.w3.org/1999/xlink" x="0px" y="0px"
	 viewBox="0 0 39.1 25.4" style="enable-background:new 0 0 39.1 25.4;" xml:space="preserve">
<g id="Path_871">
	<path d="M21.1,17.7c-0.3,0-0.5-0.2-0.7-0.4c-0.2-0.4,0-0.8,0.3-1c1.8-0.9,2.1-3.5,2.1-5c0-0.4,0.3-0.8,0.8-0.8
		c0.6,0,0.9-0.2,0.9-0.3l0-2c0-0.1,0-0.1,0-0.2C24.4,8,24.2,8,23.6,8c-0.4,0-0.8-0.3-0.8-0.8V5.2c0-1.3-0.3-2.1-0.9-2.6
		c-0.6-0.5-1.6-0.6-3-0.3c-0.4,0.1-0.8-0.2-0.9-0.6c-0.1-0.4,0.2-0.8,0.6-0.9C20.7,0.4,22,0.6,23,1.4c0.9,0.8,1.4,2,1.4,3.8v1.3
		C25.6,6.7,26,7.2,26,8.2v2c0,0.8-0.7,1.5-1.7,1.7c-0.1,2.1-0.7,4.6-2.9,5.7C21.3,17.7,21.2,17.7,21.1,17.7z"/>
</g>
<g id="Path_872">
	<path d="M29.3,17.7c-0.3,0-0.5-0.2-0.7-0.4c-0.2-0.4,0-0.8,0.3-1c1.8-0.9,2.1-3.5,2.1-5c0-0.2,0.1-0.4,0.2-0.5
		c0.1-0.1,0.3-0.2,0.5-0.2c0.6,0,0.9-0.2,0.9-0.3l0-2c0-0.1,0-0.1,0-0.2C32.6,8,32.4,8,31.8,8c-0.4,0-0.8-0.3-0.8-0.8V5.2
		c0-1.3-0.3-2.1-0.9-2.6c-0.6-0.5-1.6-0.6-3-0.3c-0.4,0.1-0.8-0.2-0.9-0.6c-0.1-0.4,0.2-0.8,0.6-0.9c1.9-0.4,3.2-0.2,4.2,0.6
		c0.9,0.8,1.4,2,1.4,3.8v1.3c1.2,0.1,1.6,0.7,1.6,1.7v2c0,0.4-0.2,0.8-0.5,1.1c-0.3,0.3-0.7,0.5-1.2,0.6c-0.1,2.1-0.7,4.6-2.9,5.7
		C29.5,17.7,29.4,17.7,29.3,17.7z"/>
</g>
<g id="Path_873">
	<path d="M11.2,18.2c-3,0-5.4-3.2-5.7-6.2c-1-0.2-1.4-1-1.4-1.7v-2c0-0.6,0.5-1.1,0.8-1.4V5.2c0-2.6,1.6-3.8,5.2-3.8
		c2.8-1.9,6-1.5,7.5,0.1c1.1,1.1,1.2,2.6,0.2,4v1.4c0.4,0.3,0.8,0.8,0.8,1.4v2c0,0.7-0.5,1.5-1.6,1.7C16.7,15,14.3,18.2,11.2,18.2z
		 M14,1.6c-1,0-2.1,0.3-3.2,1.1c-0.1,0.1-0.3,0.1-0.5,0.1c-4,0-4,1.3-4,2.3v2c0,0.3-0.1,0.5-0.4,0.7C5.8,8,5.6,8.2,5.6,8.3l0,2
		c0,0.1,0,0.3,0.6,0.3c0.4,0,0.8,0.3,0.8,0.8c0,2.5,1.8,5.4,4.2,5.4c2.4,0,4.4-3,4.4-5.4c0-0.4,0.3-0.8,0.8-0.8
		c0.6,0,0.8-0.2,0.8-0.3v-2c0-0.1-0.3-0.3-0.4-0.4c-0.2-0.1-0.4-0.4-0.4-0.7v-2c0-0.2,0.1-0.3,0.2-0.5c0.8-1,0.4-1.7,0-2.2
		C16,2,15.1,1.6,14,1.6z"/>
</g>
<g id="Path_874">
	<path d="M0.8,25.4c-0.4,0-0.8-0.3-0.8-0.8v-1.1c0-3.1,2.1-4.9,5.5-4.9h1.1l1.5-2.2c0.2-0.3,0.7-0.4,1-0.2s0.4,0.7,0.2,1l-1.8,2.6
		c-0.1,0.2-0.4,0.3-0.6,0.3H5.5c-1.5,0-4,0.4-4,3.4v1.1C1.5,25.1,1.2,25.4,0.8,25.4z"/>
</g>
<g id="Path_875">
	<path d="M22,25.4c-0.4,0-0.8-0.3-0.8-0.8v-1.1c0-3.2-3.4-3.4-4.4-3.4h-1.5c-0.3,0-0.5-0.1-0.6-0.4l-1.6-2.6c-0.2-0.4-0.1-0.8,0.2-1
		c0.4-0.2,0.8-0.1,1,0.2l1.4,2.2h1.1c3.6,0,5.9,1.9,5.9,4.9v1.1C22.8,25.1,22.4,25.4,22,25.4z"/>
</g>
<g id="Path_876">
	<path d="M30.2,25.4c-0.4,0-0.8-0.3-0.8-0.8v-1.1c0-3.2-3.4-3.4-4.4-3.4h-1.5c-0.3,0-0.5-0.1-0.6-0.4l-1.6-2.6
		c-0.2-0.4-0.1-0.8,0.2-1c0.4-0.2,0.8-0.1,1,0.2l1.4,2.2H25c3.6,0,5.9,1.9,5.9,4.9v1.1C30.9,25.1,30.6,25.4,30.2,25.4z"/>
</g>
<g id="Path_877">
	<path d="M38.4,25.4c-0.4,0-0.8-0.3-0.8-0.8v-1.1c0-3.2-3.4-3.4-4.4-3.4h-1.5c-0.3,0-0.5-0.1-0.6-0.4l-1.6-2.6
		c-0.2-0.4-0.1-0.8,0.2-1c0.4-0.2,0.8-0.1,1,0.2l1.4,2.2h1.1c3.6,0,5.9,1.9,5.9,4.9v1.1C39.1,25.1,38.8,25.4,38.4,25.4z"/>
</g>
</svg>
