<?xml version="1.0" encoding="utf-8"?>
<!-- Generator: Adobe Illustrator 23.0.6, SVG Export Plug-In . SVG Version: 6.00 Build 0)  -->
<svg version="1.1" id="Laag_1" xmlns="http://www.w3.org/2000/svg" xmlns:xlink="http://www.w3.org/1999/xlink" x="0px" y="0px"
	 viewBox="0 0 26.7 16.8" style="enable-background:new 0 0 26.7 16.8;" xml:space="preserve">
<path d="M25.7,2H1C0.4,2,0,1.6,0,1s0.4-1,1-1h24.7c0.6,0,1,0.4,1,1S26.3,2,25.7,2z"/>
<path d="M25.7,9.4H1c-0.6,0-1-0.4-1-1s0.4-1,1-1h24.7c0.6,0,1,0.4,1,1S26.3,9.4,25.7,9.4z"/>
<path d="M25.7,16.8H1c-0.6,0-1-0.4-1-1s0.4-1,1-1h24.7c0.6,0,1,0.4,1,1S26.3,16.8,25.7,16.8z"/>
</svg>
