<svg id="Group_1051" data-name="Group 1051" xmlns="http://www.w3.org/2000/svg" width="26.469" height="38.879" viewBox="0 0 26.469 38.879">
  <g id="Group_1037" data-name="Group 1037" transform="translate(0 0)">
    <g id="Group_1033" data-name="Group 1033" transform="translate(0 0)">
      <g id="Group_1032" data-name="Group 1032">
        <path id="Path_415" data-name="Path 415" d="M446.948,704.969h-17.2a4.64,4.64,0,0,1-4.635-4.635V670.725a4.641,4.641,0,0,1,4.635-4.635h17.2a4.641,4.641,0,0,1,4.635,4.635v29.608A4.641,4.641,0,0,1,446.948,704.969Zm-17.2-36.391a2.15,2.15,0,0,0-2.147,2.148v29.608a2.15,2.15,0,0,0,2.147,2.148h17.2a2.15,2.15,0,0,0,2.147-2.148V670.725a2.15,2.15,0,0,0-2.147-2.148Z" transform="translate(-425.115 -666.09)"/>
      </g>
    </g>
    <g id="Group_1036" data-name="Group 1036" transform="translate(3.946 5.787)">
      <g id="Group_1034" data-name="Group 1034">
        <path id="Path_416" data-name="Path 416" d="M448.028,676.857H431.887a1.315,1.315,0,0,1,0-2.623h16.141a1.315,1.315,0,0,1,0,2.623Z" transform="translate(-430.669 -674.234)"/>
      </g>
      <g id="Group_1035" data-name="Group 1035" transform="translate(0 24.682)">
        <path id="Path_417" data-name="Path 417" d="M448.028,714.568H431.887a1.315,1.315,0,0,1,0-2.623h16.141a1.315,1.315,0,0,1,0,2.623Z" transform="translate(-430.669 -711.945)"/>
      </g>
    </g>
  </g>
</svg>
