<?xml version="1.0" encoding="utf-8"?>
<!-- Generator: Adobe Illustrator 23.0.6, SVG Export Plug-In . SVG Version: 6.00 Build 0)  -->
<svg version="1.1" id="Laag_1" xmlns="http://www.w3.org/2000/svg" xmlns:xlink="http://www.w3.org/1999/xlink" x="0px" y="0px"
	 viewBox="0 0 61 61" style="enable-background:new 0 0 61 61;" xml:space="preserve">
<g id="Group_3426" transform="translate(-1694.75 -4674.667)">
	<g id="Rectangle_2285">
		<path d="M1750.5,4727.7H1730c-2.9,0-5.2-2.4-5.2-5.2v-42.5c0-2.9,2.4-5.2,5.2-5.2h20.5c2.9,0,5.2,2.4,5.2,5.2v42.5
			C1755.8,4725.3,1753.4,4727.7,1750.5,4727.7z M1730,4677.7c-1.2,0-2.2,1-2.2,2.2v42.5c0,1.2,1,2.2,2.2,2.2h20.5
			c1.2,0,2.2-1,2.2-2.2v-42.5c0-1.2-1-2.2-2.2-2.2H1730z"/>
	</g>
	<g id="Line_537">
		<path d="M1753.2,4683.7h-26c-0.8,0-1.5-0.7-1.5-1.5s0.7-1.5,1.5-1.5h26c0.8,0,1.5,0.7,1.5,1.5S1754.1,4683.7,1753.2,4683.7z"/>
	</g>
	<g id="Line_538">
		<path d="M1753.2,4719.7h-26c-0.8,0-1.5-0.7-1.5-1.5s0.7-1.5,1.5-1.5h26c0.8,0,1.5,0.7,1.5,1.5S1754.1,4719.7,1753.2,4719.7z"/>
	</g>
	<g id="Path_2049">
		<path d="M1742.2,4735.7h-42.5c-3,0-5-3-5-5.8v-20c0,0,0,0,0-0.1c0-1.3,0.5-2.6,1.4-3.6s2.2-1.5,3.5-1.5h25.5
			c0.8,0,1.5,0.7,1.5,1.5c0,0.8-0.7,1.5-1.5,1.5h-25.5c-0.5,0-1,0.2-1.4,0.6c-0.4,0.4-0.6,0.9-0.6,1.4c0,0,0,0.2,0,0.2v20
			c0,1.3,0.8,2.8,2,2.8h42.4c1.4-0.2,2.5-1.4,2.6-2.8l0-2.7c0-0.8,0.7-1.5,1.5-1.5s1.5,0.7,1.5,1.5v2.8c-0.1,3-2.4,5.5-5.4,5.7
			C1742.3,4735.7,1742.3,4735.7,1742.2,4735.7z"/>
	</g>
	<g id="Line_539">
		<path d="M1702.2,4734.7c-0.8,0-1.5-0.7-1.5-1.5v-26c0-0.8,0.7-1.5,1.5-1.5s1.5,0.7,1.5,1.5v26
			C1703.8,4734,1703.1,4734.7,1702.2,4734.7z"/>
	</g>
	<g id="Line_540">
		<path d="M1738.2,4734.7c-0.8,0-1.5-0.7-1.5-1.5v-6c0-0.8,0.7-1.5,1.5-1.5s1.5,0.7,1.5,1.5v6
			C1739.8,4734,1739.1,4734.7,1738.2,4734.7z"/>
	</g>
</g>
</svg>
