<svg xmlns="http://www.w3.org/2000/svg" width="39.959" height="43.589" viewBox="0 0 39.959 43.589">
  <g id="Group_3873" data-name="Group 3873" transform="translate(0)">
    <path id="Path_2177" data-name="Path 2177" d="M135.655,618.853a17.715,17.715,0,0,1-13.907-6.9,20.677,20.677,0,0,1-3.849-16.722c-2.181-.578-2.176-3.193-2.169-5.723l0-.485c0-3.433,2.646-5.37,4.784-4.926a2.293,2.293,0,0,1,1,.478c3.632-6.833,9.584-9.308,14.134-9.308s10.5,2.476,14.132,9.308a2.3,2.3,0,0,1,1-.478c2.2-.469,4.9,1.275,4.9,4.926,0,3.146,0,5.623-2.281,6.208a20.675,20.675,0,0,1-3.849,16.722A17.712,17.712,0,0,1,135.655,618.853Zm-16.622-25.5a.906.906,0,0,1,.883,1.117,19.033,19.033,0,0,0,3.26,16.351,15.639,15.639,0,0,0,24.958,0,19.039,19.039,0,0,0,3.258-16.351.907.907,0,0,1,1.2-1.061l.243.094c.954-.212,1.039-1.389,1.039-4.457,0-2.345-1.477-3.447-2.7-3.177-.256.055-.365.185-.743.877a.89.89,0,0,1-.832.474.9.9,0,0,1-.794-.536c-3.177-7.085-8.874-9.608-13.146-9.608s-9.971,2.523-13.147,9.608a.907.907,0,0,1-1.625.062c-.376-.692-.487-.823-.743-.877-1.159-.24-2.59,1.083-2.59,3.148l0,.49c-.005,2.357.051,3.8.879,3.976l.291-.075A.906.906,0,0,1,119.033,593.355Z" transform="translate(-115.731 -575.264)"/>
    <path id="Path_2178" data-name="Path 2178" d="M132.8,609.937c-7.528,0-13.153-6.42-13.153-12.161a8.535,8.535,0,0,1,2.626-6.075,5.346,5.346,0,0,1-2.626-4.595c0-3.349,2.851-5.874,6.636-5.874h13.035c3.785,0,6.636,2.525,6.636,5.866a5.738,5.738,0,0,1-2.63,4.795,8.1,8.1,0,0,1,2.63,5.968C145.951,603.56,140.326,609.937,132.8,609.937Zm-6.517-26.889c-2.793,0-4.82,1.707-4.82,4.057,0,1.586.935,2.793,2.782,3.594a.908.908,0,0,1,.167,1.573,6.741,6.741,0,0,0-2.95,5.5c0,4.786,4.953,10.345,11.337,10.345s11.338-5.516,11.338-10.26a6.542,6.542,0,0,0-2.95-5.378.909.909,0,0,1,.165-1.573,4.156,4.156,0,0,0,2.784-3.812c0-2.346-2.027-4.05-4.82-4.05Z" transform="translate(-112.537 -570.393)"/>
    <path id="Path_2179" data-name="Path 2179" d="M124.6,588.727a2.913,2.913,0,1,1,3.053-2.909A2.99,2.99,0,0,1,124.6,588.727Zm0-4a1.1,1.1,0,1,0,1.237,1.093A1.175,1.175,0,0,0,124.6,584.724Z" transform="translate(-110.984 -569.025)"/>
    <path id="Path_2180" data-name="Path 2180" d="M130.3,591.132a.907.907,0,0,1-.908-.908,1.249,1.249,0,0,0-2.479,0,.908.908,0,0,1-1.816,0,3.059,3.059,0,0,1,6.111,0A.908.908,0,0,1,130.3,591.132Z" transform="translate(-108.09 -565.429)"/>
    <path id="Path_2181" data-name="Path 2181" d="M131.693,588.727a2.913,2.913,0,1,1,3.057-2.909A2.989,2.989,0,0,1,131.693,588.727Zm0-4a1.1,1.1,0,1,0,1.24,1.093A1.174,1.174,0,0,0,131.693,584.724Z" transform="translate(-105.196 -569.025)"/>
    <path id="Path_2182" data-name="Path 2182" d="M137.938,593.048h-14.53a.908.908,0,1,1,0-1.816h14.53a.908.908,0,1,1,0,1.816Z" transform="translate(-110.205 -562.231)"/>
  </g>
</svg>
