<svg xmlns="http://www.w3.org/2000/svg" viewBox="0 0 23 13"><g id="Laag_2" data-name="Laag 2"><g id="icons"><path d="M3.5,13A3.5,3.5,0,1,1,7,9.5,3.5,3.5,0,0,1,3.5,13Zm0-6A2.5,2.5,0,1,0,6,9.5,2.5,2.5,0,0,0,3.5,7Z"/><path d="M19.5,13A3.5,3.5,0,1,1,23,9.5,3.5,3.5,0,0,1,19.5,13Zm0-6A2.5,2.5,0,1,0,22,9.5,2.5,2.5,0,0,0,19.5,7Z"/><path d="M14.5,10.5h-6A.5.5,0,0,1,8,10,6.13,6.13,0,0,0,6.2,6.16c-2-1-4.92-2.71-4.95-2.73A.49.49,0,0,1,1,2.87.49.49,0,0,1,1.5,2.5h3a.54.54,0,0,1,.22,0l3.9,2h2.92A3.5,3.5,0,0,1,15,1.5h5a.51.51,0,0,1,.42.22A6.43,6.43,0,0,1,21.5,4.5.5.5,0,0,1,21,5c-4,0-6,1.64-6,5A.5.5,0,0,1,14.5,10.5ZM9,9.5h5C14.16,7,15.46,4.21,20.42,4a6.61,6.61,0,0,0-.7-1.51H15A2.5,2.5,0,0,0,12.5,5a.5.5,0,0,1-.5.5H8.5a.54.54,0,0,1-.22,0L4.38,3.5h-1c1,.57,2.32,1.29,3.34,1.8a.45.45,0,0,1,.13.1A7.28,7.28,0,0,1,9,9.5Z"/><path d="M18.5,2A.54.54,0,0,1,18.28,2l-2-1a.51.51,0,0,1-.23-.67.51.51,0,0,1,.67-.23l2,1a.5.5,0,0,1-.22,1Z"/></g></g></svg>