<?xml version="1.0" encoding="utf-8"?>
<!-- Generator: Adobe Illustrator 23.0.6, SVG Export Plug-In . SVG Version: 6.00 Build 0)  -->
<svg version="1.1" id="Laag_1" xmlns="http://www.w3.org/2000/svg" xmlns:xlink="http://www.w3.org/1999/xlink" x="0px" y="0px"
	 viewBox="0 0 35.5 32.4" style="enable-background:new 0 0 35.5 32.4;" xml:space="preserve">
<g id="Group_3556" transform="translate(0.901 0.9)">
	<g id="Ellipse_431">
		<path d="M6.9,31.5c-4.4,0-7.8-2.1-7.8-4.7S2.5,22,6.9,22c4.4,0,7.8,2.1,7.8,4.7S11.2,31.5,6.9,31.5z M6.9,23.8c-3.5,0-6,1.5-6,2.9
			s2.5,2.9,6,2.9c3.5,0,6-1.5,6-2.9S10.4,23.8,6.9,23.8z"/>
	</g>
	<g id="Path_2092">
		<path d="M13.4,25.4c-0.5,0-0.9-0.4-0.9-0.9V4.6c0-0.4,0.3-0.8,0.7-0.9l19.9-4.6c0.3-0.1,0.5,0,0.8,0.2s0.3,0.4,0.3,0.7v19.9
			c0,0.5-0.4,0.9-0.9,0.9s-0.9-0.4-0.9-0.9V1.1L14.3,5.3v19.2C14.3,25,13.9,25.4,13.4,25.4z"/>
	</g>
	<g id="Ellipse_432">
		<path d="M26.8,26.9c-4.4,0-7.8-2.1-7.8-4.7s3.4-4.7,7.8-4.7s7.8,2.1,7.8,4.7S31.1,26.9,26.8,26.9z M26.8,19.3c-3.5,0-6,1.5-6,2.9
			s2.5,2.9,6,2.9s6-1.5,6-2.9S30.3,19.3,26.8,19.3z"/>
	</g>
	<g id="Line_487">
		<path d="M13,10.1c-0.4,0-0.8-0.3-0.9-0.7c-0.1-0.5,0.2-1,0.7-1.1l19.9-4.6c0.5-0.1,1,0.2,1.1,0.7c0.1,0.5-0.2,1-0.7,1.1l-19.9,4.6
			C13.1,10.1,13.1,10.1,13,10.1z"/>
	</g>
</g>
</svg>
