<svg xmlns="http://www.w3.org/2000/svg" viewBox="0 0 24 24"><g id="Laag_2" data-name="Laag 2"><g id="icons"><path d="M12,1A11,11,0,1,1,1,12,11,11,0,0,1,12,1m0-1A12,12,0,1,0,24,12,12,12,0,0,0,12,0Z"/><path d="M3,12.5a.5.5,0,0,1-.5-.5A9.51,9.51,0,0,1,12,2.5a.5.5,0,0,1,0,1A8.51,8.51,0,0,0,3.5,12,.5.5,0,0,1,3,12.5Z"/><path d="M12,21.5a.5.5,0,0,1,0-1A8.51,8.51,0,0,0,20.5,12a.5.5,0,0,1,1,0A9.51,9.51,0,0,1,12,21.5Z"/><path d="M12,13.5A1.5,1.5,0,1,1,13.5,12,1.5,1.5,0,0,1,12,13.5Zm0-2a.5.5,0,1,0,.5.5A.5.5,0,0,0,12,11.5Z"/><path d="M12,15.5A3.5,3.5,0,1,1,15.5,12,3.5,3.5,0,0,1,12,15.5Zm0-6A2.5,2.5,0,1,0,14.5,12,2.5,2.5,0,0,0,12,9.5Z"/></g></g></svg>