<?xml version="1.0" encoding="utf-8"?>
<!-- Generator: Adobe Illustrator 23.0.6, SVG Export Plug-In . SVG Version: 6.00 Build 0)  -->
<svg version="1.1" id="Laag_1" xmlns="http://www.w3.org/2000/svg" xmlns:xlink="http://www.w3.org/1999/xlink" x="0px" y="0px"
	 viewBox="0 0 60.6 38" style="enable-background:new 0 0 60.6 38;" xml:space="preserve">
<g id="Group_4324" transform="translate(-802.006 -14442.97)">
	<g id="Path_2984">
		<path d="M817.3,14464.5c-4.9,0-9-7.6-9-12.6c-0.1-4.9,3.9-9,8.8-9.1c2.4,0,4.7,0.9,6.4,2.5s2.7,3.9,2.7,6.3l0,0.3
			C826.3,14456.9,822.3,14464.5,817.3,14464.5z M817.3,14444.8c0,0-0.1,0-0.1,0c-3.8,0.1-6.9,3.2-6.8,7.1c0,4,3.2,10.6,7,10.6
			c3.7,0,6.9-6.6,7-10.6l0-0.2C824.2,14447.9,821.1,14444.8,817.3,14444.8z"/>
	</g>
	<g id="Path_2985">
		<path d="M847.3,14464.5c-4.9,0-9-7.6-9-12.6c-0.1-4.9,3.9-9,8.8-9.1c2.4,0,4.7,0.9,6.4,2.5c1.7,1.7,2.7,3.9,2.7,6.3
			c0,0.1,0,0.2,0,0.3h0C856.3,14456.9,852.3,14464.5,847.3,14464.5z M847.3,14444.8c0,0-0.1,0-0.1,0c-1.9,0-3.6,0.8-4.9,2.1
			s-2,3.1-2,4.9c0,4,3.2,10.6,7,10.6c3.7,0,6.9-6.6,6.9-10.6l0-0.2c0-1.9-0.8-3.6-2.1-4.9
			C850.9,14445.5,849.1,14444.8,847.3,14444.8z"/>
	</g>
	<g id="Path_2986">
		<path d="M817.3,14481c-8.4,0-15.3-4.8-15.3-10.7c0-4,3.1-9.3,8-13.6c0.4-0.4,1-0.3,1.4,0.1c0.4,0.4,0.3,1-0.1,1.4
			c-4.4,3.8-7.3,8.7-7.3,12.1c0,4.8,6,8.7,13.3,8.7c1.3,0,2.6-0.2,3.9-0.5c0.5-0.1,1.1,0.2,1.2,0.7c0.1,0.5-0.2,1.1-0.7,1.2
			C820.3,14480.8,818.8,14481,817.3,14481z"/>
	</g>
	<g id="Path_2987">
		<path d="M829.4,14464.4c-0.3,0-0.6-0.2-0.8-0.5c-1.4-2.2-3.2-4.1-5.2-5.8c-0.4-0.3-0.5-1-0.1-1.4c0.3-0.4,1-0.5,1.4-0.1
			c2.2,1.8,4.1,3.9,5.6,6.2c0.3,0.5,0.2,1.1-0.3,1.4C829.8,14464.4,829.6,14464.4,829.4,14464.4z"/>
	</g>
	<g id="Path_2988">
		<path d="M834.8,14464.4c-0.2,0-0.3,0-0.5-0.1c-0.5-0.3-0.6-0.9-0.4-1.4c1.1-1.9,2.8-3.4,4.6-5c0.5-0.4,1-0.8,1.4-1.3
			c0.4-0.4,1-0.3,1.4,0.1c0.4,0.4,0.3,1-0.1,1.4c-0.5,0.4-1,0.9-1.5,1.3c-1.7,1.5-3.3,2.8-4.2,4.5
			C835.4,14464.3,835.1,14464.4,834.8,14464.4z"/>
	</g>
	<g id="Path_2989">
		<path d="M847.3,14481c-1.7,0-3.3-0.2-4.9-0.6c-0.5-0.1-0.9-0.7-0.7-1.2c0.1-0.5,0.7-0.9,1.2-0.7c1.5,0.3,3,0.5,4.5,0.5
			c7.3,0,13.3-3.9,13.3-8.7c0-3.4-2.9-8.3-7.3-12.1c-0.4-0.4-0.5-1-0.1-1.4c0.4-0.4,1-0.5,1.4-0.1c4.9,4.3,8,9.6,8,13.6
			C862.6,14476.2,855.8,14481,847.3,14481z"/>
	</g>
	<g id="Path_2990">
		<path d="M824.4,14477.5c-3.3,0-6-2.7-6-5.9c0-3.3,2.6-5.9,5.8-5.9c0,0,0,0,0,0c1.1,0,2.2,0.4,3.1,1c0.4,0.3,0.5,1,0.2,1.4
			s-1,0.5-1.4,0.2c-0.5-0.4-1.2-0.6-1.9-0.6c0,0,0,0,0,0c-2.1,0-3.8,1.7-3.8,3.8c0,2.3,1.8,4,4,4c0,0,0,0,0,0c0.9,0,1.8-0.3,2.5-0.8
			c0.4-0.3,1.1-0.2,1.4,0.2s0.3,1.1-0.2,1.4C827,14477,825.7,14477.5,824.4,14477.5C824.4,14477.5,824.4,14477.5,824.4,14477.5z"/>
	</g>
	<g id="Path_2991">
		<path d="M842.5,14477.5C842.5,14477.5,842.5,14477.5,842.5,14477.5c-1.3,0-2.6-0.4-3.7-1.2c-0.4-0.3-0.5-1-0.2-1.4
			c0.3-0.4,1-0.5,1.4-0.2c0.7,0.5,1.6,0.8,2.5,0.8c0,0,0,0,0,0c2.2,0,4-1.8,4-3.9c0-1.1-0.4-2.1-1.1-2.8c-0.7-0.7-1.7-1.1-2.7-1.1
			c0,0,0,0,0,0c-0.7,0-1.3,0.2-1.9,0.6c-0.4,0.3-1.1,0.2-1.4-0.2c-0.3-0.4-0.2-1.1,0.2-1.4c0.9-0.7,2-1,3.1-1c0,0,0,0,0,0
			c1.6,0,3,0.6,4.1,1.7c1.1,1.1,1.7,2.6,1.7,4.1C848.4,14474.8,845.7,14477.5,842.5,14477.5z"/>
	</g>
	<g id="Line_662">
		<path d="M840,14473h-12c-0.6,0-1-0.4-1-1s0.4-1,1-1h12c0.6,0,1,0.4,1,1S840.6,14473,840,14473z"/>
	</g>
</g>
</svg>
