<?xml version="1.0" encoding="utf-8"?>
<!-- Generator: Adobe Illustrator 23.0.1, SVG Export Plug-In . SVG Version: 6.00 Build 0)  -->
<svg version="1.1" id="Group_1802" xmlns="http://www.w3.org/2000/svg" xmlns:xlink="http://www.w3.org/1999/xlink" x="0px" y="0px"
	 viewBox="0 0 51.8 65.4" style="enable-background:new 0 0 51.8 65.4;" xml:space="preserve">
<path id="Path_1376" d="M51.8,64.1c0,0.8-0.6,1.4-1.4,1.4H1.4c-0.8,0-1.4-0.6-1.4-1.4V9.5c0-0.8,0.6-1.4,1.4-1.4h49.1
	c0.8,0,1.4,0.6,1.4,1.4L51.8,64.1z M2.7,62.7h46.4V10.9H2.7V62.7z"/>
<path id="Path_1377" d="M43.6,9.5c0,0.8-0.6,1.4-1.4,1.4H9.5c-0.8,0-1.4-0.6-1.4-1.4V1.4C8.2,0.6,8.8,0,9.5,0h32.7
	c0.8,0,1.4,0.6,1.4,1.4V9.5z M10.9,8.2h30V2.7h-30L10.9,8.2z"/>
<path id="Path_1378" d="M24.5,25.9c0,0.8-0.6,1.4-1.4,1.4H9.5c-0.8,0-1.4-0.6-1.4-1.4V15c0-0.8,0.6-1.4,1.4-1.4h13.6
	c0.8,0,1.4,0.6,1.4,1.4L24.5,25.9z M10.9,24.5h10.9v-8.2H10.9V24.5z"/>
<path id="Path_1379" d="M43.6,25.9c0,0.8-0.6,1.4-1.4,1.4H28.6c-0.8,0-1.4-0.6-1.4-1.4V15c0-0.8,0.6-1.4,1.4-1.4h13.6
	c0.8,0,1.4,0.6,1.4,1.4L43.6,25.9z M30,24.5h10.9v-8.2H30V24.5z"/>
<path id="Path_1380" d="M24.5,42.3c0,0.8-0.6,1.4-1.4,1.4H9.5c-0.8,0-1.4-0.6-1.4-1.4V31.4c0-0.8,0.6-1.4,1.4-1.4h13.6
	c0.8,0,1.4,0.6,1.4,1.4L24.5,42.3z M10.9,40.9h10.9v-8.2H10.9V40.9z"/>
<path id="Path_1381" d="M43.6,42.3c0,0.8-0.6,1.4-1.4,1.4H28.6c-0.8,0-1.4-0.6-1.4-1.4V31.4c0-0.8,0.6-1.4,1.4-1.4h13.6
	c0.8,0,1.4,0.6,1.4,1.4L43.6,42.3z M30,40.9h10.9v-8.2H30V40.9z"/>
<path id="Path_1382" d="M24.5,58.6c0,0.8-0.6,1.4-1.4,1.4H9.5c-0.8,0-1.4-0.6-1.4-1.4V47.7c0-0.8,0.6-1.4,1.4-1.4h13.6
	c0.8,0,1.4,0.6,1.4,1.4L24.5,58.6z M10.9,57.3h10.9v-8.2H10.9V57.3z"/>
<path id="Path_1383" d="M43.6,58.6c0,0.8-0.6,1.4-1.4,1.4H28.6c-0.8,0-1.4-0.6-1.4-1.4V47.7c0-0.8,0.6-1.4,1.4-1.4h13.6
	c0.8,0,1.4,0.6,1.4,1.4L43.6,58.6z M30,57.3h10.9v-8.2H30V57.3z"/>
</svg>
