<?xml version="1.0" encoding="utf-8"?>
<!-- Generator: Adobe Illustrator 23.0.6, SVG Export Plug-In . SVG Version: 6.00 Build 0)  -->
<svg version="1.1" id="Group_2285" xmlns="http://www.w3.org/2000/svg" xmlns:xlink="http://www.w3.org/1999/xlink" x="0px" y="0px"
	 viewBox="0 0 57.4 47.8" style="enable-background:new 0 0 57.4 47.8;" xml:space="preserve">
<g id="Path_1696">
	<path d="M47.1,20.9H25.6c-0.6,0-1-0.4-1-1V8.7c0-0.6,0.4-1,1-1h21.5c0.6,0,1,0.4,1,1v11.2C48.1,20.5,47.7,20.9,47.1,20.9z
		 M26.6,18.9h19.5V9.7H26.6V18.9z"/>
</g>
<g id="Path_1697">
	<path d="M34.6,34.4h-9c-0.6,0-1-0.4-1-1v-9.9c0-0.6,0.4-1,1-1h9c0.6,0,1,0.4,1,1v9.9C35.6,33.9,35.1,34.4,34.6,34.4z M26.6,32.4h7
		v-7.9h-7V32.4z"/>
</g>
<g id="Path_1698">
	<path d="M47.1,34.3h-8.8c-0.6,0-1-0.4-1-1v-9.9c0-0.6,0.4-1,1-1h8.8c0.6,0,1,0.4,1,1v9.9C48.1,33.9,47.7,34.3,47.1,34.3z
		 M39.3,32.3h6.8v-7.9h-6.8V32.3z"/>
</g>
<g id="Path_1694">
	<path d="M36.7,48.1h-16c-0.6,0-1-0.4-1-1s0.4-1,1-1h16c0.6,0,1,0.4,1,1S37.3,48.1,36.7,48.1z M53.8,43.3
		C53.8,43.3,53.8,43.3,53.8,43.3H3.7c-2.2,0-4-1.8-4-4V3.7c0-2.2,1.8-4,4-4h50.1c2.2,0,4,1.8,4,4v35.6c0,0,0,0,0,0
		C57.8,41.5,56,43.3,53.8,43.3z M3.7,1.7c-1.1,0-2,0.9-2,2v35.6c0,1.1,0.9,2,2,2h50.1h0c1.1,0,2-0.9,2-2V3.7c0-1.1-0.9-2-2-2H3.7z
		 M56.8,39.3L56.8,39.3L56.8,39.3z M52,38.5H5.5c-0.6,0-1-0.4-1-1v-32c0-0.6,0.4-1,1-1H52c0.6,0,1,0.4,1,1v32
		C53,38.1,52.5,38.5,52,38.5z M6.5,36.5H51v-30H6.5V36.5z M21.5,34.5h-12c-0.6,0-1-0.4-1-1V8.7c0-0.6,0.4-1,1-1h12c0.6,0,1,0.4,1,1
		v24.8C22.5,34.1,22,34.5,21.5,34.5z M10.5,32.5h10V9.7h-10V32.5z"/>
</g>
</svg>
