<?xml version="1.0" encoding="utf-8"?>
<!-- Generator: Adobe Illustrator 23.0.6, SVG Export Plug-In . SVG Version: 6.00 Build 0)  -->
<svg version="1.1" id="Group_1583" xmlns="http://www.w3.org/2000/svg" xmlns:xlink="http://www.w3.org/1999/xlink" x="0px" y="0px"
	 viewBox="0 0 82.8 56.7" style="enable-background:new 0 0 82.8 56.7;" xml:space="preserve">
<path id="Path_1173" d="M9.2,36.5l3.4,16c0.5,2.4,2.7,4.1,5.1,4.1h2.3c2.9,0,5.2-2.3,5.2-5.2c0-0.4,0-0.7-0.1-1.1l-2.9-13.7h2.8
	l15.8,14.9c0.8,0.8,1.9,1.2,3,1.2h3.2c2.5,0,4.4-2,4.4-4.4v-16c3.2-0.6,5.4-3.7,4.8-6.9c-0.4-2.4-2.3-4.3-4.8-4.8v-16
	c0-2.5-2-4.4-4.4-4.4h-3.2c-0.6,0-1.2,0.1-1.8,0.4c0,0,0,0-0.1,0c-0.4,0.2-0.9,0.5-1.2,0.8L24.8,16.4H10.1c-4.1,0-7.8,2.5-9.3,6.2
	c0,0,0,0,0,0c-2.1,5.2,0.4,11.1,5.5,13.2C7.2,36.2,8.2,36.4,9.2,36.5L9.2,36.5z M23.1,50.8c0.4,1.7-0.7,3.3-2.4,3.7
	c-0.2,0-0.4,0.1-0.7,0.1h-2.3c-1.5,0-2.7-1-3-2.4l-3.3-15.5h8.6L23.1,50.8z M54.3,26.3c0,1.7-1.1,3.2-2.7,3.6v-7.3
	C53.2,23.2,54.3,24.6,54.3,26.3z M41.5,3.6v29.5c0,0.6,0.5,1.1,1.1,1.1s1.1-0.5,1.1-1.1V2.2c0.1,0,0.2,0,0.3,0h3.2
	c1.3,0,2.3,1,2.3,2.3v43.8c0,1.3-1,2.3-2.3,2.3h-3.2c-0.6,0-1.1-0.2-1.6-0.6L26.3,34.8V17.9L41.5,3.6z M2.5,24.1h3.7
	c0.6,0,1.1-0.5,1.1-1.1s-0.5-1.1-1.1-1.1H3.6c1.5-2.2,3.9-3.4,6.5-3.4h14v15.9h-14c-4.4,0-8-3.6-8-8C2.2,25.7,2.3,24.9,2.5,24.1z"/>
<path id="Path_1174" d="M81.8,25.4H65.2c-0.6,0-1.1,0.5-1.1,1.1c0,0.6,0.5,1.1,1.1,1.1h16.6c0.6,0,1.1-0.5,1.1-1.1
	C82.8,25.9,82.4,25.4,81.8,25.4z"/>
<path id="Path_1175" d="M70.5,16.9c-0.3-0.5-0.9-0.7-1.4-0.5l-6,3c-0.5,0.3-0.7,0.9-0.5,1.4c0.2,0.4,0.6,0.6,1,0.6
	c0.2,0,0.3,0,0.5-0.1l6-3C70.5,18.1,70.7,17.5,70.5,16.9z"/>
<path id="Path_1176" d="M78.8,11.6l-3,1.5c-0.5,0.3-0.7,0.9-0.5,1.4c0.2,0.4,0.6,0.6,1,0.6c0.2,0,0.3,0,0.5-0.1l3-1.5
	c0.5-0.3,0.8-0.9,0.5-1.4C80,11.5,79.4,11.3,78.8,11.6C78.8,11.6,78.8,11.6,78.8,11.6L78.8,11.6z"/>
<path id="Path_1177" d="M58.6,16.6c0.5,0.3,1.2,0.2,1.5-0.3c0,0,0,0,0,0l6-8.6c0.3-0.5,0.2-1.2-0.3-1.5c-0.5-0.3-1.1-0.2-1.5,0.3
	l-6,8.6C58,15.6,58.1,16.2,58.6,16.6z"/>
<path id="Path_1178" d="M69.5,37c0.6,0,1.1-0.5,1.1-1.1c0-0.4-0.2-0.8-0.6-1l-6-3c-0.5-0.3-1.2,0-1.4,0.5c-0.2,0.5,0,1.1,0.5,1.4
	l6,3C69.2,37,69.3,37,69.5,37z"/>
<path id="Path_1179" d="M78.8,41.8c0.1,0.1,0.3,0.1,0.5,0.1c0.6,0,1.1-0.5,1.1-1.1c0-0.4-0.2-0.8-0.6-1l-3-1.5
	c-0.5-0.3-1.2-0.1-1.5,0.4s-0.1,1.2,0.4,1.5c0,0,0,0,0,0L78.8,41.8z"/>
<path id="Path_1180" d="M65.2,47.3c0.6,0,1.1-0.5,1.1-1.1c0-0.2-0.1-0.4-0.2-0.6l-6-8.6c-0.3-0.5-1-0.6-1.5-0.3
	c-0.5,0.3-0.6,1-0.3,1.5c0,0,0,0,0,0l6,8.6C64.5,47.2,64.9,47.3,65.2,47.3z"/>
</svg>
