<svg xmlns="http://www.w3.org/2000/svg" viewBox="0 0 22.92 22.92"><g id="Laag_2" data-name="Laag 2"><g id="icons"><path d="M14.64,22.92a.49.49,0,0,1-.35-.15L.15,8.63A.48.48,0,0,1,0,8.26l.18-4.6A3.5,3.5,0,0,1,3.68.18L8.26,0a.56.56,0,0,1,.37.15L22.77,14.29a.47.47,0,0,1,.15.35.51.51,0,0,1-.15.36L15,22.77A.51.51,0,0,1,14.64,22.92ZM1,8.08,14.64,21.71l7.07-7.07L8.08,1,3.7,1.18a2.49,2.49,0,0,0-2.52,2.5Z"/><path d="M4.39,6.89a2.49,2.49,0,0,1-1.77-.73,2.52,2.52,0,0,1,0-3.54,2.57,2.57,0,0,1,3.54,0A2.5,2.5,0,0,1,4.39,6.89Zm0-4a1.46,1.46,0,0,0-1.06.44,1.5,1.5,0,0,0,0,2.12,1.53,1.53,0,0,0,2.12,0,1.5,1.5,0,0,0,0-2.12A1.46,1.46,0,0,0,4.39,2.89Z"/></g></g></svg>