<?xml version="1.0" encoding="utf-8"?>
<!-- Generator: Adobe Illustrator 23.0.6, SVG Export Plug-In . SVG Version: 6.00 Build 0)  -->
<svg version="1.1" id="Laag_1" xmlns="http://www.w3.org/2000/svg" xmlns:xlink="http://www.w3.org/1999/xlink" x="0px" y="0px"
	 viewBox="0 0 38.2 51" style="enable-background:new 0 0 38.2 51;" xml:space="preserve">
<path id="Path_2052" d="M12.7,30.5V9.4h6.9c1.7-0.1,3.4,0,5.1,0.3c1.2,0.3,2.3,1.1,3,2.1c0.9,1.2,1.3,2.6,1.2,4.1
	c0,1.1-0.2,2.3-0.7,3.3c-0.4,0.8-1,1.5-1.8,2.1c-0.7,0.5-1.4,0.8-2.2,1c-1.5,0.2-2.9,0.3-4.4,0.3H17v8L12.7,30.5z M17,12.9v6h2.3
	c1.1,0.1,2.3,0,3.4-0.3c0.5-0.2,1-0.6,1.3-1c0.3-0.5,0.5-1.1,0.5-1.6c0-0.7-0.2-1.4-0.7-1.9c-0.5-0.5-1.1-0.8-1.7-0.9
	c-1-0.1-2-0.2-3.1-0.1L17,12.9z"/>
<path id="Path_2053" d="M19.1,0L19.1,0C8.5,0,0,8.6,0,19.1c0,0,0,0,0,0c0.2,4.3,1.5,8.5,3.7,12.2c3.5,5.6,13.8,17.8,15.4,19.6V51
	c0,0,0,0,0.1-0.1c0,0,0,0,0.1,0.1v-0.1c1.5-1.8,11.8-14,15.3-19.6c2.2-3.7,3.5-7.9,3.7-12.2C38.2,8.5,29.7,0,19.1,0z M19,35
	c-8.7,0-15.7-7-15.7-15.7c0-8.7,7-15.7,15.7-15.7c8.7,0,15.7,7,15.7,15.7C34.7,28,27.7,35,19,35L19,35L19,35z"/>
</svg>
