<?xml version="1.0" encoding="utf-8"?>
<!-- Generator: Adobe Illustrator 23.0.6, SVG Export Plug-In . SVG Version: 6.00 Build 0)  -->
<svg version="1.1" id="Laag_1" xmlns="http://www.w3.org/2000/svg" xmlns:xlink="http://www.w3.org/1999/xlink" x="0px" y="0px"
	 viewBox="0 0 88.5 48.5" style="enable-background:new 0 0 88.5 48.5;" xml:space="preserve">
<g id="Group_3530" transform="translate(-229.413 -3409.998)">
	<g id="Path_2076">
		<path d="M262.7,3458.5C262.6,3458.5,262.6,3458.5,262.7,3458.5c-0.7-0.1-1.3-0.6-1.3-1.2c0-1-1.3-2-3.5-2.8
			c-2.4-0.8-5.7-1.2-9.2-1.2c-7,0-12.8,1.8-12.8,4c0,0.7-0.5,1.2-1.2,1.2c-0.7,0.1-1.2-0.4-1.3-1.1l-4-26c-0.1-0.4,0-0.7,0.3-1
			s0.6-0.4,0.9-0.4h36c0.4,0,0.7,0.2,0.9,0.4s0.3,0.6,0.3,1l-4,26C263.8,3458.1,263.3,3458.5,262.7,3458.5z M248.7,3450.8
			c4.9,0,10.4,0.8,13.3,3l3.3-21.2h-33.1l3.3,21.2C238.2,3451.6,243.7,3450.8,248.7,3450.8z"/>
	</g>
	<g id="Path_2077">
		<path d="M238.4,3432.5h-4.2c-0.6,0-1-0.4-1.2-0.9l-2.5-8.5c-0.2-0.6,0.2-1.3,0.8-1.5l3.8-1.3c0.3-0.1,0.7-0.1,1,0.1
			c0.3,0.2,0.5,0.4,0.6,0.8l2.9,9.8c0.1,0.4,0,0.8-0.2,1.1C239.2,3432.3,238.8,3432.5,238.4,3432.5z M235.2,3430h1.6l-2-6.9
			l-1.5,0.5L235.2,3430z"/>
	</g>
	<g id="Path_2078">
		<path d="M246.5,3432.5h-4.1c-0.6,0-1.1-0.4-1.2-1l-2.8-16.8c-0.1-0.7,0.3-1.3,1-1.4l3.9-0.8c0.3-0.1,0.7,0,1,0.2
			c0.3,0.2,0.5,0.5,0.5,0.8l2.9,17.5c0.1,0.4,0,0.7-0.3,1C247.2,3432.3,246.9,3432.5,246.5,3432.5z M243.5,3430h1.5l-2.4-14.8
			l-1.5,0.3L243.5,3430z"/>
	</g>
	<g id="Rectangle_2345">
		<path d="M250.2,3432.5h-4c-0.7,0-1.2-0.6-1.2-1.2v-20c0-0.7,0.6-1.2,1.2-1.2h4c0.7,0,1.2,0.6,1.2,1.2v20
			C251.5,3431.9,250.9,3432.5,250.2,3432.5z M247.5,3430h1.5v-17.5h-1.5V3430z"/>
	</g>
	<g id="Path_2079">
		<path d="M254.9,3432.5h-4.1c-0.4,0-0.7-0.2-1-0.4c-0.2-0.3-0.3-0.7-0.3-1l2.9-17.4c0.1-0.7,0.7-1.1,1.4-1l3.9,0.5
			c0.3,0,0.6,0.2,0.8,0.5c0.2,0.3,0.3,0.6,0.2,0.9l-2.8,16.9C256,3432.1,255.5,3432.5,254.9,3432.5z M252.3,3430h1.5l2.4-14.6
			l-1.5-0.2L252.3,3430z"/>
	</g>
	<g id="Path_2080">
		<path d="M263,3432.5h-4.2c-0.4,0-0.8-0.2-1-0.5c-0.2-0.3-0.3-0.7-0.2-1.1l2.9-9.7c0.2-0.7,0.9-1,1.5-0.9l3.8,1
			c0.3,0.1,0.6,0.3,0.8,0.6s0.2,0.6,0.1,1l-2.5,8.6C264.1,3432.1,263.6,3432.5,263,3432.5z M260.5,3430h1.6l1.9-6.5l-1.4-0.4
			L260.5,3430z"/>
	</g>
</g>
<g id="Group_3531" transform="translate(407 -3505.998)">
	<g id="Rectangle_2346">
		<path d="M-330.8,3554.5h-24c-2.3,0-4.2-1.9-4.2-4.2v-40c0-2.3,1.9-4.2,4.2-4.2h24c2.3,0,4.2,1.9,4.2,4.2v40
			C-326.5,3552.6-328.4,3554.5-330.8,3554.5z M-354.8,3508.5c-1,0-1.8,0.8-1.8,1.8v40c0,1,0.8,1.8,1.8,1.8h24c1,0,1.8-0.8,1.8-1.8
			v-40c0-1-0.8-1.8-1.8-1.8H-354.8z"/>
	</g>
	<g id="Path_2081">
		<path d="M-324.1,3542.5h-3.6c-0.7,0-1.2-0.6-1.2-1.2v-24c0-0.7,0.6-1.2,1.2-1.2h3.6c4.9,0,5.6,2.9,5.6,4.6v15.3
			C-318.5,3539.1-320.8,3542.5-324.1,3542.5z M-326.5,3540h2.4c1.8,0,3.1-2.1,3.1-4v-15.3c0-1-0.2-2.1-3.1-2.1h-2.4V3540z"/>
	</g>
	<g id="Line_471">
		<path d="M-351.8,3547.5c-0.7,0-1.2-0.6-1.2-1.2v-28c0-0.7,0.6-1.2,1.2-1.2s1.2,0.6,1.2,1.2v28
			C-350.5,3546.9-351.1,3547.5-351.8,3547.5z"/>
	</g>
	<g id="Line_472">
		<path d="M-328.8,3518.5h-28c-0.7,0-1.2-0.6-1.2-1.2s0.6-1.2,1.2-1.2h28c0.7,0,1.2,0.6,1.2,1.2S-328.1,3518.5-328.8,3518.5z"/>
	</g>
	<g id="Line_473">
		<path d="M-345.8,3547.5c-0.7,0-1.2-0.6-1.2-1.2v-28c0-0.7,0.6-1.2,1.2-1.2s1.2,0.6,1.2,1.2v28
			C-344.5,3546.9-345.1,3547.5-345.8,3547.5z"/>
	</g>
	<g id="Line_474">
		<path d="M-339.8,3547.5c-0.7,0-1.2-0.6-1.2-1.2v-28c0-0.7,0.6-1.2,1.2-1.2s1.2,0.6,1.2,1.2v28
			C-338.5,3546.9-339.1,3547.5-339.8,3547.5z"/>
	</g>
	<g id="Line_475">
		<path d="M-333.8,3547.5c-0.7,0-1.2-0.6-1.2-1.2v-28c0-0.7,0.6-1.2,1.2-1.2s1.2,0.6,1.2,1.2v28
			C-332.5,3546.9-333.1,3547.5-333.8,3547.5z"/>
	</g>
</g>
</svg>
