<svg xmlns="http://www.w3.org/2000/svg" viewBox="0 0 21.26 21.24"><g id="Laag_2" data-name="Laag 2"><g id="icons"><path d="M.5,21.24a.47.47,0,0,1-.35-.15.49.49,0,0,1-.09-.58L3.14,14.6a.38.38,0,0,1,.09-.13L16.71,1c1.15-1.15,3-1.33,3.92-.38a2.82,2.82,0,0,1-.38,3.92L6.76,18a.27.27,0,0,1-.12.09L.73,21.18A.46.46,0,0,1,.5,21.24ZM4,15.13,1.68,19.56l4.43-2.31L19.54,3.82a1.85,1.85,0,0,0,.39-2.51A1.29,1.29,0,0,0,19,1a2.34,2.34,0,0,0-1.6.73Z"/><rect x="5.68" y="13.56" width="1" height="3" transform="translate(-8.84 8.78) rotate(-45)"/><path d="M7.94,8.14A.5.5,0,0,1,7.59,8a.5.5,0,0,1,0-.71l6-6A.52.52,0,0,1,14,1.13h0a.52.52,0,0,1,.36.14l4.59,4.6a.5.5,0,0,1,0,.71.5.5,0,0,1-.7,0L14,2.33,8.3,8A.51.51,0,0,1,7.94,8.14Z"/></g></g></svg>