<svg xmlns="http://www.w3.org/2000/svg" width="22.025" height="22.025" viewBox="0 0 22.025 22.025">
  <g id="call-24px" transform="translate(-20.482 -4.81)">
    <path id="Path_16" data-name="Path 16" d="M23.814,18.148a14,14,0,0,1-4.319-.685,1.2,1.2,0,0,0-1.236.294l-1.921,2.411A18.579,18.579,0,0,1,7.907,11.81l2.386-2.031a1.249,1.249,0,0,0,.294-1.248A13.647,13.647,0,0,1,9.9,4.211,1.222,1.222,0,0,0,8.69,3H4.456C3.8,3,3,3.294,3,4.211A20.988,20.988,0,0,0,23.814,25.025a1.284,1.284,0,0,0,1.211-1.444V19.36A1.222,1.222,0,0,0,23.814,18.148Z" transform="translate(17.482 1.81)" fill="inherit"/>
  </g>
</svg>
