<svg xmlns="http://www.w3.org/2000/svg" viewBox="0 0 23.26 14.08"><g id="Laag_2" data-name="Laag 2"><g id="icons"><path d="M22.76,11.54H.76a.5.5,0,0,1-.5-.5.5.5,0,0,1,.5-.5h22a.51.51,0,0,1,.5.5A.5.5,0,0,1,22.76,11.54Z"/><path d="M22.76,3.54H.76A.5.5,0,0,1,.26,3a.5.5,0,0,1,.5-.5h22a.51.51,0,0,1,.5.5A.5.5,0,0,1,22.76,3.54Z"/><path d="M2.46,14.08a.5.5,0,0,1-.4-.19l-2-2.54a.53.53,0,0,1,0-.61l2-2.54a.5.5,0,0,1,.7-.1.51.51,0,0,1,.09.71L1.13,11l1.72,2.24a.49.49,0,0,1-.39.8Z"/><path d="M20.5,6.08a.52.52,0,0,1-.31-.1.51.51,0,0,1-.09-.7L21.83,3,20.1.81A.53.53,0,0,1,20.19.1a.51.51,0,0,1,.71.1l2,2.54a.5.5,0,0,1,0,.61l-2,2.54A.5.5,0,0,1,20.5,6.08Z"/></g></g></svg>