<svg xmlns="http://www.w3.org/2000/svg" xmlns:xlink="http://www.w3.org/1999/xlink" width="15.774" height="20.376" viewBox="0 0 15.774 20.376">
  <path id="Path_931" data-name="Path 931" d="M439.368,201.942a.4.4,0,0,0,.587-.292c.053-.206.181-.724.238-.939a.566.566,0,0,0-.169-.653,3.377,3.377,0,0,1-.772-2.3,5.543,5.543,0,0,1,5.763-5.606c3.143,0,4.869,1.92,4.869,4.486,0,3.374-1.493,6.222-3.711,6.222a1.812,1.812,0,0,1-1.847-2.254,25.041,25.041,0,0,0,1.033-4.154,1.567,1.567,0,0,0-1.578-1.757c-1.252,0-2.257,1.3-2.257,3.03a4.5,4.5,0,0,0,.373,1.852s-1.281,5.428-1.506,6.377a13.132,13.132,0,0,0-.035,4.448.156.156,0,0,0,.279.068,12.5,12.5,0,0,0,2.112-3.831c.144-.521.824-3.217.824-3.217a3.354,3.354,0,0,0,2.859,1.458c3.763,0,6.315-3.429,6.315-8.021,0-3.472-2.94-6.7-7.41-6.7-5.561,0-8.365,3.987-8.365,7.311C436.972,199.485,437.734,201.275,439.368,201.942Z" transform="translate(-436.972 -190.16)" fill="inherit"/>
</svg>
