<svg xmlns="http://www.w3.org/2000/svg" width="38.001" height="38" viewBox="0 0 38.001 38">
  <g id="Group_3883" data-name="Group 3883" transform="translate(0)">
    <path id="Path_2205" data-name="Path 2205" d="M483.721,4213.815a17.417,17.417,0,1,1-17.417,17.417,17.436,17.436,0,0,1,17.417-17.417m0-1.583a19,19,0,1,0,19,19,19,19,0,0,0-19-19Z" transform="translate(-464.721 -4212.232)"/>
    <path id="Path_2206" data-name="Path 2206" d="M482.554,4215.815a14.25,14.25,0,1,1-14.25,14.25,14.265,14.265,0,0,1,14.25-14.25m0-1.583a15.833,15.833,0,1,0,15.833,15.833,15.833,15.833,0,0,0-15.833-15.833Z" transform="translate(-463.554 -4211.065)"/>
    <g id="Group_3879" data-name="Group 3879" transform="translate(5.542 5.542)">
      <g id="Group_3877" data-name="Group 3877" transform="translate(11.083)">
        <path id="Path_2207" data-name="Path 2207" d="M477.6,4220.482a2.375,2.375,0,1,1,2.375-2.375A2.377,2.377,0,0,1,477.6,4220.482Zm0-3.167a.792.792,0,1,0,.792.792A.793.793,0,0,0,477.6,4217.315Z" transform="translate(-475.221 -4215.732)"/>
        <path id="Path_2208" data-name="Path 2208" d="M477.6,4234.482a2.375,2.375,0,1,1,2.375-2.375A2.377,2.377,0,0,1,477.6,4234.482Zm0-3.167a.792.792,0,1,0,.792.792A.793.793,0,0,0,477.6,4231.315Z" transform="translate(-475.221 -4207.565)"/>
      </g>
      <g id="Group_3878" data-name="Group 3878" transform="translate(0 11.083)">
        <path id="Path_2209" data-name="Path 2209" d="M470.6,4227.482a2.375,2.375,0,1,1,2.375-2.375A2.377,2.377,0,0,1,470.6,4227.482Zm0-3.167a.792.792,0,1,0,.792.792A.793.793,0,0,0,470.6,4224.315Z" transform="translate(-468.221 -4222.732)"/>
        <path id="Path_2210" data-name="Path 2210" d="M484.6,4227.482a2.375,2.375,0,1,1,2.375-2.375A2.377,2.377,0,0,1,484.6,4227.482Zm0-3.167a.792.792,0,1,0,.792.792A.793.793,0,0,0,484.6,4224.315Z" transform="translate(-460.054 -4222.732)"/>
      </g>
    </g>
    <g id="Group_3882" data-name="Group 3882" transform="translate(8.788 8.813)">
      <g id="Group_3880" data-name="Group 3880">
        <path id="Path_2211" data-name="Path 2211" d="M472.648,4222.524a2.372,2.372,0,0,1-1.678-4.053,2.429,2.429,0,0,1,3.358,0,2.374,2.374,0,0,1-1.68,4.053Zm0-3.167a.794.794,0,0,0-.793.79.8.8,0,0,0,.233.562.812.812,0,0,0,1.121,0,.8.8,0,0,0,0-1.12A.786.786,0,0,0,472.648,4219.358Z" transform="translate(-470.271 -4217.797)"/>
        <path id="Path_2212" data-name="Path 2212" d="M482.546,4232.424a2.377,2.377,0,0,1-1.681-4.056,2.439,2.439,0,0,1,3.361,0,2.376,2.376,0,0,1-1.68,4.056Zm0-3.167a.791.791,0,0,0-.562,1.351.811.811,0,0,0,1.123,0,.792.792,0,0,0,0-1.12A.784.784,0,0,0,482.546,4229.257Z" transform="translate(-464.496 -4212.023)"/>
      </g>
      <g id="Group_3881" data-name="Group 3881">
        <path id="Path_2213" data-name="Path 2213" d="M472.646,4232.424a2.375,2.375,0,0,1-1.678-4.056,2.437,2.437,0,0,1,3.36,0,2.377,2.377,0,0,1-1.682,4.056Zm0-3.167a.787.787,0,0,0-.561.231.79.79,0,0,0,0,1.12.809.809,0,0,0,1.121,0,.794.794,0,0,0,0-1.12A.78.78,0,0,0,472.648,4229.257Z" transform="translate(-470.271 -4212.023)"/>
        <path id="Path_2214" data-name="Path 2214" d="M482.546,4222.524a2.374,2.374,0,0,1-1.68-4.053,2.429,2.429,0,0,1,3.358,0,2.373,2.373,0,0,1-1.678,4.053Zm0-3.167a.791.791,0,0,0-.561,1.352.818.818,0,0,0,1.121,0,.792.792,0,0,0-.56-1.352Z" transform="translate(-464.496 -4217.797)"/>
      </g>
    </g>
    <path id="Path_2215" data-name="Path 2215" d="M477.6,4227.482a2.375,2.375,0,1,1,2.375-2.375A2.377,2.377,0,0,1,477.6,4227.482Zm0-3.167a.792.792,0,1,0,.792.792A.793.793,0,0,0,477.6,4224.315Z" transform="translate(-458.596 -4206.107)"/>
    <path id="Path_2216" data-name="Path 2216" d="M476.6,4221.9a.78.78,0,0,1-.559-.231l-1.583-1.583a.791.791,0,1,1,1.119-1.119l1.583,1.583a.791.791,0,0,1-.56,1.35Z" transform="translate(-459.179 -4208.439)"/>
    <path id="Path_2217" data-name="Path 2217" d="M478.013,4221.9a.779.779,0,0,1-.559-.231.789.789,0,0,1,0-1.119l1.583-1.583a.791.791,0,0,1,1.119,1.119l-1.583,1.583A.786.786,0,0,1,478.013,4221.9Z" transform="translate(-457.429 -4208.439)"/>
    <path id="Path_2218" data-name="Path 2218" d="M473.6,4224.9a.78.78,0,0,1-.559-.231l-1.583-1.583a.791.791,0,0,1,1.119-1.119l1.583,1.583a.791.791,0,0,1-.56,1.35Z" transform="translate(-460.929 -4206.689)"/>
    <path id="Path_2219" data-name="Path 2219" d="M473.875,4227.815h-1.583a.792.792,0,1,1,0-1.583h1.583a.792.792,0,1,1,0,1.583Z" transform="translate(-460.766 -4204.065)"/>
    <path id="Path_2220" data-name="Path 2220" d="M476.792,4229.9a.791.791,0,0,1-.792-.792v-1.583a.792.792,0,0,1,1.583,0v1.583A.791.791,0,0,1,476.792,4229.9Z" transform="translate(-458.141 -4203.773)"/>
    <path id="Path_2221" data-name="Path 2221" d="M481.875,4227.815h-1.583a.792.792,0,1,1,0-1.583h1.583a.792.792,0,1,1,0,1.583Z" transform="translate(-456.1 -4204.065)"/>
    <path id="Path_2222" data-name="Path 2222" d="M480.013,4225.9a.781.781,0,0,1-.559-.231.79.79,0,0,1,0-1.12l1.583-1.583a.792.792,0,0,1,1.119,1.12l-1.583,1.583A.788.788,0,0,1,480.013,4225.9Z" transform="translate(-456.263 -4206.106)"/>
  </g>
</svg>
