<svg id="Group_3564" data-name="Group 3564" xmlns="http://www.w3.org/2000/svg" width="101.217" height="106.815" viewBox="0 0 101.217 106.815">
  <path id="Path_2256" data-name="Path 2256" d="M12.367,0l9.128,19.352L0,21.3Z" transform="translate(35.252 44.882) rotate(-31)" fill="#fff"/>
  <g id="Group_3559" data-name="Group 3559">
    <g id="Group_3557" data-name="Group 3557">
      <path id="Path_2236" data-name="Path 2236" d="M976.7,325.093c3.09-1.116,5.8-.071,6.764,2.611,1.01,2.8-.48,5.424-3.708,6.588l-2.7.976,1.48,4.1-1.847.666-4.769-13.216Zm2.615,7.426c2.021-.729,2.954-2.406,2.323-4.155-.6-1.652-2.357-2.269-4.378-1.539l-2.877,1.038,2.054,5.7Z" transform="translate(-945.005 -321.8)" fill="#fff"/>
      <path id="Path_2237" data-name="Path 2237" d="M987.461,336.849l-1.883.263-2.027-14.53,1.883-.263Z" transform="translate(-942.418 -322.319)" fill="#fff"/>
      <path id="Path_2238" data-name="Path 2238" d="M998.909,326.545l-.617,9.635-1.9-.121.054-.846a5.076,5.076,0,1,1,.51-7.944l.055-.846Zm-2.328,6.562.24-3.734a3.407,3.407,0,0,0-2.851-1.737,3.424,3.424,0,0,0-.438,6.829A3.408,3.408,0,0,0,996.582,333.107Z" transform="translate(-941.303 -321.509)" fill="#fff"/>
      <path id="Path_2239" data-name="Path 2239" d="M999.912,342.371l-1.881-.693,3.506-3.6-1.092-11.154,1.921.708.848,8.705,6.02-6.176,1.881.693Z" transform="translate(-939.196 -321.294)" fill="#fff"/>
      <path id="Path_2240" data-name="Path 2240" d="M1013.136,345.007l-1.252-1.141,3.153-10.182,1.482,1.35-2.38,7.616,7.345-3.094,1.5,1.364Z" transform="translate(-936.113 -319.79)" fill="#fff"/>
      <path id="Path_2241" data-name="Path 2241" d="M1025.22,344.069l-7.8,5.7-1.11-1.52,7.8-5.7Zm1.611-3.892a1.2,1.2,0,0,1,1.7.295,1.2,1.2,0,1,1-1.937,1.414A1.2,1.2,0,0,1,1026.832,340.177Z" transform="translate(-935.128 -318.398)" fill="#fff"/>
      <path id="Path_2242" data-name="Path 2242" d="M1022.256,358.85l-.781-1.734.792-.357a4.9,4.9,0,0,1-2.324-2.489,5.065,5.065,0,0,1,9.232-4.159,4.9,4.9,0,0,1,.326,3.389l5.351-2.41.78,1.734Zm1.913-2.948,3.409-1.535a3.41,3.41,0,0,0,.2-3.331,3.423,3.423,0,0,0-6.236,2.809A3.462,3.462,0,0,0,1024.169,355.9Z" transform="translate(-934.415 -316.773)" fill="#fff"/>
      <path id="Path_2243" data-name="Path 2243" d="M1027.7,367.234l-.006-.042-1.076-7.776a3.157,3.157,0,0,0-2.477,3.659,2.5,2.5,0,0,0,1.511,2.169l.28,2.026a4.476,4.476,0,0,1-3.456-4.026,5.134,5.134,0,0,1,10.164-1.45c.38,2.742-1.4,4.969-4.34,5.4A4.57,4.57,0,0,1,1027.7,367.234Zm.11-7.941.819,5.914a2.808,2.808,0,0,0,2.416-3.192A3.1,3.1,0,0,0,1027.806,359.293Z" transform="translate(-933.77 -314.502)" fill="#fff"/>
      <path id="Path_2244" data-name="Path 2244" d="M1026.8,377.621a5.136,5.136,0,1,1,5.747-4.368A5.034,5.034,0,0,1,1026.8,377.621Zm.268-1.9a3.226,3.226,0,1,0,.9-6.385,3.228,3.228,0,1,0-.9,6.385Z" transform="translate(-933.777 -312.289)" fill="#fff"/>
      <path id="Path_2245" data-name="Path 2245" d="M1023.026,386.608a2.542,2.542,0,1,1-3.528.611A2.577,2.577,0,0,1,1023.026,386.608Z" transform="translate(-934.52 -308.112)" fill="#fff"/>
      <path id="Path_2246" data-name="Path 2246" d="M1011.54,408.57c-2.929,1.489-5.745.786-7.037-1.757-1.348-2.654-.193-5.445,2.867-7l2.562-1.3-1.976-3.889,1.749-.89,6.368,12.532Zm-3.512-7.05c-1.916.973-2.634,2.753-1.792,4.412.8,1.566,2.62,1.961,4.537.989l2.727-1.386-2.743-5.4Z" transform="translate(-937.88 -306.429)" fill="#fff"/>
      <path id="Path_2247" data-name="Path 2247" d="M998.163,398.191,1000,397.7l3.789,14.171-1.836.49Z" transform="translate(-939.166 -305.546)" fill="#fff"/>
      <path id="Path_2248" data-name="Path 2248" d="M989.023,408.9l-.549-9.635,1.9-.109.049.846a5.074,5.074,0,1,1,.453,7.944l.048.845Zm1.517-6.793.213,3.735a3.409,3.409,0,0,0,3.038,1.379,3.423,3.423,0,0,0-.389-6.829A3.412,3.412,0,0,0,990.54,402.111Z" transform="translate(-941.322 -305.319)" fill="#fff"/>
      <path id="Path_2249" data-name="Path 2249" d="M986.548,394.343l1.952.456-3.037,4,2.456,10.933-1.993-.466-1.912-8.534L978.8,407.6l-1.951-.456Z" transform="translate(-943.909 -306.293)" fill="#fff"/>
      <path id="Path_2250" data-name="Path 2250" d="M972.824,392.613l1.381.981-1.895,10.485-1.634-1.16,1.44-7.845-6.916,3.958-1.649-1.171Z" transform="translate(-946.868 -306.678)" fill="#fff"/>
      <path id="Path_2251" data-name="Path 2251" d="M959.932,398.793a1.241,1.241,0,1,1,.027-1.724A1.2,1.2,0,0,1,959.932,398.793Zm1.13-4.056,7.047-6.594,1.285,1.374-7.048,6.593Z" transform="translate(-948.134 -307.673)" fill="#fff"/>
      <path id="Path_2252" data-name="Path 2252" d="M962.958,380.006l.987,1.626-.741.45a4.908,4.908,0,0,1,2.609,2.188,5.065,5.065,0,0,1-8.655,5.256,4.912,4.912,0,0,1-.737-3.325l-5.017,3.046-.987-1.626Zm-1.539,3.159-3.2,1.941a3.409,3.409,0,0,0,.209,3.331,3.423,3.423,0,0,0,5.847-3.55A3.459,3.459,0,0,0,961.419,383.165Z" transform="translate(-949.79 -309.483)" fill="#fff"/>
      <path id="Path_2253" data-name="Path 2253" d="M955.46,372l.011.039,2.02,7.592A3.159,3.159,0,0,0,959.5,375.7a2.5,2.5,0,0,0-1.764-1.969l-.527-1.978a4.484,4.484,0,0,1,3.925,3.577,5.138,5.138,0,0,1-9.918,2.682c-.713-2.677.78-5.108,3.652-5.893A4.275,4.275,0,0,1,955.46,372Zm.862,7.9-1.537-5.773a2.808,2.808,0,0,0-2.009,3.465A3.1,3.1,0,0,0,956.322,379.9Z" transform="translate(-949.651 -311.32)" fill="#fff"/>
      <path id="Path_2254" data-name="Path 2254" d="M955.078,361.645a5.137,5.137,0,1,1-5.172,5.038A5.034,5.034,0,0,1,955.078,361.645Zm-.033,1.922a3.229,3.229,0,1,0,3.335,3.262A3.217,3.217,0,0,0,955.045,363.567Z" transform="translate(-949.904 -313.569)" fill="#fff"/>
      <path id="Path_2255" data-name="Path 2255" d="M956.732,351.359a2.542,2.542,0,1,1,3.427-1.035A2.577,2.577,0,0,1,956.732,351.359Z" transform="translate(-948.675 -316.916)" fill="#fff"/>
    </g>
  </g>
</svg>
