<svg xmlns="http://www.w3.org/2000/svg" viewBox="0 0 22.69 22.66"><g id="Laag_2" data-name="Laag 2"><g id="icons"><path d="M.5,22.66a.47.47,0,0,1-.35-.15A.49.49,0,0,1,0,22.05l1.67-7.32a.6.6,0,0,1,.13-.25L15.3,1A2.9,2.9,0,0,1,19.23.6l2.83,2.83a2.3,2.3,0,0,1,.61,1.95,3.44,3.44,0,0,1-1,2L8.18,20.85a.47.47,0,0,1-.24.13L.61,22.65Zm2.12-7.57L1.16,21.5,7.57,20,21,6.66a2.48,2.48,0,0,0,.73-1.4,1.32,1.32,0,0,0-.33-1.12L18.52,1.31a1.25,1.25,0,0,0-.9-.34A2.4,2.4,0,0,0,16,1.71Z"/><rect x="16.25" y="2.02" width="1" height="7.78" transform="translate(0.73 13.58) rotate(-45)"/><rect x="14.13" y="4.14" width="1" height="7.78" transform="translate(-1.39 12.7) rotate(-45)"/><path d="M8.26,20.56A6.67,6.67,0,0,1,2.1,14.4h1a5.67,5.67,0,0,0,5.16,5.16Z"/><rect x="2.7" y="12.52" width="13.88" height="1" transform="translate(-6.38 10.63) rotate(-45)"/></g></g></svg>