<svg xmlns="http://www.w3.org/2000/svg" viewBox="0 0 24 23.79"><g id="Laag_2" data-name="Laag 2"><g id="icons"><path d="M11.5,12a.5.5,0,0,1-.48-.35.51.51,0,0,1,.33-.63c1.39-.44,2.37-1,2.67-2.57a.49.49,0,0,1,.58-.4.5.5,0,0,1,.4.59A4.26,4.26,0,0,1,11.65,12Z"/><path d="M13.5,13a.51.51,0,0,1-.48-.35.51.51,0,0,1,.33-.63A3.73,3.73,0,0,0,16,8.54a.5.5,0,0,1,1,0A4.68,4.68,0,0,1,13.65,13Z"/><path d="M17,10l-.68,0a.51.51,0,0,1-.47-.54A.5.5,0,0,1,16.39,9L17,9c3.31,0,6-1.79,6-4s-2.69-4-6-4-6,1.79-6,4c0,1.55,1.38,3,3.5,3.63a.5.5,0,0,1-.29,1C11.65,8.8,10,7,10,5c0-2.76,3.14-5,7-5s7,2.24,7,5S20.86,10,17,10Z"/><path d="M17.5,23.79a.5.5,0,0,1-.26-.08l-5.93-3.56a3.87,3.87,0,0,1-2.76.65H8c-4.49,0-8-2.59-8-5.9S3.51,9,8,9a9.72,9.72,0,0,1,5.22,1.47.5.5,0,0,1-.54.84A8.72,8.72,0,0,0,8,10c-3.86,0-7,2.21-7,4.94s3.14,4.9,7,4.9h.59a2.71,2.71,0,0,0,2.31-.62.49.49,0,0,1,.61-.08L16.3,22l-2.09-4.23a.5.5,0,0,1,.08-.55A3.86,3.86,0,0,0,15,15a4,4,0,0,0-1-2.58.5.5,0,1,1,.76-.64A4.93,4.93,0,0,1,16,15a4.78,4.78,0,0,1-.76,2.56L18,23.07a.49.49,0,0,1-.11.58A.51.51,0,0,1,17.5,23.79Z"/></g></g></svg>