<?xml version="1.0" encoding="UTF-8"?><svg id="Layer_2" xmlns="http://www.w3.org/2000/svg" xmlns:xlink="http://www.w3.org/1999/xlink" viewBox="0 0 300 299.53"><defs><style>.cls-1{clip-path:url(#clippath);}.cls-2{fill:none;}.cls-2,.cls-3,.cls-4{stroke-width:0px;}.cls-3{fill:#e3eaf4;}.cls-4{fill:#fff;}</style><clipPath id="clippath"><ellipse class="cls-2" cx="150" cy="149.77" rx="150" ry="149.77"/></clipPath></defs><g id="Layer_1-2"><ellipse class="cls-3" cx="150" cy="149.77" rx="150" ry="149.77"/><g class="cls-1"><path class="cls-4" d="M227.52,206.5l-7.18-21.5c37.54-7.57,52.28-30.86,56.33-38.94.76-1.52.7-3.33-.18-4.8-4.57-7.63-16.86-29.19-18.75-37.18-4.13-17.46-11.36-32.26-20.9-42.81-11.36-12.56-25.47-18.92-41.95-18.92-2.76,0-5,2.24-5,4.99s2.24,4.99,5,4.99c36.4,0,49.27,37.8,53.12,54.05,2.23,9.42,14.08,30.12,18.45,37.56-5.97,10.25-24.69,33.49-71.57,33.49-2.76,0-5,2.23-5,4.99s2.24,4.99,5,4.99c5.48,0,10.62-.3,15.44-.85l8.81,26.38c.68,2.04,2.59,3.41,4.74,3.41,12.39,0,28.54,5.23,41.13,13.33,13.67,8.79,21.51,19.7,21.51,29.93,0,2.76,2.24,4.99,5,4.99s5-2.23,5-4.99c0-29.11-40.48-51.32-69-53.12Z"/><path class="cls-4" d="M171.51,213.76h-11.83l-12.77-19.01c2.9-2.59,5.65-5.59,8.2-8.96,8.13-10.75,13.34-24.41,14.35-37.36,7.13-1.23,13.45-5.41,13.45-14.24v-19.3c0-6.07-5.81-10.45-9.66-12.68v-14.53c8.96-11.79,8.64-25.16-.97-35.26-7.1-7.46-18.26-11.97-30.62-12.38-9.28-.3-23.28,1.56-37.86,11.97-41.12.42-46.84,16.53-46.84,33.93v16.27c-3.85,2.23-9.66,6.61-9.66,12.68v19.3c0,7.44,6.35,12.94,15.94,14.31,1.46,16.5,10.49,34.21,23.66,45.7l-10.92,19.56h-11.56c-32.84,0-55.77,18.86-55.77,45.85v7.38c0,2.76,2.24,4.99,5,4.99s5-2.23,5-4.99v-7.38c0-17.85,14.15-35.87,45.77-35.87h14.5c1.81,0,3.48-.98,4.37-2.56l11.74-21.03c6.87,4.12,14.5,6.56,22.55,6.56,7.4,0,14.61-2.1,21.27-6.05l14.02,20.87c.93,1.38,2.49,2.21,4.15,2.21h14.49c25.46,0,40.06,13.07,40.06,35.87v7.38c0,2.76,2.24,4.99,5,4.99s5-2.23,5-4.99v-7.38c0-28.28-19.18-45.85-50.06-45.85ZM73.03,143.83c0-2.76-2.24-4.99-5-4.99-7,0-10.73-2.7-10.73-4.66v-19.22c.25-1.17,3.64-3.78,6.7-5.16,1.8-.8,2.96-2.59,2.96-4.56v-19.3c0-10.67,0-23.95,38.48-23.95,1.08,0,2.13-.35,3-1,10.67-7.99,21.58-11.01,31.13-11.01,11.2,0,20.54,4.15,25.46,9.32,6.51,6.84,6.29,15.17-.62,23.45-.75.9-1.16,2.03-1.16,3.2v19.3c0,1.96,1.16,3.75,2.95,4.55,3.07,1.39,6.46,3.99,6.71,5.09v19.3c0,1.27,0,4.66-8.27,4.66-2.76,0-5,2.24-5,4.99,0,12.15-4.68,25.58-12.51,35.94-2.72,3.6-5.69,6.65-8.82,9.14-.35.13-.69.29-1.01.51-.45.3-.82.68-1.14,1.09-5.83,4.06-12.16,6.23-18.6,6.23-23.99,0-44.54-29.09-44.54-52.9Z"/></g></g></svg>