<svg xmlns="http://www.w3.org/2000/svg" width="35.752" height="33.75" viewBox="0 0 35.752 33.75">
  <g id="Group_1718" data-name="Group 1718" transform="translate(-621.998 -813)">
    <path id="Path_112" data-name="Path 112" d="M837.846,347.911a7.9,7.9,0,0,0-3.06,4.4,7.6,7.6,0,0,0-5.321-.929.727.727,0,0,0-.594.594,7.9,7.9,0,0,0,.948,5.275,7.6,7.6,0,0,0-4.419,3.106.727.727,0,0,0,0,.84,7.9,7.9,0,0,0,4.4,3.06,7.6,7.6,0,0,0-.928,5.321.727.727,0,0,0,.594.594,7.844,7.844,0,0,0,5.273-.953,7.6,7.6,0,0,0,3.107,4.425.727.727,0,0,0,.84,0,7.9,7.9,0,0,0,3.061-4.4,7.344,7.344,0,0,0,3.847,1.06,8.713,8.713,0,0,0,1.473-.128.727.727,0,0,0,.594-.594,7.9,7.9,0,0,0-.948-5.275,7.6,7.6,0,0,0,4.419-3.106.726.726,0,0,0,0-.84,7.9,7.9,0,0,0-4.4-3.06,7.606,7.606,0,0,0,.929-5.321.727.727,0,0,0-.594-.594,7.9,7.9,0,0,0-5.275.948,7.6,7.6,0,0,0-3.106-4.419A.727.727,0,0,0,837.846,347.911Zm.42,10.855a2.011,2.011,0,1,1-1.423.589A2.006,2.006,0,0,1,838.265,358.766Zm-8.029-6.022a6.018,6.018,0,0,1,4.292,1.151c-.008.148-.013.3-.013.446a7.8,7.8,0,0,0,1.17,4.128,3.441,3.441,0,0,0-.649,1.056,6.361,6.361,0,0,1-2.945-1.676A6.434,6.434,0,0,1,830.237,352.744Zm-3.328,8.03a6.017,6.017,0,0,1,3.849-2.221c.1.111.2.219.306.325a7.8,7.8,0,0,0,3.747,2.093,3.46,3.46,0,0,0,.288,1.205,6.36,6.36,0,0,1-3.269.9A6.434,6.434,0,0,1,826.908,360.775Zm3.325,8.032a6.017,6.017,0,0,1,1.15-4.292c.148.008.3.013.446.013a7.807,7.807,0,0,0,4.129-1.17,3.434,3.434,0,0,0,1.056.649,6.361,6.361,0,0,1-1.676,2.945A6.439,6.439,0,0,1,830.233,368.806Zm8.03,3.329a6.018,6.018,0,0,1-2.223-3.859c.109-.1.222-.19.326-.295a7.807,7.807,0,0,0,2.093-3.748,3.471,3.471,0,0,0,1.2-.288,6.359,6.359,0,0,1,.9,3.269A6.435,6.435,0,0,1,838.263,372.135Zm8.032-3.325A6.017,6.017,0,0,1,842,367.66c.009-.148.014-.3.014-.446a7.8,7.8,0,0,0-1.17-4.129,3.442,3.442,0,0,0,.651-1.056,6.364,6.364,0,0,1,2.944,1.675A6.436,6.436,0,0,1,846.295,368.81Zm3.328-8.03A6.018,6.018,0,0,1,845.774,363c-.1-.11-.2-.219-.305-.325a7.806,7.806,0,0,0-3.746-2.092,3.447,3.447,0,0,0-.287-1.207,6.359,6.359,0,0,1,3.266-.9A6.435,6.435,0,0,1,849.623,360.78Zm-3.324-8.032a6.021,6.021,0,0,1-1.15,4.292c-.148-.009-.3-.014-.446-.014a7.8,7.8,0,0,0-4.128,1.17,3.445,3.445,0,0,0-1.056-.649,6.356,6.356,0,0,1,1.676-2.945A6.439,6.439,0,0,1,846.3,352.748Zm-5.809.52c-.111.1-.219.2-.325.306a7.8,7.8,0,0,0-2.093,3.747,3.471,3.471,0,0,0-1.205.288,6.355,6.355,0,0,1-.9-3.268,6.435,6.435,0,0,1,2.3-4.921A6.019,6.019,0,0,1,840.49,353.268Z" transform="translate(-203.268 465.223)" fill="#2f2e41"/>
    <g id="pocket" transform="translate(635 825)">
      <path id="Path_277" data-name="Path 277" d="M4,3H20a2,2,0,0,1,2,2v6A10,10,0,1,1,2,11V5A2,2,0,0,1,4,3Z" fill="#fff" stroke="inherit" stroke-linecap="round" stroke-linejoin="round" stroke-width="1.5"/>
      <path id="Path_278" data-name="Path 278" d="M8,10l4,4,4-4" fill="#fff" stroke="inherit" stroke-linecap="round" stroke-linejoin="round" stroke-width="1.5"/>
    </g>
  </g>
</svg>
