<?xml version="1.0" encoding="utf-8"?>
<!-- Generator: Adobe Illustrator 23.0.6, SVG Export Plug-In . SVG Version: 6.00 Build 0)  -->
<svg version="1.1" id="Laag_1" xmlns="http://www.w3.org/2000/svg" xmlns:xlink="http://www.w3.org/1999/xlink" x="0px" y="0px"
	 viewBox="0 0 125.3 98.4" style="enable-background:new 0 0 125.3 98.4;" xml:space="preserve">
<path id="Path_2177" d="M56.2,76c0,6-2.4,11.2-7.2,15.7c-4.6,4.4-10.7,6.8-17,6.7c-10.3,0-18.2-3.4-23.7-10.2
	C2.8,81.3,0,71.9,0,59.8c0-11.2,4.7-22.5,14.2-33.9C23.5,14.7,35.2,5.8,48.5,0l6.2,9.9c-10.6,5.1-18.8,11.1-24.8,17.9
	c-6,6.9-9.7,15.6-10.4,24.8h7.8c4.8-0.1,9.6,0.5,14.2,2c3.3,1.1,6.4,3,8.8,5.5c2.1,2.1,3.6,4.6,4.6,7.4C55.8,70.3,56.2,73.1,56.2,76
	z M125.3,76c0,6-2.4,11.2-7.2,15.7c-4.6,4.4-10.7,6.8-17,6.7c-10.3,0-18.2-3.4-23.7-10.2c-5.5-6.8-8.3-16.3-8.3-28.3
	c0-11.2,4.7-22.5,14.2-33.9c9.2-11.2,21-20.1,34.3-25.9l6.2,9.9c-10.6,5.1-18.8,11.1-24.8,17.9c-6,6.9-9.7,15.6-10.4,24.8h7.8
	c4.8-0.1,9.6,0.5,14.1,2c3.3,1.1,6.3,3,8.8,5.5c2.1,2.1,3.6,4.6,4.6,7.4C124.8,70.3,125.3,73.1,125.3,76L125.3,76z"/>
</svg>
