<svg xmlns="http://www.w3.org/2000/svg" viewBox="0 0 45.88 47.98"><title>Relevant</title><g id="Laag_2" data-name="Laag 2"><g id="icons"><path d="M14.9,20.69c-3.72,0-6.33-5.9-6.33-9.09a6.34,6.34,0,0,1,12.67,0C21.24,14.79,18.63,20.69,14.9,20.69Zm0-13.42a4.33,4.33,0,0,0-4.33,4.33c0,2.6,2.14,7.09,4.33,7.09s4.34-4.49,4.34-7.09A4.34,4.34,0,0,0,14.9,7.27Z"/><path d="M22.11,24.77a1,1,0,0,1-.92-.59,6.87,6.87,0,0,0-4.36-3.83,1,1,0,1,1,.56-1.92A8.87,8.87,0,0,1,23,23.37a1,1,0,0,1-.51,1.32A1,1,0,0,1,22.11,24.77Z"/><path d="M7.71,24.74a1.14,1.14,0,0,1-.4-.08,1,1,0,0,1-.51-1.33,8.91,8.91,0,0,1,5.51-4.87,1,1,0,0,1,.58,1.92,6.84,6.84,0,0,0-4.26,3.77A1,1,0,0,1,7.71,24.74Z"/><path d="M15,30A15,15,0,1,1,30,15,15,15,0,0,1,15,30ZM15,2A13,13,0,1,0,28,15,13,13,0,0,0,15,2Z"/><path d="M42.05,48a1,1,0,0,1-.71-.29L22,28.31a1,1,0,0,1,0-1.41l2.83-2.83a1,1,0,0,1,.71-.29h0a1,1,0,0,1,.71.29L45.58,43.44a1,1,0,0,1,0,1.42l-2.82,2.83A1.05,1.05,0,0,1,42.05,48ZM24.1,27.61l17.95,18,1.41-1.41-17.95-18Z"/></g></g></svg>