<svg xmlns="http://www.w3.org/2000/svg" viewBox="0 0 17.14 23.35"><g id="Laag_2" data-name="Laag 2"><g id="icons"><path d="M12.64,12.85a.5.5,0,0,1-.5-.5V10.77a1.68,1.68,0,0,0-1.57-1.84A1.57,1.57,0,0,0,9,10.67a.5.5,0,1,1-1,0,2.57,2.57,0,0,1,2.57-2.74,2.66,2.66,0,0,1,2.57,2.84v1.58A.5.5,0,0,1,12.64,12.85Z"/><path d="M4.86,10.81h-1A2.58,2.58,0,0,1,6.36,8a2.53,2.53,0,0,1,2.5,2.77h-1C7.86,10,7.47,9,6.36,9S4.86,9.91,4.86,10.81Z"/><path d="M5.14,23.35a5,5,0,0,1-5-5V2.77A2.53,2.53,0,0,1,2.64,0a2.58,2.58,0,0,1,2.5,2.81v7.54a.5.5,0,0,1-1,0V2.81c0-.9-.46-1.81-1.5-1.81s-1.5,1-1.5,1.77V18.35a4,4,0,0,0,4,4,.5.5,0,1,1,0,1Z"/><path d="M5.64,17.85a.5.5,0,0,1-.5-.5V15.83l1.14-2.19a1.61,1.61,0,0,0-.51-2.33,1.51,1.51,0,0,0-2.15.78L.94,16.85A.5.5,0,0,1,.26,17a.5.5,0,0,1-.2-.68l2.69-4.77a2.52,2.52,0,0,1,4.75.5,2.85,2.85,0,0,1-.35,2l-1,2v1.28A.5.5,0,0,1,5.64,17.85Z"/><path d="M12.14,23.35a.5.5,0,0,1,0-1,4,4,0,0,0,4-4V2.77C16.14,2,15.75,1,14.64,1s-1.5.91-1.5,1.81v7.54a.5.5,0,1,1-1,0V2.81A2.58,2.58,0,0,1,14.64,0a2.53,2.53,0,0,1,2.5,2.77V18.35A5,5,0,0,1,12.14,23.35Z"/><path d="M8.64,12.85a.5.5,0,0,1-.5-.5v-2a.5.5,0,0,1,1,0v2A.5.5,0,0,1,8.64,12.85Z"/></g></g></svg>