<svg xmlns="http://www.w3.org/2000/svg" viewBox="0 0 19.72 22.13"><g id="Laag_2" data-name="Laag 2"><g id="icons"><path d="M9.86,22.12A4.5,4.5,0,0,1,5.5,17.5V5.5a1.14,1.14,0,0,0-1.14-1,1.07,1.07,0,0,0-1.07,1h-1a2.07,2.07,0,0,1,2.07-2,2.12,2.12,0,0,1,2.14,2v12a3.5,3.5,0,0,0,3.36,3.62c4,0,6.87-1.74,7.89-4.78l.95.32C17.55,20.08,14.25,22.12,9.86,22.12Z"/><path d="M19.22,18a.47.47,0,0,1-.35-.15l-7-7a.49.49,0,1,1,.7-.7l7,7a.48.48,0,0,1,0,.7A.47.47,0,0,1,19.22,18Z"/><path d="M10.86,17.12A2.48,2.48,0,0,1,8.5,14.5V4.5a3.5,3.5,0,0,0-7,0v1H.5v-1a4.5,4.5,0,0,1,9,0v10a1.5,1.5,0,0,0,1.36,1.62c.8,0,.9-.27,1-1.58a4.87,4.87,0,0,1,1.23-3.39l.7.7a4,4,0,0,0-.93,2.76C12.77,15.73,12.67,17.12,10.86,17.12Z"/><path d="M3.5,6.5H.5a.5.5,0,0,1,0-1h3a.5.5,0,0,1,0,1Z"/><path d="M9.5,7.5h-1a.5.5,0,0,1,0-1h1a.5.5,0,0,1,0,1Z"/><path d="M9.5,9.5h-1a.5.5,0,0,1,0-1h1a.5.5,0,0,1,0,1Z"/><path d="M9.5,11.5h-1a.5.5,0,0,1,0-1h1a.5.5,0,0,1,0,1Z"/></g></g></svg>