<svg xmlns="http://www.w3.org/2000/svg" viewBox="0 0 24 24"><g id="Laag_2" data-name="Laag 2"><g id="icons"><path d="M19.68,11.49a.5.5,0,0,1-.5-.5c0-4.31-2.19-6.5-6.5-6.5a.5.5,0,0,1,0-1c4.91,0,7.5,2.59,7.5,7.5A.5.5,0,0,1,19.68,11.49Z"/><path d="M13.68,6.48a.47.47,0,0,1-.35-.15l-2-2A.47.47,0,0,1,11.18,4a.51.51,0,0,1,.15-.36l2-2a.5.5,0,0,1,.7.72L12.39,4,14,5.63a.48.48,0,0,1,0,.7A.47.47,0,0,1,13.68,6.48Z"/><path d="M19.67,12.49h0a.51.51,0,0,1-.36-.15l-2-2a.5.5,0,0,1,0-.71.49.49,0,0,1,.7,0l1.63,1.64,1.65-1.64a.49.49,0,1,1,.7.7l-2,2A.47.47,0,0,1,19.67,12.49Z"/><path d="M10.5,17H.5a.5.5,0,0,1-.5-.5V.5A.5.5,0,0,1,.5,0h10a.5.5,0,0,1,.5.5v16A.5.5,0,0,1,10.5,17ZM1,16h9V1H1Z"/><path d="M23.5,24a.5.5,0,0,1-.5-.5v-1a.5.5,0,0,1,1,0v1A.5.5,0,0,1,23.5,24Zm-2,0h-1a.5.5,0,0,1,0-1h1a.5.5,0,0,1,0,1Zm-3,0h-1a.5.5,0,0,1,0-1h1a.5.5,0,0,1,0,1Zm-3,0h-1a.5.5,0,0,1,0-1h1a.5.5,0,0,1,0,1Zm-3,0h-1a.5.5,0,0,1,0-1h1a.5.5,0,0,1,0,1Zm-3,0h-1a.5.5,0,0,1,0-1h1a.5.5,0,0,1,0,1Zm-2-1a.5.5,0,0,1-.5-.5v-1a.5.5,0,0,1,1,0v1A.5.5,0,0,1,7.5,23Zm16-2a.5.5,0,0,1-.5-.5v-1a.5.5,0,0,1,1,0v1A.5.5,0,0,1,23.5,21Zm-16-1a.5.5,0,0,1-.5-.5v-1a.5.5,0,0,1,1,0v1A.5.5,0,0,1,7.5,20Zm16-2a.5.5,0,0,1-.5-.5v-1a.5.5,0,0,1,1,0v1A.5.5,0,0,1,23.5,18Zm-16-1a.5.5,0,0,1-.5-.5v-1a.5.5,0,0,1,1,0v1A.5.5,0,0,1,7.5,17Zm16-2a.5.5,0,0,1-.5-.5V14h-.5a.5.5,0,0,1,0-1h1a.5.5,0,0,1,.5.5v1A.5.5,0,0,1,23.5,15Zm-3-1h-1a.5.5,0,0,1,0-1h1a.5.5,0,0,1,0,1Zm-3,0h-1a.5.5,0,0,1,0-1h1a.5.5,0,0,1,0,1Zm-3,0h-1a.5.5,0,0,1,0-1h1a.5.5,0,0,1,0,1Zm-3,0h-1a.5.5,0,0,1,0-1h1a.5.5,0,0,1,0,1Zm-3,0h-1a.5.5,0,0,1,0-1h1a.5.5,0,0,1,0,1Z"/></g></g></svg>