<svg id="Laag_1" data-name="Laag 1" xmlns="http://www.w3.org/2000/svg" viewBox="0 0 413.71 298.95"><path d="M582.93,445.66H252.17A14.67,14.67,0,0,1,237.54,431V162.4a14.33,14.33,0,0,1,14.37-14.24H583.18a14.31,14.31,0,0,1,14.48,14.08V431.16A14.63,14.63,0,0,1,582.93,445.66Zm-331-291.94a8.65,8.65,0,0,0-8.81,8.68V431a9.11,9.11,0,0,0,9.07,9.13H582.93a9.18,9.18,0,0,0,9.17-8.95V162.24a8.73,8.73,0,0,0-8.92-8.52Z" transform="translate(-237.54 -148.16)" style="fill:#1d1e1b"/><path d="M554.31,190H242.73a2.78,2.78,0,1,1,0-5.56H554.31a2.78,2.78,0,1,1,0,5.56Z" transform="translate(-237.54 -148.16)" style="fill:#1d1e1b"/><path d="M307.38,187.62a2.78,2.78,0,0,1-2.78-2.78V153.72a2.78,2.78,0,0,1,5.56,0v31.12A2.77,2.77,0,0,1,307.38,187.62Z" transform="translate(-237.54 -148.16)" style="fill:#1d1e1b"/><path d="M262.05,177.88a8.6,8.6,0,1,1,8.6-8.6A8.61,8.61,0,0,1,262.05,177.88Zm0-11.64a3,3,0,1,0,3,3A3,3,0,0,0,262.05,166.24Z" transform="translate(-237.54 -148.16)" style="fill:#1d1e1b"/><path d="M285.45,177.88a8.6,8.6,0,1,1,8.6-8.6A8.61,8.61,0,0,1,285.45,177.88Zm0-11.64a3,3,0,1,0,3,3A3,3,0,0,0,285.45,166.24Z" transform="translate(-237.54 -148.16)" style="fill:#1d1e1b"/><path d="M501.7,166.32H320.16a2.78,2.78,0,0,1,0-5.56H501.7a2.78,2.78,0,1,1,0,5.56Z" transform="translate(-237.54 -148.16)" style="fill:#1d1e1b"/><path d="M417.6,177.8H320.16a2.78,2.78,0,0,1,0-5.56H417.6a2.78,2.78,0,0,1,0,5.56Z" transform="translate(-237.54 -148.16)" style="fill:#1d1e1b"/><path d="M592.47,190H576.91a2.78,2.78,0,1,1,0-5.56h15.56a2.78,2.78,0,0,1,0,5.56Z" transform="translate(-237.54 -148.16)" style="fill:#1d1e1b"/><path d="M531.88,297.84H302.76A8.82,8.82,0,0,1,294,289V251.45a8.82,8.82,0,0,1,8.81-8.81H531.88a8.82,8.82,0,0,1,8.81,8.81V289A8.82,8.82,0,0,1,531.88,297.84ZM302.76,248.19a3.25,3.25,0,0,0-3.25,3.26V289a3.25,3.25,0,0,0,3.25,3.25H531.88a3.25,3.25,0,0,0,3.25-3.25V251.45a3.25,3.25,0,0,0-3.25-3.26Z" transform="translate(-237.54 -148.16)" style="fill:#1d1e1b"/><path d="M262.18,248.38a2.79,2.79,0,0,1-2.78-2.78V211.33a2.79,2.79,0,0,1,2.78-2.78h83.18a2.78,2.78,0,0,1,0,5.56H265V245.6A2.78,2.78,0,0,1,262.18,248.38Z" transform="translate(-237.54 -148.16)" style="fill:#1d1e1b"/><path d="M416.12,214.11H405.37a2.78,2.78,0,0,1,0-5.56h10.75a2.78,2.78,0,0,1,0,5.56Z" transform="translate(-237.54 -148.16)" style="fill:#1d1e1b"/><path d="M576,424.17H505.41a2.78,2.78,0,1,1,0-5.55H573.2v-40a2.78,2.78,0,0,1,5.56,0v42.8A2.77,2.77,0,0,1,576,424.17Z" transform="translate(-237.54 -148.16)" style="fill:#1d1e1b"/><path d="M576,364a2.78,2.78,0,0,1-2.78-2.78v-10a2.78,2.78,0,0,1,5.56,0v10A2.77,2.77,0,0,1,576,364Z" transform="translate(-237.54 -148.16)" style="fill:#1d1e1b"/><path d="M371.48,296.54a2.77,2.77,0,0,1-2.78-2.78v-47a2.78,2.78,0,1,1,5.55,0v47A2.77,2.77,0,0,1,371.48,296.54Z" transform="translate(-237.54 -148.16)" style="fill:#1d1e1b"/><path d="M373.14,329.7H296.82a2.78,2.78,0,0,1,0-5.56h76.32a2.78,2.78,0,0,1,0,5.56Z" transform="translate(-237.54 -148.16)" style="fill:#1d1e1b"/><path d="M445.76,361.19H296.82a2.78,2.78,0,0,1,0-5.56H445.76a2.78,2.78,0,1,1,0,5.56Z" transform="translate(-237.54 -148.16)" style="fill:#1d1e1b"/><path d="M512.82,393.05h-216a2.78,2.78,0,1,1,0-5.55h216a2.78,2.78,0,0,1,0,5.55Z" transform="translate(-237.54 -148.16)" style="fill:#1d1e1b"/><path d="M308.59,283a2.78,2.78,0,0,1-2.78-2.78v-22a2.77,2.77,0,0,1,2.78-2.78h37.54a2.78,2.78,0,1,1,0,5.56H311.36v19.2A2.78,2.78,0,0,1,308.59,283Z" transform="translate(-237.54 -148.16)" style="fill:#1d1e1b"/><path d="M417.6,261.16H405.37a2.78,2.78,0,0,1,0-5.56H417.6a2.78,2.78,0,0,1,0,5.56Z" transform="translate(-237.54 -148.16)" style="fill:#1d1e1b"/><path d="M505.41,261.16H467.62a2.78,2.78,0,0,1,0-5.56h37.79a2.78,2.78,0,0,1,0,5.56Z" transform="translate(-237.54 -148.16)" style="fill:#1d1e1b"/><path d="M560.6,342.26a79.69,79.69,0,1,1,28.54-53.89A79.16,79.16,0,0,1,560.6,342.26ZM461.85,222.85a75.27,75.27,0,1,0,106,10A75.36,75.36,0,0,0,461.85,222.85Z" transform="translate(-237.54 -148.16)" style="fill:#1d1e1b"/><path d="M550.71,330.3a64.16,64.16,0,1,1,23-43.39A63.74,63.74,0,0,1,550.71,330.3Zm-79-95.49a59.76,59.76,0,1,0,84.13,8A59.81,59.81,0,0,0,471.74,234.81Z" transform="translate(-237.54 -148.16)" style="fill:#1d1e1b"/><path d="M590.2,377.78a2.2,2.2,0,0,1-3.1-.29L557.76,342a2.2,2.2,0,1,1,3.39-2.8l29.35,35.48A2.2,2.2,0,0,1,590.2,377.78Z" transform="translate(-237.54 -148.16)" style="fill:#1d1e1b"/><path d="M643.23,442a22.18,22.18,0,0,1-31.19-3l-40-48.43a2.2,2.2,0,0,1,.3-3.1L603,362.13a2.21,2.21,0,0,1,3.1.3l40,48.42A22.18,22.18,0,0,1,643.23,442Zm-66.44-52.49,38.64,46.73a17.75,17.75,0,1,0,27.36-22.62l-38.64-46.73Z" transform="translate(-237.54 -148.16)" style="fill:#1d1e1b"/><path d="M599.76,389.1,584.16,402a2.2,2.2,0,0,1-2.81-3.39l15.6-12.9a2.2,2.2,0,0,1,2.81,3.39Z" transform="translate(-237.54 -148.16)" style="fill:#1d1e1b"/><path d="M614.9,376.58l-4.52,3.74a2.2,2.2,0,1,1-2.8-3.39l4.52-3.74a2.2,2.2,0,0,1,2.8,3.39Z" transform="translate(-237.54 -148.16)" style="fill:#1d1e1b"/></svg>