<?xml version="1.0" encoding="utf-8"?>
<!-- Generator: Adobe Illustrator 23.1.1, SVG Export Plug-In . SVG Version: 6.00 Build 0)  -->
<svg version="1.1" id="Layer_1" xmlns="http://www.w3.org/2000/svg" xmlns:xlink="http://www.w3.org/1999/xlink" x="0px" y="0px"
	 viewBox="0 0 65.4 65.4" style="enable-background:new 0 0 65.4 65.4;" xml:space="preserve">
<g>
	<path d="M60.2,31.5C59.6,17.2,48.3,5.8,34,5.2v-5h-2.5v5C17.2,5.9,5.9,17.2,5.2,31.5h-5V34h5c0.3,6.9,3.1,13.3,8,18.2
		c4.9,4.9,11.3,7.7,18.2,8v5H34v-5c14.3-0.6,25.6-12,26.2-26.2h5v-2.5H60.2z M31.5,44v5.4C23.2,48.8,16.6,42.2,16,34h5.4v-2.5H16
		c0.6-8.3,7.2-14.9,15.5-15.5v5.4H34V16c8.3,0.6,14.9,7.2,15.5,15.5H44V34h5.4c-0.6,8.3-7.2,14.9-15.5,15.5V44H31.5z M31.5,7.7v5.8
		c-9.6,0.6-17.4,8.3-18,18H7.7C8,25.3,10.6,19.4,15,15C19.4,10.6,25.2,8,31.5,7.7z M13.5,34c0.6,9.7,8.3,17.4,18,18v5.8
		c-6.2-0.3-12-2.9-16.5-7.3C10.6,46,8,40.2,7.7,34H13.5z M34,57.7v-5.8c9.7-0.6,17.4-8.3,18-18h5.8c-0.3,6.2-2.9,12-7.3,16.5
		C46,54.8,40.2,57.4,34,57.7z M51.9,31.5c-0.6-9.7-8.3-17.4-18-18V7.7C40.2,8,46,10.6,50.4,15c4.4,4.4,7,10.2,7.3,16.5H51.9z"/>
	<path d="M36.7,32.7c0-2.2-1.8-4-4-4c-2.2,0-4,1.8-4,4s1.8,4,4,4C34.9,36.7,36.7,34.9,36.7,32.7z M32.7,31.2c0.8,0,1.5,0.7,1.5,1.5
		c0,0.8-0.7,1.5-1.5,1.5c-0.8,0-1.5-0.7-1.5-1.5C31.2,31.9,31.9,31.2,32.7,31.2z"/>
</g>
</svg>
