<?xml version="1.0" encoding="utf-8"?>
<!-- Generator: Adobe Illustrator 23.0.1, SVG Export Plug-In . SVG Version: 6.00 Build 0)  -->
<svg version="1.1" id="Group_1835" xmlns="http://www.w3.org/2000/svg" xmlns:xlink="http://www.w3.org/1999/xlink" x="0px" y="0px"
	 viewBox="0 0 70 73.2" style="enable-background:new 0 0 70 73.2;" xml:space="preserve">
<path id="Path_1481" d="M55.7,73.2c-7.9,0-14.3-6.4-14.3-14.3c0-0.2,0-0.4,0-0.6l-19-10.5c-2.4,1.7-5.2,2.6-8.1,2.6
	C6.4,50.4,0,44,0,36.1c0-7.9,6.4-14.3,14.3-14.3c3,0,5.9,1,8.3,2.7l18.7-9.8c0-0.1,0-0.2,0-0.3C41.4,6.4,47.8,0,55.7,0
	S70,6.4,70,14.3s-6.4,14.3-14.3,14.3h0c-3,0-5.9-1-8.3-2.7l-18.7,9.8v0.3c0,0.2,0,0.4,0,0.6l19,10.5c2.4-1.7,5.2-2.6,8.1-2.6
	C63.6,44.5,70,51,70,58.9C70,66.8,63.6,73.2,55.7,73.2z M22.3,44.3c0.3,0,0.5,0.1,0.8,0.2L43.9,56c0.6,0.3,0.9,0.9,0.8,1.6L44.6,58
	c0,0.3-0.1,0.6-0.1,0.8c0,6.2,5,11.1,11.1,11.1s11.1-5,11.1-11.1c0-6.1-5-11.1-11.1-11.1c-2.5,0-5,0.9-7,2.5
	c-0.5,0.4-1.2,0.5-1.8,0.2L26.1,38.9c-0.6-0.3-0.9-0.9-0.8-1.6l0.1-0.5c0-0.3,0.1-0.6,0.1-0.8c0-0.2,0-0.4-0.1-0.6
	c0-0.2,0-0.3-0.1-0.5c-0.1-0.6,0.3-1.3,0.8-1.6l20.6-10.8c0.6-0.3,1.3-0.2,1.8,0.2c2,1.7,4.5,2.7,7.1,2.7c6.2,0,11.1-5,11.1-11.1
	s-5-11.1-11.1-11.1c-6.1,0-11.1,5-11.1,11.1c0,0.2,0,0.4,0.1,0.6c0,0.2,0,0.3,0.1,0.5c0.1,0.6-0.3,1.3-0.8,1.6L23.2,27.8
	c-0.6,0.3-1.3,0.2-1.8-0.2c-2-1.7-4.5-2.7-7.1-2.7c-6.2,0-11.1,5-11.1,11.1s5,11.1,11.1,11.1c2.5,0,5-0.9,7-2.5
	C21.6,44.4,21.9,44.3,22.3,44.3z"/>
</svg>
