<?xml version="1.0" encoding="utf-8"?>
<!-- Generator: Adobe Illustrator 23.0.6, SVG Export Plug-In . SVG Version: 6.00 Build 0)  -->
<svg version="1.1" id="Group_2288" xmlns="http://www.w3.org/2000/svg" xmlns:xlink="http://www.w3.org/1999/xlink" x="0px" y="0px"
	 viewBox="0 0 55 49.5" style="enable-background:new 0 0 55 49.5;" xml:space="preserve">
<g>
	<g id="Group_2287" transform="translate(0 0)">
		<g id="Group_2286" transform="translate(0.738 0.738)">
			<g id="Path_1699">
				<path d="M51.7,49H40.6c-1.5,0-2.8-1.3-2.8-2.8v-6.4H2.6c-2.2,0-3.6-1.9-3.6-4.9v-1.6c0-0.6,0.4-1,1-1h2.7V4.8
					c0-2.3,2-5.8,4.6-5.8H46c2.6,0,4.8,3.6,4.8,5.8v14.5h0.9c1.5,0,2.8,1.3,2.8,2.8l0,24.1l0,0C54.5,47.7,53.3,49,51.7,49z
					 M39.8,43.5v2.7c0,0.4,0.4,0.8,0.8,0.8h11.2c0.4,0,0.8-0.4,0.8-0.8v-2.7H39.8z M39.8,41.5h12.8l0-16.5H39.8V41.5z M1,34.2v0.6
					c0,0.3,0,2.9,1.6,2.9h35.1v-3.5H1z M4.7,32.2h33.1v-1.7H9.2c-0.6,0-1-0.4-1-1v-24c0-0.6,0.4-1,1-1h35.1c0.6,0,1,0.4,1,1v13.8
					h3.5V4.8C48.8,3.4,47.3,1,46,1H7.2C6.1,1,4.7,3.3,4.7,4.8V32.2z M10.2,28.5h27.5v-6.4c0-1.5,1.3-2.8,2.8-2.8h2.7V6.5H10.2V28.5z
					 M39.8,23h12.8v-0.9c0-0.4-0.4-0.8-0.8-0.8H40.6c-0.4,0-0.8,0.4-0.8,0.8V23z"/>
			</g>
		</g>
	</g>
</g>
</svg>
