<svg xmlns="http://www.w3.org/2000/svg" viewBox="0 0 26 24"><g id="Laag_2" data-name="Laag 2"><g id="icons"><path d="M13,21a9,9,0,0,1-6.83-3.14.49.49,0,0,1,0-.7.51.51,0,0,1,.71.05,8,8,0,0,0,12.13,0,.49.49,0,0,1,.7,0,.51.51,0,0,1,.06.71A9,9,0,0,1,13,21Z"/><path d="M6,16a6,6,0,1,1,6-6A6,6,0,0,1,6,16ZM6,5a5,5,0,1,0,5,5A5,5,0,0,0,6,5Z"/><path d="M20,16a6,6,0,1,1,6-6A6,6,0,0,1,20,16ZM20,5a5,5,0,1,0,5,5A5,5,0,0,0,20,5Z"/><path d="M14.28,11h-2a.5.5,0,0,1,0-1h2a.5.5,0,1,1,0,1Z"/><path d="M9.28,12h-1a.5.5,0,1,1,0-1h1a.5.5,0,1,1,0,1Z"/><path d="M21.28,12h-1a.5.5,0,0,1,0-1h1a.5.5,0,0,1,0,1Z"/><path d="M22,5.39a.48.48,0,0,1-.39-.19,11,11,0,0,0-17.3,0,.5.5,0,0,1-.78-.62,12,12,0,0,1,18.86,0,.49.49,0,0,1-.39.81Z"/><path d="M13,24A12,12,0,0,1,1.07,13.31a.5.5,0,0,1,.44-.55.5.5,0,0,1,.55.44,11,11,0,0,0,21.87,0,.5.5,0,0,1,1,.11A12,12,0,0,1,13,24Z"/></g></g></svg>