<svg xmlns="http://www.w3.org/2000/svg" viewBox="0 0 24 24"><g id="Laag_2" data-name="Laag 2"><g id="icons"><path d="M12,24A12,12,0,1,1,24,12,12,12,0,0,1,12,24ZM12,1A11,11,0,1,0,23,12,11,11,0,0,0,12,1Z"/><path d="M12,21C7.29,21,3,17,3,12.5a.5.5,0,0,1,.5-.5h17a.5.5,0,0,1,.5.5C21,17,16.71,21,12,21ZM4,13a8.14,8.14,0,0,0,8,7,8.14,8.14,0,0,0,8-7Z"/><path d="M9.5,8A.5.5,0,0,1,9,7.5a1.5,1.5,0,0,0-3,0,.5.5,0,0,1-1,0,2.5,2.5,0,0,1,5,0A.5.5,0,0,1,9.5,8Z"/><path d="M18.5,8a.5.5,0,0,1-.5-.5,1.5,1.5,0,0,0-3,0,.5.5,0,0,1-1,0,2.5,2.5,0,0,1,5,0A.5.5,0,0,1,18.5,8Z"/></g></g></svg>