<svg xmlns="http://www.w3.org/2000/svg" viewBox="0 0 24 24"><g id="Laag_2" data-name="Laag 2"><g id="icons"><path d="M12,21C7.29,21,3,17,3,12.5a.5.5,0,0,1,.5-.5h17a.5.5,0,0,1,.5.5C21,17,16.71,21,12,21ZM4,13a8.14,8.14,0,0,0,8,7,8.14,8.14,0,0,0,8-7Z"/><path d="M12,24A12,12,0,1,1,24,12,12,12,0,0,1,12,24ZM12,1A11,11,0,1,0,23,12,11,11,0,0,0,12,1Z"/><path d="M6.52,10.08a.52.52,0,0,1-.42-.22.51.51,0,0,1,.14-.7L8.62,7.55,6.24,5.93a.5.5,0,0,1-.14-.69.51.51,0,0,1,.7-.14l3,2a.54.54,0,0,1,.22.42A.52.52,0,0,1,9.8,8l-3,2A.51.51,0,0,1,6.52,10.08Z"/><path d="M17.48,10.08A.51.51,0,0,1,17.2,10l-3-2A.52.52,0,0,1,14,7.55a.54.54,0,0,1,.22-.42l3-2a.51.51,0,0,1,.7.14.5.5,0,0,1-.14.69L15.38,7.55l2.38,1.61a.51.51,0,0,1,.14.7A.52.52,0,0,1,17.48,10.08Z"/></g></g></svg>