<svg xmlns="http://www.w3.org/2000/svg" width="37.417" height="37.417" viewBox="0 0 37.417 37.417">
  <g id="Group_3889" data-name="Group 3889" transform="translate(0)">
    <g id="Group_3888" data-name="Group 3888" transform="translate(0.825 0.815)">
      <path id="Path_2245" data-name="Path 2245" d="M1026.736,6046.865a.779.779,0,0,1-.379-.1l-6.236-3.466a.776.776,0,0,1-.4-.681v-4.908a.779.779,0,1,1,1.559,0v4.45l5.457,3.03,5.457-3.03v-6l-4.781-2.509a.779.779,0,1,1,.725-1.379l5.2,2.726a.782.782,0,0,1,.418.689v6.926a.78.78,0,0,1-.4.681l-6.236,3.466A.78.78,0,0,1,1026.736,6046.865Z" transform="translate(-1015.868 -6031.655)"/>
      <path id="Path_2246" data-name="Path 2246" d="M1036.3,6047.056a.8.8,0,0,1-.317-.066l-7.8-3.467a.778.778,0,0,1-.463-.712v-6.926a.781.781,0,0,1,.4-.683l5.954-3.257a.779.779,0,1,1,.749,1.366l-5.547,3.036v5.959l6.977,3.1,5.5-3.053v-4.513a.78.78,0,1,1,1.559,0v4.971a.781.781,0,0,1-.4.682l-6.236,3.465A.787.787,0,0,1,1036.3,6047.056Z" transform="translate(-1011.396 -6031.847)"/>
      <path id="Path_2247" data-name="Path 2247" d="M1027.814,6059.863a.78.78,0,0,1-.379-1.462l4.758-2.644v-6.009l-5.457-3.031-5.457,3.031v4.356a.779.779,0,0,1-1.559,0v-4.815a.778.778,0,0,1,.4-.682l6.236-3.465a.782.782,0,0,1,.757,0l6.236,3.465a.782.782,0,0,1,.4.682v6.927a.779.779,0,0,1-.4.681l-5.159,2.867A.789.789,0,0,1,1027.814,6059.863Z" transform="translate(-1015.868 -6024.469)"/>
      <path id="Path_2248" data-name="Path 2248" d="M1034.6,6060.161a.776.776,0,0,1-.36-.087l-6.1-3.167a.778.778,0,0,1-.42-.691v-6.926a.778.778,0,0,1,.463-.713l7.8-3.464a.8.8,0,0,1,.7.029l6.236,3.464a.784.784,0,0,1,.4.683v4.849a.78.78,0,0,1-1.559,0v-4.391l-5.5-3.052-6.977,3.1v5.948l5.675,2.948a.779.779,0,0,1-.359,1.47Z" transform="translate(-1011.396 -6024.468)"/>
      <path id="Path_2249" data-name="Path 2249" d="M1022.1,6053.8a.779.779,0,0,1-.371-.094l-4.015-2.172a.778.778,0,0,1,.742-1.369l3.645,1.969,5.673-3.045v-6l-5.678-3.046-3.7,1.946a.778.778,0,1,1-.723-1.378l4.069-2.141a.776.776,0,0,1,.731,0l6.453,3.465a.779.779,0,0,1,.412.687v6.927a.78.78,0,0,1-.412.686l-6.453,3.466A.776.776,0,0,1,1022.1,6053.8Z" transform="translate(-1017.25 -6028.194)"/>
      <path id="Path_2250" data-name="Path 2250" d="M1039.737,6053.8a.778.778,0,0,1-.379-.1l-6.236-3.466a.778.778,0,0,1-.4-.681v-6.927a.78.78,0,0,1,.4-.682l6.236-3.464a.78.78,0,0,1,.758,0l3.988,2.217a.78.78,0,1,1-.758,1.364l-3.609-2.006-5.457,3.031v6.01l5.457,3.03,3.542-1.967a.78.78,0,1,1,.758,1.364l-3.921,2.178A.778.778,0,0,1,1039.737,6053.8Z" transform="translate(-1008.601 -6028.195)"/>
    </g>
    <path id="Path_2251" data-name="Path 2251" d="M1035.429,6032.883a17.149,17.149,0,1,1-17.149,17.149,17.169,17.169,0,0,1,17.149-17.149m0-1.559a18.708,18.708,0,1,0,18.708,18.708,18.708,18.708,0,0,0-18.708-18.708Z" transform="translate(-1016.721 -6031.324)"/>
  </g>
</svg>
