<svg xmlns="http://www.w3.org/2000/svg" viewBox="0 0 35.33 36.84"><g id="Laag_2" data-name="Laag 2"><g id="Laag_1-2" data-name="Laag 1"><path d="M35.32,5.68A5.92,5.92,0,0,0,29.17,0H10.68A6.38,6.38,0,0,0,4.83,3.38l.45.24A8.35,8.35,0,0,0,0,11.37V28.51a8.34,8.34,0,0,0,8.33,8.33H24a8.34,8.34,0,0,0,7.19-4.13l0,.11a6.5,6.5,0,0,0,4.13-6.25V6.25A5.42,5.42,0,0,0,35.32,5.68ZM2,11.37A6.34,6.34,0,0,1,8.33,5H24a6.34,6.34,0,0,1,6.33,6.33V28.51c0,.1,0,.19,0,.28H2c0-.1,0-.19,0-.28ZM24,34.84H8.33a6.33,6.33,0,0,1-5.9-4.05H29.87A6.34,6.34,0,0,1,24,34.84Zm9.36-8.24a4.5,4.5,0,0,1-1.13,3.14,8.28,8.28,0,0,0,.1-1.23V11.37A8.33,8.33,0,0,0,24,3H8.33q-.36,0-.72,0a4.38,4.38,0,0,1,3-1.06H29.21a3.95,3.95,0,0,1,4.12,3.76c0,.13,0,.25,0,.43Z"/><path d="M4.17,24.73H28.24a1,1,0,0,0,.84-.46,1,1,0,0,0,.07-1L21.75,7.14A1,1,0,0,0,20,7L15,13.53l-3-1.24a1,1,0,0,0-1.2.35L3.36,23.15a1,1,0,0,0-.07,1A1,1,0,0,0,4.17,24.73Zm7.77-10.28,3,1.22a1,1,0,0,0,1.17-.31l4.55-5.88,6.06,13.25H6.1Z"/><path d="M7.88,11.83A2.86,2.86,0,0,0,10.73,9h0A2.86,2.86,0,0,0,5,9a2.87,2.87,0,0,0,2.86,2.85Zm0-3.7A.85.85,0,1,1,7,9,.86.86,0,0,1,7.87,8.13Z"/></g></g></svg>