<svg xmlns="http://www.w3.org/2000/svg" viewBox="0 0 23 23.5"><g id="Laag_2" data-name="Laag 2"><g id="icons"><path d="M11.1,6h-8a.5.5,0,0,1-.5-.5V.5A.5.5,0,0,1,3.1,0h8a.5.5,0,0,1,.5.5v5A.5.5,0,0,1,11.1,6ZM3.6,5h7V1h-7Z"/><path d="M3.4,23.5A3.31,3.31,0,0,1,0,20a5.71,5.71,0,0,1,1.67-3.57A6.72,6.72,0,0,0,3.6,12V6a.5.5,0,0,1,.5-.5.5.5,0,0,1,.5.5v6a7.7,7.7,0,0,1-2.14,5.06A4.82,4.82,0,0,0,1,20a2.31,2.31,0,0,0,2.4,2.5C5.77,22.5,8,18.78,8,18.74A8.2,8.2,0,0,0,9.6,14V6a.5.5,0,0,1,.5-.5.5.5,0,0,1,.5.5v8a9,9,0,0,1-1.75,5.32C8.79,19.43,6.33,23.5,3.4,23.5Z"/><path d="M19.1,6h-8a.5.5,0,0,1-.5-.5V.5a.5.5,0,0,1,.5-.5h8a.5.5,0,0,1,.5.5v5A.5.5,0,0,1,19.1,6ZM11.6,5h7V1h-7Z"/><path d="M19.4,23.5c-2.91,0-6-4-6.09-4.2A9,9,0,0,1,11.6,14V6a.5.5,0,0,1,.5-.5.5.5,0,0,1,.5.5v8a8.13,8.13,0,0,0,1.51,4.69S17,22.5,19.4,22.5A2.47,2.47,0,0,0,22,20c0-1.08-.82-1.93-1.77-2.91C19,15.82,17.6,14.38,17.6,12V6a.5.5,0,0,1,.5-.5.5.5,0,0,1,.5.5v6c0,2,1.2,3.21,2.35,4.4S23,18.52,23,20A3.47,3.47,0,0,1,19.4,23.5Z"/><path d="M8.33,19.5A.51.51,0,0,1,8,19.35a4,4,0,0,1-1.18-3.59A4.4,4.4,0,0,1,9.1,12.55a.5.5,0,0,1,.67.23.49.49,0,0,1-.22.67,3.39,3.39,0,0,0-1.77,2.47,3.06,3.06,0,0,0,.9,2.73.5.5,0,0,1-.35.85Z"/><path d="M13.83,19.5a.51.51,0,0,1-.36-.15.5.5,0,0,1,0-.7,2.61,2.61,0,0,0,.76-2.34,4.14,4.14,0,0,0-2.13-2.86.49.49,0,0,1-.22-.67.5.5,0,0,1,.67-.23,5.14,5.14,0,0,1,2.67,3.6,3.63,3.63,0,0,1-1,3.2A.5.5,0,0,1,13.83,19.5Z"/></g></g></svg>