<?xml version="1.0" encoding="utf-8"?>
<!-- Generator: Adobe Illustrator 23.0.6, SVG Export Plug-In . SVG Version: 6.00 Build 0)  -->
<svg version="1.1" id="Group_1625" xmlns="http://www.w3.org/2000/svg" xmlns:xlink="http://www.w3.org/1999/xlink" x="0px" y="0px"
	 viewBox="0 0 74 67.6" style="enable-background:new 0 0 74 67.6;" xml:space="preserve">
<g id="Group_1624" transform="translate(3.217)">
	<path id="Path_1269" d="M16.8,24.9c-4.4,0-8-3.6-8-8s3.6-8,8-8c4.4,0,8,3.6,8,8C24.9,21.3,21.3,24.9,16.8,24.9z M16.8,12
		c-2.7,0-4.8,2.2-4.8,4.8c0,2.7,2.2,4.8,4.8,4.8c2.7,0,4.8-2.2,4.8-4.8c0,0,0,0,0,0C21.6,14.2,19.5,12,16.8,12z"/>
	<g id="Group_1622">
		<path id="Path_1270" d="M16.1,32.2c-0.9,0-1.6-0.7-1.6-1.6v-3.2c0-0.9,0.8-1.6,1.6-1.6c0.9,0,1.5,0.7,1.6,1.6v3.2
			C17.7,31.5,17,32.2,16.1,32.2z"/>
		<path id="Path_1271" d="M16.1,6.4c-0.9,0-1.6-0.7-1.6-1.6V1.6c0-0.9,0.8-1.6,1.6-1.6c0.9,0,1.5,0.7,1.6,1.6v3.2
			C17.7,5.7,17,6.4,16.1,6.4z"/>
		<path id="Path_1272" d="M30.6,19.3h-3.2c-0.9,0-1.6-0.8-1.6-1.6c0-0.9,0.7-1.5,1.6-1.6h3.2c0.9,0,1.6,0.8,1.6,1.6
			C32.1,18.6,31.4,19.3,30.6,19.3z"/>
		<path id="Path_1273" d="M4.8,19.3H1.6c-0.9,0-1.6-0.8-1.6-1.6c0-0.9,0.7-1.5,1.6-1.6h3.2c0.9,0,1.6,0.8,1.6,1.6
			C6.4,18.6,5.7,19.3,4.8,19.3z"/>
	</g>
	<g id="Group_1623" transform="translate(4.951 4.983)">
		<path id="Path_1274" d="M22.1,23.7c-0.4,0-0.8-0.2-1.1-0.5L18.7,21c-0.6-0.6-0.6-1.6,0-2.3c0.6-0.6,1.6-0.6,2.3,0l2.3,2.3
			c0.6,0.6,0.6,1.6,0,2.3c0,0,0,0,0,0C22.9,23.5,22.5,23.7,22.1,23.7z"/>
		<path id="Path_1275" d="M3.9,5.5C3.5,5.5,3.1,5.3,2.8,5L0.5,2.7c-0.6-0.6-0.6-1.6,0-2.3c0,0,0,0,0,0c0.6-0.6,1.7-0.6,2.3,0L5,2.8
			C5.6,3.4,5.7,4.4,5,5C4.7,5.3,4.3,5.5,3.9,5.5z"/>
		<path id="Path_1276" d="M19.8,5.5c-0.4,0-0.8-0.2-1.1-0.5c-0.6-0.6-0.6-1.6,0-2.3c0,0,0,0,0,0L21,0.5c0.6-0.6,1.6-0.6,2.3,0
			s0.6,1.6,0,2.3l0,0L20.9,5C20.6,5.3,20.2,5.5,19.8,5.5z"/>
		<path id="Path_1277" d="M1.6,23.7c-0.4,0-0.8-0.2-1.1-0.5c-0.6-0.6-0.6-1.6,0-2.3c0,0,0,0,0,0l2.3-2.3c0.6-0.6,1.6-0.6,2.3,0
			s0.6,1.6,0,2.3l0,0l-2.3,2.3C2.4,23.5,2,23.7,1.6,23.7z"/>
	</g>
</g>
<path id="Path_1278" d="M72.4,67.6H1.6c-0.9,0-1.6-0.8-1.6-1.6c0-0.9,0.7-1.5,1.6-1.6h70.8c0.9,0,1.6,0.8,1.6,1.6
	C73.9,66.9,73.2,67.5,72.4,67.6z"/>
<path id="Path_1279" d="M22.5,66c-0.9,0-1.6-0.7-1.6-1.6V48.3c0-0.9,0.7-1.6,1.6-1.6c0.9,0,1.6,0.7,1.6,1.6c0,0,0,0.1,0,0.1v16.1
	C24.1,65.2,23.4,65.9,22.5,66z"/>
<path id="Path_1280" d="M12.5,59.7c-0.4,0-0.8-0.2-1.1-0.5c-0.6-0.6-0.6-1.6,0-2.3c0,0,0,0,0,0l18.2-18.2c0.6-0.6,1.6-0.6,2.3,0
	c0.6,0.6,0.6,1.6,0,2.3l0,0L13.7,59.2C13.4,59.5,13,59.7,12.5,59.7z"/>
<path id="Path_1281" d="M41.8,66c-0.9,0-1.6-0.7-1.6-1.6V48.3c0-0.9,0.7-1.6,1.6-1.6c0.9,0,1.6,0.7,1.6,1.6c0,0,0,0.1,0,0.1v16.1
	C43.4,65.2,42.7,65.9,41.8,66z"/>
<path id="Path_1282" d="M31.8,59.7c-0.4,0-0.8-0.2-1.1-0.5c-0.6-0.6-0.6-1.6,0-2.3c0,0,0,0,0,0l18.2-18.2c0.6-0.6,1.6-0.6,2.3,0
	c0.6,0.6,0.6,1.6,0,2.3L33,59.2C32.7,59.5,32.3,59.7,31.8,59.7z"/>
<path id="Path_1283" d="M61.1,66c-0.9,0-1.6-0.7-1.6-1.6V48.3c0-0.9,0.7-1.6,1.6-1.6c0.9,0,1.6,0.7,1.6,1.6c0,0,0,0.1,0,0.1v16.1
	C62.7,65.2,62,65.9,61.1,66z"/>
<path id="Path_1284" d="M51.1,59.7c-0.4,0-0.8-0.2-1.1-0.5c-0.6-0.6-0.6-1.6,0-2.3c0,0,0,0,0,0l18.2-18.2c0.6-0.6,1.6-0.6,2.3,0
	c0.6,0.6,0.6,1.6,0,2.3L52.3,59.2C52,59.5,51.6,59.7,51.1,59.7z"/>
</svg>
