<?xml version="1.0" encoding="utf-8"?>
<!-- Generator: Adobe Illustrator 23.0.6, SVG Export Plug-In . SVG Version: 6.00 Build 0)  -->
<svg version="1.1" id="Laag_1" xmlns="http://www.w3.org/2000/svg" xmlns:xlink="http://www.w3.org/1999/xlink" x="0px" y="0px"
	 viewBox="0 0 61.5 61.5" style="enable-background:new 0 0 61.5 61.5;" xml:space="preserve">
<g id="Group_3423" transform="translate(-194.768 -5755.167)">
	<g id="Line_534">
		<rect x="195.2" y="5813.7" width="61" height="3"/>
	</g>
	<g id="Rectangle_2280">
		<path d="M210.5,5810.6h-4.1c-0.8,0-1.5-0.7-1.5-1.5v-12.2c0-0.8,0.7-1.5,1.5-1.5h4.1c0.8,0,1.5,0.7,1.5,1.5v12.2
			C212,5809.9,211.3,5810.6,210.5,5810.6z M207.9,5807.6h1.1v-9.2h-1.1V5807.6z"/>
	</g>
	<g id="Rectangle_2281">
		<path d="M222.7,5810.6h-4.1c-0.8,0-1.5-0.7-1.5-1.5v-34.6c0-0.8,0.7-1.5,1.5-1.5h4.1c0.8,0,1.5,0.7,1.5,1.5v34.6
			C224.2,5809.9,223.5,5810.6,222.7,5810.6z M220.1,5807.6h1.1V5776h-1.1V5807.6z"/>
	</g>
	<g id="Rectangle_2282">
		<path d="M234.9,5810.6h-4.1c-0.8,0-1.5-0.7-1.5-1.5v-20.3c0-0.8,0.7-1.5,1.5-1.5h4.1c0.8,0,1.5,0.7,1.5,1.5v20.3
			C236.4,5809.9,235.7,5810.6,234.9,5810.6z M232.3,5807.6h1.1v-17.3h-1.1V5807.6z"/>
	</g>
	<g id="Rectangle_2283">
		<path d="M247.1,5810.6H243c-0.8,0-1.5-0.7-1.5-1.5v-6.1c0-0.8,0.7-1.5,1.5-1.5h4.1c0.8,0,1.5,0.7,1.5,1.5v6.1
			C248.6,5809.9,247.9,5810.6,247.1,5810.6z M244.5,5807.6h1.1v-3.1h-1.1V5807.6z"/>
	</g>
	<g id="Line_535">
		<path d="M197.8,5811.2h-3v-2h3V5811.2z M197.8,5805.2h-3v-2h3V5805.2z M197.8,5799.2h-3v-2h3V5799.2z M197.8,5793.2h-3v-2h3
			V5793.2z M197.8,5787.2h-3v-2h3V5787.2z M197.8,5781.2h-3v-2h3V5781.2z M197.8,5775.2h-3v-2h3V5775.2z M197.8,5769.2h-3v-2h3
			V5769.2z M197.8,5763.2h-3v-2h3V5763.2z M197.8,5757.2h-3v-2h3V5757.2z"/>
	</g>
</g>
</svg>
