<svg xmlns="http://www.w3.org/2000/svg" viewBox="0 0 23.46 20.42"><g id="Laag_2" data-name="Laag 2"><g id="icons"><path d="M23,20.42H.5a.48.48,0,0,1-.43-.25.5.5,0,0,1,0-.5L11.29.23a.52.52,0,0,1,.87,0L23.32,19.57a.48.48,0,0,1,.14.35A.5.5,0,0,1,23,20.42Zm-21.59-1H22.08L11.72,1.48Z"/><path d="M11.81,19.05h-.09a.49.49,0,0,1-.41-.49l-.08-4.74-2.58.07a.52.52,0,0,1-.39-.18.49.49,0,0,1-.11-.42L9.23,7.82a.5.5,0,0,1,.49-.4h3a.52.52,0,0,1,.41.21.52.52,0,0,1,.07.45l-.78,2.34h2.3a.51.51,0,0,1,.47.68l-2.92,7.62A.49.49,0,0,1,11.81,19.05Zm-.09-6.25a.54.54,0,0,1,.35.13.49.49,0,0,1,.15.36l0,2.66L14,11.42H11.72a.5.5,0,0,1-.47-.66L12,8.42h-1.9l-.88,4.44,2.46-.06Z"/></g></g></svg>