<svg id="Group_3895" data-name="Group 3895" xmlns="http://www.w3.org/2000/svg" width="36.348" height="38" viewBox="0 0 36.348 38">
  <path id="Path_2268" data-name="Path 2268" d="M637.786,7147.862a11.565,11.565,0,1,1,11.565-11.565A11.578,11.578,0,0,1,637.786,7147.862Zm0-21.479a9.913,9.913,0,1,0,9.913,9.914A9.924,9.924,0,0,0,637.786,7126.383Z" transform="translate(-620.073 -7118.122)"/>
  <path id="Path_2269" data-name="Path 2269" d="M633.826,7146.341a.826.826,0,0,1-.826-.826v-4.957a.826.826,0,1,1,1.652,0v4.957A.826.826,0,0,1,633.826,7146.341Z" transform="translate(-615.652 -7108.341)"/>
  <path id="Path_2270" data-name="Path 2270" d="M633.826,7125.688a.825.825,0,0,1-.826-.826v-3.3a.826.826,0,1,1,1.652,0v3.3A.825.825,0,0,1,633.826,7125.688Z" transform="translate(-615.652 -7120.731)"/>
  <path id="Path_2271" data-name="Path 2271" d="M645.63,7132.885h-3.3a.826.826,0,0,1,0-1.653h3.3a.826.826,0,0,1,0,1.653Z" transform="translate(-610.109 -7113.884)"/>
  <path id="Path_2272" data-name="Path 2272" d="M626.63,7132.885h-3.3a.826.826,0,0,1,0-1.653h3.3a.826.826,0,0,1,0,1.653Z" transform="translate(-622.5 -7113.884)"/>
  <path id="Path_2273" data-name="Path 2273" d="M642.567,7142.4a.818.818,0,0,1-.583-.243l-3.144-3.142a.826.826,0,0,1,1.168-1.169l3.143,3.143a.827.827,0,0,1-.583,1.411Z" transform="translate(-612.001 -7109.724)"/>
  <path id="Path_2274" data-name="Path 2274" d="M628.083,7127.92a.818.818,0,0,1-.585-.241l-2.313-2.313a.826.826,0,0,1,1.168-1.169l2.313,2.314a.823.823,0,0,1,0,1.168A.812.812,0,0,1,628.083,7127.92Z" transform="translate(-620.906 -7118.629)"/>
  <path id="Path_2275" data-name="Path 2275" d="M639.57,7127.337a.813.813,0,0,1-.583-.243.824.824,0,0,1,0-1.168l1.733-1.729a.826.826,0,0,1,1.168,1.169l-1.733,1.729A.82.82,0,0,1,639.57,7127.337Z" transform="translate(-611.906 -7118.629)"/>
  <path id="Path_2276" data-name="Path 2276" d="M625.769,7141.464a.828.828,0,0,1-.583-1.412l2.556-2.556a.826.826,0,0,1,1.168,1.168l-2.556,2.555A.824.824,0,0,1,625.769,7141.464Z" transform="translate(-620.906 -7109.955)"/>
</svg>
