<svg xmlns="http://www.w3.org/2000/svg" width="43.698" height="29.426" viewBox="0 0 43.698 29.426">
  <g id="Group_3875" data-name="Group 3875" transform="translate(0 0)">
    <path id="Path_2193" data-name="Path 2193" d="M837.35,952.132h-1.9a.95.95,0,1,1,0-1.9h1.9a.95.95,0,0,1,0,1.9Z" transform="translate(-794.602 -932.778)"/>
    <path id="Path_2194" data-name="Path 2194" d="M816.35,952.132h-1.9a.95.95,0,0,1,0-1.9h1.9a.95.95,0,1,1,0,1.9Z" transform="translate(-813.5 -932.778)"/>
    <path id="Path_2195" data-name="Path 2195" d="M818.208,955.65a.948.948,0,0,1-.49-1.761l18.929-11.4c2.143-1.429,3.92-1.8,5.249-1.092,1.835.982,1.89,3.519,1.89,3.8a.948.948,0,0,1-.946.948h0a.951.951,0,0,1-.952-.944c0-.433-.175-1.756-.891-2.136-.65-.34-1.832.023-3.333,1.022L818.7,955.515A.94.94,0,0,1,818.208,955.65Z" transform="translate(-810.118 -941.045)"/>
    <path id="Path_2196" data-name="Path 2196" d="M843.8,955.649a.942.942,0,0,1-.49-.135l-18.929-11.4c-1.541-1.024-2.723-1.389-3.369-1.047-.716.38-.887,1.7-.891,2.136a.952.952,0,0,1-.95.944h0a.947.947,0,0,1-.948-.948c0-.285.053-2.821,1.89-3.8,1.326-.712,3.106-.336,5.286,1.113l18.891,11.379a.948.948,0,0,1-.488,1.761Z" transform="translate(-809.252 -941.045)"/>
    <path id="Path_2197" data-name="Path 2197" d="M823.271,963.188c-4.716,0-8.55-4.518-8.55-10.071a11.932,11.932,0,0,1,.084-1.339.951.951,0,0,1,.515-.745,17.623,17.623,0,0,1,15.9,0,.953.953,0,0,1,.517.745,12.4,12.4,0,0,1,.084,1.339C831.82,958.671,827.985,963.188,823.271,963.188ZM816.644,952.5c-.013.2-.023.406-.023.614,0,4.507,2.983,8.172,6.65,8.172s6.65-3.665,6.65-8.172c0-.207-.009-.412-.025-.614A15.691,15.691,0,0,0,816.644,952.5Z" transform="translate(-812.401 -933.763)"/>
    <path id="Path_2198" data-name="Path 2198" d="M834.271,963.188c-4.716,0-8.55-4.518-8.55-10.071a11.961,11.961,0,0,1,.084-1.339.951.951,0,0,1,.515-.745,17.623,17.623,0,0,1,15.9,0,.953.953,0,0,1,.517.745,12.4,12.4,0,0,1,.084,1.339C842.82,958.671,838.985,963.188,834.271,963.188ZM827.644,952.5c-.013.2-.023.406-.023.614,0,4.507,2.983,8.172,6.65,8.172s6.65-3.665,6.65-8.172c0-.207-.009-.412-.025-.614A15.691,15.691,0,0,0,827.644,952.5Z" transform="translate(-802.502 -933.763)"/>
    <path id="Path_2199" data-name="Path 2199" d="M829.3,953.532a.949.949,0,0,1-.95-.95c0-.387-.722-.95-1.851-.95s-1.853.563-1.853.95a.95.95,0,1,1-1.9,0c0-1.6,1.647-2.85,3.752-2.85s3.75,1.252,3.75,2.85A.948.948,0,0,1,829.3,953.532Z" transform="translate(-805.18 -933.228)"/>
    <path id="Path_2200" data-name="Path 2200" d="M819.282,962.609a.95.95,0,0,1-.849-1.376l5.487-10.976a.95.95,0,0,1,1.7.849l-5.489,10.976A.948.948,0,0,1,819.282,962.609Z" transform="translate(-809.151 -933.227)"/>
    <path id="Path_2201" data-name="Path 2201" d="M830.282,962.605a.981.981,0,0,1-.426-.1.952.952,0,0,1-.424-1.275l5.487-10.974a.95.95,0,0,1,1.7.849l-5.489,10.972A.948.948,0,0,1,830.282,962.605Z" transform="translate(-799.252 -933.227)"/>
  </g>
</svg>
