<?xml version="1.0" encoding="utf-8"?>
<!-- Generator: Adobe Illustrator 23.0.1, SVG Export Plug-In . SVG Version: 6.00 Build 0)  -->
<svg version="1.1" id="Laag_1" xmlns="http://www.w3.org/2000/svg" xmlns:xlink="http://www.w3.org/1999/xlink" x="0px" y="0px"
	 viewBox="0 0 41 41.3" style="enable-background:new 0 0 41 41.3;" xml:space="preserve">
<g id="Path_879">
	<path d="M4,24.9c-0.2,0-0.3-0.1-0.5-0.2c-0.3-0.2-0.4-0.5-0.2-0.8L5,19.2H0.8c-0.4,0-0.8-0.3-0.8-0.8V0.8C0,0.3,0.3,0,0.8,0H28
		c0.4,0,0.8,0.3,0.8,0.8v17.7c0,0.4-0.3,0.8-0.8,0.8H13l-8.5,5.6C4.3,24.9,4.2,24.9,4,24.9z M1.5,17.7h4.6c0.2,0,0.5,0.1,0.6,0.3
		c0.1,0.2,0.2,0.5,0.1,0.7l-1.3,3.6l6.8-4.5c0.1-0.1,0.3-0.1,0.4-0.1h14.5V1.5H1.5V17.7z"/>
</g>
<g id="Path_880">
	<path d="M37.6,41.3c-0.1,0-0.3,0-0.4-0.1l-8.5-5.6H14.4c-0.4,0-0.8-0.3-0.8-0.8V19.1c0-0.4,0.3-0.8,0.8-0.8s0.8,0.3,0.8,0.8V34
		h13.8c0.1,0,0.3,0,0.4,0.1l6.8,4.5L34.8,35c-0.1-0.2,0-0.5,0.1-0.7c0.1-0.2,0.4-0.3,0.6-0.3h4V16.5H28.6c-0.4,0-0.8-0.3-0.8-0.8
		s0.3-0.8,0.8-0.8h11.6c0.4,0,0.8,0.3,0.8,0.8v19c0,0.4-0.3,0.8-0.8,0.8h-3.6l1.7,4.7c0.1,0.3,0,0.6-0.2,0.8
		C37.9,41.2,37.7,41.3,37.6,41.3z"/>
</g>
<g id="Line_123">
	<path d="M24.6,6.9h-19c-0.4,0-0.8-0.3-0.8-0.8s0.3-0.8,0.8-0.8h19c0.4,0,0.8,0.3,0.8,0.8S25,6.9,24.6,6.9z"/>
</g>
<g id="Line_124">
	<path d="M24.6,9.7h-19c-0.4,0-0.8-0.3-0.8-0.8s0.3-0.8,0.8-0.8h19c0.4,0,0.8,0.3,0.8,0.8S25,9.7,24.6,9.7z"/>
</g>
<g id="Line_125">
	<path d="M15,12.4H5.5c-0.4,0-0.8-0.3-0.8-0.8s0.3-0.8,0.8-0.8H15c0.4,0,0.8,0.3,0.8,0.8S15.5,12.4,15,12.4z"/>
</g>
<g id="Line_126">
	<path d="M35.4,24.6H19.1c-0.4,0-0.8-0.3-0.8-0.8s0.3-0.8,0.8-0.8h16.3c0.4,0,0.8,0.3,0.8,0.8S35.9,24.6,35.4,24.6z"/>
</g>
<g id="Line_127">
	<path d="M35.4,27.4H19.1c-0.4,0-0.8-0.3-0.8-0.8s0.3-0.8,0.8-0.8h16.3c0.4,0,0.8,0.3,0.8,0.8S35.9,27.4,35.4,27.4z"/>
</g>
<g id="Line_128">
	<path d="M28.6,30.1h-9.5c-0.4,0-0.8-0.3-0.8-0.8s0.3-0.8,0.8-0.8h9.5c0.4,0,0.8,0.3,0.8,0.8S29.1,30.1,28.6,30.1z"/>
</g>
</svg>
