<svg width="18" height="18" viewBox="0 0 18 18" fill="none" xmlns="http://www.w3.org/2000/svg">
<g clip-path="url(#clip0_142_626)">
<path d="M14.6062 7.25263V5.2551C14.6062 3.02409 11.9486 0.374306 8.54999 0.374306C5.15137 0.374306 2.49374 3.02038 2.49374 5.25139V7.24892" stroke="black" stroke-width="1.2" stroke-miterlimit="10"/>
<path d="M16.7438 7.25262H14.6063V13.1822H16.7438V7.25262Z" stroke="black" stroke-width="1.2" stroke-linecap="round" stroke-linejoin="round"/>
<path d="M2.49376 7.25262H0.356262V13.1822H2.49376V7.25262Z" stroke="black" stroke-width="1.2" stroke-linecap="round" stroke-linejoin="round"/>
<path d="M11.7563 17.6294H9.09507C8.72101 17.6294 8.19376 17.1031 8.19376 16.714V16.6436C8.19376 16.2545 8.72101 16.147 9.09507 16.147H11.7563V17.6294Z" stroke="black" stroke-width="1.2" stroke-linecap="round" stroke-linejoin="round"/>
<path d="M12.4688 16.8882H13.0922C14.0505 16.8882 14.6062 15.8691 14.6062 14.8721V12.441" stroke="black" stroke-width="1.2" stroke-linecap="round" stroke-linejoin="round"/>
</g>
<defs>
<clipPath id="clip0_142_626">
<rect width="17.1" height="18" fill="white"/>
</clipPath>
</defs>
</svg>
