<?xml version="1.0" encoding="utf-8"?>
<!-- Generator: Adobe Illustrator 23.0.6, SVG Export Plug-In . SVG Version: 6.00 Build 0)  -->
<svg version="1.1" id="Laag_1" xmlns="http://www.w3.org/2000/svg" xmlns:xlink="http://www.w3.org/1999/xlink" x="0px" y="0px"
	 viewBox="0 0 31.4 33.8" style="enable-background:new 0 0 31.4 33.8;" xml:space="preserve">
<path id="Path_2084" d="M28.5,11.7L28.5,11.7c-0.8,0-1.4,0.3-2,0.8c-0.4-1.2-1.5-2-2.7-2c-0.8,0-1.5,0.3-2.1,0.9
	c-0.5-1-1.5-1.7-2.6-1.7h-0.1c-0.6,0-1.2,0.2-1.7,0.6V3.1c0.1-1.6-1.2-3-2.8-3.1s-3,1.2-3.1,2.8c0,0.1,0,0.2,0,0.3l0,14.2l-0.9-1
	C10,15.3,9,14.8,7.9,14.7c-1.1-0.1-2.1,0.3-2.9,1l-0.7,0.6C4,16.5,4,16.8,4.1,17L10.8,30c1.2,2.3,3.5,3.8,6.1,3.8h7.6
	c4-0.1,7.1-3.4,7-7.4c0-1.8,0-3.2,0-4.3c0-3,0-4.1,0-7.4C31.5,13.1,30.2,11.7,28.5,11.7z M30.3,22.1c0,1.1,0,2.5,0,4.3
	c0.1,3.3-2.5,6.1-5.8,6.2h-7.6c-2.1,0-4.1-1.3-5.1-3.2L5.3,16.9l0.3-0.3l0,0c0.6-0.5,1.3-0.8,2.1-0.7c0.8,0.1,1.5,0.4,2,1.1l1.9,2.3
	c0.2,0.2,0.6,0.3,0.8,0.1c0.1-0.1,0.2-0.3,0.2-0.4l0-15.8c-0.1-1,0.6-1.8,1.6-1.9c1-0.1,1.8,0.6,1.9,1.6c0,0.1,0,0.2,0,0.3v9.5
	c0,0,0,0.1,0,0.1c0,0,0,0,0,0v4.1c0,0.3,0.3,0.6,0.6,0.6s0.6-0.3,0.6-0.6v-4.2c0-1,0.7-1.8,1.7-1.8c0,0,0,0,0,0h0.1
	c1,0,1.8,0.9,1.8,1.9v3.7c0,0.3,0.3,0.6,0.6,0.6s0.6-0.3,0.6-0.6v-2.9c-0.1-1,0.6-1.8,1.6-1.9c1-0.1,1.8,0.6,1.9,1.6
	c0,0.1,0,0.2,0,0.3v2.8c0,0.3,0.3,0.6,0.6,0.6s0.6-0.3,0.6-0.6v-1.5c0-1,0.7-1.9,1.7-1.9h0.1c1,0,1.8,0.9,1.7,1.9
	C30.3,18,30.3,19.1,30.3,22.1z"/>
<path id="Path_2085" d="M19.4,5.7h7.5l-1.3,1.3c-0.2,0.2-0.2,0.6,0,0.8s0.6,0.2,0.8,0l2.3-2.3c0.2-0.2,0.2-0.6,0-0.8c0,0,0,0,0,0
	l-2.3-2.3c-0.2-0.2-0.6-0.2-0.8,0s-0.2,0.6,0,0.8l1.3,1.3h-7.5c-0.3,0-0.6,0.3-0.6,0.6C18.8,5.5,19.1,5.7,19.4,5.7z"/>
<path id="Path_2086" d="M2,5.7h7.4c0.3,0,0.6-0.3,0.6-0.6c0-0.3-0.3-0.6-0.6-0.6H2l1.3-1.3c0.2-0.2,0.2-0.6,0-0.8
	c-0.2-0.2-0.6-0.2-0.8,0L0.2,4.8c-0.2,0.2-0.2,0.6,0,0.8l2.3,2.3c0.2,0.2,0.6,0.2,0.8,0c0.2-0.2,0.2-0.6,0-0.8L2,5.7z"/>
</svg>
