<?xml version="1.0" encoding="utf-8"?>
<!-- Generator: Adobe Illustrator 23.0.6, SVG Export Plug-In . SVG Version: 6.00 Build 0)  -->
<svg version="1.1" id="Laag_1" xmlns="http://www.w3.org/2000/svg" xmlns:xlink="http://www.w3.org/1999/xlink" x="0px" y="0px"
	 viewBox="0 0 37 44.6" style="enable-background:new 0 0 37 44.6;" xml:space="preserve">
<g id="Group_4291" transform="translate(-1731 -4038)">
	<g id="Group_4290" transform="translate(1754.239 4055.679)">
		<g id="Rectangle_2639">
			<path d="M11,26.9H1.5c-1.5,0-2.8-1.2-2.8-2.8V1.7c0-1.5,1.2-2.8,2.8-2.8H11c1.5,0,2.8,1.2,2.8,2.8v22.4
				C13.8,25.7,12.5,26.9,11,26.9z M1.5,0.9c-0.4,0-0.8,0.4-0.8,0.8v22.4c0,0.4,0.4,0.8,0.8,0.8H11c0.4,0,0.8-0.4,0.8-0.8V1.7
				c0-0.4-0.4-0.8-0.8-0.8H1.5z"/>
		</g>
		<g id="Line_647">
			<path d="M11.8,5.9h-11c-0.6,0-1-0.4-1-1c0-0.6,0.4-1,1-1h11c0.6,0,1,0.4,1,1C12.8,5.5,12.3,5.9,11.8,5.9z"/>
		</g>
		<g id="Line_648">
			<path d="M11.8,22.9h-11c-0.6,0-1-0.4-1-1s0.4-1,1-1h11c0.6,0,1,0.4,1,1S12.3,22.9,11.8,22.9z"/>
		</g>
	</g>
	<g id="Path_2953">
		<path d="M1753.3,4064.1h-17.6c-0.6,0-1-0.4-1-1v-20.4c0-0.6,0.4-1,1-1h20.4c0.6,0,1,0.4,1,1v12c0,0.6-0.4,1-1,1s-1-0.4-1-1v-11
			h-18.4v18.4h16.6c0.6,0,1,0.4,1,1S1753.9,4064.1,1753.3,4064.1z"/>
	</g>
	<g id="Line_649">
		<path d="M1748,4067.6h-4c-0.6,0-1-0.4-1-1s0.4-1,1-1h4c0.6,0,1,0.4,1,1S1748.6,4067.6,1748,4067.6z"/>
	</g>
	<g id="Path_2954">
		<path d="M1753.3,4071.5h-19.2c0,0-0.1,0-0.1,0c-1.6-0.2-2.9-1.5-3-3.1c0,0,0-0.1,0-0.1v-27.8c0-1.6,1.6-2.5,3.2-2.5h24.1
			c1.6,0,2.5,0.9,2.5,2.5v14.3c0,0.6-0.4,1-1,1s-1-0.4-1-1v-14.3c0-0.4,0-0.5-0.5-0.5h-24.1c-0.6,0-1.2,0.2-1.2,0.5v27.7
			c0.1,0.7,0.6,1.2,1.2,1.3h19.1c0.6,0,1,0.4,1,1S1753.9,4071.5,1753.3,4071.5z"/>
	</g>
</g>
</svg>
