<?xml version="1.0" encoding="utf-8"?>
<!-- Generator: Adobe Illustrator 23.0.6, SVG Export Plug-In . SVG Version: 6.00 Build 0)  -->
<svg version="1.1" id="Laag_1" xmlns="http://www.w3.org/2000/svg" xmlns:xlink="http://www.w3.org/1999/xlink" x="0px" y="0px"
	 viewBox="0 0 30.6 39.1" style="enable-background:new 0 0 30.6 39.1;" xml:space="preserve">
<g id="Group_3552" transform="translate(0.9 0.9)">
	<g id="Rectangle_2347">
		<path d="M28.8,38.2H0c-0.5,0-0.9-0.4-0.9-0.9V0c0-0.5,0.4-0.9,0.9-0.9h28.8c0.5,0,0.9,0.4,0.9,0.9v37.3
			C29.7,37.8,29.3,38.2,28.8,38.2z M0.9,36.4h27V0.9h-27V36.4z"/>
	</g>
	<g id="Rectangle_2348">
		<path d="M20.3,6H8.5C8,6,7.6,5.6,7.6,5.1V0c0-0.5,0.4-0.9,0.9-0.9h11.9c0.5,0,0.9,0.4,0.9,0.9v5.1C21.2,5.6,20.8,6,20.3,6z
			 M9.4,4.2h10.1V0.9H9.4V4.2z"/>
	</g>
	<g id="Rectangle_2349">
		<path d="M20.3,38.2H8.5c-0.5,0-0.9-0.4-0.9-0.9v-5.1c0-0.5,0.4-0.9,0.9-0.9h11.9c0.5,0,0.9,0.4,0.9,0.9v5.1
			C21.2,37.8,20.8,38.2,20.3,38.2z M9.4,36.4h10.1v-3.3H9.4V36.4z"/>
	</g>
	<g id="Line_476">
		<rect x="0.8" y="17.7" width="27.9" height="1.8"/>
	</g>
	<g id="Path_2082">
		<path d="M14.9,24.9c-1.8,0-3.5-0.7-4.7-2s-2-2.9-2-4.7c0-3.7,3-6.7,6.7-6.7c3.7,0,6.7,3,6.7,6.7l0,0c0,1.8-0.7,3.5-2,4.7
			C18.3,24.2,16.6,24.9,14.9,24.9C14.9,24.9,14.9,24.9,14.9,24.9z M14.9,13.4c-2.7,0-4.9,2.2-4.9,4.9c0,1.3,0.5,2.5,1.4,3.4
			c0.9,0.9,2.1,1.4,3.4,1.4c0,0,0,0,0,0c1.3,0,2.5-0.5,3.4-1.4c0.9-0.9,1.4-2.1,1.4-3.4C19.7,15.6,17.5,13.4,14.9,13.4z"/>
	</g>
</g>
</svg>
