<svg id="loyalty-24px" xmlns="http://www.w3.org/2000/svg" width="24" height="24" viewBox="0 0 24 24">
  <path id="Path_47" data-name="Path 47" d="M0,0H24V24H0Z" fill="none"/>
  <path id="Path_48" data-name="Path 48" d="M21.41,11.58l-9-9A1.987,1.987,0,0,0,11,2H4A2.006,2.006,0,0,0,2,4v7a2,2,0,0,0,.59,1.42l9,9A1.987,1.987,0,0,0,13,22a1.955,1.955,0,0,0,1.41-.59l7-7A1.955,1.955,0,0,0,22,13,2.02,2.02,0,0,0,21.41,11.58ZM5.5,7A1.5,1.5,0,1,1,7,5.5,1.5,1.5,0,0,1,5.5,7Zm11.77,8.27L13,19.54,8.73,15.27A2.5,2.5,0,0,1,10.5,11a2.469,2.469,0,0,1,1.77.74l.73.72.73-.73a2.5,2.5,0,0,1,3.54,3.54Z" fill="inherit"/>
</svg>
