<svg xmlns="http://www.w3.org/2000/svg" viewBox="0 0 36 36"><g id="Laag_2" data-name="Laag 2"><g id="Laag_1-2" data-name="Laag 1"><path d="M18,0A18,18,0,1,0,36,18,18,18,0,0,0,18,0Zm.56,34V31.45a1,1,0,0,0-2,0v2.48A16,16,0,0,1,2.07,19.3H5.19a1,1,0,1,0,0-2H2A16,16,0,0,1,16.56,2.07h0V5.17a1,1,0,0,0,2,0V2.08s0,0,0-.05A16,16,0,0,1,34,17.31H31.47a1,1,0,0,0,0,2h2.46A16,16,0,0,1,18.56,34Z"/><path d="M22.72,21.94H22A13.8,13.8,0,0,0,25,14.16h0a7,7,0,0,0-14,0A13.85,13.85,0,0,0,13.91,22c-2.47,0-5.08,1.73-5.08,4.25v2.15a1,1,0,0,0,2,0V26.2c0-1.29,1.66-2.26,3.14-2.26h2a1.07,1.07,0,0,0,.31-.06,4,4,0,0,0,1.64.36,4.26,4.26,0,0,0,2-.55,1,1,0,0,0,.66.25h2.07c.85,0,1.56.17,1.56,2.26v2.15a1,1,0,0,0,2,0V26.2C26.28,22.68,24.34,21.94,22.72,21.94ZM13,14.16a5,5,0,0,1,10,0c0,3-2.47,8.08-5,8.08S13,17.13,13,14.16Z"/></g></g></svg>