<?xml version="1.0" encoding="utf-8"?>
<!-- Generator: Adobe Illustrator 23.0.1, SVG Export Plug-In . SVG Version: 6.00 Build 0)  -->
<svg version="1.1" id="Group_1798" xmlns="http://www.w3.org/2000/svg" xmlns:xlink="http://www.w3.org/1999/xlink" x="0px" y="0px"
	 viewBox="0 0 81.2 65.5" style="enable-background:new 0 0 81.2 65.5;" xml:space="preserve">
<path id="Path_1357" d="M79.8,63.4c-0.8,0-1.4-0.6-1.4-1.4c0-6.7-10.9-12.3-17.7-12.3c-0.6,0-1.1-0.4-1.3-0.9l-2.7-8.2
	c-0.2-0.7,0.1-1.5,0.9-1.7c0.7-0.2,1.5,0.1,1.7,0.9l2.4,7.3c8,0.5,19.5,6.8,19.5,15C81.2,62.8,80.5,63.4,79.8,63.4z"/>
<path id="Path_1358" d="M52.5,41.6c-0.8,0-1.4-0.6-1.4-1.3s0.6-1.4,1.3-1.4c0,0,0,0,0.1,0c13.3,0,18.6-6.6,20.3-9.5
	c-1.2-2.1-4.6-8-5.2-10.6c-1.1-4.6-4.7-15.3-15-15.3c-0.8,0-1.4-0.6-1.4-1.3c0-0.8,0.6-1.4,1.3-1.4c0,0,0,0,0.1,0
	c8.6,0,15.1,6.4,17.7,17.4c0.5,2.3,4,8.4,5.3,10.5c0.2,0.4,0.3,0.9,0.1,1.3C74.2,32.6,68.5,41.6,52.5,41.6z"/>
<path id="Path_1359" d="M30.7,47c-8.1,0-14.6-8.7-15.3-16.5c-2.7-0.4-4.5-1.9-4.5-4v-5.5c0.1-1.6,1.2-3,2.7-3.6v-4.6
	c0-4.9,1.6-9.4,13.2-9.5C29.8,1.2,33.3,0,37,0c4.8,0,9,2.2,10.6,5.6c1.2,2.5,0.2,5.3-1.2,7.8v4.1c1.5,0.6,2.6,1.9,2.7,3.6v5.5
	c0,1.7-1,3.6-3.8,4C44.7,38.6,38.7,47,30.7,47z M37,2.7c-3.2,0-6.3,1.1-8.9,3.1c-0.2,0.2-0.5,0.3-0.8,0.3c-10.9,0-10.9,3.8-10.9,6.8
	v5.5c0,0.5-0.3,1-0.8,1.2c-1,0.4-1.9,1.2-1.9,1.5v5.4c0,0.7,1.2,1.4,3.1,1.4c0.8,0,1.4,0.6,1.4,1.4c0,6.7,5.8,15,12.6,15
	c6.7,0,11.9-8.1,11.9-15c0-0.8,0.6-1.4,1.4-1.4c2.4,0,2.4-1,2.4-1.4v-5.5c0-0.3-1-1.1-1.9-1.5c-0.5-0.2-0.8-0.7-0.8-1.2v-5.5
	c0-0.3,0.1-0.6,0.3-0.9c1.5-1.8,1.9-3.7,1.1-5.3C44,4.3,40.7,2.7,37,2.7z"/>
<path id="Path_1360" d="M1.4,65.5c-0.8,0-1.4-0.6-1.4-1.4V62c0-7.6,6.5-12.9,15.7-12.9H19l3.6-6.4c0.4-0.7,1.2-0.9,1.9-0.5
	c0.7,0.4,0.9,1.2,0.5,1.9l0,0l-4,7.1c-0.2,0.4-0.7,0.7-1.2,0.7h-4.1c-6.4,0-13,3.2-13,10.2v2.1C2.7,64.9,2.1,65.5,1.4,65.5z"/>
<path id="Path_1361" d="M58.6,65.5c-0.8,0-1.4-0.6-1.4-1.4V62c0-6.5-4.1-10.2-11.3-10.2h-4.1c-0.5,0-0.9-0.2-1.1-0.6l-4.8-7.1
	c-0.4-0.6-0.3-1.5,0.4-1.9c0.6-0.4,1.5-0.3,1.9,0.4l0,0l4.4,6.5h3.4c8.7,0,14.1,5,14.1,12.9v2.1C60,64.9,59.4,65.5,58.6,65.5z"/>
</svg>
