<svg xmlns="http://www.w3.org/2000/svg" viewBox="0 0 20.6 23.76"><g id="Laag_2" data-name="Laag 2"><g id="icons"><path d="M11,14.94a5.34,5.34,0,0,1-3.91-1.41c-1.25-1.25-1.7-3.25-1.25-5.65A11,11,0,0,1,8.56,2.41a8.72,8.72,0,0,1,6-2.41,6.12,6.12,0,0,1,4.39,1.66C21.66,4.38,20.77,9.47,18.2,12A11,11,0,0,1,11,14.94ZM14.55,1A7.69,7.69,0,0,0,9.27,3.12,9.83,9.83,0,0,0,6.82,8.06c-.39,2,0,3.77,1,4.77A4.54,4.54,0,0,0,11,13.94a9.89,9.89,0,0,0,6.5-2.6c2.25-2.25,3.06-6.65.75-9A5.18,5.18,0,0,0,14.55,1Z"/><path d="M2,20.52a.51.51,0,0,1-.36-.15L.15,18.88a.5.5,0,0,1,0-.71l4.46-4.46a.5.5,0,0,1,.71,0L6.81,15.2a.5.5,0,0,1,0,.7L2.34,20.37A.49.49,0,0,1,2,20.52Zm-.78-2,.78.78,3.76-3.76L5,14.77Z"/><path d="M5.32,14.42l-.71-.71c.65-.65,1-3.32,1.1-5l1,.05C6.67,9.55,6.42,13.31,5.32,14.42Z"/><path d="M6.81,15.9l-.71-.7c.71-.71,2.57-1.14,5.68-1.3l.07,1h0C8,15.1,7,15.67,6.81,15.9Z"/><path d="M9.52,23.76a3.61,3.61,0,0,1-2.58-1.07,3.65,3.65,0,0,1,0-5.17,3.75,3.75,0,0,1,5.17,0,3.66,3.66,0,0,1-2.59,6.24Zm0-6.31A2.66,2.66,0,0,0,7.64,22a2.73,2.73,0,0,0,3.76,0,2.66,2.66,0,0,0-1.88-4.54Z"/><path d="M12.49,20.78a3.61,3.61,0,0,1-3.63-3.84.5.5,0,0,1,.47-.47,3.61,3.61,0,0,1,2.78,1.05,3.66,3.66,0,0,1,1.05,2.78.5.5,0,0,1-.47.47Zm-2.62-3.3A2.65,2.65,0,0,0,10.62,19a2.68,2.68,0,0,0,1.53.75,2.65,2.65,0,0,0-.75-1.53A2.68,2.68,0,0,0,9.87,17.48Z"/><path d="M9.52,23.75h0a3.59,3.59,0,0,1-2.58-1.06,3.64,3.64,0,0,1-1.06-2.77.51.51,0,0,1,.47-.48A3.69,3.69,0,0,1,9.13,20.5a3.64,3.64,0,0,1,1,2.78.49.49,0,0,1-.47.47ZM6.9,20.46a2.59,2.59,0,0,0,2.27,2.27A2.64,2.64,0,0,0,6.9,20.46Z"/></g></g></svg>