<?xml version="1.0" encoding="utf-8"?>
<!-- Generator: Adobe Illustrator 23.0.6, SVG Export Plug-In . SVG Version: 6.00 Build 0)  -->
<svg version="1.1" id="Laag_1" xmlns="http://www.w3.org/2000/svg" xmlns:xlink="http://www.w3.org/1999/xlink" x="0px" y="0px"
	 viewBox="0 0 74.5 52" style="enable-background:new 0 0 74.5 52;" xml:space="preserve">
<path id="Path_2280" d="M35.5,0H17.7L6.3,18.4C0.3,28,0,30.8,0,35c0,9.8,8,17,17.9,17s17.7-7.3,17.7-16.6c0-5.9-3.2-11.4-9.6-14.3
	L35.5,0z M74.5,0H56.7L45.3,18.4C39.4,28,39,30.8,39,35c0,9.8,8,17,17.9,17s17.7-7.3,17.7-16.6c0-5.9-3.2-11.4-9.6-14.3L74.5,0z"/>
</svg>
