<svg xmlns="http://www.w3.org/2000/svg" width="35.5" height="35.132" viewBox="0 0 35.5 35.132">
  <g id="Group_117" data-name="Group 117" transform="translate(-208.25 -208.868)">
    <path id="Path_96" data-name="Path 96" d="M220.292,236.254a5.425,5.425,0,0,0-2.137-5.672c-2.873-1.445-5.645.926-9.156.926,0,4.332,4.527,9.886,10,5.908" transform="translate(0 -5.248)" fill="none" stroke="inherit" stroke-miterlimit="10" stroke-width="1.5"/>
    <path id="Path_97" data-name="Path 97" d="M225,240.883c-3.061-4.658-8.15-5.243-11.338-6" transform="translate(-1.216 -6.492)" fill="none" stroke="inherit" stroke-miterlimit="10" stroke-width="1.5"/>
    <path id="Path_98" data-name="Path 98" d="M229,246.087V228.348A16.137,16.137,0,0,1,233.435,218" transform="translate(-5.217 -2.087)" fill="none" stroke="inherit" stroke-miterlimit="10" stroke-width="1.5"/>
    <path id="Path_99" data-name="Path 99" d="M227.656,225.522c-2.379-1.2-4.3-4.158-3.7-6.652,1.022-4.246,6.7-5.821,9.4-8.87,4.035,4.557,5.482,11.971-3.418,15.522" transform="translate(-3.874)" fill="none" stroke="inherit" stroke-miterlimit="10" stroke-width="1.5"/>
    <path id="Path_100" data-name="Path 100" d="M233,240.13A8.132,8.132,0,1,0,241.128,232,8.131,8.131,0,0,0,233,240.13Z" transform="translate(-6.26 -5.739)" fill="none" stroke="inherit" stroke-miterlimit="10" stroke-width="1.5"/>
    <path id="Path_101" data-name="Path 101" d="M244,235v5.913h2.957" transform="translate(-9.13 -6.522)" fill="none" stroke="inherit" stroke-miterlimit="10" stroke-width="1.5"/>
  </g>
</svg>
