<svg xmlns="http://www.w3.org/2000/svg" width="23.805" height="22.525" viewBox="0 0 23.805 22.525">
  <g id="Group_3856" data-name="Group 3856" transform="translate(1.055 0.75)">
    <path id="Path_2158" data-name="Path 2158" d="M321.721,7284.875l6.572-5.368a3.99,3.99,0,0,0,1.447-2.7c.086-.88.183-1.8.216-1.9a7.931,7.931,0,0,1,7.368-5.377,7.712,7.712,0,0,1,6.4,3.2h-5.84l-2.381,2.516v4.458l2.381,2.026h5.84a6.693,6.693,0,0,1-2.263,2.258,7.791,7.791,0,0,1-4.134,1.238,7.986,7.986,0,0,1-.982-.036,2.985,2.985,0,0,0-2.37.764l-4.7,4.293" transform="translate(-321.721 -7269.534)" fill="none" stroke="#000" stroke-linecap="round" stroke-linejoin="round" stroke-width="1.5"/>
  </g>
</svg>
