<?xml version="1.0" encoding="utf-8"?>
<!-- Generator: Adobe Illustrator 23.0.6, SVG Export Plug-In . SVG Version: 6.00 Build 0)  -->
<svg version="1.1" id="Laag_1" xmlns="http://www.w3.org/2000/svg" xmlns:xlink="http://www.w3.org/1999/xlink" x="0px" y="0px"
	 viewBox="0 0 46 45.5" style="enable-background:new 0 0 46 45.5;" xml:space="preserve">
<g id="Group_4323" transform="translate(-1727.004 -13513)">
	<g id="Path_2980">
		<path d="M1762,13558.5h-34c-0.6,0-1-0.4-1-1v-43.5c0-0.6,0.4-1,1-1h34c0.6,0,1,0.4,1,1v18c0,0.6-0.4,1-1,1s-1-0.4-1-1v-17h-32
			v41.5h32v-3.7c0-0.6,0.4-1,1-1s1,0.4,1,1v4.7C1763,13558,1762.6,13558.5,1762,13558.5z"/>
	</g>
	<g id="Path_2981">
		<path d="M1748.8,13547.1h-17c-0.6,0-1-0.4-1-1v-28.3c0-0.6,0.4-1,1-1h26.5c0.6,0,1,0.4,1,1v16.1c0,0.6-0.4,1-1,1s-1-0.4-1-1v-15.1
			h-24.5v26.3h16c0.6,0,1,0.4,1,1S1749.3,13547.1,1748.8,13547.1z"/>
	</g>
	<g id="Path_2982">
		<path d="M1745.6,13554.1c-0.8,0-1.6-0.3-2.2-0.9c-0.6-0.6-0.9-1.4-0.9-2.2c0-0.8,0.3-1.6,0.9-2.2c0.6-0.6,1.4-0.9,2.2-0.9
			c1.7,0,3.1,1.4,3.1,3.1l0,0C1748.7,13552.7,1747.3,13554.1,1745.6,13554.1C1745.6,13554.1,1745.6,13554.1,1745.6,13554.1z
			 M1745.6,13549.9c-0.3,0-0.6,0.1-0.8,0.3s-0.3,0.5-0.3,0.8c0,0.3,0.1,0.6,0.3,0.8c0.2,0.2,0.5,0.3,0.8,0.3c0,0,0,0,0,0
			c0.6,0,1.1-0.5,1.1-1.1l0,0C1746.7,13550.4,1746.2,13549.9,1745.6,13549.9z"/>
	</g>
	<g id="Path_2983">
		<path d="M1764.1,13553.1c-2.6,0-6-1.2-9.1-2.4c-1.7-0.6-3.3-1.2-4.3-1.4c-1.7-0.3-2.6-1.3-2.7-2.9c0-1.7,1.3-3,2.9-3l1.9,0.1
			l-7.5-7.5c-0.6-0.6-0.9-1.3-0.9-2.1s0.3-1.5,0.8-2.1c0,0,0.1-0.1,0.1-0.1c0.6-0.5,1.3-0.8,2.1-0.7c0.8,0,1.5,0.4,2,0.9l3.9,3.9
			c0.1-0.3,0.3-0.5,0.5-0.7c0,0,0.1-0.1,0.1-0.1c0.8-0.7,1.9-0.9,2.9-0.6c0.1-0.4,0.4-0.7,0.7-1c0,0,0.1-0.1,0.1-0.1
			c0.6-0.5,1.3-0.8,2.1-0.8c0.3,0,0.6,0.1,0.8,0.2c0.1-0.4,0.4-0.7,0.6-1c0,0,0.1-0.1,0.1-0.1c0.6-0.5,1.3-0.8,2.1-0.8
			c0.8,0,1.5,0.4,2,1l5.3,5.3c3.5,3.5,2.1,8.4,0.9,10.5c0,0.1-0.1,0.1-0.2,0.2l-4.1,4.1
			C1766.6,13552.8,1765.4,13553.1,1764.1,13553.1z M1751,13545.5c-0.5,0-0.9,0.4-0.9,1c0,0.3,0,0.8,1,1c1.2,0.2,2.8,0.8,4.6,1.5
			c3.5,1.3,8.7,3.2,10.3,1.7l4-4c0.4-0.8,2.4-5-0.6-8l-5.3-5.3c-0.2-0.2-0.4-0.3-0.7-0.3c-0.2,0-0.5,0.1-0.7,0.2
			c-0.3,0.3-0.4,0.9,0,1.2l0.1,0.1c0.4,0.4,0.4,1,0,1.4c-0.4,0.4-1,0.4-1.4,0.1c0,0-0.1-0.1-0.1-0.1c0,0-0.1-0.1-0.1-0.1l-0.8-0.8
			c0,0,0,0,0,0c-0.3-0.4-0.9-0.4-1.3-0.1c-0.3,0.3-0.4,0.9,0,1.2l0.1,0.1c0.4,0.4,0.4,1,0,1.4s-1,0.4-1.4,0.1c0,0-0.1-0.1-0.1-0.1
			c0,0-0.1-0.1-0.1-0.1l-0.8-0.8c-0.4-0.4-1-0.4-1.3-0.1c-0.2,0.2-0.3,0.4-0.3,0.6c0,0.2,0.1,0.4,0.2,0.6l0.1,0.1
			c0.4,0.4,0.4,1,0,1.4c-0.4,0.4-1,0.4-1.4,0c0,0-0.1-0.1-0.1-0.1c0,0-0.1-0.1-0.1-0.1l-5.8-5.8c-0.2-0.2-0.4-0.3-0.7-0.3
			c-0.2,0-0.5,0.1-0.6,0.2c-0.2,0.2-0.3,0.4-0.3,0.7c0,0.2,0.1,0.5,0.3,0.6l9.3,9.3c0.3,0.3,0.4,0.7,0.2,1.1c-0.2,0.4-0.5,0.6-1,0.6
			L1751,13545.5z"/>
	</g>
</g>
</svg>
