<svg xmlns="http://www.w3.org/2000/svg" xmlns:xlink="http://www.w3.org/1999/xlink" width="25.073" height="20.376" viewBox="0 0 25.073 20.376">
  <path id="Path_929" data-name="Path 929" d="M269.007,157.361a14.631,14.631,0,0,0,22.508-12.991,10.428,10.428,0,0,0,2.566-2.663,10.26,10.26,0,0,1-2.954.81,5.151,5.151,0,0,0,2.261-2.846,10.319,10.319,0,0,1-3.265,1.249,5.148,5.148,0,0,0-8.766,4.692,14.6,14.6,0,0,1-10.6-5.375,5.15,5.15,0,0,0,1.591,6.868,5.128,5.128,0,0,1-2.331-.644,5.151,5.151,0,0,0,4.126,5.11,5.149,5.149,0,0,1-2.322.087,5.146,5.146,0,0,0,4.8,3.573A10.345,10.345,0,0,1,269.007,157.361Z" transform="translate(-269.007 -139.296)" fill="inherit"/>
</svg>
