<svg xmlns="http://www.w3.org/2000/svg" viewBox="0 0 24 24"><g id="Laag_2" data-name="Laag 2"><g id="icons"><path d="M16.32,18.54a.5.5,0,0,1-.47-.34L12,6.54,8.08,18.2a.52.52,0,0,1-.64.32.51.51,0,0,1-.31-.64L11.49,4.8a.52.52,0,0,1,.95,0L16.8,17.88a.51.51,0,0,1-.32.64Z"/><path d="M15,15H11a.5.5,0,0,1,0-1h4a.5.5,0,0,1,0,1Z"/><rect x="9" y="14" width="4" height="1"/><path d="M23.5,5h-4a.5.5,0,0,1-.5-.5V.5a.5.5,0,0,1,.5-.5h4a.5.5,0,0,1,.5.5v4A.5.5,0,0,1,23.5,5ZM20,4h3V1H20Z"/><path d="M23.5,24h-4a.5.5,0,0,1-.5-.5v-4a.5.5,0,0,1,.5-.5h4a.5.5,0,0,1,.5.5v4A.5.5,0,0,1,23.5,24ZM20,23h3V20H20Z"/><path d="M4.5,5H.5A.5.5,0,0,1,0,4.5V.5A.5.5,0,0,1,.5,0h4A.5.5,0,0,1,5,.5v4A.5.5,0,0,1,4.5,5ZM1,4H4V1H1Z"/><path d="M4.5,24H.5a.5.5,0,0,1-.5-.5v-4A.5.5,0,0,1,.5,19h4a.5.5,0,0,1,.5.5v4A.5.5,0,0,1,4.5,24ZM1,23H4V20H1Z"/><path d="M19,2H5A.5.5,0,0,1,5,1H19a.5.5,0,0,1,0,1Z"/><path d="M19,23H5a.5.5,0,0,1,0-1H19a.5.5,0,0,1,0,1Z"/><path d="M1.5,19.5A.5.5,0,0,1,1,19V5A.5.5,0,0,1,2,5V19A.5.5,0,0,1,1.5,19.5Z"/><path d="M22.5,19.5A.5.5,0,0,1,22,19V5a.5.5,0,0,1,1,0V19A.5.5,0,0,1,22.5,19.5Z"/></g></g></svg>