<svg xmlns="http://www.w3.org/2000/svg" viewBox="0 0 21 24"><g id="Laag_2" data-name="Laag 2"><g id="icons"><path d="M15.5,19H.5a.5.5,0,0,1-.5-.5V.5A.5.5,0,0,1,.5,0h15a.5.5,0,0,1,.5.5v18A.5.5,0,0,1,15.5,19ZM1,18H15V1H1Z"/><path d="M20.5,24H5.5a.5.5,0,0,1-.5-.5V19a.5.5,0,0,1,1,0v4H20V6H16a.5.5,0,0,1,0-1h4.5a.5.5,0,0,1,.5.5v18A.5.5,0,0,1,20.5,24Z"/><path d="M5.5,18.5A.5.5,0,0,1,5,18V17a.5.5,0,0,1,1,0v1A.5.5,0,0,1,5.5,18.5Zm0-3A.5.5,0,0,1,5,15V14a.5.5,0,0,1,1,0v1A.5.5,0,0,1,5.5,15.5Zm0-3A.5.5,0,0,1,5,12V11a.5.5,0,0,1,1,0v1A.5.5,0,0,1,5.5,12.5Zm0-3A.5.5,0,0,1,5,9V8A.5.5,0,0,1,6,8V9A.5.5,0,0,1,5.5,9.5Zm0-3A.5.5,0,0,1,5,6V5.5A.5.5,0,0,1,5.5,5H6A.5.5,0,0,1,6,6,.5.5,0,0,1,5.5,6.5ZM15,6H14a.5.5,0,0,1,0-1h1a.5.5,0,0,1,0,1ZM12,6H11a.5.5,0,0,1,0-1h1a.5.5,0,0,1,0,1ZM9,6H8A.5.5,0,0,1,8,5H9A.5.5,0,0,1,9,6Z"/></g></g></svg>