<svg xmlns="http://www.w3.org/2000/svg" viewBox="0 0 24 19"><g id="Laag_2" data-name="Laag 2"><g id="icons"><path d="M23.5,14H.5a.5.5,0,0,1-.5-.5V.5A.5.5,0,0,1,.5,0h23a.5.5,0,0,1,.5.5v13A.5.5,0,0,1,23.5,14ZM1,13H23V1H1Z"/><path d="M19.5,19H4.5a.5.5,0,0,1-.5-.5V16.93a.5.5,0,0,1,.5-.5c3.7,0,4.86-2.06,4.86-2.65a.5.5,0,0,1,1,0c0,1.22-1.58,3.45-5.36,3.64V18H19v-.58c-4-.19-5.57-2.61-5.57-3.64a.5.5,0,0,1,1,0c0,.54,1.32,2.65,5.07,2.65a.5.5,0,0,1,.5.5V18.5A.5.5,0,0,1,19.5,19Z"/><path d="M9.5,11a.54.54,0,0,1-.25-.06A.52.52,0,0,1,9,10.46V3.54a.52.52,0,0,1,.25-.44.5.5,0,0,1,.5,0l6,3.47a.49.49,0,0,1,0,.86l-6,3.47A.54.54,0,0,1,9.5,11ZM10,4.4V9.6L14.5,7Z"/></g></g></svg>