<svg xmlns="http://www.w3.org/2000/svg" viewBox="0 0 22.53 24"><g id="Laag_2" data-name="Laag 2"><g id="icons"><path d="M16,18.5H1a.5.5,0,0,1-.5-.5V9A.5.5,0,0,1,1,8.5H16a.5.5,0,0,1,.5.5v9A.5.5,0,0,1,16,18.5Zm-14.5-1h14v-8h-14Z"/><path d="M22,20.5a.45.45,0,0,1-.16,0l-6-2a.5.5,0,0,1-.34-.47V9a.5.5,0,0,1,.34-.47l6-2a.51.51,0,0,1,.45.06.52.52,0,0,1,.21.41V20a.49.49,0,0,1-.5.5Zm-5.5-2.86,5,1.67V7.69l-5,1.67Z"/><path d="M4.5,9A4.5,4.5,0,1,1,9,4.5,4.51,4.51,0,0,1,4.5,9Zm0-8A3.5,3.5,0,1,0,8,4.5,3.5,3.5,0,0,0,4.5,1Z"/><path d="M12.5,9A4.5,4.5,0,1,1,17,4.5,4.51,4.51,0,0,1,12.5,9Zm0-8A3.5,3.5,0,1,0,16,4.5,3.5,3.5,0,0,0,12.5,1Z"/><path d="M1.19,24a.53.53,0,0,1-.4-.19.5.5,0,0,1,.09-.7l7.06-5.5a.49.49,0,0,1,.7.08.5.5,0,0,1-.08.7l-7.07,5.5A.43.43,0,0,1,1.19,24Z"/><path d="M16.31,24a.43.43,0,0,1-.3-.11l-7.07-5.5a.5.5,0,0,1-.08-.7.49.49,0,0,1,.7-.08l7.06,5.5a.5.5,0,0,1,.09.7A.53.53,0,0,1,16.31,24Z"/><path d="M9,24a.5.5,0,0,1-.5-.5v-5a.5.5,0,0,1,1,0v5A.5.5,0,0,1,9,24Z"/></g></g></svg>