<svg xmlns="http://www.w3.org/2000/svg" viewBox="0 0 23 23"><g id="Laag_2" data-name="Laag 2"><g id="icons"><path d="M11.5,23A11.5,11.5,0,1,1,23,11.5,11.51,11.51,0,0,1,11.5,23Zm0-22A10.5,10.5,0,1,0,22,11.5,10.51,10.51,0,0,0,11.5,1Z"/><path d="M11.75,3.52a.5.5,0,0,1-.5-.5V1a.5.5,0,0,1,.5-.5.5.5,0,0,1,.5.5V3A.5.5,0,0,1,11.75,3.52Z"/><path d="M11.75,22.52a.5.5,0,0,1-.5-.5V20a.5.5,0,0,1,.5-.5.5.5,0,0,1,.5.5v2A.5.5,0,0,1,11.75,22.52Z"/><path d="M3.25,12h-2a.5.5,0,0,1,0-1h2a.5.5,0,0,1,0,1Z"/><path d="M22.25,12h-2a.5.5,0,0,1,0-1h2a.5.5,0,0,1,0,1Z"/><path d="M11.47,15.4C8.9,15.4,7.1,11.26,7.1,9a4.38,4.38,0,0,1,8.75,0C15.85,11.26,14.05,15.4,11.47,15.4Zm0-9.75A3.37,3.37,0,0,0,8.1,9c0,2,1.63,5.38,3.37,5.38S14.85,11,14.85,9A3.37,3.37,0,0,0,11.47,5.65Z"/><path d="M6.75,18.52a.5.5,0,0,1-.5-.5V16.81A2.66,2.66,0,0,1,8.9,14h1.35a.5.5,0,0,1,0,1H8.9a1.66,1.66,0,0,0-1.65,1.79V18A.5.5,0,0,1,6.75,18.52Z"/><path d="M16.75,18.52a.5.5,0,0,1-.5-.5V16.81A1.71,1.71,0,0,0,14.55,15h-1.3a.5.5,0,0,1,0-1h1.3a2.72,2.72,0,0,1,2.7,2.79V18A.5.5,0,0,1,16.75,18.52Z"/></g></g></svg>