<?xml version="1.0" encoding="utf-8"?>
<!-- Generator: Adobe Illustrator 23.0.6, SVG Export Plug-In . SVG Version: 6.00 Build 0)  -->
<svg version="1.1" id="Laag_1" xmlns="http://www.w3.org/2000/svg" xmlns:xlink="http://www.w3.org/1999/xlink" x="0px" y="0px"
	 viewBox="0 0 44.3 47.5" style="enable-background:new 0 0 44.3 47.5;" xml:space="preserve">
<g id="Group_4267" transform="translate(-337.502 -10248.22)">
	<g id="Line_600">
		<path d="M340,10295.7c-0.6,0-1-0.4-1-1v-40.7c0-0.6,0.4-1,1-1s1,0.4,1,1v40.7C341,10295.3,340.6,10295.7,340,10295.7z"/>
	</g>
	<g id="Path_2919">
		<path d="M380.8,10285.5h-30.5c-0.6,0-1-0.4-1-1v-6.1c0-0.6,0.4-1,1-1s1,0.4,1,1v5.1h28.5v-20.4h-20.4c-0.6,0-1-0.4-1-1
			c0-0.6,0.4-1,1-1h21.4c0.6,0,1,0.4,1,1v22.4C381.8,10285.1,381.3,10285.5,380.8,10285.5z"/>
	</g>
	<g id="Rectangle_2602">
		<path d="M358.4,10279.4H340c-0.6,0-1-0.4-1-1v-22.4c0-0.6,0.4-1,1-1h18.3c0.6,0,1,0.4,1,1v22.4
			C359.4,10279,358.9,10279.4,358.4,10279.4z M341,10277.4h16.3v-20.4H341V10277.4z"/>
	</g>
	<g id="Line_601">
		<path d="M351.7,10283.9c-0.3,0-0.6-0.2-0.8-0.4c-0.3-0.5-0.2-1.1,0.3-1.4l6.6-4.5c0.5-0.3,1.1-0.2,1.4,0.3
			c0.3,0.5,0.2,1.1-0.3,1.4l-6.6,4.5C352.1,10283.9,351.9,10283.9,351.7,10283.9z"/>
	</g>
	<g id="Ellipse_489">
		<path d="M340.5,10254.2c-1.7,0-3-1.3-3-3s1.3-3,3-3s3,1.3,3,3S342.2,10254.2,340.5,10254.2z M340.5,10250.2c-0.6,0-1,0.4-1,1
			c0,0.6,0.4,1,1,1s1-0.4,1-1C341.5,10250.7,341.1,10250.2,340.5,10250.2z"/>
	</g>
	<g id="Group_4268" transform="translate(341.051 10257.044)">
		<g id="Rectangle_2603">
			<rect x="4.1" y="0" width="4.1" height="4.1"/>
			<path d="M8.6,4.6H3.6v-5.1h5.1V4.6z M4.6,3.6h3.1V0.5H4.6V3.6z"/>
		</g>
		<g id="Rectangle_2604">
			<rect x="12.2" y="0" width="4.1" height="4.1"/>
			<path d="M16.8,4.6h-5.1v-5.1h5.1V4.6z M12.7,3.6h3.1V0.5h-3.1V3.6z"/>
		</g>
		<g id="Rectangle_2605">
			<rect x="34.6" y="6.1" width="4.1" height="4.1"/>
			<path d="M39.2,10.7h-5.1V5.6h5.1V10.7z M35.1,9.7h3.1V6.6h-3.1V9.7z"/>
		</g>
		<g id="Rectangle_2606">
			<rect x="26.5" y="6.1" width="4.1" height="4.1"/>
			<path d="M31,10.7H26V5.6H31V10.7z M27,9.7H30V6.6H27V9.7z"/>
		</g>
		<g id="Rectangle_2607">
			<rect x="18.3" y="6.1" width="4.1" height="4.1"/>
			<path d="M22.9,10.7h-5.1V5.6h5.1V10.7z M18.8,9.7h3.1V6.6h-3.1V9.7z"/>
		</g>
		<g id="Rectangle_2608">
			<rect x="22.4" y="10.2" width="4.1" height="4.1"/>
			<path d="M27,14.8h-5.1V9.7H27V14.8z M22.9,13.8H26v-3.1h-3.1V13.8z"/>
		</g>
		<g id="Rectangle_2609">
			<rect x="30.5" y="10.2" width="4.1" height="4.1"/>
			<path d="M35.1,14.8H30V9.7h5.1V14.8z M31,13.8h3.1v-3.1H31V13.8z"/>
		</g>
		<g id="Rectangle_2610">
			<rect x="34.6" y="14.3" width="4.1" height="4.1"/>
			<path d="M39.2,18.8h-5.1v-5.1h5.1V18.8z M35.1,17.8h3.1v-3.1h-3.1V17.8z"/>
		</g>
		<g id="Rectangle_2611">
			<rect x="26.5" y="14.3" width="4.1" height="4.1"/>
			<path d="M31,18.8H26v-5.1H31V18.8z M27,17.8H30v-3.1H27V17.8z"/>
		</g>
		<g id="Rectangle_2612">
			<rect x="18.3" y="14.3" width="4.1" height="4.1"/>
			<path d="M22.9,18.8h-5.1v-5.1h5.1V18.8z M18.8,17.8h3.1v-3.1h-3.1V17.8z"/>
		</g>
		<g id="Rectangle_2613">
			<rect x="18.3" y="22.4" width="4.1" height="4.1"/>
			<path d="M22.9,27h-5.1v-5.1h5.1V27z M18.8,26h3.1v-3.1h-3.1V26z"/>
		</g>
		<g id="Rectangle_2614">
			<rect x="26.5" y="22.4" width="4.1" height="4.1"/>
			<path d="M31,27H26v-5.1H31V27z M27,26H30v-3.1H27V26z"/>
		</g>
		<g id="Rectangle_2615">
			<rect x="34.6" y="22.4" width="4.1" height="4.1"/>
			<path d="M39.2,27h-5.1v-5.1h5.1V27z M35.1,26h3.1v-3.1h-3.1V26z"/>
		</g>
		<g id="Rectangle_2616">
			<rect x="22.4" y="18.3" width="4.1" height="4.1"/>
			<path d="M27,22.9h-5.1v-5.1H27V22.9z M22.9,21.9H26v-3.1h-3.1V21.9z"/>
		</g>
		<g id="Rectangle_2617">
			<rect x="30.5" y="18.3" width="4.1" height="4.1"/>
			<path d="M35.1,22.9H30v-5.1h5.1V22.9z M31,21.9h3.1v-3.1H31V21.9z"/>
		</g>
		<g id="Rectangle_2618">
			<rect x="0" y="4.1" width="4.1" height="4.1"/>
			<path d="M4.6,8.6h-5.1V3.6h5.1V8.6z M0.5,7.6h3.1V4.6H0.5V7.6z"/>
		</g>
		<g id="Rectangle_2619">
			<rect x="8.1" y="4.1" width="4.1" height="4.1"/>
			<path d="M12.7,8.6H7.6V3.6h5.1V8.6z M8.6,7.6h3.1V4.6H8.6V7.6z"/>
		</g>
		<g id="Rectangle_2620">
			<rect x="4.1" y="8.1" width="4.1" height="4.1"/>
			<path d="M8.6,12.7H3.6V7.6h5.1V12.7z M4.6,11.7h3.1V8.6H4.6V11.7z"/>
		</g>
		<g id="Rectangle_2621">
			<rect x="12.2" y="8.1" width="4.1" height="4.1"/>
			<path d="M16.8,12.7h-5.1V7.6h5.1V12.7z M12.7,11.7h3.1V8.6h-3.1V11.7z"/>
		</g>
		<g id="Rectangle_2622">
			<rect x="0" y="12.2" width="4.1" height="4.1"/>
			<path d="M4.6,16.8h-5.1v-5.1h5.1V16.8z M0.5,15.8h3.1v-3.1H0.5V15.8z"/>
		</g>
		<g id="Rectangle_2623">
			<rect x="8.1" y="12.2" width="4.1" height="4.1"/>
			<path d="M12.7,16.8H7.6v-5.1h5.1V16.8z M8.6,15.8h3.1v-3.1H8.6V15.8z"/>
		</g>
		<g id="Rectangle_2624">
			<rect x="4.1" y="16.3" width="4.1" height="4.1"/>
			<path d="M8.6,20.9H3.6v-5.1h5.1V20.9z M4.6,19.9h3.1v-3.1H4.6V19.9z"/>
		</g>
		<g id="Rectangle_2625">
			<rect x="12.2" y="16.3" width="4.1" height="4.1"/>
			<path d="M16.8,20.9h-5.1v-5.1h5.1V20.9z M12.7,19.9h3.1v-3.1h-3.1V19.9z"/>
		</g>
	</g>
</g>
</svg>
