<svg xmlns="http://www.w3.org/2000/svg" viewBox="0 0 17.87 23.97"><g id="Laag_2" data-name="Laag 2"><g id="icons"><path d="M2,23.47a.5.5,0,0,1-.5-.5V3a.5.5,0,0,1,1,0V23A.5.5,0,0,1,2,23.47Z"/><path d="M1.72,3a1.5,1.5,0,1,1,1.5-1.5A1.5,1.5,0,0,1,1.72,3Zm0-2a.5.5,0,1,0,0,1,.5.5,0,1,0,0-1Z"/><path d="M3.5,24H.5a.5.5,0,0,1,0-1h3a.5.5,0,0,1,0,1Z"/><path d="M2,13a.52.52,0,0,1-.29-.09.49.49,0,0,1-.21-.41v-9a.51.51,0,0,1,.19-.39A.49.49,0,0,1,2.11,3L17.48,6.48a.5.5,0,0,1,.06,1L2.17,12.93A.51.51,0,0,1,2,13ZM2.5,4.1v7.65L15.59,7.08Z"/></g></g></svg>