<svg xmlns="http://www.w3.org/2000/svg" viewBox="0 0 37.87 31.63"><g id="Laag_2" data-name="Laag 2"><g id="Laag_1-2" data-name="Laag 1"><path d="M36.87,0H1A1,1,0,0,0,0,1V30.63a1,1,0,0,0,1,1H36.87a1,1,0,0,0,1-1V1A1,1,0,0,0,36.87,0Zm-1,2V6.24H2V2ZM2,29.63V8.24H35.87v8.47a1.37,1.37,0,0,0-.13-.2,1,1,0,0,0-1.42,0l-1.73,1.69A5.67,5.67,0,1,0,34,21.88,5.52,5.52,0,0,0,33.63,20l2.09-2a1.21,1.21,0,0,0,.15-.22V29.63Zm24.55-7,1.56,1.43a1,1,0,0,0,.67.27,1,1,0,0,0,.7-.29L32,21.62c0,.09,0,.17,0,.26a3.72,3.72,0,1,1-.82-2.28l-2.39,2.34-.86-.79a1,1,0,1,0-1.35,1.47Z"/><path d="M4.61,5A1.28,1.28,0,1,0,3.33,3.75,1.28,1.28,0,0,0,4.61,5Zm0-1.56a.28.28,0,0,1,.28.27.28.28,0,1,1-.56,0A.28.28,0,0,1,4.61,3.48Z"/><path d="M7.73,5a1.28,1.28,0,1,0,0-2.56A1.28,1.28,0,1,0,7.73,5Zm0-1.56A.28.28,0,0,1,8,3.75.29.29,0,0,1,7.73,4a.28.28,0,0,1-.28-.29A.27.27,0,0,1,7.73,3.48Z"/><path d="M10.85,5a1.28,1.28,0,1,0,0-2.56,1.28,1.28,0,1,0,0,2.56Zm0-1.56a.28.28,0,0,1,.28.27.29.29,0,0,1-.28.29.28.28,0,0,1-.28-.29A.27.27,0,0,1,10.85,3.48Z"/></g></g></svg>