<?xml version="1.0" encoding="utf-8"?>
<!-- Generator: Adobe Illustrator 23.1.1, SVG Export Plug-In . SVG Version: 6.00 Build 0)  -->
<svg version="1.1" id="Layer_1" xmlns="http://www.w3.org/2000/svg" xmlns:xlink="http://www.w3.org/1999/xlink" x="0px" y="0px"
	 viewBox="0 0 71.2 60" style="enable-background:new 0 0 71.2 60;" xml:space="preserve">
<g id="Group_3764" transform="translate(-837.5 -2601.667)">
	<g id="Group_3763" transform="translate(838.5 2602.667)">
		<g id="Group_3762" transform="translate(51.308 24.538)">
			<path d="M16.9,34H1c-0.8,0-1.5-0.7-1.5-1.5V1c0-0.8,0.7-1.5,1.5-1.5h15.9c0.8,0,1.5,0.7,1.5,1.5v31.5C18.3,33.3,17.7,34,16.9,34z
				 M1,0.5C0.7,0.5,0.5,0.7,0.5,1v31.5C0.5,32.7,0.7,33,1,33h15.9c0.3,0,0.5-0.2,0.5-0.5V1c0-0.3-0.2-0.5-0.5-0.5H1z"/>
			<rect x="1.1" y="4" width="15.6" height="1"/>
			<rect x="1.1" y="26.3" width="15.6" height="1"/>
		</g>
		<path d="M50.2,47.3H2.7c-2.4,0-3.2-2.5-3.2-4.6V3c0-2.4,1-3.5,3.2-3.5h57C61.9-0.5,63,0.7,63,3v20.4h-1V3c0-1.8-0.7-2.5-2.2-2.5
			h-57C1.1,0.5,0.5,1.2,0.5,3v39.7c0,1.7,0.6,3.6,2.2,3.6h47.5V47.3z"/>
		<rect x="1.1" y="6.2" width="60.2" height="1"/>
		<rect x="1.1" y="37.4" width="49.1" height="1"/>
		<path d="M39.9,58.5H22.1l2.6-12.2h12.7L39.9,58.5z M23.3,57.5h15.4l-2.2-10.2H25.5L23.3,57.5z"/>
	</g>
	<rect x="857.5" y="2660.2" width="22.3" height="1"/>
</g>
</svg>
