<svg xmlns="http://www.w3.org/2000/svg" width="71.154" height="60" viewBox="0 0 71.154 60">
  <g id="Group_3764" data-name="Group 3764" transform="translate(-837.5 -2601.667)">
    <g id="Group_3763" data-name="Group 3763" transform="translate(838.5 2602.667)">
      <g id="Group_3762" data-name="Group 3762" transform="translate(51.308 24.538)">
        <path id="Rectangle_2418" data-name="Rectangle 2418" d="M.976,0H16.87a.977.977,0,0,1,.977.977V32.485a.976.976,0,0,1-.976.976H.977A.977.977,0,0,1,0,32.485V.976A.976.976,0,0,1,.976,0Z" fill="none" stroke="inherit" stroke-linecap="round" stroke-linejoin="round" stroke-width="2"/>
        <line id="Line_577" data-name="Line 577" x2="15.615" transform="translate(1.115 4.462)" fill="none" stroke="inherit" stroke-linecap="round" stroke-linejoin="round" stroke-width="2"/>
        <line id="Line_578" data-name="Line 578" x2="15.615" transform="translate(1.115 26.769)" fill="none" stroke="inherit" stroke-linecap="round" stroke-linejoin="round" stroke-width="2"/>
      </g>
      <path id="Path_2170" data-name="Path 2170" d="M888.692,2649.513H841.2c-1.968,0-2.7-2.153-2.7-4.12v-39.721c0-1.967.734-3,2.7-3h57.012c1.963,0,2.748,1.038,2.748,3v20.418" transform="translate(-838.5 -2602.667)" fill="none" stroke="inherit" stroke-linecap="round" stroke-linejoin="round" stroke-width="2"/>
      <line id="Line_579" data-name="Line 579" x2="60.231" transform="translate(1.115 6.692)" fill="none" stroke="inherit" stroke-linecap="round" stroke-linejoin="round" stroke-width="2"/>
      <line id="Line_580" data-name="Line 580" x2="49.077" transform="translate(1.115 37.923)" fill="none" stroke="inherit" stroke-linecap="round" stroke-linejoin="round" stroke-width="2"/>
      <path id="Path_2171" data-name="Path 2171" d="M865.3,2634.821H848.67l2.374-11.154h11.877Z" transform="translate(-825.983 -2576.821)" fill="none" stroke="inherit" stroke-linecap="round" stroke-linejoin="round" stroke-width="2"/>
    </g>
    <line id="Line_581" data-name="Line 581" x2="22.308" transform="translate(857.462 2660.667)" fill="none" stroke="inherit" stroke-linecap="round" stroke-linejoin="round" stroke-width="2"/>
  </g>
</svg>
