<svg xmlns="http://www.w3.org/2000/svg" viewBox="0 0 47.38 36.82"><g id="Laag_2" data-name="Laag 2"><g id="Laag_1-2" data-name="Laag 1"><g id="Group_2414" data-name="Group 2414"><path d="M31.73,0H1A1,1,0,0,0,0,1V26.38a1,1,0,0,0,1,1H31.73a1,1,0,0,0,1-1V1A1,1,0,0,0,31.73,0Zm-1,2V5.34H2V2ZM2,25.38v-18H30.73v18Z"/><path d="M4.08,4.54A1.17,1.17,0,1,0,2.91,3.37,1.17,1.17,0,0,0,4.08,4.54Zm0-1.34a.18.18,0,0,1,.17.17c0,.19-.34.19-.34,0A.18.18,0,0,1,4.08,3.2Z"/><path d="M6.75,4.54a1.17,1.17,0,0,0,0-2.34,1.17,1.17,0,0,0,0,2.34Zm0-1.34a.18.18,0,0,1,.17.17c0,.19-.34.19-.34,0A.18.18,0,0,1,6.75,3.2Z"/><path d="M9.42,4.54A1.17,1.17,0,1,0,8.26,3.37,1.17,1.17,0,0,0,9.42,4.54Zm0-1.34a.17.17,0,0,1,.17.17c0,.19-.33.19-.33,0A.17.17,0,0,1,9.42,3.2Z"/><g id="Group_2382" data-name="Group 2382"><path id="Path_1729" data-name="Path 1729" d="M36.11,10.18a10.8,10.8,0,1,1-15.28,0l0,0A10.86,10.86,0,0,1,36.11,10.18Z" style="fill:#fff"/><path d="M28.48,29.63A11.8,11.8,0,0,1,20.12,9.5a11.92,11.92,0,0,1,16.69,0h0A11.8,11.8,0,0,1,28.5,29.63Zm0-21.56a9.76,9.76,0,0,0-6.91,16.7,9.68,9.68,0,0,0,6.91,2.86h0a9.7,9.7,0,0,0,6.92-2.88A9.76,9.76,0,0,0,28.48,8.07Z"/><path d="M46.66,32.5,37.18,23l-3.58,3.6,9.47,9.51a2.46,2.46,0,0,0,3.48,0l.11-.11A2.47,2.47,0,0,0,46.66,32.5Zm-1.41,2.07-.11.11a.46.46,0,0,1-.66,0l-8.06-8.1.77-.77,8.06,8.09A.47.47,0,0,1,45.25,34.57Z"/></g><g id="Group_2385" data-name="Group 2385"><g id="Group_2338" data-name="Group 2338"><path id="Path_1721" data-name="Path 1721" d="M11.27,12.73a.77.77,0,0,0-1,.36l-1,2.1-1.1-2.11a.76.76,0,0,0-1-.33.72.72,0,0,0-.34.35l-1,2.1-1.1-2.12a.77.77,0,1,0-1.36.71l1.8,3.48a.75.75,0,0,0,.68.42h0a.79.79,0,0,0,.68-.44l1-2.1,1.1,2.12a.76.76,0,0,0,.68.41h0a.75.75,0,0,0,.68-.43l1.68-3.49a.78.78,0,0,0-.35-1Z"/></g></g><g id="Group_2386" data-name="Group 2386"><g id="Group_2338-2" data-name="Group 2338-2"><path id="Path_1721-2" data-name="Path 1721-2" d="M20,12.73a.78.78,0,0,0-1,.36l-1,2.1-1.1-2.11a.77.77,0,0,0-1-.33.72.72,0,0,0-.34.35l-1,2.1-1.1-2.12a.77.77,0,1,0-1.36.71l1.8,3.48a.75.75,0,0,0,.68.42h0a.78.78,0,0,0,.68-.44l1-2.1,1.1,2.12a.78.78,0,0,0,.68.41h0a.76.76,0,0,0,.68-.43l1.67-3.49a.77.77,0,0,0-.35-1Z"/></g></g><g id="Group_2387" data-name="Group 2387"><g id="Group_2338-3" data-name="Group 2338-3"><path id="Path_1721-3" data-name="Path 1721-3" d="M28.64,12.73a.77.77,0,0,0-1,.36l-1,2.1-1.1-2.11a.76.76,0,0,0-1-.33.72.72,0,0,0-.34.35l-1,2.1L22,13.08a.78.78,0,0,0-1-.33.78.78,0,0,0-.33,1l1.8,3.48a.78.78,0,0,0,.69.42h0a.79.79,0,0,0,.68-.44l1-2.1L26,17.27a.76.76,0,0,0,.68.41h0a.76.76,0,0,0,.68-.43L29,13.76a.77.77,0,0,0-.35-1Z"/></g></g></g></g></g></svg>