<?xml version="1.0" encoding="utf-8"?>
<!-- Generator: Adobe Illustrator 23.1.1, SVG Export Plug-In . SVG Version: 6.00 Build 0)  -->
<svg version="1.1" id="Layer_1" xmlns="http://www.w3.org/2000/svg" xmlns:xlink="http://www.w3.org/1999/xlink" x="0px" y="0px"
	 viewBox="0 0 71.2 60" style="enable-background:new 0 0 71.2 60;" xml:space="preserve">
<g>
	<rect x="54.2" y="29.8" width="12.4" height="1.2"/>
	<rect x="5.1" y="7.5" width="54.5" height="1.8"/>
	<rect x="5.1" y="39.6" width="43.5" height="1.8"/>
	<path d="M68.1,24.2H64V4.8c0-2.8-1.5-4.4-4.2-4.4H4.6c-2.7,0-4.1,1.5-4.1,4.4v38.5c0,2.5,1.1,5.4,4.1,5.4h19.9l-1.7,8h-3.4v2.9H43
		v-2.9h-1.7l-1.6-8h8.9v-2.9h-44c-0.9,0-1.2-1.5-1.2-2.5V4.8c0-1.3,0.3-1.5,1.3-1.5H60c0.7,0,1.2,0.1,1.2,1.5v19.4h-8.4
		c-1.3,0-2.4,1.1-2.4,2.4v9.3v17.5v3.7c0,1.3,1.1,2.4,2.4,2.4h15.4c1.2,0,2.3-1,2.4-2.4V26.6C70.6,25.3,69.4,24.2,68.1,24.2z
		 M27.5,48.7h9.1l1.7,7.9H25.8L27.5,48.7z M67.6,56.7H53.2V27.1h14.5L67.6,56.7L67.6,56.7z"/>
	<rect x="54.2" y="51.6" width="12.4" height="1.2"/>
</g>
</svg>
