<svg id="whatsapp" xmlns="http://www.w3.org/2000/svg" xmlns:xlink="http://www.w3.org/1999/xlink" viewBox="0 0 19.766 19.927">
  <path id="Path_787" data-name="Path 787" d="M11.09.012A9.887,9.887,0,0,0,2.766,14.371L1.716,19.464a.385.385,0,0,0,.465.452l4.991-1.182A9.884,9.884,0,1,0,11.09.012Zm5.955,15.343a7.743,7.743,0,0,1-8.916,1.459l-.7-.346-3.06.725.644-3.127L4.676,13.4A7.745,7.745,0,0,1,6.1,4.411,7.738,7.738,0,1,1,17.045,15.355Z" transform="translate(-1.69 0)" fill="inherit"/>
  <path id="Path_788" data-name="Path 788" d="M114.356,114.324l-1.914-.55a.713.713,0,0,0-.706.186l-.468.477a.7.7,0,0,1-.758.16,10.22,10.22,0,0,1-3.3-2.907.7.7,0,0,1,.055-.773l.409-.529a.713.713,0,0,0,.088-.725l-.805-1.822a.714.714,0,0,0-1.115-.255,3.22,3.22,0,0,0-1.245,1.9c-.136,1.341.439,3.032,2.615,5.062,2.513,2.345,4.525,2.655,5.835,2.338a3.22,3.22,0,0,0,1.712-1.492A.714.714,0,0,0,114.356,114.324Z" transform="translate(-99.677 -102.298)" fill="inherit"/>
</svg>
