<?xml version="1.0" encoding="utf-8"?>
<!-- Generator: Adobe Illustrator 23.0.6, SVG Export Plug-In . SVG Version: 6.00 Build 0)  -->
<svg version="1.1" id="Laag_1" xmlns="http://www.w3.org/2000/svg" xmlns:xlink="http://www.w3.org/1999/xlink" x="0px" y="0px"
	 viewBox="0 0 51 51" style="enable-background:new 0 0 51 51;" xml:space="preserve">
<g>
	<path d="M32,15.1c-5.7-3.5-13.2-1.7-16.6,4c-2.4,4-2.3,8.9,0.1,12.8l0.3,0.5l-1.2,4.2l4.3-1.1l0.4,0.3c5.7,3.5,13.2,1.7,16.6-4
		C39.5,26,37.7,18.6,32,15.1z M33.2,29.1L33,29.8c-0.2,0.8-0.6,1.5-1.3,1.9c-1,0.6-2.3,0.8-3.4,0.4c-3.4-1-6.3-3.1-8.3-6
		c-1.2-1.4-1.8-3.3-1.5-5.2c0.2-0.9,0.7-1.6,1.4-2.2c0.2-0.2,0.5-0.3,0.8-0.3l0.9,0.1c0.2,0,0.4,0.1,0.4,0.3l1.4,3.2
		c0.1,0.2,0,0.4-0.1,0.5l-1.2,1.4c-0.1,0.1-0.1,0.3,0,0.4c1.2,2.1,3,3.7,5.3,4.5c0.1,0,0.3,0,0.4-0.1l1.3-1.6
		c0.1-0.2,0.4-0.2,0.6-0.1l3.2,1.5C33.1,28.7,33.2,28.9,33.2,29.1z"/>
	<path d="M25.5,0C11.4,0-0.1,11.5-0.1,25.6c0,14.2,11.5,25.6,25.6,25.6c14.2,0,25.6-11.5,25.6-25.6C51.2,11.5,39.7,0,25.5,0z
		 M33.1,38c-4.5,2.6-10,2.7-14.5,0.1l-7.5,1.9l2-7.3c-4.1-6.9-1.8-15.9,5.2-19.9s15.9-1.8,19.9,5.2C42.4,25,40.1,33.9,33.1,38z"/>
</g>
</svg>
