<svg xmlns="http://www.w3.org/2000/svg" viewBox="0 0 23 23"><g id="Laag_2" data-name="Laag 2"><g id="icons"><path d="M21,16.42H2a.5.5,0,0,1-.5-.5v-14a.5.5,0,0,1,.5-.5H21a.5.5,0,0,1,.5.5v14A.5.5,0,0,1,21,16.42Zm-18.5-1h18v-13H2.5Z"/><path d="M22.5,16.42H.5a.5.5,0,0,1-.5-.5.5.5,0,0,1,.5-.5h22a.5.5,0,0,1,.5.5A.5.5,0,0,1,22.5,16.42Z"/><path d="M1.3,23a.79.79,0,0,1-.2,0,.51.51,0,0,1-.25-.67l3-6.58a.5.5,0,1,1,.91.41l-3,6.59A.5.5,0,0,1,1.3,23Z"/><path d="M10.58,2.42a.46.46,0,0,1-.2,0,.49.49,0,0,1-.25-.66L10.76.29A.51.51,0,0,1,11.43,0a.51.51,0,0,1,.25.67L11,2.12A.51.51,0,0,1,10.58,2.42Z"/><path d="M21.14,23a.51.51,0,0,1-.46-.29l-3-6.59a.5.5,0,0,1,.25-.66.52.52,0,0,1,.67.25l3,6.58a.51.51,0,0,1-.25.67A.65.65,0,0,1,21.14,23Z"/><path d="M11.86,2.41a.52.52,0,0,1-.46-.29L10.76.71A.51.51,0,0,1,11,0a.51.51,0,0,1,.67.25l.63,1.41a.51.51,0,0,1-.25.67A.45.45,0,0,1,11.86,2.41Z"/><path d="M18.22,14.42H13a.5.5,0,0,1-.5-.5V8.42a.5.5,0,0,1,.86-.35l5.22,5.5a.5.5,0,0,1-.36.85Zm-4.72-1h3.56L13.5,9.67Z"/></g></g></svg>