<svg xmlns="http://www.w3.org/2000/svg" width="29.232" height="20.596" viewBox="0 0 29.232 20.596">
  <g id="Group_42" data-name="Group 42" transform="translate(0.002 0)">
    <path id="Exclusion_2" data-name="Exclusion 2" d="M15054.01,18412.422c-.092,0-9.171-.008-11.418-.613a3.672,3.672,0,0,1-2.588-2.6,41.392,41.392,0,0,1,0-14.164,3.672,3.672,0,0,1,2.588-2.6c2.246-.607,11.326-.615,11.418-.615s9.176.008,11.423.615a3.672,3.672,0,0,1,2.583,2.6,41.392,41.392,0,0,1,0,14.164,3.672,3.672,0,0,1-2.583,2.6C15063.185,18412.414,15054.1,18412.422,15054.01,18412.422Zm-2.99-14.643h0v8.691l7.645-4.344-7.645-4.348Z" transform="translate(-15039.396 -18391.826)" fill="inherit"/>
  </g>
</svg>
