<svg xmlns="http://www.w3.org/2000/svg" viewBox="0 0 22.4 22.91"><g id="Laag_2" data-name="Laag 2"><g id="icons"><path d="M8.5,17A8.5,8.5,0,0,1,0,8.5,8.5,8.5,0,0,1,8.5,0,8.5,8.5,0,0,1,17,8.5,8.5,8.5,0,0,1,8.5,17Zm0-16A7.51,7.51,0,0,0,1,8.5,7.51,7.51,0,0,0,8.5,16,7.51,7.51,0,0,0,16,8.5,7.51,7.51,0,0,0,8.5,1Z"/><path d="M8.72,12.46a.5.5,0,0,1-.5-.5V5a.5.5,0,1,1,1,0v7A.5.5,0,0,1,8.72,12.46Z"/><path d="M12.22,9h-7a.5.5,0,0,1-.5-.5.5.5,0,0,1,.5-.5h7a.5.5,0,0,1,.5.5A.5.5,0,0,1,12.22,9Z"/><path d="M20.72,22.91a1.55,1.55,0,0,1-1.13-.47L12.68,15.5,15,13.16l6.92,6.94a1.62,1.62,0,0,1,0,2.27l-.08.08A1.58,1.58,0,0,1,20.72,22.91ZM14.09,15.5l6.21,6.24a.62.62,0,0,0,.84,0l.08-.08a.59.59,0,0,0,0-.85L15,14.58Z"/></g></g></svg>