<?xml version="1.0" encoding="utf-8"?>
<!-- Generator: Adobe Illustrator 23.0.6, SVG Export Plug-In . SVG Version: 6.00 Build 0)  -->
<svg version="1.1" id="Laag_1" xmlns="http://www.w3.org/2000/svg" xmlns:xlink="http://www.w3.org/1999/xlink" x="0px" y="0px"
	 viewBox="0 0 65.4 65.4" style="enable-background:new 0 0 65.4 65.4;" xml:space="preserve">
<g id="Group_3767" transform="translate(-151 -8394.167)">
	<g id="Group_3769" transform="translate(152 8395.167)">
		<g id="Group_3767-2" transform="translate(0 31.719)">
			<g id="Line_589">
				<path d="M63.4,1H43.8c-0.6,0-1-0.4-1-1s0.4-1,1-1h19.7c0.6,0,1,0.4,1,1S64,1,63.4,1z"/>
			</g>
			<g id="Line_590">
				<path d="M19.7,1H0c-0.6,0-1-0.4-1-1s0.4-1,1-1h19.7c0.6,0,1,0.4,1,1S20.2,1,19.7,1z"/>
			</g>
		</g>
		<g id="Group_3768" transform="translate(31.719)">
			<g id="Line_591">
				<path d="M0,20.7c-0.6,0-1-0.4-1-1V0c0-0.6,0.4-1,1-1s1,0.4,1,1v19.7C1,20.2,0.6,20.7,0,20.7z"/>
			</g>
			<g id="Line_592">
				<path d="M0,64.4c-0.6,0-1-0.4-1-1V43.8c0-0.6,0.4-1,1-1s1,0.4,1,1v19.7C1,64,0.6,64.4,0,64.4z"/>
			</g>
		</g>
	</g>
	<g id="Ellipse_444">
		<path d="M183.7,8430.6c-2.1,0-3.7-1.7-3.7-3.7c0-2.1,1.7-3.7,3.7-3.7c2.1,0,3.7,1.7,3.7,3.7
			C187.5,8428.9,185.8,8430.6,183.7,8430.6z M183.7,8425.2c-1,0-1.7,0.8-1.7,1.7s0.8,1.7,1.7,1.7c1,0,1.7-0.8,1.7-1.7
			S184.7,8425.2,183.7,8425.2z"/>
	</g>
	<g id="Ellipse_445">
		<path d="M183.7,8445.9c-10.5,0-19-8.5-19-19c0-10.5,8.5-19,19-19s19,8.5,19,19C202.8,8437.4,194.2,8445.9,183.7,8445.9z
			 M183.7,8409.9c-9.4,0-17,7.6-17,17s7.6,17,17,17c9.4,0,17-7.6,17-17S193.1,8409.9,183.7,8409.9z"/>
	</g>
	<g id="Path_2175">
		<path d="M183.7,8454.2c-15,0-27.3-12.2-27.3-27.3s12.2-27.3,27.3-27.3c0,0,0,0,0,0c15,0,27.3,12.2,27.3,27.3v0
			c0,7.3-2.8,14.1-8,19.3S191,8454.2,183.7,8454.2z M183.7,8401.6C183.7,8401.6,183.7,8401.6,183.7,8401.6c-6.8,0-13.1,2.6-17.9,7.4
			c-4.8,4.8-7.4,11.1-7.4,17.9c0,6.8,2.6,13.1,7.4,17.9c4.8,4.8,11.1,7.4,17.9,7.4c0,0,0,0,0,0c6.8,0,13.1-2.6,17.9-7.4
			s7.4-11.1,7.4-17.9v0c0-6.8-2.6-13.1-7.4-17.9C196.8,8404.2,190.5,8401.6,183.7,8401.6z"/>
	</g>
</g>
</svg>
