<svg xmlns="http://www.w3.org/2000/svg" viewBox="0 0 626.15 401.7"><g id="Laag_2" data-name="Laag 2"><g id="Laag_1-2" data-name="Laag 1"><path d="M236.44,173.61l-1,1.17c-.5.56-1.94,2-3.93,3.93-7.46,7.33-23,22.57-26.36,29.66-2.2,4.64-2.89,7.23-3.08,11.57q-.33,3.62,1.44,5.57c1.43,1.56,3.89,2.36,7.31,2.36a30.64,30.64,0,0,0,6.29-.74c12.84-2.7,23-9.68,33.07-17.21,3.44-2.56,6.7-5.37,9.86-8.08l2.68-2.3,1.5-1.26-.54,1.88c0,.08-2.28,8.13-3.16,11.68l-.05.2a3,3,0,0,0,.41,2.61A3.26,3.26,0,0,0,263,216c1.27.11,2.83-.78,4.21-1.66.13-.09.38-.23.71-.42,7.3-4.1,10.43-7.84,9.32-11.13-1-2.9.32-5.26,1.7-7.76l.26-.48s3.58-6.56,5.18-9.43,3.54-6.57,5.19-9.72l.85-1.62a4.29,4.29,0,0,0-.59-4.51,8.35,8.35,0,0,0-5.64-2,7.42,7.42,0,0,0-5.36,2.18s-17.06,17.72-21.11,22c-8.39,8.76-18.59,14.37-28.37,19.12-1.86.91-4.61,2.11-6.88,2.11h0a3.58,3.58,0,0,1-3.26-1.56c-3.1-4.91,7.44-15.29,13.1-20.88.86-.84,1.56-1.54,2-2,1.4-1.48,4.49-4.57,7.47-7.56,3.2-3.2,6.51-6.51,7.21-7.32a55.77,55.77,0,0,0,5.05-6.43c1.06-1.67,1.22-3.47.42-4.58s-2-1.5-3.94-1.5a34,34,0,0,0-6.15.87,31.27,31.27,0,0,1-5.81.84h-.27a15.48,15.48,0,0,1-4-.91,18.26,18.26,0,0,0-4.69-1.06,16,16,0,0,0-8.33,1.45c-12.83,5.55-28.66,30-29.7,31.58a13.18,13.18,0,0,0-1.07,3.14c-.1.84.07,2.89,1.3,3.51a5.94,5.94,0,0,0,2.72.67c4.89,0,9.64-6,11.66-8.53l.38-.48c.46-.61,11.5-15.17,17.46-18.72l.16-.07a8.08,8.08,0,0,1,2.89.25,28.81,28.81,0,0,0,5.53.62,18.67,18.67,0,0,0,2.26-.13Z"/><path d="M448.13,0c-7.94,0-15.37,3.43-22.73,10.48C417.53,18,393.58,41,365.88,139.05c-1.55,5.49-3.18,11.12-4.87,17-2.51,8.66-5.1,17.61-7.78,27.29-5.27,19.1-9.82,36-13.88,51.64-2.15,8.27-4.51,20.8-3,22.74a3.35,3.35,0,0,0,2.8,1.45c4.89,0,12.95-9.13,16.89-17.29,21.83-45.24,28-46.59,31.3-47.31a7.75,7.75,0,0,1,1.69-.19c4.82,0,7.19,4.87,9.69,10,2.81,5.78,5.7,11.75,12.21,12.3,1.26.11,2.5.16,3.7.16a38,38,0,0,0,19.67-5.51,62.12,62.12,0,0,0,20-18.29,9.27,9.27,0,0,0,1.08-9.24,3.19,3.19,0,0,0-2.29-2c-.8,0-3.78,3-6.41,5.57-6.17,6.13-14.63,14.53-21.29,14.53h-.28c-5.52-.2-9.36-2.7-12.45-8.11l-.5-.93c-2.11-4-7.72-14.65-18.92-14.65a22.66,22.66,0,0,0-15.89,6.46A106.9,106.9,0,0,0,362,202.36l-1.93,2.77.86-3.27c29.79-113.08,49.72-150,53.41-156.31a108.14,108.14,0,0,1,9.72-14.09c7.7-9.33,14.68-14,20.91-13.71,12,.46,15.16,11.63,16,18.24,1.64,12.91-1.28,26.06-9.18,41.37a158.64,158.64,0,0,1-24.26,34.73c-1.56,1.69-4.81,4.8-8.56,8.4-8.62,8.24-24.64,23.58-24.14,26.52s1.06,3.05,1.6,3.05c1,0,3.43,0,10-5.27a264.67,264.67,0,0,0,34.92-34.17c18.28-21.26,30.59-48.32,33.16-59.91,3-13.34,2.53-24.22-1.33-34.26A25,25,0,0,0,458.33,1.82,31.1,31.1,0,0,0,448.13,0"/><path d="M293.28,216.59c-3.73,0-62.69,27.4-77.7,39-11.81,9.15-18.51,18.06-22.4,29.79a94.08,94.08,0,0,0-3.74,47c4.44,25.45,15.47,44.57,32.79,56.83,13.06,9.24,27.36,12.52,35.64,12.52h.83c15.92,0,33.71-3.86,45.11-32.46,8.4-21.5,16.19-69.41,21.93-134.89.11-1.2.19-2.12.24-2.72a162.48,162.48,0,0,1,6.6-32.36,40.45,40.45,0,0,0,1.52-5.91,4.87,4.87,0,0,0-1-4c-1-1.08-2.34-1.43-4.47-1.14a19.77,19.77,0,0,0-3.65,1c-.88.3-1.8.6-2.82.84-5.71,1.3-9.46.87-10.92-1.27a5.52,5.52,0,0,1-.59-4.93c1.38-3.88,7.2-7.73,16.84-11.15l.3-.1c.42-.16.86-.3,1.31-.45,2.73-.93,5.54-1.89,6.3-4,1-2.77.71-4.61-.92-5.79-.58-.42-2.34-1.4-6.07-1.4a38.12,38.12,0,0,0-13.22,2.9c-17.59,7-20.37,23.71-20.8,28.67-.3,3.51.9,8.9,3.72,12a7.24,7.24,0,0,0,6.06,2.49,20.46,20.46,0,0,0,5.15-1.46,7.92,7.92,0,0,1,2.06-.64h.21l.25.15c.41.32.52.4-2,36.11l-.52,7.16c-.8,11.34-2.07,24.11-3.41,37.62-.71,7.13-1.44,14.49-2.09,21.58-1.27,13.79-4.25,29.14-9.1,46.94-3.53,13-14.87,24.9-26.36,27.77a46.34,46.34,0,0,1-11.6,1.62c-13.8,0-26.92-7.78-39-23.13-5.79-7.35-19.87-32.54-15.65-60.41,3.51-23.18,17.84-37.08,29.24-44.65a384.92,384.92,0,0,1,52.7-29c6.3-2.94,11.74-5.48,11.86-6.43a4.72,4.72,0,0,0-.92-2.72,2.29,2.29,0,0,0-1.68-.89"/><path d="M296.62,145.68a10.22,10.22,0,0,0-7.59,2.77,11.89,11.89,0,0,0-3,7.64,3.3,3.3,0,0,0,.8,2c1.31,1.38,4.31,2.11,6.48,2.11a5.33,5.33,0,0,0,2.7-.58c3.76-2.2,6.76-4.08,9.44-5.92a4.21,4.21,0,0,0,1.61-3.77c-.18-1.28-3-3.43-8.64-4.21-.6-.06-1.21-.09-1.79-.09"/><path d="M502.45,75c-2.83,0-7,1.37-10.81,7.89-4.21,7.2-11.1,30.28-19.4,65l-.4,1.67-.4.06c-7.48,1-13.94,1.87-15.05,4.31a1.2,1.2,0,0,0,.17,1.12c1.57,2.29,9.56,3.08,12.51,3.19l.72,0-.16.7c-1.2,5.26-2.25,10.1-3.21,14.83-2.63,13-4.85,26.22-7,39-2.08,8.92-4.24,23.61-1.18,25.23a6.08,6.08,0,0,0,2.81.77c2.87,0,4.9-2.63,6.38-4.56l.5-.64c5.39-6.79,7.08-22.79,8.73-38.26,1.13-10.77,2.32-21.91,4.74-30,.52-1.73,1.69-7,1.7-7.1l.1-.43.44,0c.64,0,63.65-4.54,75.33-5.22,13.58-.8,52.46-3.37,58.24-3.93s7.61-1.06,8.63-2.34c.53-1.41.46-2.63-1.41-4.29a32.49,32.49,0,0,0-8-5,52.17,52.17,0,0,0-10.59-3.75,27.52,27.52,0,0,0-5.44-.43c-10.1,0-26.52,3-36.33,4.75-1.91.34-3.6.65-5,.88-3.63.63-5.75,1-7.59,1.36-3.2.6-5.52,1-13.36,2.22-9.6,1.47-32.81,4.13-52,6.27l-.85.1.21-.83c3.74-15.57,7.5-29.78,11.48-43.45.14-.48,3.36-12,9.54-17.58,2.78-2.53,4.3-4.66,3.3-7.48-.51-1.42-3.53-4.08-7.51-4.08"/><path d="M198.41,44.73c-2.35,4.64-13.6,20.29-25.88,32.39-.2.2-20.45,20.17-30.71,29.46-13.24,12-38.49,31.36-41.57,32l-1,.19.36-1c.11-.32.32-.94.62-1.8,1.72-5.08,5.76-17,9.12-22.68,7.73-13.11,19.16-30.33,39.24-47.29C169,48.73,184.13,39.58,193.67,38.78c2.88-.25,4.19.86,4.75,1.78a4.31,4.31,0,0,1,0,4.17M150.88,163.66h1c18.43,0,29.4,9,30.36,14,2.81,14.68-46.27,38-65.4,44.34C96.24,228.9,70.44,232.86,66,232.86a1.94,1.94,0,0,1-.92-.14l-.25-.13-.06-.27c-.08-.41-.26-1.26,13.3-37.15,6.31-16.69,13.54-35.55,13.65-35.74l.72-.27c12.1,4.28,50.79,4.5,58.42,4.5M215.31,24.32c-4.12-4.39-11.63-5.37-21.72-2.77-14.07,3.63-25.08,12.28-35.72,20.65l-3,2.33c-16.25,12.67-39.3,41.29-41.6,44.17l.16.55-1-.11-.18-.12a11.44,11.44,0,0,0-5.91-2c-2.72,0-9,1.65-10.74,15.92-.14,1.14-2.26,12.91-4,17.11-.79,1.89-4.69,10-9.63,20.17-7.86,16.27-18.63,38.55-22,46.58A452.68,452.68,0,0,0,43.81,231c-1.17,3.93-4.22,6-10.2,6.88l-1.6.25,1.07-1.23c1-1.13,2-2.31,3-3.45l.74-.83c5.13-5.84,4.54-6.7,3.56-8.13l-.18-.27a2.85,2.85,0,0,0-2.55-1c-6.35,0-20,8.24-27,13.11A28.31,28.31,0,0,0,3,244c-3.2,5.33-3.87,10.16-1.95,14,.59,1.19,2.84,2,5.48,2a12.58,12.58,0,0,0,1.5-.09l1.47-.18c7-.86,13.56-1.67,22.61-3.21a12.11,12.11,0,0,1,2-.19,3.73,3.73,0,0,1,3.23,1.25,3,3,0,0,1,.31,2.57,11.84,11.84,0,0,1-.25,1.37,9.12,9.12,0,0,0-.19,3.93c.48,2.32,3.52,2.88,4.65,2.89l.07.61v-.6c2.25,0,6.85-1.72,12.37-13.18.9-1.86,1.67-2.8,4.86-3.39.25,0,25.11-4.57,34.16-6.73,14.89-3.57,30.78-9.27,48.6-17.42,44.07-20.17,57.1-49.58,57.2-49.86,2.48-6.81,1.68-12.54-2.46-17.53a28.69,28.69,0,0,0-11.95-8.58c-12.9-5-26.31-5.81-39.29-6.61l-13-.76c-4.79-.27-14.52-1.11-14.62-1.12l-1.39-.12,1-.92c2.83-2.49,5.69-4.94,8.55-7.39l.89-.77c5.53-4.74,11.24-9.63,16.67-14.67,11.43-10.6,26.45-24.66,41.33-39.43C197.85,67,206.46,56.26,212.83,45l.42-.73c2-3.57,4.58-8,4.92-13.32a10.1,10.1,0,0,0-2.86-6.64"/></g></g></svg>